<svg width="64" height="64" viewBox="0 0 64 64" fill="none" xmlns="http://www.w3.org/2000/svg">
<g clip-path="url(#clip0_81_13)">
<mask id="mask0_81_13" style="mask-type:luminance" maskUnits="userSpaceOnUse" x="0" y="0" width="64" height="64">
<path d="M32 0C49.6719 0 64 14.3281 64 32C64 49.6719 49.6719 64 32 64C14.3281 64 0 49.6719 0 32C0 14.3281 14.3281 0 32 0Z" fill="white"/>
</mask>
<g mask="url(#mask0_81_13)">
<path d="M64 0H0V64H64V0Z" fill="black"/>
</g>
<mask id="mask1_81_13" style="mask-type:luminance" maskUnits="userSpaceOnUse" x="26" y="14" width="12" height="14">
<path d="M26 14H38V28H26V14Z" fill="white"/>
</mask>
<g mask="url(#mask1_81_13)">
<mask id="mask2_81_13" style="mask-type:luminance" maskUnits="userSpaceOnUse" x="0" y="0" width="64" height="64">
<path d="M32 0C49.6719 0 64 14.3281 64 32C64 49.6719 49.6719 64 32 64C14.3281 64 0 49.6719 0 32C0 14.3281 14.3281 0 32 0Z" fill="white"/>
</mask>
<g mask="url(#mask2_81_13)">
<path d="M27.9766 16.7812L30.8438 26.1875C30.9219 26.4297 31.0704 26.6406 31.2735 26.7891C31.4766 26.9375 31.7266 27.0156 31.9766 27.0156C32.2266 27.0156 32.4766 26.9375 32.6797 26.7891C32.8829 26.6406 33.0313 26.4297 33.1094 26.1875L35.9844 16.7812C36.0391 16.6016 36.0469 16.4141 36.0157 16.2344C35.9844 16.0547 35.9141 15.8828 35.8047 15.7344C35.6954 15.5859 35.5469 15.4609 35.3829 15.375C35.2188 15.2969 35.0391 15.25 34.8516 15.25H29.1407C28.9532 15.2422 28.7657 15.2813 28.5938 15.3672C28.4219 15.4453 28.2735 15.5625 28.1641 15.7109C28.0469 15.8672 27.9688 16.0391 27.9376 16.2266C27.9063 16.4063 27.9219 16.6016 27.9766 16.7812Z" fill="white"/>
</g>
</g>
<mask id="mask3_81_13" style="mask-type:luminance" maskUnits="userSpaceOnUse" x="36" y="26" width="14" height="12">
<path d="M36 26H50V38H36V26Z" fill="white"/>
</mask>
<g mask="url(#mask3_81_13)">
<mask id="mask4_81_13" style="mask-type:luminance" maskUnits="userSpaceOnUse" x="0" y="0" width="64" height="64">
<path d="M32 0C49.6719 0 64 14.3281 64 32C64 49.6719 49.6719 64 32 64C14.3281 64 0 49.6719 0 32C0 14.3281 14.3281 0 32 0Z" fill="white"/>
</mask>
<g mask="url(#mask4_81_13)">
<path d="M47.2188 27.9922L37.8203 30.8751C37.5781 30.9454 37.3672 31.1016 37.2188 31.3047C37.0703 31.5079 36.9922 31.7501 36.9922 32.0079C36.9922 32.2579 37.0703 32.5001 37.2188 32.7032C37.3672 32.9063 37.5781 33.0626 37.8203 33.1329L47.2188 36.0079C47.3906 36.0626 47.5781 36.0782 47.7656 36.0469C47.9453 36.0157 48.1172 35.9376 48.2656 35.8282C48.4141 35.7188 48.5391 35.5782 48.625 35.4141C48.7031 35.2422 48.75 35.0626 48.75 34.8751V29.1251C48.75 28.9376 48.7031 28.7579 48.625 28.5938C48.5391 28.4219 48.4141 28.2813 48.2656 28.1719C48.1172 28.0626 47.9453 27.9844 47.7656 27.9532C47.5781 27.9219 47.3906 27.9376 47.2188 27.9922Z" fill="white"/>
</g>
</g>
<mask id="mask5_81_13" style="mask-type:luminance" maskUnits="userSpaceOnUse" x="26" y="36" width="12" height="14">
<path d="M26 36H38V50H26V36Z" fill="white"/>
</mask>
<g mask="url(#mask5_81_13)">
<mask id="mask6_81_13" style="mask-type:luminance" maskUnits="userSpaceOnUse" x="0" y="0" width="64" height="64">
<path d="M32 0C49.6719 0 64 14.3281 64 32C64 49.6719 49.6719 64 32 64C14.3281 64 0 49.6719 0 32C0 14.3281 14.3281 0 32 0Z" fill="white"/>
</mask>
<g mask="url(#mask6_81_13)">
<path d="M36.0157 47.2188L33.1407 37.8125C33.0626 37.5703 32.9141 37.3594 32.711 37.2109C32.5079 37.0625 32.2579 36.9844 32.0079 36.9844C31.7579 36.9844 31.5079 37.0625 31.3047 37.2109C31.1016 37.3594 30.9532 37.5703 30.8751 37.8125L27.9766 47.2188C27.9219 47.3984 27.9063 47.5859 27.9376 47.7656C27.9688 47.9531 28.0469 48.125 28.1563 48.2734C28.2657 48.4219 28.4063 48.5391 28.5704 48.625C28.7344 48.7109 28.9219 48.75 29.1094 48.75H34.8516C35.0391 48.75 35.2266 48.7109 35.3985 48.6328C35.5626 48.5547 35.711 48.4297 35.8282 48.2812C35.9376 48.1328 36.0157 47.9609 36.0469 47.7734C36.0782 47.5937 36.0704 47.3984 36.0157 47.2188Z" fill="white"/>
</g>
</g>
<mask id="mask7_81_13" style="mask-type:luminance" maskUnits="userSpaceOnUse" x="34" y="14" width="16" height="16">
<path d="M34 14H50V30H34V14Z" fill="white"/>
</mask>
<g mask="url(#mask7_81_13)">
<mask id="mask8_81_13" style="mask-type:luminance" maskUnits="userSpaceOnUse" x="0" y="0" width="64" height="64">
<path d="M32 0C49.6719 0 64 14.3281 64 32C64 49.6719 49.6719 64 32 64C14.3281 64 0 49.6719 0 32C0 14.3281 14.3281 0 32 0Z" fill="white"/>
</mask>
<g mask="url(#mask8_81_13)">
<path d="M36.8046 28.7891L48.1093 22.9375C48.3046 22.8359 48.4609 22.6797 48.5781 22.5C48.6874 22.3125 48.7499 22.1016 48.7499 21.8828V16.4375C48.7499 16.125 48.6249 15.8203 48.4062 15.6016C48.1796 15.375 47.8749 15.25 47.5624 15.25H42.1249C41.9062 15.25 41.6874 15.3047 41.5077 15.4219C41.3202 15.5312 41.1718 15.6953 41.0702 15.8906L35.2187 27.1953C35.1093 27.4141 35.0624 27.6719 35.1015 27.9141C35.1406 28.1641 35.2577 28.3906 35.4374 28.5703C35.6093 28.7422 35.8359 28.8594 36.0859 28.8984C36.3281 28.9453 36.5859 28.9063 36.8046 28.7891Z" fill="white"/>
</g>
</g>
<mask id="mask9_81_13" style="mask-type:luminance" maskUnits="userSpaceOnUse" x="14" y="26" width="14" height="12">
<path d="M14 26H28V38H14V26Z" fill="white"/>
</mask>
<g mask="url(#mask9_81_13)">
<mask id="mask10_81_13" style="mask-type:luminance" maskUnits="userSpaceOnUse" x="0" y="0" width="64" height="64">
<path d="M32 0C49.6719 0 64 14.3281 64 32C64 49.6719 49.6719 64 32 64C14.3281 64 0 49.6719 0 32C0 14.3281 14.3281 0 32 0Z" fill="white"/>
</mask>
<g mask="url(#mask10_81_13)">
<path d="M26.2031 30.8751L16.7969 27.9922C16.625 27.9376 16.4375 27.9219 16.25 27.9532C16.0703 27.9844 15.8984 28.0626 15.75 28.1719C15.6016 28.2813 15.4844 28.4219 15.3984 28.5938C15.3125 28.7579 15.2734 28.9376 15.2734 29.1251V34.8751C15.2734 35.0626 15.3125 35.2422 15.3984 35.4063C15.4844 35.5782 15.6016 35.7188 15.75 35.8282C15.8984 35.9376 16.0703 36.0157 16.25 36.0469C16.4375 36.0782 16.625 36.0626 16.7969 36.0079L26.2031 33.1329C26.4453 33.0626 26.6562 32.9063 26.8047 32.7032C26.9531 32.5001 27.0312 32.2579 27.0312 32.0079C27.0312 31.7501 26.9531 31.5079 26.8047 31.3047C26.6562 31.1016 26.4453 30.9454 26.2031 30.8751Z" fill="white"/>
</g>
</g>
<mask id="mask11_81_13" style="mask-type:luminance" maskUnits="userSpaceOnUse" x="34" y="34" width="16" height="16">
<path d="M34 34H50V50H34V34Z" fill="white"/>
</mask>
<g mask="url(#mask11_81_13)">
<mask id="mask12_81_13" style="mask-type:luminance" maskUnits="userSpaceOnUse" x="0" y="0" width="64" height="64">
<path d="M32 0C49.6719 0 64 14.3281 64 32C64 49.6719 49.6719 64 32 64C14.3281 64 0 49.6719 0 32C0 14.3281 14.3281 0 32 0Z" fill="white"/>
</mask>
<g mask="url(#mask12_81_13)">
<path d="M35.2188 36.8047L41.0703 48.1094C41.1719 48.3047 41.3203 48.4688 41.5078 48.5781C41.6953 48.6953 41.9063 48.75 42.125 48.75H47.5625C47.875 48.75 48.1797 48.625 48.4063 48.3984C48.625 48.1797 48.75 47.875 48.75 47.5625V42.1563C48.75 41.9375 48.6875 41.7266 48.5782 41.5391C48.461 41.3594 48.3047 41.2031 48.1094 41.1016L36.8047 35.25C36.586 35.1484 36.3438 35.1094 36.1016 35.1484C35.8672 35.1875 35.6407 35.3047 35.4688 35.4766C35.2969 35.6406 35.1797 35.8594 35.1328 36.1016C35.0938 36.3359 35.1172 36.5859 35.2188 36.8047Z" fill="white"/>
</g>
</g>
<mask id="mask13_81_13" style="mask-type:luminance" maskUnits="userSpaceOnUse" x="14" y="14" width="16" height="16">
<path d="M14 14H30V30H14V14Z" fill="white"/>
</mask>
<g mask="url(#mask13_81_13)">
<mask id="mask14_81_13" style="mask-type:luminance" maskUnits="userSpaceOnUse" x="0" y="0" width="64" height="64">
<path d="M32 0C49.6719 0 64 14.3281 64 32C64 49.6719 49.6719 64 32 64C14.3281 64 0 49.6719 0 32C0 14.3281 14.3281 0 32 0Z" fill="white"/>
</mask>
<g mask="url(#mask14_81_13)">
<path d="M28.8047 27.1953L22.9531 15.8906C22.8516 15.6953 22.7031 15.5391 22.5156 15.4219C22.3281 15.3125 22.1172 15.25 21.8984 15.25H16.4531C16.1406 15.25 15.8359 15.375 15.6172 15.6016C15.3984 15.8203 15.2734 16.125 15.2734 16.4375V21.8828C15.2734 22.1016 15.3359 22.3125 15.4453 22.5C15.5625 22.6875 15.7187 22.8359 15.9141 22.9375L27.2109 28.7891C27.4297 28.9063 27.6875 28.9453 27.9297 28.9062C28.1797 28.8672 28.4141 28.75 28.5859 28.5781C28.7656 28.3984 28.8828 28.1641 28.9219 27.9219C28.9609 27.6719 28.9219 27.4141 28.8047 27.1953Z" fill="white"/>
</g>
</g>
<mask id="mask15_81_13" style="mask-type:luminance" maskUnits="userSpaceOnUse" x="14" y="34" width="16" height="16">
<path d="M14 34H30V50H14V34Z" fill="white"/>
</mask>
<g mask="url(#mask15_81_13)">
<mask id="mask16_81_13" style="mask-type:luminance" maskUnits="userSpaceOnUse" x="0" y="0" width="64" height="64">
<path d="M32 0C49.6719 0 64 14.3281 64 32C64 49.6719 49.6719 64 32 64C14.3281 64 0 49.6719 0 32C0 14.3281 14.3281 0 32 0Z" fill="white"/>
</mask>
<g mask="url(#mask16_81_13)">
<path d="M27.1875 35.2109L15.8906 41.0625C15.6953 41.1641 15.5391 41.3125 15.4219 41.5C15.3125 41.6875 15.25 41.8984 15.25 42.1172V47.5625C15.25 47.875 15.375 48.1797 15.5938 48.3984C15.8125 48.625 16.1172 48.75 16.4297 48.75H21.875C22.0938 48.75 22.3047 48.6875 22.4922 48.5781C22.6797 48.4609 22.8281 48.3047 22.9297 48.1094L28.7812 36.8047C28.8984 36.5859 28.9375 36.3281 28.8984 36.0781C28.8594 35.8359 28.7422 35.6016 28.5625 35.4219C28.3906 35.25 28.1562 35.1328 27.9062 35.0937C27.6641 35.0547 27.4062 35.0937 27.1875 35.2109Z" fill="white"/>
</g>
</g>
</g>
<defs>
<clipPath id="clip0_81_13">
<rect width="64" height="64" fill="white"/>
</clipPath>
</defs>
</svg>
