<svg width="40" height="40" viewBox="0 0 40 40" fill="none" xmlns="http://www.w3.org/2000/svg">
<path d="M0 20C0 8.95431 8.95431 0 20 0V0C31.0457 0 40 8.95431 40 20V20C40 31.0457 31.0457 40 20 40V40C8.95431 40 0 31.0457 0 20V20Z" fill="white"/>
<path d="M20 39.5C9.23045 39.5 0.5 30.7696 0.5 20C0.5 9.23045 9.23045 0.5 20 0.5C30.7696 0.5 39.5 9.23045 39.5 20C39.5 30.7696 30.7696 39.5 20 39.5Z" stroke="black" stroke-opacity="0.08"/>
<path fill-rule="evenodd" clip-rule="evenodd" d="M9.21528 15.4029C8.9533 15.6125 8.9533 16.011 9.21528 16.2206L10.574 17.3075C10.7664 17.4614 11.04 17.4604 11.2312 17.3051L18.9815 11.0079C19.1039 10.9085 19.1749 10.7592 19.1749 10.6016V8.52451C19.1749 8.08553 18.6671 7.84147 18.3243 8.11571L9.21528 15.4029ZM11.5556 21.7529C11.3644 21.9082 11.0908 21.9092 10.8984 21.7554L9.64996 20.7566C9.38925 20.548 9.38775 20.152 9.64687 19.9414L18.3212 12.8935C18.6634 12.6155 19.1749 12.859 19.1749 13.2998V15.313C19.1749 15.4706 19.1039 15.6199 18.9815 15.7193L11.5556 21.7529ZM9.9713 24.3892C9.71217 24.5997 9.71367 24.9958 9.97438 25.2043L18.3243 31.8843C18.6671 32.1585 19.1749 31.9145 19.1749 31.4755V28.3766V24.1882V18.0112C19.1749 17.5704 18.6634 17.3269 18.3212 17.6049L9.9713 24.3892ZM20.222 31.301C20.222 31.7674 20.7859 32.001 21.1157 31.6712L32.4165 20.3702C32.621 20.1657 32.621 19.8343 32.4165 19.6299L21.1157 8.32908C20.7859 7.99928 20.222 8.23286 20.222 8.69928V31.301Z" fill="#202723"/>
</svg>
