<svg width="40" height="40" viewBox="0 0 40 40" fill="none" xmlns="http://www.w3.org/2000/svg">
<rect width="40" height="40" rx="20" fill="white"/>
<rect x="0.5" y="0.5" width="39" height="39" rx="19.5" stroke="black" stroke-opacity="0.08"/>
<path d="M28.5129 14.2992C27.6727 14.2952 26.8326 14.2975 25.9925 14.2981C25.1853 14.2981 25.0828 14.3853 24.9439 15.1891C24.934 15.2457 24.9294 15.303 24.9196 15.3596C24.6776 16.7591 24.439 18.1598 24.1924 19.5588C23.8843 21.308 23.5757 23.0572 23.2572 24.8046C23.0766 25.7962 22.9591 26.8011 22.6991 27.7771C22.4281 28.794 21.4751 29.4846 20.4381 29.4563C19.3559 29.4274 18.4799 28.7028 18.257 27.6395C18.1348 27.0565 18.0248 26.4705 17.92 25.8834C17.5708 23.9204 17.2263 21.9569 16.8807 19.9934C16.6641 18.7631 16.4511 17.5323 16.2322 16.3026C16.1459 15.8178 16.0591 15.3324 15.9525 14.8511C15.8911 14.5743 15.7753 14.3067 15.4268 14.305C14.3794 14.2981 13.3325 14.294 12.2851 14.3073C11.9609 14.3114 11.7901 14.52 11.7872 14.8482C11.786 15.0077 11.8034 15.1689 11.8306 15.3261C12.0888 16.8048 12.3534 18.2823 12.6111 19.7605C12.8629 21.2051 13.1056 22.6515 13.358 24.0961C13.6597 25.8233 13.9683 27.5488 14.2717 29.276C14.4795 30.4611 14.6758 31.6481 14.8918 32.8315C14.9954 33.4006 15.1321 33.499 15.7012 33.4996C17.2894 33.5008 18.8776 33.4996 20.4659 33.4996C22.0888 33.4996 23.7112 33.5008 25.3341 33.499C25.8095 33.4984 25.9647 33.3679 26.066 32.9003C26.0828 32.8217 26.0967 32.7425 26.11 32.6634C26.3624 31.2187 26.6132 29.7735 26.8668 28.3295C27.1221 26.8733 27.3815 25.4177 27.6363 23.9615C27.9385 22.2348 28.2408 20.5077 28.5389 18.7799C28.7555 17.5265 28.9767 16.2743 29.1718 15.0181C29.2505 14.5119 29.0357 14.3009 28.5117 14.2986L28.5129 14.2992Z" fill="black"/>
<path d="M22.7009 12.5196C22.0041 11.8913 21.0403 11.4053 20.8694 10.7937C20.7576 10.3938 22.1616 9.97939 21.1996 9.37889C20.8955 9.18872 20.6893 8.9483 20.6522 8.72173C20.5503 8.10389 21.4058 8.11139 21.6641 7.66461C21.8946 7.2658 21.5372 6.40637 21.1185 6.21333C20.4228 5.89255 19.7788 6.30234 19.3385 6.16593C18.9128 6.03416 18.8931 5.96538 18.4471 5.95613C17.664 5.93937 16.944 6.86124 16.2403 6.51792C15.7509 6.27806 15.6402 5.53768 15.0002 5.50126C14.7332 5.48624 14.4777 5.60645 14.2959 5.80123C13.9315 6.19136 13.8829 6.73293 13.8777 7.24444C13.873 7.67906 13.8916 8.12584 13.7462 8.5362C13.5759 9.01533 13.1855 9.43493 13.1953 9.94355C13.2029 10.3591 13.485 10.7238 13.8151 10.977C13.8655 11.0157 13.9176 11.0521 13.9703 11.0879C13.734 11.1931 13.5805 11.4683 13.4461 11.707C12.849 12.7652 11.8718 13.605 10.7337 14.0373C10.3769 14.1726 10.001 14.2714 9.68122 14.4795C9.36148 14.687 9.09967 15.0384 9.13096 15.4181C9.15527 15.7117 9.34411 15.9614 9.46113 16.2313C9.70207 16.7891 9.73741 17.5722 10.3473 17.7294C10.6329 17.8028 10.9329 17.6936 11.131 17.4757C11.5591 17.0047 11.5428 16.3914 11.6506 15.8175C11.7328 15.3788 11.9257 14.9136 12.3294 14.7205C12.5043 14.6367 12.7024 14.6136 12.8802 14.5373C13.5817 14.2368 13.7456 13.2577 14.4065 12.8756C14.7534 12.6751 15.2093 12.6941 15.7572 12.9016C15.2081 12.6225 14.8948 12.1745 14.2854 12.1745C13.8771 12.1745 13.646 12.6282 13.4525 13.0877C13.1519 13.801 12.6138 14.2518 12.0908 14.3338C11.8851 14.3662 11.8435 14.1708 12.0068 14.135C12.5785 14.0084 13.0019 13.5363 13.2272 12.8063C13.4502 12.0838 13.8406 11.7336 14.1238 11.6382C14.5386 11.4989 15.0071 11.6752 15.3292 11.9711C15.3309 11.9728 15.3327 11.9746 15.335 11.9763C15.3999 12.0364 15.496 11.9514 15.4415 11.8809C15.1861 11.5515 14.9457 11.4665 14.7928 11.1064C14.6272 10.7152 14.8415 10.4302 15.0442 10.0568C15.1334 9.89212 15.2585 9.74647 15.3211 9.56962C15.4172 9.29853 15.4195 9.00437 15.3755 8.71999C15.3298 8.42523 15.0697 8.32408 15.0697 8.53564C15.0697 8.76335 15.0755 9.04192 14.9399 9.28468C14.7586 9.6095 14.5588 9.3939 14.6156 9.2107C14.7175 8.87952 14.845 8.52754 14.593 8.31193C14.1846 7.96285 14.2072 7.81894 14.1702 7.51491C14.1308 7.18952 14.1389 6.6786 14.3045 6.27517C14.4986 5.80296 14.9874 5.66541 15.3251 5.94052C15.7329 6.27228 15.9443 6.65201 15.96 6.81556C16.0387 7.63976 15.028 7.67445 15.4126 8.05822C15.6333 8.27843 16.6255 7.76866 17.2562 7.96805C17.3935 8.01139 17.5366 8.0854 17.5725 8.16342C17.7567 8.56453 16.9446 8.30558 17.5644 8.96333C17.9021 9.32226 17.1375 9.17602 16.4946 9.4812C15.8916 9.76786 15.6385 9.99212 15.5296 10.5423C15.3923 11.2353 16.0955 11.1221 16.2652 11.0989C17.1329 10.981 16.1922 11.9543 16.0694 12.1624C15.9518 12.3612 15.9953 12.6942 16.2235 12.7271C16.4535 12.7594 16.578 12.5941 16.7767 12.7126C16.874 12.771 16.9058 12.8427 16.8983 12.9213C16.885 13.0617 17.0031 13.1796 17.1439 13.1715H17.1485C17.207 13.1681 17.2614 13.1432 17.3026 13.101C17.4132 12.9872 17.6084 12.7386 17.5018 12.478C17.4074 12.2474 16.706 11.9659 16.8201 11.5578C16.8902 11.3059 17.3234 11.1608 17.9803 11.2105C18.4043 11.2428 18.7553 11.1787 19.0368 10.8429C19.2928 10.5366 19.3606 10.0147 19.9595 10.0147C20.8161 10.0147 20.7883 10.7984 20.731 10.7776C20.2242 10.5915 19.9508 10.8735 19.9432 10.8666C19.6125 10.5695 19.2731 10.7574 19.0188 11.1215C18.6058 11.7122 18.0868 11.4134 17.8778 11.8017C17.6994 12.1329 17.9942 12.4942 17.803 12.8184C17.7619 12.8877 17.6258 12.9947 17.6692 13.053C17.7329 13.1392 18.1662 12.7837 18.6278 12.9716C19.1404 13.1802 19.2123 12.7456 19.1839 12.3335C19.1677 12.0982 19.477 12.0272 19.704 12.0757C20.0684 12.1537 20.3498 12.5213 20.4304 13.0201C20.4686 13.2571 20.4356 13.5172 20.5618 13.7212C20.6499 13.8639 20.808 13.9622 20.8654 14.12C20.9285 14.294 20.8509 14.4835 20.8069 14.6633C20.5838 15.5742 21.4058 16.5689 22.3453 16.5619C23.2848 16.555 24.248 15.3268 24.4432 14.4096C24.9413 12.0636 23.2321 12.9987 22.6992 12.519L22.7009 12.5196ZM20.552 7.72763C19.3131 7.95186 18.4894 9.08124 18.3388 10.2794C18.2763 10.7747 17.8262 10.6325 17.8737 10.1274C17.9461 9.3598 18.9163 8.32118 19.5001 7.92645C20.2908 7.39181 20.1182 7.17564 19.7422 7.19588C19.2632 7.22131 18.8427 7.63572 18.545 7.5184C18.2316 7.39529 18.505 7.02828 18.2438 6.84679C17.8789 6.59304 17.1931 6.97105 17.3408 6.65491C17.4717 6.37574 18.3689 6.43411 18.6203 6.64912C18.8479 6.8439 18.9962 7.1242 19.4289 6.9647C19.8158 6.82195 20.3469 6.20408 20.8468 6.33701C21.4793 6.50521 21.6427 7.52995 20.552 7.72763ZM23.2633 13.6952C23.0235 13.8576 22.5885 13.6686 22.3702 13.4507C22.0365 13.1178 21.9607 13.2097 21.9966 13.479C22.0904 14.1732 21.3727 14.0639 21.4961 15.0072C21.506 15.08 21.4017 15.1054 21.3785 15.0355C21.214 14.5333 21.4005 14.4275 21.4005 14.0258C21.4005 13.1629 22.025 13.9385 21.4486 12.9351C21.2083 12.5167 21.6618 12.3358 21.8193 12.5901C22.0377 12.9421 23.2014 13.8183 23.1961 12.9375C23.1961 12.8716 23.2888 12.8554 23.3103 12.9178C23.4122 13.2137 23.5448 13.5039 23.2628 13.6946L23.2633 13.6952Z" fill="black"/>
<path d="M19.0812 13.5269C18.7453 13.2465 18.4151 13.2535 18.151 13.3379C17.7983 13.4506 17.6401 13.7407 17.6094 13.7939C17.3708 14.2025 17.3401 14.695 17.3152 15.1672C17.2532 16.3416 17.3494 18.6072 17.1293 18.583C16.9196 18.5598 17.0047 17.3496 16.9462 16.3913C16.791 13.865 16.5755 13.9395 16.2651 13.6991C15.9297 13.439 15.3464 13.3402 15.0058 13.4627C15.0047 13.4627 15.0035 13.4639 15.0024 13.4639C14.7857 13.5234 14.8535 13.643 15.0597 13.6661C15.3661 13.6997 15.5804 13.8927 15.6111 14.0782C15.6569 14.3557 15.4785 14.6129 14.9224 14.5389C14.4689 14.4782 14.0356 14.562 14.0356 15.0134C14.0634 15.7538 14.5465 16.3346 14.5245 17.1507C14.5164 17.438 14.4678 17.7536 14.6311 17.9905C14.7846 18.2131 15.0736 18.2888 15.296 18.4419C15.5723 18.6327 15.7403 18.939 15.9413 19.2089C16.1423 19.4783 16.4203 19.7343 16.7568 19.7372C17.1646 19.7407 17.4716 19.3829 17.84 19.2095C17.8938 19.1841 17.9442 19.1633 17.9946 19.1448C18.1307 19.0951 18.2199 18.9639 18.2234 18.8194C18.224 18.7922 18.224 18.765 18.2234 18.7408C18.2107 18.4529 18.1278 18.1738 18.0543 17.8958C17.9118 17.3548 17.8058 16.782 17.8921 16.2358C17.8979 16.1988 17.9518 16.2029 17.9518 16.2399C17.9547 16.8155 18.1035 17.3912 18.3827 17.8952C18.4505 18.0177 18.5512 18.1512 18.692 18.1489C18.7714 18.1477 18.8443 18.1004 18.8953 18.0397C19.061 17.8432 18.9972 17.5802 18.8895 17.3473C18.8026 17.16 18.6642 16.9022 18.5808 16.567C18.5721 16.5323 18.6213 16.5144 18.6376 16.5462C18.8663 16.9947 19.1733 17.2687 19.3419 17.338C19.449 17.382 19.5695 17.3212 19.5973 17.2091C19.756 16.5728 19.8945 15.9249 19.8435 15.2729C19.7856 14.536 19.6494 14.0014 19.0812 13.5269Z" fill="black"/>
<path d="M20.3979 19.4559C20.999 18.5992 21.6059 16.2573 20.2271 15.3404C20.1058 15.26 20.1688 15.6796 20.107 16.3129C20.065 16.7441 19.9262 17.1145 19.9962 17.1597C20.3273 17.375 20.2341 18.0522 19.8219 18.8823C19.1619 20.2107 18.2524 21.2913 17.2822 22.3066C17.3096 22.4629 17.3376 22.6192 17.365 22.7755C18.4477 21.7481 19.5443 20.6732 20.3985 19.4559H20.3979Z" fill="black"/>
<path d="M21.935 21.9278C23.3964 20.9768 25.342 20.9953 26.5503 20.7336C27.7586 20.4718 29.0428 20.1229 29.8375 19.2926C30.6687 18.4242 30.8453 17.1618 30.8679 16.0785C30.876 15.6885 30.8795 15.2927 30.8152 14.912C30.7897 14.7618 30.5372 14.7618 30.4908 14.912C30.1451 16.0392 29.5172 17.3508 28.7809 18.062C27.6549 19.1499 25.974 20.0628 24.1789 20.3615C21.8469 20.7497 20.2859 21.6776 19.8839 22.8869C19.5804 23.8009 20.2367 25.4366 22.1128 25.5412C21.9732 25.5845 21.8336 25.6301 21.6952 25.6787C20.4736 26.108 19.311 26.6805 18.1862 27.323C17.4621 27.7367 16.7537 28.1792 16.0558 28.6322C15.5154 28.9829 14.8979 29.3562 14.3262 29.626C13.5761 29.9795 12.9059 30.154 12.5931 29.8623C11.9698 29.281 12.5792 28.0215 13.78 26.5286C13.7377 26.2894 13.696 26.0502 13.6537 25.811C12.7767 26.7857 12.0394 27.8147 11.6154 28.8009C10.8444 30.5954 12.2821 32.0196 14.2856 30.5741C14.3464 30.5302 14.4073 30.4868 14.4681 30.4429C15.7644 29.5098 17.0289 28.6276 18.3102 27.8672C19.8538 26.9509 21.4212 26.212 23.0963 25.7734C23.6142 25.6377 24.1424 25.5302 24.6835 25.4556C25.6178 25.3274 26.5671 25.4071 27.3427 25.6573C28.1652 25.9225 28.7914 26.3795 28.9935 26.9856C29.3839 28.159 28.4815 29.4428 26.548 30.6613C26.5161 30.6815 26.4855 30.7 26.4542 30.7203C26.4159 30.9381 26.3783 31.1553 26.34 31.3731C28.6292 29.9304 30.4839 28.5652 30.236 27.167C30.05 26.1166 28.9483 25.4256 27.4342 25.1379C26.1993 24.9027 24.6904 24.9362 23.1803 25.2615C23.1265 25.2731 23.0726 25.2864 23.0193 25.2991C20.7146 25.3499 19.9864 23.1972 21.9367 21.929L21.935 21.9278Z" fill="black"/>
</svg>
