<svg width="40" height="40" viewBox="0 0 40 40" fill="none" xmlns="http://www.w3.org/2000/svg">
<rect width="40" height="40" rx="20" fill="black"/>
<path d="M19.9998 26.0007C23.3136 26.0007 25.9999 23.3143 25.9999 20.0006C25.9999 16.6868 23.3136 14.0005 19.9998 14.0005C16.6861 14.0005 13.9998 16.6868 13.9998 20.0006C13.9998 23.3143 16.6861 26.0007 19.9998 26.0007Z" fill="white"/>
<path d="M25.9999 14.0001C25.9999 10.688 23.3119 8 19.9998 8C16.6878 8 13.9998 10.688 13.9998 14.0001H25.9999Z" fill="white"/>
<path d="M13.9998 26C13.9998 29.312 16.6878 32.0001 19.9998 32.0001C23.3119 32.0001 25.9999 29.312 25.9999 26H13.9998Z" fill="white"/>
<path d="M26.0002 26.0007C29.3123 26.0007 32.0003 23.3126 32.0003 20.0006C32.0003 16.6885 29.3123 14.0005 26.0002 14.0005V26.0007Z" fill="white"/>
<path d="M13.9998 14.0005C10.6878 14.0005 7.99976 16.6885 7.99976 20.0006C7.99976 23.3126 10.6878 26.0007 13.9998 26.0007V14.0005Z" fill="white"/>
<path d="M13.9998 14.0001V8C10.6878 8 7.99976 10.688 7.99976 14.0001H13.9998Z" fill="white"/>
<path d="M26.0002 14.0001H32.0003C32.0003 10.688 29.3123 8 26.0002 8V14.0001Z" fill="white"/>
<path d="M26.0002 26V32.0001C29.3123 32.0001 32.0003 29.312 32.0003 26H26.0002Z" fill="white"/>
<path d="M13.9998 26H7.99976C7.99976 29.312 10.6878 32.0001 13.9998 32.0001V26Z" fill="white"/>
</svg>
