<svg width="24" height="24" viewBox="0 0 24 24" fill="none" xmlns="http://www.w3.org/2000/svg">
<g clip-path="url(#clip0_22774_3094)">
<rect width="24" height="24" rx="12" fill="white"/>
<path d="M7.06836 8.8916V16.221L11.9987 19.5275L16.9295 15.9725L7.06883 8.8916H7.06836ZM8.03445 15.7199V10.7455L15.278 15.9721L11.9982 18.3711L8.03398 15.7194L8.03445 15.7199Z" fill="url(#paint0_linear_22774_3094)"/>
<path d="M16.9295 15.1086V7.77922L11.9987 4.47266L7.06836 8.02766L16.929 15.1086H16.9295ZM15.9634 8.28031V13.2547L8.71977 8.02812L11.9991 5.62906L15.9634 8.28078V8.28031Z" fill="url(#paint1_linear_22774_3094)"/>
</g>
<rect x="0.48" y="0.48" width="23.04" height="23.04" rx="11.52" stroke="url(#paint2_linear_22774_3094)" stroke-width="0.96"/>
<defs>
<linearGradient id="paint0_linear_22774_3094" x1="6.15737" y1="2.85144" x2="17.4173" y2="3.24553" gradientUnits="userSpaceOnUse">
<stop stop-color="#F29AC4"/>
<stop offset="0.13" stop-color="#F2A9CB"/>
<stop offset="0.275" stop-color="#F2BAD5"/>
<stop offset="0.395" stop-color="#CDC6D7"/>
<stop offset="0.52" stop-color="#82D1D9"/>
<stop offset="0.66" stop-color="#09D4D7"/>
<stop offset="0.8" stop-color="#11BBCA"/>
<stop offset="1" stop-color="#17A0BF"/>
</linearGradient>
<linearGradient id="paint1_linear_22774_3094" x1="6.15737" y1="2.85144" x2="17.4173" y2="3.24553" gradientUnits="userSpaceOnUse">
<stop stop-color="#F29AC4"/>
<stop offset="0.13" stop-color="#F2A9CB"/>
<stop offset="0.275" stop-color="#F2BAD5"/>
<stop offset="0.395" stop-color="#CDC6D7"/>
<stop offset="0.52" stop-color="#82D1D9"/>
<stop offset="0.66" stop-color="#09D4D7"/>
<stop offset="0.8" stop-color="#11BBCA"/>
<stop offset="1" stop-color="#17A0BF"/>
</linearGradient>
<linearGradient id="paint2_linear_22774_3094" x1="-2.21717" y1="-2.5845" x2="25.1429" y2="-1.12253" gradientUnits="userSpaceOnUse">
<stop stop-color="#F29AC4"/>
<stop offset="0.13" stop-color="#F2A9CB"/>
<stop offset="0.275" stop-color="#F2BAD5"/>
<stop offset="0.395" stop-color="#CDC6D7"/>
<stop offset="0.52" stop-color="#82D1D9"/>
<stop offset="0.66" stop-color="#09D4D7"/>
<stop offset="0.8" stop-color="#11BBCA"/>
<stop offset="1" stop-color="#17A0BF"/>
</linearGradient>
<clipPath id="clip0_22774_3094">
<rect width="24" height="24" rx="12" fill="white"/>
</clipPath>
</defs>
</svg>
