<svg width="128" height="128" viewBox="0 0 128 128" fill="none" xmlns="http://www.w3.org/2000/svg">
<rect width="128" height="128" rx="64" fill="#001413"/>
<path fill-rule="evenodd" clip-rule="evenodd" d="M110.963 73.9698C111.643 70.7536 112 67.4185 112 64C112 37.4903 90.5097 16 64 16C37.4903 16 16 37.4903 16 64C16 67.4185 16.3574 70.7536 17.0368 73.9698H23.0088L48.696 48.2826H79.1679L104.872 73.9698H110.963ZM31.8657 99.657C26.3031 94.6408 21.9201 88.3413 19.1833 81.2251L26.4386 73.9698H101.421L108.781 81.3176C106.042 88.3959 101.673 94.6625 96.1343 99.657H91.6813L74.2682 82.2439H53.6128L36.1997 99.657H31.8657ZM91.7661 103.159C83.9281 108.727 74.3463 112 64 112C53.6242 112 44.0172 108.708 36.1668 103.111L45.1853 94.0927H82.6999L91.7661 103.159ZM87.665 39.9915H40.1322L51.9511 28.1725H75.8361L87.665 39.9915Z" fill="url(#paint0_linear_217_1588)"/>
<defs>
<linearGradient id="paint0_linear_217_1588" x1="16" y1="112" x2="110.137" y2="14.2062" gradientUnits="userSpaceOnUse">
<stop stop-color="#FFAC6A"/>
<stop offset="1" stop-color="#FFF372"/>
</linearGradient>
</defs>
</svg>
