<svg width="40" height="40" viewBox="0 0 40 40" fill="none" xmlns="http://www.w3.org/2000/svg">
    <rect width="40" height="40" rx="20" fill="#1F2925"/>
    <mask id="mask0_10825_54046" style="mask-type:luminance" maskUnits="userSpaceOnUse" x="8" y="9" width="24" height="20">
        <path d="M32 9.62939H8V28.4658H32V9.62939Z" fill="white"/>
    </mask>
    <g mask="url(#mask0_10825_54046)">
        <path d="M22.5323 9.62988H17.4662C16.8827 9.62988 16.351 9.96283 16.0978 10.4862L13.5078 15.8414C13.1838 16.5111 13.6736 17.288 14.4205 17.288H17.9156C18.4017 17.288 18.8448 17.0105 19.0562 16.5742L19.9993 14.6244L24.8312 24.6132L18.303 19.9063C18.0435 19.7197 17.7321 19.6188 17.4118 19.6188H12.6331C12.0495 19.6188 11.5179 19.9517 11.2646 20.4751L8.10119 27.0196C7.77713 27.6893 8.26703 28.4662 9.01393 28.4662H12.509C12.9951 28.4662 13.4382 28.1888 13.6496 27.7524L16.2181 22.4426L23.2944 27.8066C23.859 28.2342 24.5476 28.4662 25.2566 28.4662H30.9859C31.7328 28.4662 32.2227 27.6893 31.8987 27.0196L23.9008 10.4862C23.6476 9.96283 23.1159 9.62988 22.5323 9.62988Z" fill="#D7FE51"/>
    </g>
</svg>
