<svg width="40" height="40" viewBox="0 0 40 40" fill="none" xmlns="http://www.w3.org/2000/svg">
<rect width="40" height="40" rx="20" fill="#4B5CF0"/>
<path d="M30.0388 9.96387V29.9639H25.7322V19.5157H22.1879C21.7734 19.5157 21.3724 19.6762 21.0647 19.9438C20.8909 20.1043 20.757 20.2916 20.6636 20.5057C20.5698 20.7197 20.5162 20.9471 20.5162 21.1879V23.596C20.5162 24.2381 19.9946 24.7732 19.3394 24.7732H16.4905C15.8487 24.7732 15.3137 24.2515 15.3137 23.596V20.693C15.3137 20.0508 15.8353 19.5157 16.4905 19.5157H19.0585C19.4064 19.5157 19.7405 19.3953 19.9946 19.1679C20.1553 19.0341 20.2889 18.8602 20.3827 18.6595C20.476 18.4722 20.5162 18.2582 20.5162 18.0441V14.2716H10.1245V9.96387H30.0388Z" fill="white"/>
</svg>
