<svg width="40" height="40" viewBox="0 0 40 40" fill="none" xmlns="http://www.w3.org/2000/svg">
<rect width="40" height="40" rx="20" fill="white"/>
<rect x="0.5" y="0.5" width="39" height="39" rx="19.5" stroke="black" stroke-opacity="0.08"/>
<path d="M34.917 19.042C34.1397 11.6575 27.8793 6.12577 20.1858 5.9375H19.8137C12.1203 6.12577 5.85989 11.6575 5.08246 19.042C4.29819 26.5108 9.23819 32.1953 14.3728 34.0627C14.226 33.852 14.1236 33.698 14.0132 33.551C11.1676 29.7922 12.8055 24.2837 17.2743 22.5992C17.9208 22.3555 18.5582 22.267 19.0557 22.4652C19.6088 22.6867 20.0003 23.2072 20.0003 23.2072C20.2463 22.887 20.5707 22.632 20.944 22.4652C21.4413 22.2692 22.0822 22.3545 22.7253 22.5992C27.1942 24.2837 28.8275 29.7977 25.9865 33.551C25.8727 33.698 25.7747 33.852 25.6267 34.0627C30.7613 32.1953 35.7037 26.5108 34.917 19.042ZM20.006 22.041C18.7882 22.041 17.2628 22.3733 17.2628 22.3733L20.0277 21.1097L22.7753 22.3733C22.7753 22.3733 21.2297 22.041 20.006 22.041Z" fill="black"/>
</svg>
