<svg width="41" height="40" viewBox="0 0 41 40" fill="none" xmlns="http://www.w3.org/2000/svg">
<rect x="0.5" width="40" height="40" rx="20" fill="url(#paint0_linear_40001673_24633)"/>
<path d="M19.3179 13.5412C19.4779 13.1042 19.9148 12.8472 20.3142 13.0797C20.6764 13.297 20.7757 13.7679 20.8247 14.164C20.9718 15.7456 21.0009 17.3753 21.0321 18.9713C21.8711 18.9896 22.7338 19.0138 23.5556 19.0386C24.4704 19.0969 25.4216 19.0713 26.3212 19.2733C27.3483 19.5665 27.1754 20.6106 26.1671 20.7765C24.814 20.9739 23.6759 20.9576 22.2679 21.0078C21.8522 21.0184 21.4415 21.0301 21.033 21.0392C21.0148 21.8761 20.9907 22.7364 20.966 23.556C20.9076 24.4709 20.9333 25.422 20.7312 26.3217C20.4381 27.3488 19.3939 27.1759 19.228 26.1675C19.0306 24.8145 19.0469 23.6763 18.9967 22.2683C18.9863 21.8551 18.9745 21.4467 18.9654 21.0406C18.8886 21.0382 18.8116 21.0355 18.7345 21.0324C17.7811 21.0067 16.872 20.9938 15.9244 20.9494C15.1369 20.8829 14.2991 20.9343 13.5408 20.6866C13.1038 20.5266 12.8468 20.0898 13.0793 19.6903C13.2966 19.3282 13.7675 19.2289 14.1636 19.1798C15.7428 19.0331 17.37 19.0036 18.9637 18.9726C18.9661 18.8935 18.9689 18.8142 18.9722 18.7349C18.9978 17.7815 19.0107 16.8724 19.0551 15.9249C19.1217 15.1373 19.0703 14.2995 19.3179 13.5412ZM14.8717 15.1114C15.6837 15.0728 16.4969 15.0402 16.4969 15.8088C16.4969 16.5073 15.7024 16.6241 15.7024 16.6241C14.0713 16.8578 11.386 17.3239 9.9938 17.9056C7.90025 18.7806 7.72777 19.6508 7.72777 20.0025C7.72777 20.3541 7.90025 21.2244 9.9938 22.0994C11.386 22.681 14.0713 23.1484 15.7024 23.3809C15.7024 23.3809 16.4969 23.4976 16.4969 24.1962C16.4969 24.9648 15.6825 24.9321 14.8717 24.8935C9.99257 24.6623 5.98147 22.6519 5.98145 19.9733C5.98145 17.2948 9.99257 15.3451 14.8717 15.1114ZM23.5072 15.8088C23.5072 15.0402 24.3204 15.0728 25.1325 15.1114C30.0116 15.3427 34.0227 17.2923 34.0227 19.9709V19.9733C34.0227 22.6519 30.0116 24.6623 25.1325 24.8935C24.3216 24.9321 23.5072 24.9648 23.5072 24.1962C23.5072 23.4976 24.3017 23.3809 24.3017 23.3809C25.9328 23.1484 28.6181 22.681 30.0103 22.0994C32.1039 21.2244 32.2763 20.3541 32.2763 20.0025C32.2763 19.6508 32.1039 18.7806 30.0103 17.9056C28.6181 17.3239 25.9328 16.8578 24.3017 16.6241C24.3017 16.6241 23.5072 16.5073 23.5072 15.8088Z" fill="#F8FBD3"/>
<defs>
<linearGradient id="paint0_linear_40001673_24633" x1="20.5" y1="0" x2="20.5" y2="40" gradientUnits="userSpaceOnUse">
<stop stop-color="#6585A0"/>
<stop offset="1" stop-color="#8897A3"/>
</linearGradient>
</defs>
</svg>
