<svg width="40" height="40" viewBox="0 0 40 40" fill="none" xmlns="http://www.w3.org/2000/svg">
<rect width="40" height="40" rx="20" fill="black"/>
<path fill-rule="evenodd" clip-rule="evenodd" d="M27.2713 21.7983C26.6141 26.6441 23.3328 30.6615 18.897 32.3887C23.6789 31.2852 27.4316 27.5116 28.4821 22.7323L27.9394 21.7983H27.2713ZM27.321 21.3825H28.1788L28.6024 22.1114C28.7173 21.426 28.7771 20.722 28.7771 20.004C28.7771 19.9201 28.7764 19.8364 28.7748 19.753C28.7423 19.7556 28.7095 19.7571 28.6765 19.7571H27.3897C27.3912 19.8392 27.392 19.9214 27.392 20.004C27.392 20.4694 27.3679 20.9293 27.321 21.3825ZM27.044 16.9763C26.9049 16.3825 26.7259 15.8038 26.5097 15.2435H27.8511C28.0782 15.8025 28.2664 16.3812 28.4126 16.9763H27.044ZM27.3757 19.3412C27.343 18.6776 27.2613 18.0267 27.1342 17.3923H28.5072C28.6398 18.0244 28.7254 18.6737 28.7598 19.3363C28.7321 19.3396 28.7043 19.3412 28.6765 19.3412H27.3757ZM27.6733 14.8276H26.3411C24.9421 11.5379 22.2495 8.92498 18.898 7.61963C22.8279 8.52687 26.0626 11.2376 27.6733 14.8276Z" fill="white"/>
<path fill-rule="evenodd" clip-rule="evenodd" d="M15.2526 17.0167V15.2435H8.55151V15.2425L7.37476 15.2407L8.40488 16.0605V24.6467H10.2611V21.0198H13.9198V19.2467H10.2611V17.0167H15.2526ZM21.0256 24.6467H23.0432L19.7343 15.2435H17.4341L17.4294 15.2569V15.2425L16.2527 15.2407L17.1773 15.9765L14.1387 24.6467H16.1429L16.7078 22.9542H20.4606L21.0256 24.6467ZM17.2996 21.2213L18.5909 17.3793L19.8822 21.2213L20.2102 22.0868L19.1729 21.2213H17.2996ZM32.6241 24.6467H30.0754L28.1788 21.3825H25.8136V24.6467H23.9574V16.1682L22.792 15.2407L23.9688 15.2425V15.2435H28.6765C30.4117 15.2435 31.8106 16.6406 31.8106 18.3599C31.8106 19.542 31.0708 20.6033 29.9948 21.1003L32.6241 24.6467ZM28.6765 16.9763H25.8136V19.7571H28.6765C29.3761 19.7571 29.9543 19.1391 29.9543 18.3599C29.9543 17.5809 29.3761 16.9763 28.6765 16.9763Z" fill="white"/>
</svg>
