<svg width="40" height="40" viewBox="0 0 40 40" fill="none" xmlns="http://www.w3.org/2000/svg">
<rect width="40" height="40" rx="20" fill="white"/>
<rect x="0.5" y="0.5" width="39" height="39" rx="19.5" stroke="black" stroke-opacity="0.08"/>
<path d="M27.9963 12.7995H27.7341C24.1386 12.7995 22.0037 15.0654 20.5431 17.0317C19.9813 17.7995 19.4569 18.586 18.97 19.3538C18.0337 20.8145 17.1348 22.1815 16.0861 23.174C14.9813 24.2227 13.5768 24.7845 12.0599 24.7845C10.824 24.747 9.66292 24.2227 8.8015 23.3426C7.94007 22.4437 7.47191 21.2639 7.47191 20.0279C7.47191 18.792 7.99625 17.5186 8.8764 16.6384C9.77528 15.7396 10.9738 15.2339 12.2659 15.2339C12.7903 15.2339 13.3895 15.3463 13.9888 15.5336C14.1011 15.571 14.1948 15.6647 14.2322 15.777C14.2697 15.9081 14.2509 16.0392 14.176 16.1328L11.0674 20.571C10.9738 20.7021 10.9551 20.8706 11.03 21.0205C11.1049 21.1703 11.2547 21.2452 11.4045 21.2452H13.1648C13.4082 21.2452 13.633 21.1328 13.764 20.9268L16.9663 16.3201C17.0974 16.1328 17.1723 15.9268 17.2285 15.7021C17.2659 15.4774 17.2659 15.2527 17.2285 15.0467C17.1723 14.822 17.0787 14.616 16.9663 14.4474C16.8352 14.2602 16.6667 14.1103 16.4794 13.998C16.3483 13.9231 16.2172 13.8482 16.0674 13.7733C14.8876 13.1366 13.5581 12.7995 12.2097 12.7995C10.2809 12.7995 8.48315 13.5486 7.1161 14.9156C5.76779 16.2639 5 18.1178 5 20.0279C5 21.9381 5.71161 23.6796 7.02247 25.0279C8.33333 26.395 10.0936 27.1628 11.9663 27.219C13.9888 27.219 15.7865 26.5261 17.4345 25.0841C18.8951 23.8107 20.0375 22.1441 20.9738 20.6834C21.7041 19.5411 22.397 18.4736 23.1461 17.5935C23.4082 17.2751 23.6704 17.013 23.9326 16.7695C25.0749 15.7021 26.2921 15.2152 27.7341 15.2152H27.9213C29.1573 15.2527 30.3184 15.7583 31.1798 16.6572C31.9101 17.425 32.397 18.4549 32.4906 19.5223C32.5094 19.6909 32.5281 19.8407 32.5281 20.0092C32.5281 21.2826 32.0225 22.4811 31.1236 23.38C30.2247 24.2789 29.0262 24.7845 27.7341 24.7845C27.0787 24.7845 26.4419 24.616 26.0112 24.4849C25.8989 24.4474 25.8052 24.3538 25.7678 24.2414C25.7303 24.1103 25.7491 23.9793 25.824 23.8669L28.9326 19.4661C29.0262 19.3351 29.0449 19.1665 28.97 19.0167C28.8951 18.8669 28.7453 18.792 28.5955 18.792H26.8352C26.5918 18.792 26.3858 18.9044 26.236 19.1103L23.0337 23.6796C22.9026 23.8669 22.8277 24.0729 22.7715 24.2976C22.7341 24.5223 22.7341 24.747 22.7715 24.953C22.8277 25.1778 22.9213 25.3837 23.0337 25.5523C23.1648 25.7396 23.3333 25.8894 23.5206 26.0017C23.6517 26.0766 23.7828 26.1515 23.9139 26.2264C25.0936 26.8631 26.4232 27.2002 27.7715 27.2002C29.7004 27.2002 31.5169 26.4512 32.8839 25.0841C34.2509 23.7171 35 21.9193 35 20.0092C35 18.0991 34.2697 16.3014 32.9775 14.9718C31.6667 13.6047 29.9064 12.8369 28.0337 12.7808L27.9963 12.7995Z" fill="#6666FE"/>
</svg>
