<svg width="400" height="400" viewBox="0 0 400 400" fill="none" xmlns="http://www.w3.org/2000/svg">
<path d="M200.497 398.981C310.405 398.981 399.502 309.884 399.502 199.976C399.502 90.0687 310.405 0.97113 200.497 0.97113C90.59 0.97113 1.49243 90.0687 1.49243 199.976C1.49243 309.884 90.59 398.981 200.497 398.981Z" fill="url(#paint0_linear_1895_894)"/>
<path fill-rule="evenodd" clip-rule="evenodd" d="M283.112 97.8615C284.404 98.9088 283.648 100.952 281.984 100.952H119.013C117.349 100.952 116.593 98.9088 117.886 97.8615C140.452 79.5831 169.196 68.6334 200.497 68.6334C231.801 68.6334 260.543 79.5831 283.112 97.8615Z" fill="white"/>
<path fill-rule="evenodd" clip-rule="evenodd" d="M149.406 235.737C148.466 234.398 146.953 233.554 145.316 233.554H76.6C75.0254 233.554 73.878 235.049 74.3156 236.561C90.159 291.3 140.655 331.319 200.497 331.319C260.342 331.319 310.838 291.3 326.681 236.561C327.118 235.049 325.97 233.554 324.396 233.554H255.682C254.044 233.554 252.531 234.398 251.592 235.737C240.312 251.821 221.634 262.334 200.499 262.334C179.364 262.334 160.684 251.821 149.406 235.737Z" fill="white"/>
<path fill-rule="evenodd" clip-rule="evenodd" d="M246.701 158.095C247.65 159.143 248.985 159.774 250.398 159.774H322.281C323.911 159.774 325.067 158.188 324.527 156.652C319.455 142.129 311.903 128.77 302.38 117.081C301.487 115.984 300.139 115.363 298.722 115.363H102.271C100.856 115.363 99.5085 115.984 98.6148 117.081C89.0918 128.77 81.5402 142.129 76.4673 156.652C75.9304 158.188 77.0856 159.774 78.7133 159.774H150.596C152.01 159.774 153.345 159.143 154.295 158.095C165.704 145.517 182.178 137.619 200.498 137.619C218.816 137.619 235.292 145.517 246.701 158.095Z" fill="white"/>
<path fill-rule="evenodd" clip-rule="evenodd" d="M262.32 219.174C261.099 219.174 260.229 217.982 260.559 216.804C262.058 211.447 262.858 205.799 262.858 199.964C262.858 191.754 261.272 183.913 258.39 176.733C257.901 175.518 258.776 174.162 260.084 174.162H327.833C328.691 174.162 329.433 174.768 329.59 175.613C331.069 183.504 331.843 191.645 331.843 199.966C331.843 205.958 331.441 211.855 330.667 217.632C330.545 218.517 329.787 219.174 328.894 219.174H262.32ZM140.437 216.804C140.766 217.982 139.899 219.174 138.676 219.174H72.1024C71.2091 219.174 70.4493 218.517 70.3303 217.632C69.5535 211.855 69.1523 205.958 69.1523 199.966C69.1523 191.645 69.9263 183.504 71.4061 175.613C71.5641 174.768 72.3048 174.162 73.1635 174.162H140.911C142.22 174.162 143.095 175.518 142.607 176.733C139.723 183.913 138.137 191.754 138.137 199.964C138.137 205.799 138.938 211.447 140.437 216.804Z" fill="white"/>
<defs>
<linearGradient id="paint0_linear_1895_894" x1="200.497" y1="0.97169" x2="200.497" y2="398.981" gradientUnits="userSpaceOnUse">
<stop stop-color="#C750FF"/>
<stop offset="1" stop-color="#5800E8"/>
</linearGradient>
</defs>
</svg>
