<svg width="40" height="40" viewBox="0 0 40 40" fill="none" xmlns="http://www.w3.org/2000/svg">
<path d="M29.3473 10.1233C29.3473 11.8483 25.1624 13.2466 20 13.2466C14.8377 13.2466 10.6528 11.8483 10.6528 10.1233C10.6528 8.39834 14.8377 7 20 7C25.1624 7 29.3473 8.39834 29.3473 10.1233Z" fill="black"/>
<path d="M35.5788 27.0931C35.5788 24.9671 31.765 23.1389 26.2988 22.3306L26.1573 22.3593C24.3136 22.7231 22.2199 22.9287 20.0002 22.9287C17.7233 22.9287 15.579 22.7123 13.7014 22.3306C8.23523 23.1389 4.42139 24.9671 4.42139 27.0931C4.42139 29.9681 11.3962 32.2987 20.0002 32.2987C28.6041 32.2987 35.5788 29.9681 35.5788 27.0931Z" fill="black"/>
<path d="M32.4631 17.7234C32.4631 15.8838 28.8937 14.3229 23.9429 13.7715L23.8152 13.7921C22.637 13.9774 21.3491 14.0795 20.0001 14.0795C18.6021 14.0795 17.2699 13.9699 16.0572 13.7716C11.1065 14.3228 7.53711 15.8839 7.53711 17.7234C7.53711 20.0234 13.1169 21.8879 20.0001 21.8879C26.8833 21.8879 32.4631 20.0234 32.4631 17.7234Z" fill="black"/>
</svg>
