<svg width="40" height="40" viewBox="0 0 40 40" fill="none" xmlns="http://www.w3.org/2000/svg">
<g clip-path="url(#clip0_1719_149265)">
<path d="M20 40C31.0457 40 40 31.0457 40 20C40 8.9543 31.0457 0 20 0C8.9543 0 0 8.9543 0 20C0 31.0457 8.9543 40 20 40Z" fill="white"/>
<path d="M17.2997 13.4961H19.9049L14.0037 26.5121H11.3984L17.2997 13.4961Z" fill="black"/>
<path d="M22.5115 13.4961H19.9062L25.8075 26.5121H28.4128L22.5115 13.4961Z" fill="black"/>
<path d="M19.8898 19.9258L22.4905 26.5357H17.2891L19.8898 19.9258Z" fill="black"/>
<path d="M34.2271 22.0098C33.2223 28.9674 27.2404 34.3129 20.0111 34.3129C12.7817 34.3129 6.79972 28.9674 5.79497 22.0098H3.55469C4.57485 30.1986 11.5536 36.5351 20.0111 36.5351C28.4684 36.5351 35.4472 30.1986 36.4674 22.0098H34.2271Z" fill="black"/>
<path d="M5.79497 17.8594C6.79973 10.9017 12.7817 5.55621 20.0111 5.55621C27.2404 5.55621 33.2224 10.9017 34.2271 17.8594H36.4674C35.4472 9.67054 28.4684 3.33398 20.0111 3.33398C11.5536 3.33398 4.57486 9.67054 3.55469 17.8594H5.79497Z" fill="black"/>
</g>
<defs>
<clipPath id="clip0_1719_149265">
<rect width="40" height="40" rx="20" fill="white"/>
</clipPath>
</defs>
</svg>
