<svg viewBox="0 0 40 40" fill="none" xmlns="http://www.w3.org/2000/svg">
<path d="M20 39.99C31.0457 39.99 40 31.1875 40 20.329C40 9.4705 31.0457 0.667969 20 0.667969C8.9543 0.667969 0 9.4705 0 20.329C0 31.1875 8.9543 39.99 20 39.99Z" fill="url(#paint0_linear_18085_174934)"/>
<path d="M24.0983 22.1659L35.2548 20.3276L24.0983 18.4893L30.6877 9.3015L21.4998 15.8909L19.6616 4.73438L17.8234 15.8909L8.63549 9.3015L15.2248 18.4893L4.06836 20.3276L15.2248 22.1659L8.63549 31.3537L17.8234 24.7644L19.6616 35.9208L21.4998 24.7644L30.6877 31.3537L24.0983 22.1659Z" fill="white"/>
<defs>
<linearGradient id="paint0_linear_18085_174934" x1="19.9995" y1="0.826557" x2="19.9995" y2="39.8342" gradientUnits="userSpaceOnUse">
<stop offset="0.1028" stop-color="#00FFAA"/>
<stop offset="0.999" stop-color="#5F00FA"/>
</linearGradient>
</defs>
</svg>
