<svg width="40" height="40" viewBox="0 0 40 40" fill="none" xmlns="http://www.w3.org/2000/svg">
<rect width="40" height="40" rx="20" fill="#CA4228"/>
<path d="M26.6742 29.3389H13.3408V31.9996H26.6742V29.3389Z" fill="white"/>
<path d="M18.6742 21.3418H16.0076V24.0024H18.6742V21.3418Z" fill="white"/>
<path d="M24.008 21.3418H21.3413V24.0024H24.008V21.3418Z" fill="white"/>
<path d="M26.6742 8H13.3408V10.6607H26.6742V8Z" fill="white"/>
<path d="M21.3413 24.0098H18.6746V26.6705H21.3413V24.0098Z" fill="white"/>
<path d="M21.3413 13.3369H18.6746V15.9976H21.3413V13.3369Z" fill="white"/>
<path d="M24.008 16.0049H21.3413V18.6657H24.008V16.0049Z" fill="white"/>
<path d="M18.6742 16.0049H16.0076V18.6657H18.6742V16.0049Z" fill="white"/>
<path d="M32 13.3291H29.3333V26.6708H32V13.3291Z" fill="white"/>
<path d="M10.6667 18.6658V13.3291H8V18.6658H8.00774V21.3341V26.6708H10.6744V21.3341V18.6658H10.6667Z" fill="white"/>
</svg>
