<svg width="40" height="40" viewBox="0 0 40 40" fill="none" xmlns="http://www.w3.org/2000/svg">
<g clip-path="url(#clip0_1719_151666)">
<mask id="mask0_1719_151666" style="mask-type:alpha" maskUnits="userSpaceOnUse" x="0" y="0" width="40" height="40">
<path d="M20 40C31.0457 40 40 31.0457 40 20C40 8.95431 31.0457 0 20 0C8.95431 0 0 8.95431 0 20C0 31.0457 8.95431 40 20 40Z" fill="#162E2F"/>
</mask>
<g mask="url(#mask0_1719_151666)">
<path d="M20 40C31.0457 40 40 31.0457 40 20C40 8.95431 31.0457 0 20 0C8.95431 0 0 8.95431 0 20C0 31.0457 8.95431 40 20 40Z" fill="#162E2F"/>
<path d="M-7.5 6.25H23.5V12.45L26.6 16.325L23.5 20.2L28.925 23.6876L23.5 27.175V34.15H-7.5V6.25Z" fill="url(#paint0_linear_1719_151666)"/>
<path d="M15 12.5H0V16.25H15V12.5Z" fill="url(#paint1_linear_1719_151666)"/>
<path d="M-9.53674e-07 27.5L15 27.5V23.75H-9.53674e-07V27.5Z" fill="url(#paint2_linear_1719_151666)"/>
<path d="M29.7154 14.8219C29.4176 11.7765 26.7888 10.7599 23.4716 10.4748L23.4644 6.25L20.8947 6.25469L20.9018 10.3682C20.2263 10.3693 19.5358 10.3838 18.8497 10.3987L18.8433 6.25787L16.275 6.26219L16.2813 10.4858C15.7251 10.4981 15.1787 10.5095 14.646 10.5107L14.6457 10.4975L11.1016 10.5021L11.1069 13.2487C11.1069 13.2487 13.0043 13.2094 12.9729 13.2443C14.0136 13.2428 14.3534 13.847 14.4531 14.3687C14.4597 18.2293 14.4661 22.0813 14.4721 25.9426C14.4271 26.2704 14.2355 26.7937 13.5083 26.796C13.5413 26.8251 11.6404 26.7987 11.6404 26.7987L11.1349 29.8709L14.479 29.8651C15.1014 29.865 15.7137 29.8744 16.315 29.877L16.3233 34.15L18.8901 34.146L18.8828 29.9181C19.5877 29.9317 20.2696 29.9361 20.9357 29.9344L20.9416 34.1426L23.5114 34.1379L23.5048 29.8726C27.8246 29.6173 30.8464 28.5231 31.2148 24.4623C31.5124 21.1926 29.9734 19.7366 27.5203 19.1513C29.009 18.3894 29.9381 17.0503 29.7164 14.822L29.7156 14.8216L29.7154 14.8219ZM26.1357 23.9644C26.1424 27.1576 20.6786 26.8037 18.937 26.8083L18.9283 21.1469C20.6701 21.1444 26.1303 20.6339 26.1357 23.9644ZM24.9271 15.9789C24.9313 18.884 20.3744 18.5527 18.9238 18.5553L18.9154 13.4207C20.366 13.4182 24.9218 12.949 24.9273 15.9789H24.9271Z" fill="#C4FDF2"/>
</g>
</g>
<defs>
<linearGradient id="paint0_linear_1719_151666" x1="28.925" y1="20.2" x2="-7.5" y2="20.2" gradientUnits="userSpaceOnUse">
<stop stop-color="#4E988D"/>
<stop offset="1" stop-color="#264C4A"/>
</linearGradient>
<linearGradient id="paint1_linear_1719_151666" x1="7.5" y1="12.5" x2="7.5" y2="16.25" gradientUnits="userSpaceOnUse">
<stop stop-opacity="0.1"/>
<stop offset="1" stop-opacity="0"/>
</linearGradient>
<linearGradient id="paint2_linear_1719_151666" x1="7.5" y1="27.5" x2="7.5" y2="23.75" gradientUnits="userSpaceOnUse">
<stop stop-opacity="0.1"/>
<stop offset="1" stop-opacity="0"/>
</linearGradient>
<clipPath id="clip0_1719_151666">
<rect width="40" height="40" rx="20" fill="white"/>
</clipPath>
</defs>
</svg>
