<svg width="32" height="32" viewBox="0 0 32 32" fill="none" xmlns="http://www.w3.org/2000/svg">
<circle cx="16" cy="16" r="16" fill="#21C789" style="fill:#21C789;fill:color(display-p3 0.1294 0.7804 0.5373);fill-opacity:1;"/>
<path d="M19.8018 17.3303L19.7993 17.3256C19.459 17.303 19.15 17.1149 18.9784 16.8168L14.144 8.44446H8L12.8343 16.8168C13.0178 17.1344 13.3566 17.3297 13.7231 17.3297H13.6475L13.6449 17.3323V17.3339L11.5919 20.8888V20.8903L13.6449 24.4443V24.4453L14.6714 26.2222L17.7504 20.8888V20.8878L19.8034 17.3328L19.8023 17.3303H19.8018ZM15.6974 17.3303H15.7L15.6989 17.3328L15.6974 17.3344V17.3303ZM17.7504 17.3328L17.7494 17.3303H17.753L17.7504 17.3328Z" fill="white" style="fill:white;fill-opacity:1;"/>
<path d="M18.7779 8.44446L17.2369 11.1132L19.8717 15.6756C20.0691 16.018 20.5631 16.0175 20.7605 15.6756L24.9348 8.44497H18.7779V8.44446Z" fill="white" style="fill:white;fill-opacity:1;"/>
</svg>
