<svg viewBox="0 0 40 40" fill="none" xmlns="http://www.w3.org/2000/svg">
    <path
        d="M17.9601 0.25734C17.7961 0.265532 17.3641 0.298299 17.0001 0.335162C10.6641 0.949548 5.16014 4.81608 2.30414 10.6609C1.50814 12.2952 0.868137 14.2612 0.540137 16.1003C0.000136686 19.1067 0.108137 22.0148 0.864137 24.886C1.56414 27.5524 2.94414 30.1861 4.72414 32.2545L4.90814 32.4675L5.16814 32.1849C6.68814 30.5343 7.52014 28.1177 7.36014 25.7953C7.30814 25.0662 7.20414 24.4846 6.98414 23.6859C6.37214 21.4905 6.26414 19.4589 6.64414 17.2267C7.54814 11.9143 11.3961 7.63816 16.2601 6.54046C17.2041 6.32747 17.7241 6.27422 18.9001 6.27422C20.1241 6.27422 20.5201 6.31109 21.6001 6.53636C27.2601 7.72008 31.2761 12.5819 31.5561 18.5865C31.6281 20.147 31.4521 21.7281 31.0361 23.2067C30.3921 25.5045 29.2441 27.5033 27.6121 29.1539C26.6441 30.137 25.7921 30.7759 24.6281 31.3985C22.9041 32.316 21.1241 32.7501 19.0961 32.7501C17.4801 32.7501 16.3881 32.5617 14.6881 31.9965C14.2561 31.849 13.7201 31.6934 13.5001 31.6483C10.9921 31.1282 8.43214 31.8695 6.50014 33.6717L6.30014 33.856L6.48014 34.024C7.49214 34.9578 8.86814 35.8958 10.3241 36.6372C12.5041 37.7553 14.7761 38.4148 17.4001 38.6974C17.7161 38.7302 18.3961 38.7506 19.2401 38.7466C20.3521 38.7466 20.7001 38.7302 21.2801 38.6564C24.7081 38.2305 27.6761 37.0222 30.3401 34.9701C31.9601 33.725 33.5041 32.0334 34.6121 30.2885C35.9881 28.1218 36.9361 25.6929 37.4361 23.0429C38.4961 17.4233 37.1921 11.7668 33.8441 7.46613C33.3881 6.87632 32.0521 5.48371 31.3201 4.82837C27.9081 1.78102 22.8641 0.0525446 17.9601 0.25734Z"
        fill="#0057FF" />
</svg>
    