<svg viewBox="0 0 40 40" fill="none" xmlns="http://www.w3.org/2000/svg">
    <g clip-path="url(#clip0_3138_17422)">
        <path
            d="M39.4009 24.8382C36.7294 35.5524 25.8765 42.073 15.1598 39.4011C4.44758 36.7299 -2.07366 25.8776 0.599094 15.1639C3.26935 4.44844 14.1222 -2.07273 24.8358 0.59849C35.5518 3.26971 42.0724 14.1233 39.4009 24.8382Z"
            fill="#2F46F4" />
        <path
            d="M27.8522 15.2799C27.5947 12.6014 25.2826 11.7035 22.3634 11.4477L22.3633 7.73242L20.1019 7.73266L20.102 11.35C19.5075 11.3501 18.8998 11.3619 18.296 11.3739L18.2964 7.73258L16.0361 7.73251L16.0353 11.4467C15.5457 11.4567 15.0648 11.4658 14.596 11.4662L14.5957 11.4546L11.4766 11.4536L11.4772 13.8689C11.4772 13.8689 13.1472 13.8371 13.1194 13.8678C14.0354 13.8681 14.3336 14.3999 14.4203 14.8588L14.4205 19.0913L14.4206 19.1073L14.42 25.0367C14.3798 25.3249 14.2104 25.7846 13.5704 25.7857C13.5993 25.8113 11.9265 25.7853 11.9265 25.7853L11.4772 28.486L14.4201 28.4859C14.9678 28.4866 15.5067 28.4959 16.0357 28.4992L16.0367 32.2568L18.2957 32.2572L18.2956 28.5393C18.9159 28.5521 19.5162 28.5571 20.1022 28.5565L20.1012 32.2573L22.3627 32.257L22.3634 28.5061C26.1654 28.288 28.8264 27.3301 29.1568 23.7598C29.4236 20.8849 28.0713 19.6021 25.913 19.0838C27.2242 18.4162 28.044 17.2398 27.8522 15.2799ZM24.6883 23.3145C24.6896 26.1226 19.8814 25.8032 18.3487 25.8046L18.3493 20.826C19.8824 20.8264 24.6885 20.3856 24.6883 23.3145ZM23.6365 16.2904C23.6358 18.8452 19.6259 18.547 18.3492 18.5471L18.3494 14.0318C19.626 14.0317 23.6362 13.6257 23.6365 16.2904Z"
            fill="white" />
    </g>
    <defs>
        <clipPath id="clip0_3138_17422">
            <rect width="39.9995" height="39.9995" fill="white" />
        </clipPath>
    </defs>
</svg>