<svg width="40" height="40" viewBox="0 0 40 40" fill="none" xmlns="http://www.w3.org/2000/svg">
<g clip-path="url(#clip0_1655_99269)">
<path d="M20 40C31.0457 40 40 31.0457 40 20C40 8.9543 31.0457 0 20 0C8.9543 0 0 8.9543 0 20C0 31.0457 8.9543 40 20 40Z" fill="#232B2B"/>
<path d="M16.7341 27.8148L14.4048 27.2251L13.5469 30.6122L15.8762 31.2018L16.7341 27.8148Z" fill="#664AED"/>
<path d="M20.7732 28.8355L18.4438 28.2459L17.5859 31.6329L19.9153 32.2226L20.7732 28.8355ZM25.9141 8.50764L23.5847 7.91797L22.7268 11.304L25.0573 11.8936L25.9141 8.50764Z" fill="#146AF4"/>
<path d="M21.8904 7.47883L19.561 6.88916L18.7031 10.2752L21.0325 10.8659L21.8904 7.47883Z" fill="#664AED"/>
<path d="M21.8561 29.1228L9.82812 26.0713L10.5514 23.2131L22.5783 26.2646C23.6099 26.5296 24.6416 25.954 24.8772 24.9962C25.1129 24.0384 24.4798 23.0502 23.4481 22.7852L15.9312 20.8848L16.6533 18.0244L24.1703 19.9259C26.8819 20.6187 28.5771 23.2424 27.9277 25.7629C27.2804 28.2823 24.5536 29.8015 21.8409 29.1076L21.8561 29.1228Z" fill="#9077ED"/>
<path d="M21.0364 10.8746L17.1074 9.87988L12.8125 26.8413L16.7415 27.8361L21.0364 10.8746Z" fill="#664AED"/>
<path d="M22.2854 20.9716L14.7685 19.0701L15.4906 16.2108L23.0076 18.1112C24.0392 18.3772 25.0709 17.8028 25.3065 16.845C25.5422 15.8861 24.9091 14.8989 23.8774 14.634L13.3828 11.9799L14.105 9.12061L24.5996 11.7736C27.3112 12.4664 29.0064 15.0901 28.3581 17.6106C27.7098 20.1311 24.9829 21.6503 22.2702 20.9564L22.2854 20.9716Z" fill="#9FF7EC"/>
<path d="M21.0156 10.8639L17.0866 9.86914L16.2656 13.1129L20.1946 14.1076L21.0156 10.8639Z" fill="#664AED"/>
</g>
<defs>
<clipPath id="clip0_1655_99269">
<rect width="40" height="40" rx="20" fill="white"/>
</clipPath>
</defs>
</svg>
