<svg width="1000" height="1000" viewBox="0 0 1000 1000" fill="none" xmlns="http://www.w3.org/2000/svg">
<rect width="1000" height="1000" rx="500" fill="white"/>
<path d="M769.214 490.768L672.204 330.797C667.346 322.864 658.535 318 648.952 318H567.978C558.221 318 549.245 323.071 544.5 331.221L499.922 407.566L505.295 415.913L517.162 434.096C517.029 433.83 508.125 415.252 525.52 411.128C525.685 411.078 525.85 411.029 526.014 411H585.188C585.188 411 587.422 410.871 590.715 411.503C590.839 411.522 590.962 411.552 591.086 411.572C591.374 411.631 591.662 411.69 591.961 411.759C592.3 411.838 592.64 411.927 592.99 412.016C600.061 413.88 606.268 418.212 610.241 424.339L703.721 569.156C705.45 571.83 707.251 574.464 709.052 577.108C711.276 580.364 714.785 587.379 706.51 590.497C706.078 590.664 705.635 590.802 705.182 590.921C707.683 590.526 710.133 589.885 712.511 589.036C713.077 588.829 713.653 588.592 714.24 588.356C720.642 585.662 727.919 580.798 734.404 572.116C734.558 571.909 734.702 571.701 734.856 571.494C735.104 571.149 735.361 570.804 735.608 570.439L769.039 516.993C774.052 508.962 774.113 498.908 769.204 490.768H769.214Z" fill="black"/>
<path d="M498.618 592.912L481.691 566.882C481.824 567.148 490.693 585.707 473.366 589.827C473.202 589.877 473.038 589.926 472.874 589.956H413.931C413.931 589.956 411.707 590.084 408.426 589.453C408.303 589.433 408.18 589.404 408.057 589.384C407.77 589.325 407.483 589.266 407.185 589.197C406.847 589.118 406.509 589.029 406.16 588.94C399.116 587.077 392.934 582.751 388.977 576.63L295.852 431.939C294.13 429.268 292.335 426.637 290.541 423.995C288.327 420.743 284.83 413.735 293.074 410.62C293.504 410.453 293.945 410.315 294.396 410.196C290.705 410.778 287.117 411.852 283.744 413.449C283.692 413.469 283.641 413.498 283.59 413.518C277.305 416.524 270.364 421.669 264.233 430.451C264.202 430.49 264.171 430.54 264.141 430.579L261.885 434.137L230.789 484.069C225.796 492.092 225.734 502.136 230.625 510.267L327.256 670.077C332.095 678.002 340.871 682.861 350.416 682.861H431.074C440.793 682.861 449.734 677.795 454.46 669.654L498.895 593.326L498.628 592.903L498.618 592.912Z" fill="black"/>
<path d="M734.78 571.117C728.321 579.77 721.073 584.603 714.696 587.284C714.111 587.53 713.537 587.756 712.973 587.962C710.605 588.807 708.165 589.445 705.673 589.838C703.459 590.182 701.224 590.359 698.968 590.359H634.306C627.406 590.359 620.865 587.864 615.883 583.512C615.78 583.424 615.688 583.336 615.585 583.237C615.411 583.08 615.237 582.913 615.062 582.746C613.719 581.469 612.499 580.065 611.443 578.523L518.392 433.702L506.571 415.59L501.219 407.28L451.854 330.597C446.882 322.847 438.054 318.123 428.55 318.123H347.084C337.365 318.123 328.425 323.171 323.709 331.284L297.216 376.634L262.543 433.056L262.215 433.597L262.051 433.867L261.887 434.137C261.989 433.97 262.092 433.823 262.205 433.656C262.604 433.037 263.004 432.428 263.414 431.838C263.445 431.789 263.476 431.75 263.507 431.711L263.558 431.622C263.558 431.622 263.619 431.534 263.65 431.495C269.771 422.743 277.378 417.534 283.663 414.548C283.714 414.529 283.765 414.499 283.817 414.48C287.19 412.889 290.778 411.818 294.469 411.238C296.683 410.895 298.918 410.718 301.174 410.718H365.836C372.736 410.718 379.277 413.213 384.26 417.564C384.362 417.652 384.454 417.741 384.557 417.839C384.731 417.996 384.906 418.163 385.08 418.33C386.423 419.607 387.643 421.012 388.699 422.554L481.75 567.374L498.677 593.325L498.943 593.747L548.278 670.509C553.251 678.259 562.078 682.983 571.582 682.983H653.048C662.767 682.983 671.707 677.935 676.423 669.821L702.916 624.472L736.933 568.121L737.589 567.04C737.487 567.207 737.384 567.355 737.272 567.522C736.872 568.14 736.472 568.749 736.062 569.339C736.031 569.388 736 569.427 735.969 569.466C735.723 569.82 735.477 570.174 735.221 570.517C735.067 570.724 734.924 570.94 734.77 571.136L734.78 571.117Z" fill="#6C4ADD"/>
</svg>
