<svg width="40" height="40" viewBox="0 0 40 40" fill="none" xmlns="http://www.w3.org/2000/svg">
<rect width="40" height="40" rx="20" fill="black"/>
<path fill-rule="evenodd" clip-rule="evenodd" d="M13.1949 25.1781L22.531 11.8447C23.3592 10.662 24.9894 10.3745 26.1721 11.2027C27.3549 12.0309 27.6423 13.6611 26.8142 14.8438L17.478 28.1772C16.6498 29.36 15.0197 29.6474 13.8369 28.8192C12.6541 27.991 12.3667 26.3609 13.1949 25.1781ZM28.074 8.48655C30.7568 10.3651 31.4088 14.0628 29.5303 16.7457L20.1942 30.079C18.3156 32.7619 14.6179 33.4138 11.935 31.5354C9.25219 29.6568 8.60019 25.9591 10.4787 23.2762L19.8149 9.94285C21.6934 7.26002 25.3911 6.60798 28.074 8.48655Z" fill="white"/>
</svg>
