<svg width="40" height="40" viewBox="0 0 40 40" fill="none" xmlns="http://www.w3.org/2000/svg">
<g clip-path="url(#clip0_40000209_10140)">
<path d="M20 40C31.0457 40 40 31.0457 40 20C40 8.95431 31.0457 0 20 0C8.95431 0 0 8.95431 0 20C0 31.0457 8.95431 40 20 40Z" fill="#006CFF"/>
<path d="M31.2888 9.11641C28.3824 6.14643 24.4165 4.45063 20.2613 4.40102C16.106 4.35142 12.1008 5.95206 9.12424 8.85182C7.64686 10.2864 6.46871 11.9998 5.65801 13.8928C4.8473 15.7858 4.42013 17.8208 4.40124 19.88C4.37082 21.9376 4.74869 23.9808 5.51296 25.8914C6.27724 27.802 7.41275 29.5421 8.85384 31.011C8.8826 31.0412 8.9143 31.0685 8.94844 31.0924C9.00945 31.1502 9.0744 31.2037 9.14284 31.2524C9.17373 31.2731 9.20608 31.2915 9.23964 31.3074L9.25584 31.3152C9.32309 31.3565 9.39283 31.3935 9.46464 31.4262C9.49899 31.4396 9.53404 31.4511 9.56964 31.4606L9.59124 31.466C9.66051 31.4914 9.73132 31.5124 9.80324 31.5288C9.84184 31.536 9.88085 31.5409 9.92004 31.5434L9.94424 31.5448C10.0171 31.5559 10.0906 31.5626 10.1642 31.5648C10.2124 31.5641 10.2604 31.5603 10.308 31.5534L10.388 31.5454C10.4283 31.5432 10.4684 31.5385 10.508 31.5312C10.575 31.5165 10.641 31.498 10.7058 31.4758L10.734 31.468C10.7704 31.4591 10.8061 31.4478 10.8408 31.434C10.9225 31.3991 11.0019 31.359 11.0784 31.314C11.1032 31.3022 11.1272 31.2889 11.1502 31.274C11.2536 31.2079 11.35 31.1315 11.4378 31.0458L19.2578 23.4058C19.8633 23.5619 20.4994 23.5533 21.1004 23.3808C21.5451 23.2548 21.9604 23.0418 22.3223 22.7543C22.6841 22.4667 22.9854 22.1103 23.2086 21.7056C23.434 21.3021 23.5772 20.8579 23.6297 20.3987C23.6823 19.9395 23.6432 19.4744 23.5148 19.0304C23.3889 18.5857 23.176 18.1705 22.8885 17.8086C22.601 17.4468 22.2445 17.1456 21.8398 16.9224C21.4363 16.6971 20.9921 16.554 20.5329 16.5014C20.0737 16.4489 19.6087 16.4879 19.1646 16.6162C18.2969 16.8658 17.5581 17.439 17.1008 18.2176C16.6435 18.9962 16.5027 19.9206 16.7074 20.8L14.8046 22.6584C14.4026 21.8525 14.1933 20.9642 14.1932 20.0636C14.195 18.5051 14.8149 17.0109 15.9169 15.9088C17.0189 14.8068 18.5131 14.1868 20.0716 14.185C21.6303 14.1867 23.1246 14.8065 24.2267 15.9086C25.3288 17.0107 25.9487 18.505 25.9504 20.0636C25.9487 21.6222 25.3287 23.1164 24.2266 24.2185C23.1245 25.3205 21.6302 25.9404 20.0716 25.942H19.7848V29.5898H20.0752C22.0137 29.5925 23.9064 29.0008 25.4982 27.8946C27.5718 26.4546 28.9894 24.2509 29.4402 21.7669C29.891 19.283 29.3381 16.7216 27.9028 14.6448C27.1931 13.6146 26.2862 12.7354 25.2344 12.058C24.1827 11.3806 23.0071 10.9185 21.7756 10.6984C20.5454 10.472 19.2824 10.4917 18.0598 10.7564C16.8371 11.021 15.6791 11.5254 14.6526 12.2404C13.6225 12.95 12.7433 13.8569 12.0659 14.9085C11.3885 15.9601 10.9265 17.1356 10.7064 18.367C10.2635 20.7691 10.7673 23.2495 12.1122 25.2884L10.3004 27.0582C8.83382 25.0032 8.04547 22.5415 8.04544 20.0168C8.05517 16.8262 9.32853 13.7693 11.5868 11.5154C13.8451 9.26137 16.9044 7.99385 20.095 7.99022H20.1186C21.7017 7.98893 23.2693 8.30164 24.7307 8.91024C26.1921 9.51884 27.5182 10.4113 28.6324 11.5358C29.7527 12.6544 30.64 13.984 31.243 15.4478C31.846 16.9115 32.1527 18.4803 32.1454 20.0634C32.1356 23.2541 30.8622 26.3109 28.6039 28.5649C26.3456 30.8189 23.2863 32.0865 20.0956 32.0902H20.0724H19.7848V35.4502L19.7878 35.5816L19.9652 35.7404H20.075C24.1687 35.7491 28.1016 34.1471 31.024 31.2804C33.9939 28.374 35.6896 24.4083 35.7392 20.2532C35.7889 16.0981 34.1884 12.093 31.2888 9.11641Z" fill="white"/>
</g>
<defs>
<clipPath id="clip0_40000209_10140">
<rect width="40" height="40" rx="20" fill="white"/>
</clipPath>
</defs>
</svg>
