<svg width="40" height="40" viewBox="0 0 40 40" fill="none" xmlns="http://www.w3.org/2000/svg">
<g clip-path="url(#clip0_1719_149286)">
<mask id="mask0_1719_149286" style="mask-type:luminance" maskUnits="userSpaceOnUse" x="0" y="0" width="40" height="40">
<path d="M39.9999 0H0V40H39.9999V0Z" fill="white"/>
</mask>
<g mask="url(#mask0_1719_149286)">
<mask id="mask1_1719_149286" style="mask-type:luminance" maskUnits="userSpaceOnUse" x="-1" y="0" width="41" height="41">
<path d="M39.9921 0.00195312H-0.0078125V40.0018H39.9921V0.00195312Z" fill="white"/>
</mask>
<g mask="url(#mask1_1719_149286)">
<path d="M19.9922 40.0018C31.0378 40.0018 39.9921 31.0476 39.9921 20.0019C39.9921 8.95625 31.0378 0.00195312 19.9922 0.00195312C8.94652 0.00195312 -0.0078125 8.95625 -0.0078125 20.0019C-0.0078125 31.0476 8.94652 40.0018 19.9922 40.0018Z" fill="#0C1013"/>
<path fill-rule="evenodd" clip-rule="evenodd" d="M19.9922 35.7519C28.6906 35.7519 35.7423 28.7004 35.7423 20.0019C35.7423 11.3035 28.6906 4.25196 19.9922 4.25196C11.2937 4.25196 4.24219 11.3035 4.24219 20.0019C4.24219 28.7004 11.2937 35.7519 19.9922 35.7519ZM19.9922 37.502C29.6572 37.502 37.4921 29.667 37.4921 20.0019C37.4921 10.337 29.6572 2.50195 19.9922 2.50195C10.3272 2.50195 2.49219 10.337 2.49219 20.0019C2.49219 29.667 10.3272 37.502 19.9922 37.502Z" fill="#FC6521"/>
<path d="M25.8574 14.0251C24.967 11.957 22.9163 11.5185 20.4044 11.9462L19.5989 8.75195L17.6966 9.25545L18.4914 12.4388C17.9933 12.5688 17.4794 12.6771 16.9706 12.8232L16.1757 9.65609L14.2733 10.1596L15.0788 13.3538C14.6707 13.4729 11.2422 14.3716 11.2422 14.3716L11.7668 16.4504C11.7668 16.4504 13.1658 16.0498 13.1499 16.0823C13.9236 15.8767 14.2892 16.2718 14.4588 16.6454L16.6738 25.3996C16.7003 25.654 16.658 26.0871 16.1226 26.2334C16.1545 26.2496 14.7396 26.596 14.7396 26.596L14.9463 29.0215C14.9463 29.0215 18.3431 28.1336 18.7881 28.0199L19.6042 31.252L21.5067 30.7486L20.6906 27.4948C21.2152 27.3703 21.7239 27.2403 22.2167 27.1104L23.0275 30.348L24.9298 29.8443L24.1139 26.6178C27.0442 25.8923 29.1109 24.0028 28.6871 21.1173C28.4167 19.3793 26.5567 17.9501 25.0094 17.7878C25.9633 16.927 26.4455 15.6709 25.8574 14.0251ZM24.9405 21.6425C25.3167 24.5009 21.4325 24.8528 20.1449 25.1939L19.0267 20.917C20.3197 20.5759 24.3047 19.1249 24.9405 21.6425ZM22.5983 15.8224C23.0011 18.3615 19.6731 18.6593 18.6027 18.9409L17.5853 15.0591C18.6609 14.7831 21.7822 13.4675 22.5983 15.8224Z" fill="white"/>
</g>
</g>
</g>
<defs>
<clipPath id="clip0_1719_149286">
<rect width="40" height="40" rx="20" fill="white"/>
</clipPath>
</defs>
</svg>
