<?xml version="1.0" encoding="UTF-8"?>
<svg id="Capa_1" data-name="Capa 1" xmlns="http://www.w3.org/2000/svg" viewBox="0 0 32 32">
  <defs>
    <style>
      .cls-1 {
        fill: #fff;
      }

      .cls-2 {
        fill: #56beb7;
      }
    </style>
  </defs>
  <path class="cls-1" d="M30.29,15.95c0,7.87-6.38,14.24-14.24,14.24S1.81,23.82,1.81,15.95,8.18,1.71,16.05,1.71s14.24,6.38,14.24,14.24"/>
  <polygon class="cls-2" points="7.29 11.91 9.16 17.28 10.93 11.91 13.61 11.91 13.61 19.78 11.65 19.78 11.65 15.01 9.9 19.78 8.26 19.78 6.52 15.01 6.52 19.78 4.55 19.78 4.55 11.91 7.29 11.91"/>
  <path class="cls-2" d="M14.44,18.44c-.26-.45-.39-.97-.39-1.56,0-.59.13-1.11.39-1.56.26-.45.64-.81,1.1-1.04.48-.24,1.03-.37,1.67-.37s1.19.12,1.67.37c.46.23.85.59,1.1,1.04.26.45.39.97.39,1.56,0,.59-.13,1.11-.39,1.56-.26.45-.64.81-1.1,1.04-.48.24-1.03.37-1.67.37s-1.19-.12-1.67-.37c-.46-.23-.85-.59-1.1-1.04M18.39,16.88c0-.43-.1-.77-.31-1.03-.21-.26-.5-.39-.87-.39-.37,0-.66.13-.87.39-.21.26-.32.6-.31,1.03,0,.43.1.77.31,1.03.21.26.5.39.87.38.37,0,.66-.13.87-.39s.32-.6.31-1.03"/>
  <path class="cls-2" d="M22.54,12.33c.59-.33,1.28-.49,2.09-.49.64,0,1.21.13,1.71.38.49.24.9.61,1.2,1.06.3.45.47.97.52,1.56h-2.07c-.08-.39-.24-.7-.5-.94-.26-.24-.58-.35-.97-.35-.53,0-.95.21-1.24.63-.3.42-.44.97-.44,1.66,0,.69.15,1.24.44,1.66s.71.63,1.24.63c.39,0,.71-.12.97-.35s.43-.55.5-.94h2.07c-.05.59-.22,1.11-.52,1.56-.3.45-.72.82-1.2,1.06-.5.25-1.07.38-1.71.38-.8,0-1.5-.16-2.09-.49-.58-.32-1.05-.81-1.36-1.39-.32-.6-.47-1.3-.47-2.11,0-.81.16-1.51.47-2.11.3-.59.78-1.07,1.36-1.39"/>
  <path class="cls-2" d="M16,1.98c7.75,0,14.03,6.28,14.03,14.03,0,5.64-3.38,10.72-8.57,12.92-7.14,3.02-15.37-.33-18.38-7.47C.06,14.33,3.4,6.1,10.54,3.08c1.73-.73,3.58-1.11,5.46-1.1M16,0C7.16,0,0,7.17,0,16.01s7.17,16.01,16.01,16.01,16.01-7.17,16.01-16.01S24.84,0,16,0"/>
</svg>