<svg width="40" height="40" viewBox="0 0 40 40" fill="none" xmlns="http://www.w3.org/2000/svg">
<rect width="40" height="40" rx="20" fill="#212121"/>
<g clip-path="url(#clip0_40000348_510771)">
<path d="M30.0381 16.3965H20.8032V18.7944H29.6479C30.0158 18.7944 30.3154 19.0925 30.3154 19.4618V20.5248C30.3154 20.8927 30.0172 21.1923 29.6479 21.1923H20.8032V23.5901H32.7119V14L30.5104 16.2014C30.385 16.3268 30.2164 16.3965 30.0395 16.3965H30.0381Z" fill="#00F260"/>
<path d="M9.96185 23.5887H19.1967V21.1908H10.352C9.98414 21.1908 9.68458 20.8926 9.68458 20.5234V19.4603C9.68458 19.0925 9.98275 18.7929 10.352 18.7929H19.1967V16.395H9.68597L7.28809 16.3964V18.7943V21.1922V23.5901V25.9866L9.48952 23.7851C9.61492 23.6597 9.78351 23.5901 9.96046 23.5901L9.96185 23.5887Z" fill="#00F260"/>
</g>
<defs>
<clipPath id="clip0_40000348_510771">
<rect width="25.4237" height="12" fill="white" transform="translate(7.28809 14)"/>
</clipPath>
</defs>
</svg>
