<svg width="64" height="64" viewBox="0 0 64 64" fill="none" xmlns="http://www.w3.org/2000/svg">
<g clip-path="url(#clip0_81_2)">
<mask id="mask0_81_2" style="mask-type:luminance" maskUnits="userSpaceOnUse" x="0" y="0" width="64" height="64">
<path d="M64 0H0V64H64V0Z" fill="white"/>
</mask>
<g mask="url(#mask0_81_2)">
<path d="M32 63.5C49.397 63.5 63.5 49.397 63.5 32C63.5 14.603 49.397 0.5 32 0.5C14.603 0.5 0.5 14.603 0.5 32C0.5 49.397 14.603 63.5 32 63.5Z" fill="white" stroke="#3AC0A1" stroke-width="4"/>
<path fill-rule="evenodd" clip-rule="evenodd" d="M56 27.8333C56 30.5028 53.8062 32.6668 51.1 32.6668C48.3937 32.6668 46.2 30.5028 46.2 27.8333C46.2 25.164 48.3937 23 51.1 23C53.8062 23 56 25.164 56 27.8333ZM34.9847 43.8097C35.8597 44.6782 36.4 45.8748 36.4 47.1958C36.4 49.849 34.2195 52 31.5295 52C28.8395 52 26.659 49.849 26.659 47.1958C26.659 45.8798 27.1955 44.6873 28.0645 43.8198C29.6995 42.2155 30.6965 39.9642 30.6965 37.51C30.6965 35.0832 29.6933 32.8092 28.0903 31.2097H28.0935C26.4673 29.597 24.1856 28.6125 21.6976 28.6125C19.2372 28.6125 16.9544 29.6023 15.3328 31.1833C14.4501 32.0633 13.2248 32.6085 11.8707 32.6085C9.18055 32.6085 7 30.4578 7 27.8043C7 25.151 9.18055 23 11.8707 23C13.1972 23 14.4 23.5232 15.2784 24.3717C16.9063 25.9968 19.1998 26.995 21.6987 26.995C24.1843 26.995 26.4673 26.01 28.0928 24.3999C28.9735 23.5348 30.1882 23 31.5295 23C34.2195 23 36.4 25.151 36.4 27.8043C36.4 29.1113 35.8707 30.2965 35.0122 31.1628L34.9955 31.1777C33.348 32.783 32.3363 35.0463 32.3363 37.511C32.3363 39.963 33.3527 42.2062 34.9847 43.8097Z" fill="url(#paint0_linear_81_2)"/>
</g>
</g>
<defs>
<linearGradient id="paint0_linear_81_2" x1="5943.07" y1="1276.21" x2="-1029.07" y2="1276.21" gradientUnits="userSpaceOnUse">
<stop stop-color="#3AC0A1"/>
<stop offset="1" stop-color="#9EE19D"/>
</linearGradient>
<clipPath id="clip0_81_2">
<rect width="64" height="64" fill="white"/>
</clipPath>
</defs>
</svg>
