<svg width="40" height="40" viewBox="0 0 40 40" fill="none" xmlns="http://www.w3.org/2000/svg">
<rect width="40" height="40" rx="20" fill="white"/>
<rect x="0.5" y="0.5" width="39" height="39" rx="19.5" stroke="black" stroke-opacity="0.08"/>
<mask id="mask0_10508_431075" style="mask-type:luminance" maskUnits="userSpaceOnUse" x="7" y="7" width="26" height="26">
<path d="M33 7H7V33H33V7Z" fill="white"/>
</mask>
<g mask="url(#mask0_10508_431075)">
<path d="M20 33C12.8323 33 7 27.1678 7 20C7 12.8323 12.8323 7 20 7C27.1678 7 33 12.8323 33 20C33 27.1678 27.1678 33 20 33ZM20 11.7273C15.4382 11.7273 11.7273 15.4382 11.7273 20C11.7273 24.5618 15.4382 28.2728 20 28.2728C24.5618 28.2728 28.2728 24.5618 28.2728 20C28.2728 15.4382 24.5618 11.7273 20 11.7273Z" fill="url(#paint0_linear_10508_431075)"/>
</g>
<defs>
<linearGradient id="paint0_linear_10508_431075" x1="10.4777" y1="10.832" x2="27.8572" y2="33.2573" gradientUnits="userSpaceOnUse">
<stop stop-color="#00F2FE"/>
<stop offset="0.535" stop-color="#4FACFE"/>
<stop offset="0.975" stop-color="#C471F5"/>
</linearGradient>
</defs>
</svg>
