<svg width="40" height="40" viewBox="0 0 40 40" fill="none" xmlns="http://www.w3.org/2000/svg">
<rect width="40" height="40" rx="20" fill="white"/>
<rect x="0.5" y="0.5" width="39" height="39" rx="19.5" stroke="black" stroke-opacity="0.08"/>
<path d="M10.7996 29.2041C8.26652 26.6601 7 23.5957 7 20C7 16.4043 8.26652 13.3544 10.7996 10.8105C13.3399 8.27015 16.4079 7 20 7C23.5922 7 26.6492 8.27015 29.1895 10.8105C31.7298 13.3508 33 16.4152 33 20C33 23.5849 31.7298 26.6601 29.1895 29.2004C26.6492 31.7335 23.5848 33 20 33C16.4152 33 13.3399 31.7335 10.7996 29.2004V29.2041ZM24.5893 24.5929C25.8631 23.3264 26.5 21.7979 26.5 20.0037C26.5 18.2094 25.8631 16.6809 24.5893 15.4143C23.3228 14.1405 21.7943 13.5036 20 13.5036C18.2057 13.5036 16.6772 14.1405 15.4107 15.4143C14.1369 16.6809 13.5 18.2094 13.5 20.0037C13.5 21.7979 14.1369 23.3264 15.4107 24.5929C16.6772 25.8668 18.2057 26.5037 20 26.5037C21.7943 26.5037 23.3228 25.8668 24.5893 24.5929Z" fill="#00F6FF"/>
</svg>
