<svg version="1.1" id="katman_1" xmlns="http://www.w3.org/2000/svg"
	x="0px" y="0px"
	viewBox="0 0 1000 1000" enable-background="new 0 0 1000 1000"
	xml:space="preserve">
<g>
	<path fill="#FFFFFF" d="M362.103,429.688c12.238-10.558,24.841-11.73,37.782-3.523c3.248-24.806-11.185-35.356-43.292-31.661
		c-2.046,9.116-1.069,18.982,2.92,29.608C360.564,425.984,361.423,427.844,362.103,429.688z M393.665,415.667
		c-14.866-2.25-25.082,0.58-30.651,8.488C368.219,413.403,378.432,410.581,393.665,415.667z"/>
	<path fill="#FFFFFF" d="M617.579,668.819c-7.437,12.262-7.17,26.911-4.556,40.56c6.063,31.628,9.55,60.698,10.439,87.167
		c2.03,2.099,4.016,6.303,5.846,12.596c4.309-9.526,7.526-20.427,9.646-32.703c2.794-16.106,3.697-34.549,2.74-55.321
		c-4.375-5.453-9.085-12.106-14.148-19.98C621.027,690.981,614.45,681.7,617.579,668.819z"/>
	<path fill="#FFFFFF" d="M854.686,324.094c0.703,1.322,1.381,2.653,2.038,3.993c1.167,2.383,2.27,4.779,3.345,7.169
		c0.18,0.396,0.361,0.791,0.529,1.187c0.561,1.253,1.115,2.509,1.659,3.748c0.367,0.827,0.732,1.649,1.099,2.479
		c0.357,0.799,0.709,1.606,1.066,2.403c1.323,2.809,2.449,5.757,3.54,8.603l3.787,9.815l21.323-7.638
		c-8.222-22.359-18.487-44.184-30.576-64.98l-47.368,28.016l-0.756,0.344l-0.23,0.112l-0.575,0.19l-0.142,0.245l-0.083-0.575
		L812.581,319h-0.008l-0.709-0.206l-0.187-0.543l-0.47-0.151l-0.166-0.253l-0.5-0.847h-0.008c-11.408-19-24.759-37.3-39.693-54.266
		l-0.008,0.278l-0.006,0.021c-0.591-0.674-0.889-1.534-0.829-2.418c0.061-0.889,0.463-1.704,1.134-2.295l21.856-19.21
		c0.672-0.591,1.553-0.888,2.441-0.821c0.897,0.062,1.725,0.478,2.307,1.154l7.496,8.677c0.831,0.969,1.644,1.961,2.428,2.956
		l0.71,0.911c0.529,0.676,1.061,1.352,1.575,2.016c0.582,0.756,1.172,1.512,1.77,2.266l0.724,0.935
		c0.858,1.116,1.688,2.167,2.523,3.222l0.516,0.655c1.357,1.734,2.747,3.503,4.062,5.345l4.697,6.663l18.591-12.857
		c-13.679-19.458-29.156-37.927-46.077-54.986l-38.715,39.097l-0.516,0.422l-0.261,0.124l-0.321,0.145l-0.306,0.048l-0.321,0.005
		l-0.315-0.449L755.661,244h-0.008l-0.327,0.637l-0.322,0.49l-0.309-0.007l-0.366-0.068l-0.318-0.118l-0.448-0.448L753.127,244H753
		v0.371l0.3-0.167L753.127,244h0.16c-15.941-16-33.512-30.135-52.208-42.747c-0.739-0.498-1.247-1.234-1.419-2.106
		c-0.164-0.875,0.023-1.705,0.516-2.442l16.313-24.065c0.502-0.747,1.287-1.241,2.173-1.401c0.882-0.16,1.801,0.047,2.533,0.567
		l0.014,0.017l14.047,9.902l13.671,10.68c0.38,0.284,0.746,0.593,1.12,0.891l0.963,0.771c0.693,0.578,1.374,1.166,2.038,1.746
		l2.203,1.906l14.732-17.105c-18.308-15.513-37.961-29.479-58.503-41.567l-27.507,47.648l-0.388,0.532l-0.298,0.259l-0.188,0.142
		l-0.351,0.156l-0.203-0.005l-0.447-0.709L681.927,186h-0.015l-0.754,1.211l-0.089,0.815l-0.134,0.09l-0.583-0.082l-0.224-0.801
		L679.396,186h-0.007c-19.458-12-40.075-19.723-61.28-27.089l-0.023,0.65c-1.747-0.607-2.672-2.363-2.068-4.109l9.535-27.419
		c0.598-1.702,2.436-2.589,4.153-2.067c1.231,0.378,2.449,0.825,3.65,1.26l0.501,0.179c0.507,0.186,1,0.387,1.5,0.579
		c0.837,0.319,1.682,0.636,2.496,0.954l0.439,0.171c0.784,0.307,1.576,0.615,2.366,0.915l5.242,2.023l5.481,2.113l10.618,4.708
		c0.85,0.383,1.701,0.751,2.546,1.125c1.627,0.719,3.292,1.448,4.949,2.236l9.833-20.271
		c-21.608-10.259-44.218-18.682-67.291-25.063l-14.261,53.147l-0.417,0.93l-0.091,0.142l-0.656,0.699l-0.127,0.098
		c-0.531,0.383-1.167,0.628-1.838,0.651l-0.126,0.066l-0.053,0.18L593.677,153h-0.007c-21.625-10-44.017-12-66.545-12h-0.023
		c-0.88,0-1.709-0.229-2.283-0.899c-0.583-0.677-0.875-1.384-0.806-2.269l2.18-29.071c0.133-1.842,1.737-2.76,3.583-2.76h0.015
		h0.008l3.322-0.042l2.367-0.353l0.089,0.126c1.786,0.121,3.824,0.322,5.863,0.615l17.002,2.126l13.85,2.412l4.302-22.212
		c-23.484-4.374-47.452-6.689-71.383-6.955l-0.245,55.086c-0.017,1.837-1.427,3.429-3.264,3.438l-4.621,0.23
		C473.42,140.623,451,143.489,427,148.163V148h-0.286h-0.018l-0.693-0.267l-0.044-0.603l-0.74,0.018l-0.29-0.028l-0.568-0.241
		l-0.179-0.077c-0.74-0.493-1.254-1.27-1.434-2.143l-5.81-28.558c-0.32-1.563,0.508-3.183,1.912-3.813l0.111-0.224l0.456-0.419
		l0.067-0.646h0.007l0.053,0.619c1.149-0.279,2.292,0.191,3.419-0.006c1.173-0.213,2.337-0.441,3.487-0.636l4.473-0.785
		c1.33-0.218,2.622-0.457,3.92-0.688l0.112-0.027c2.412-0.426,4.905-0.875,7.414-1.205l11.649-1.437l5.436-0.68
		c0.843-0.092,1.679-0.188,2.502-0.25l-1.908-22.502c-23.903,2.234-47.608,6.404-70.615,12.633l14.833,52.769
		c0.502,1.782-0.484,2.292-2.27,2.792C380.358,157.643,359.305,167,339.213,174H340v2.678l-0.521,0.917l-0.433,0.025l-0.668,0.215
		l-0.409,0.062l-0.325,0.034l-0.158,0.016l-0.221-0.03l-0.436-0.06l-0.375-0.087l-0.494-0.215l-0.486-0.305l-0.253-0.206
		l-0.321-0.339l-0.186-0.268l-0.241-0.348l-12.977-26.047c-0.808-1.625-0.18-3.6,1.425-4.454c0.577-0.305,1.163-0.589,1.74-0.887
		c4.361-2.234,8.816-4.241,13.191-6.17c0.389-0.172,0.78-0.344,1.168-0.516c1.628-0.717,3.256-1.434,4.884-2.165
		c2.808-1.319,5.748-2.447,8.594-3.537l9.818-3.785l-7.637-21.328c-22.365,8.218-44.195,18.48-65.001,30.568l28.254,47.361
		c0.944,1.592,1.065,3.629-0.935,4.573v-0.039C298,201.074,278.872,214,261.898,228h-0.006l-0.532,1.058l-0.067,0.356l-0.53,0.28
		l-0.066-0.782L260.129,228h-0.038h-0.418h-0.208c-0.889,0-1.717,0.673-2.307,0.006l-19.205-21.042
		c-0.591-0.671-0.889-1.391-0.83-2.282c0.061-0.892,0.479-1.639,1.15-2.224l4.009-3.421l4.675-4.021
		c0.807-0.688,1.628-1.338,2.441-1.994l0.5-0.402c0.993-0.791,1.986-1.557,2.966-2.311c0.35-0.273,0.7-0.55,1.05-0.823
		c0.709-0.547,1.413-1.089,2.107-1.644c1.127-0.862,2.179-1.693,3.232-2.529c0.605-0.475,1.225-0.958,1.843-1.439
		c1.352-1.061,2.734-2.124,4.16-3.137l6.661-4.694l-6.78-9.806l-6.078-8.786c-19.458,13.68-37.931,29.159-54.984,46.079
		l39.104,38.712l0.425,0.511l0.202,0.385l0.104,0.195l0.149,0.47l0.046,0.158l0.067,0.655l-0.008,0.094l-0.06,0.57l-0.053,0.229
		l-0.119,0.467l-0.104,0.298l-0.18,0.733L243.411,247h-0.075h0.126h0.27C227.865,263,214,280.488,202,299.176v0.007l-0.873,0.011
		c-0.501,0.738-2.08,1.249-2.955,1.416l-0.666,0.06l-0.282-0.037l-0.489-0.076l-0.415-0.124l-0.381-0.181l-0.331-0.158
		l-24.104-16.308c-0.746-0.504-1.253-1.283-1.419-2.172c-0.163-0.886,0.039-1.798,0.562-2.532l5.6-7.952l4.308-6.108l6.511-8.335
		l4.167-5.336c0.53-0.708,1.098-1.404,1.666-2.092c0.575-0.68,1.157-1.354,1.732-2.016l1.922-2.225l-17.105-14.722
		c-15.518,18.306-29.483,37.961-41.571,58.496l47.645,27.511l0.539,0.39l0.242,0.287l0.138,0.194l0.165,0.408l-0.339,0.144
		c0.191,0.392-0.264,0.823-0.264,1.258v0.147l0.585,0.511l0.428,0.179l-0.041,0.456l-0.498,0.336L186,320.882v0.005
		c-10,19.463-20.311,40.085-27.672,61.303l0.161,0.048l-0.31,0.747l-0.124,0.231l-0.543,0.552l-0.28,0.172l-0.464,0.231
		l-0.348,0.135l-0.715,0.112l-0.171,0.022c-0.357,0-0.731-0.062-1.098-0.188l-27.491-9.536c-1.704-0.589-2.636-2.419-2.105-4.14
		c0.358-1.173,0.761-2.318,1.172-3.459c0.574-1.592,1.165-3.168,1.763-4.697l0.155-0.396c0.315-0.804,0.622-1.606,0.926-2.405
		l3.541-9.174l0.597-1.549l4.707-10.617c0.386-0.859,0.758-1.703,1.129-2.545c0.716-1.629,1.45-3.295,2.243-4.951l-20.273-9.843
		c-10.259,21.617-18.671,44.223-25.054,67.299l53.17,14.258l0.676,0.238c1.194,0.601,2.009,1.865,1.925,3.196l0.242,0.669
		C145.964,428.225,141,450.618,141,473.153v0.014c0,0.889-1.004,1.709-1.675,2.293c-0.613,0.522-1.815,0.811-2.615,0.811
		l-0.297-0.011l-29.04-2.174c-1.844-0.138-3.237-1.744-3.102-3.588l0.115-1.661l0.295-4.069l0.066-0.946l0.028-0.495l0.066-0.806
		l0.053-0.674c0.037-0.41,0.083-0.813,0.119-1.214l0.03-0.263c0.053-0.506,0.119-1.015,0.195-1.531l0.149-1.219l1.934-15.767
		l2.396-13.864l-22.229-4.291c-4.376,23.486-6.72,47.476-6.989,71.409l55.031,0.291l0.321,0.032l0.344,0.032l0.306,0.098
		l0.322,0.105l0.275,0.149l0.292,0.158l0.23,0.186l0.27,0.225l0.172,0.208l0.239,0.291l0.127,0.231l0.186,0.332l0.099,0.266
		l0.133,0.355l0.089,0.298l0.141,0.316l0.226,4.382c0.15,23.651,3.016,45.938,7.69,69.938H148v0.574c0,0.873-0.918,1.775-1.41,2.52
		c-0.486,0.742-2.245,1.258-3.11,1.437l-28.48,5.81l-0.655,0.066c-0.873,0-1.685-0.351-2.297-0.935l-0.012-0.014l-0.4-0.463
		l-0.014-0.023c-0.231-0.328-0.418-0.701-0.514-1.114l-0.011-0.05l-0.008-0.027l-0.048-0.222c-0.262-1.095-0.478-2.177-0.665-3.244
		c-0.203-1.109-0.403-2.204-0.585-3.292l-0.833-4.669c-0.221-1.354-0.509-2.676-0.747-4.002c-0.104-0.591-0.322-1.209-0.425-1.814
		c-0.292-1.647-0.901-3.313-1.133-5.001L106,557.914v-0.004l-0.207-6.204l-0.837-10.878c-0.089-0.845-0.127-1.666-0.188-2.488
		l-22.437,1.925c2.241,23.901,6.525,47.641,12.76,70.646l53.002-14.764l0.658-0.181L149.24,596h0.164
		c0.874,0,1.681,0.554,2.225,1.253l0.016-0.066l0.336,0.587l0.238,0.675c6.049,21.646,14.194,42.905,24.208,63.012
		c0.83,1.652,0.157,3.833-1.5,4.654l-26.051,13.612c-0.405,0.202-0.829,1.272-1.255,1.272h-0.023l-0.208-0.919l-0.277-0.838
		l-0.324-0.117l-0.408-0.128l-0.62-0.28l-0.261-0.189l-0.392-0.311l-0.205-0.218l-0.442-0.614l-0.744-0.03L143,677.338v-0.005
		c-2-5.274-4.511-10.761-6.855-16.069c-0.539-1.233-0.738-2.463-1.29-3.689c-0.172-0.403-0.157-0.806-0.334-1.203
		c-0.172-0.374-0.224-0.754-0.388-1.134c-1.106-2.456-2.026-4.981-2.97-7.446l-3.716-9.84l-21.206,7.645
		c8.222,22.356,18.719,44.191,30.807,64.992l47.644-28.006c1.591-0.941,1.308-0.412,5.308,1.178v0.007
		c12,19.259,24.118,37.634,39.053,54.599l-1.004,0.007L228,738.379v0.009c0,0.662,1.031,1.537,0.97,2.424
		c-0.06,0.889-0.462,1.718-1.135,2.303l-21.784,19.211c-0.612,0.545-1.368,0.836-2.182,0.836l-0.207-0.009
		c-0.896-0.06-1.717-0.477-2.298-1.157l-0.013-0.005l-7.484-8.679c-0.598-0.701-1.172-1.418-1.747-2.126l-0.673-0.815
		c-0.784-0.992-1.559-1.991-2.314-2.972c-0.41-0.529-0.819-1.052-1.231-1.583c-0.41-0.522-0.813-1.045-1.232-1.567
		c-0.858-1.127-1.694-2.188-2.531-3.242c-1.523-1.924-3.098-3.92-4.571-5.987l-4.695-6.66l-18.592,12.862
		c13.679,19.449,29.158,37.927,46.079,54.979l38.713-39.091l0.516-0.415l0.351-0.169l0.225-0.073l0.508-0.064l0.112-0.271
		l0.665-0.119h0.042l0.092,0.06l0.545-0.111l0.201,0.162l0.511,0.188l0.319,0.133l0.606,0.213l0.479,0.299l0.757,0.134v0.009
		c16,15.873,32.926,30.314,51.622,42.924c0.74,0.502,0.486,1.271,0.656,2.145c0.165,0.873,0.067,1.775-0.429,2.516l-16.271,24.096
		c-0.501,0.747-1.264,1.26-2.153,1.418l-0.585,0.06l-0.061-0.014l-0.791-0.122l-0.236-0.089l-0.725-0.38l-0.564-0.007L277,829.625
		v-0.009l-13.599-9.899l-13.535-10.677c-0.71-0.531-1.245-1.09-1.924-1.659c-0.688-0.575-1.279-1.155-1.937-1.73l-2.192-1.922
		l-14.707,17.112c18.309,15.513,37.971,29.493,58.513,41.581l27.513-47.632l0.389-0.495l0.397-0.264l0.083,0.018l0.546-0.049h0.008
		c0.395,0,0.836-0.606,1.276-0.638l0.158,0.253l0.522,0.713l0.268-2.322l0.478,0.666l-0.122,0.456L319,813.511v0.007
		c21,11.247,40.441,20.682,61.662,28.055c1.748,0.609,2.705,2.518,2.093,4.266l-9.363,27.502c-0.598,1.703-2.345,2.644-4.063,2.115
		c-1.163-0.359-2.264-0.747-3.399-1.15c-1.597-0.575-3.161-1.155-4.698-1.753c-0.941-0.364-1.864-0.673-2.806-1.024l-10.029-4.624
		L347.736,866h-0.007l-10.618-4.068l-0.873-0.169c-0.576-0.254-1.144-0.292-1.711-0.547c-1.611-0.708-3.27-1.326-4.912-2.107
		l-9.834,20.321c21.609,10.259,44.218,18.706,67.292,25.089l14.261-53.144c0.417-1.567,1.874-2.583,3.427-2.487l0.352,0.026
		l0.326-0.536c21.625,5.794,44.01,10.621,66.545,10.621h0.023c0.88,0,1.709,1.141,2.284,1.813c0.583,0.672,0.866,1.939,0.8,2.819
		l-2.173,29.16c-0.134,1.844-1.725,3.263-3.584,3.159l-5.718-0.385c-0.904-0.06-1.875-0.111-2.875-0.2
		c-1.008-0.083-2.038-0.185-3.069-0.333l-2.979-0.364l-14.008-1.722l-13.859-2.388l-4.294,22.229
		c23.492,4.376,47.475,6.72,71.405,6.988l0.292-55.037l0.075-0.671l0.046-0.158l0.149-0.463l0.096-0.179l0.208-0.387l0.134-0.165
		l0.277-0.328l0.179-0.153l0.314-0.266l0.231-0.126l0.336-0.199l0.269-0.108l0.359-0.165l0.313-0.133l0.352-0.247l4.606-0.654
		C525.833,860.18,549.459,859,572.39,852h0.023c0.872,0,1.769,1.057,2.516,1.543c0.739,0.492,1.253,2.202,1.433,3.077l5.809,28.57
		c0.321,1.56-0.506,3.116-1.911,3.744l-0.164,0.074l-0.403,0.147l-0.067,0.021l-0.008,0.008l-0.136,0.023
		c-1.134,0.277-2.246,0.486-3.352,0.681c-0.754,0.142-1.5,0.269-2.247,0.395l-5.698,0.98c-1.367,0.222-2.695,0.46-4.032,0.699
		c-2.21,0.39-4.495,0.786-6.786,1.107l-0.628,0.096l-11.64,1.427l-5.437,0.671c-0.851,0.092-1.681,0.158-2.501,0.218l1.911,22.443
		c23.901-2.231,47.623-6.518,70.629-12.745l-14.806-53c-0.501-1.776,0.544-3.629,2.329-4.129
		c21.653-6.046,42.822-14.195,62.915-24.208c1.659-0.827,3.667-0.149,4.496,1.507l12.977,26.048
		c0.806,1.626,0.179,3.604-1.426,4.456c-1.322,0.701-2.667,1.381-4.011,2.046c-4.024,1.97-8.108,3.769-12.096,5.533
		c-1,0.433-1.993,0.879-2.988,1.313c-0.625,0.284-1.261,0.562-1.889,0.846c-0.47,0.222-0.966,0.41-1.445,0.618
		c-1.507,0.674-3.02,1.309-4.55,1.904c-0.873,0.337-1.755,0.687-2.621,1.017l-9.805,3.785l7.633,21.326
		c22.363-8.223,44.172-18.489,64.976-30.577l-28.024-47.371c-0.947-1.597-0.471-3.649,1.128-4.591
		c19.263-11.41,40.505-24.767,54.505-39.7v-0.009c0-0.588,1.636-0.886,2.518-0.827c0.887,0.05,1.782,0.462,2.372,1.127
		l19.158,21.862c0.591,0.673,0.779,1.553,0.72,2.442c-0.06,0.896-0.674,1.723-1.346,2.307L760,798.913v0.009l-8.261,7.487
		c-1.943,1.659-3.527,3.212-5.468,4.712c-1.068,0.82-2.141,1.65-3.194,2.486c-1.112,0.859-2.167,1.688-3.22,2.516
		c-1.605,1.278-3.28,2.571-4.983,3.824l-1.022,0.753l-6.661,4.697l12.858,18.592c19.449-13.671,37.916-29.149,54.985-46.076
		l-39.104-38.708l-0.426-0.516l-0.187-0.351l-0.12-0.227l-0.149-0.47l-0.043-0.156l-0.067-0.648l0.015-0.112l0.045-0.539
		l0.074-0.238l0.112-0.389l0.143-0.275l0.163-0.3l0.426-0.529c15.874-15.948,30.323-33.51,42.926-52.207
		c0.499-0.74,1.269-1.249,2.143-1.418c0.874-0.172,1.778,0.014,2.517,0.513l24.102,16.308c0.746,0.509,1.254,1.292,1.419,2.172
		c0.164,0.889-0.038,1.801-0.562,2.541l-0.007,0.014l-9.901,14.038l-10.686,13.678l-0.619,0.786
		c-0.352,0.439-0.702,0.889-1.061,1.329l-0.739,0.859c-0.33,0.381-0.656,0.768-0.986,1.148l-1.911,2.204l17.106,14.725
		c15.517-18.309,29.479-37.955,41.566-58.494l-47.653-27.509l-0.537-0.394l-0.313-0.33l-0.135-0.148l-0.254-0.403l-0.044-0.149
		c-0.195-0.396-0.29-0.823-0.29-1.256v-0.199l-0.031-0.456l0.03-0.209l0.085-0.426l0.15-0.344l0.117-0.271
		c11.253-19.465,20.69-40.087,28.053-61.301c0.612-1.748,2.523-2.673,4.27-2.068l27.492,9.535c1.703,0.589,2.629,2.419,2.105,4.143
		c-0.8,2.63-1.777,5.175-2.74,7.647l-0.195,0.506c-0.364,0.942-0.731,1.874-1.089,2.825l-1.629,4.218l-2.493,6.472l-4.71,10.626
		c-0.338,0.754-0.665,1.494-0.995,2.232l-0.149,0.343c-0.71,1.62-1.441,3.276-2.227,4.929l20.272,9.833
		c10.26-21.607,18.683-44.211,25.066-67.29l-53.146-14.262c-0.448-0.119-0.853-0.32-1.196-0.591
		c-0.859-0.671-1.352-1.732-1.284-2.843l0.04-0.673c5.794-21.63,9.203-44.023,11.203-66.543v-0.004v-0.004l0.08-0.014
		c0.06-0.884,0.515-1.709,1.185-2.284c0.681-0.582,1.571-0.873,2.459-0.806l29.024,2.176c1.846,0.137,3.232,1.744,3.097,3.588
		l-0.415,5.716l-0.006,0.085c-0.119,1.792-0.262,3.831-0.553,5.86l-0.455,3.705l-1.636,13.284l-2.388,13.859l22.227,4.293
		c4.376-23.49,6.721-47.48,6.989-71.409l-55.031-0.293l-0.321-0.032l-0.349-0.039l-0.299-0.091l-0.329-0.101l-0.277-0.156
		l-0.29-0.158l-0.239-0.195l-0.253-0.213l-0.187-0.225l-0.232-0.27l-0.142-0.262L860.495,504l-0.098-0.3l-0.119-0.318l-0.053-0.326
		l-0.089-0.302l-0.119-5.097c-0.156-23.658-2.815-46.657-7.489-70.657h-0.426H852v0.867c0-0.871,0.47-1.778,0.963-2.518
		c0.485-0.742,1.801-1.258,2.667-1.432l28.48-5.814c1.553-0.316,3.075,0.506,3.701,1.908l0.057,0.188l0.131,0.387l0.01,0.06
		l0.009,0.016l0.021,0.133c0.275,1.121,0.484,2.234,0.678,3.332c0.209,1.134,0.396,2.254,0.583,3.368l0.799,4.594
		c0.217,1.363,0.456,2.701,0.693,4.03c0.366,2.053,0.725,4.174,1.031,6.303c0.061,0.374,0.121,0.743,0.172,1.116l1.083,8.834
		l1.014,8.244c0.089,0.852,0.158,1.682,0.217,2.5l22.453-1.908c-2.241-23.901-6.526-47.623-12.755-70.628l-52.998,14.808
		l-0.844,0.112l-0.06,0.011l-0.097-0.019l-0.963-0.158l-0.851-0.449l-0.143-0.096l-0.642-0.667l-0.097-0.156l-0.433-0.909
		c-6.049-21.646-14.188-42.807-24.193-62.9l-0.006-0.014c-0.831-1.659-0.158-3.67,1.5-4.498l26.052-12.977
		C851.855,321.854,853.835,322.488,854.686,324.094z M414.975,709.604c-11.596,25.3-17.39,51.396-17.397,78.287
		c0,14.17,1.666,28.226,4.889,42.843c-11.64-3.42-23.035-7.871-34.129-12.457c0.187-1.18,0.38-1.276,0.567-4.276h-0.007
		c4.061-23,9.87-45.479,17.412-62.998c7.728-17.99,17.271-31.366,28.665-41.481l-0.023,0.079L414.975,709.604z M709.464,773.559
		c-1.007-3.166-2.061-6.321-3.158-9.462c-11.401-22.663-25.752-43.42-43.062-62.274c-8.063-8.795-28.424-30.307-37.377-33.003
		c10.804,5.689,27.91,35.886,33.256,50.558c12.753,11.82,24.252,24.215,34.511,37.178c4.832,6.106,9.289,12.388,13.567,18.746
		c-1.39,1.047-2.785,2.085-4.189,3.116c-4.241-6.319-8.721-12.528-13.515-18.585c-8.535-10.787-17.934-21.167-28.226-31.143
		c0.039,0.671,0.046,1.329,0,1.913c10.873,15.937,19.617,34.087,26.389,54.297c0.38,1.136,0.761,2.266,1.127,3.412
		c-1.524,1.008-3.074,2.014-4.62,2.994c-0.365-1.175-1.169-2.33-1.169-3.494v0.005c-7-19.575-14.735-37.175-25.061-52.645
		c-1.866,0.021-4.497-1.418-7.865-4.69c-0.935-0.909-1.882-1.888-2.858-2.935c0.126,4.614,0.167,9.107,0.107,13.483
		c-0.186,13.156-1.238,25.252-3.158,36.284c-2.44,14.175-6.396,26.551-11.691,37.274l-0.052,0.023
		c-0.41,0.832-0.769,1.732-1.193,2.545c0.088,0.538,0.141,1.086,0.215,1.626c-7.675,3.189-15.486,6.106-23.43,8.741
		c0.104-1.29,0.247-2.571,0.403-3.856c0.463-3.684,1.112-7.325,1.979-10.775c2.358-9.385,5.025-15.062,7.751-17.083
		c-1.038-28.771-5.146-60.646-12.352-95.619c-0.842-4.161-1.754-8.365-2.701-12.622c-4.683-0.135-9.208-0.364-13.546-0.692
		c-11.305-0.822-21.437-2.241-30.412-4.266c-38.864-8.743-43.927-14.296-89.473-10.207
		c-59.429,10.147-95.322,54.986-107.671,134.492c-0.427,3.011-0.92,5.934-1.404,8.853c-16.428-7.258-32.19-15.747-47.145-25.376
		c-6.377-12.376,7.429-19.373,21.488-28.462c7.766-5.034,15.061-11.053,21.895-18.049c5.053-5.719,10.354-13.176,15.918-22.398
		c-17.039,23.063-29.107,29.619-50.946,44.844c-7.153,4.997-11.506,10.236-13.045,15.74c-0.142,1.95,0.076,3.799,0.516,5.577
		c-9.386-6.236-18.45-12.919-27.156-20.024c2.226-13.925,10.177-25.534,23.976-34.774c-17.615-35.532-6.019-59.807,34.787-72.838
		c44.316-8.436,52.328-26.916,24.015-55.454c-16.764,2.248-33.251-3.054-45.413-13.806c-21.289-18.794-28.3-49.699-9.296-72.792
		c10.729-13.032,26.462-23.589,35.512-37.643c14.492-22.466,7.07-44.457-1.546-77.274c-6.884-26.142-3.001-50.833,11.633-74.085
		c-11.184-9.682-16.487-24.526-13.941-39.102c2.078-11.918,9.148-22.229,19.212-28.508c1.166,5.735,3.951,19.541,12.164,20.489
		c16.241,1.881,18.152,8.803,20.048,15.88c-20.25,2.758-31.293,31.72-33.124,86.906c31.653,1.209,46.295,14.136,43.92,38.761
		c-3.614,13.293-9.274,27.017-16.979,41.187c-6.332,11.536-5.024,19.653,3.951,24.343c10.548,5.517,10.579-3.688,19.249-4.727
		c2.196-0.261,4.652,0.314,7.586,2.396c4.622,3.309,11.335,9.691,16.464,4.66c3.174-3.123,4.004-7.229,3.069-11.479
		c-0.71-3.203-2.456-5.973-5.241-8.31c-3.555-2.77-2.517-3.755,1.261-1.098c6.623,5.92,8.319,12.551,5.07,19.871
		c-2.822,6.39-8.594,8.138-17.338,5.219c-4.159-0.845-9.103,0.999-13.575,0.969c-2.927-0.016-5.31-2.135-8.385-1.798
		c-8.721-0.396-14.27-3.46-16.637-9.155c-4.262-10.275,3.18-22.968,7.743-31.599c4.368-9.14,7.13-15.987,8.288-20.579
		c-1.351-4.287-5.046-6.99-8.558-7.482c1.3,3.182,0.651,8.445-1.933,10.722c-4.914,4.323-14.5,2.076-15.113-6.488
		c-3.24,0.956-6.98,2.353-5.308,7.162c0.477,1.342,2.24,2.245,5.601,2.753c8.279,0.621,14.208-0.022,20.293-3.246
		c3.621-1.592,3.868-1.182,0.724,1.23c-10.475,5.599-20.668,6.75-30.576,3.457c-0.164,1.785-0.537,3.547-1.097,5.295
		c-1.845,8.108-3.226,15.829-4.137,23.184c-1.942,23.818,24.55,120.037,41.187,136.366c4.016,3.936,8.779,6.473,14.304,7.632
		c36.955,5.934,77.954,1.111,122.979-14.48c-15.941,9.724-42.053,18.086-78.334,25.088c4.92,7.036,8.228,15.19,9.938,24.485
		c47.699-20.996,96.942-33.191,147.724-36.586c5.771,17.98,13.903,35.773,24.378,53.357c-5.966-12.702-12.117-30.607-18.464-53.71
		c-8.02-27.848-11.806-58.001-11.342-90.457c-13.53-3.883-17.756-13.32-12.672-28.309c-0.918,18.87,19.078,12.993,28.814,5.169
		c14.001-11.245,18.878-32.415,14.657-63.521c37.686-22.922,44.451-51.199,20.296-84.837c20.817,38.884,4.809,67.028-48.034,84.417
		c-2.948-17.158-16.195-26.677-39.752-28.552c-1.568-10.663-6.675-23.348-15.33-38.066c18.982-12.67,31.265-27.012,36.856-43.045
		c15.994-51.401-29.323-75.609-135.955-72.621c-0.037-1.402-0.305-2.853-0.515-4.349c-0.604-4.481-1.216-9.379-4.216-14.69v-0.004
		c146-18.615,221.147,18.081,227.085,110.078c28.113,33.104,41.914,62.893,41.25,89.366c-0.852,34.041-25.436,62.6-73.845,85.68
		c38.768,11.517,58.641,27.108,59.567,46.795c0.314,6.562-1.469,13.582-5.358,21.051c-11.888-19.426-28.675-32.708-50.352-39.874
		c21.25,10.44,36.545,26.162,45.863,47.268c1.717,6.069,2.473,11.916,2.264,17.543c-0.867,24.382-19.816,44.621-56.837,60.709
		c11.552,19.827,24.902,28.343,38.694,45.744c13.694,17.282,23.467,34.733,30.531,52.631
		C712.406,771.282,710.942,772.425,709.464,773.559z M419.664,205.844c18.113,7.664,29.359,21.701,33.727,42.104
		c4.047,15.06-1.956,27.507-20.496,33.413c-9.685,2.149-15.285,8.7-16.771,19.66c-1.688,8.197-5.315,13.178-9.011,14.127
		c-0.77,3.748-1.354,7.52-1.756,11.297c-0.463,4.293-0.688,8.587-0.658,12.887c2.009,0.981,3.48,3.877,3.48,7.311
		c0,4.225-2.232,7.652-4.973,7.652c-2.748,0-4.965-3.428-4.965-7.652c0-3.613,1.628-6.646,3.808-7.451
		c-0.007-4.353,0.216-8.699,0.68-13.022c0.388-3.698,0.955-7.387,1.701-11.075c-3.568-1.068-6.75-6.278-7.758-16.455
		c-0.769-10.977-7.256-17.937-19.457-20.893c-4.242-0.912-7.354-4.697-9.334-11.357c-6.414-22.819-5.442-42.383,2.912-58.691
		c20.855,4.302,32.443,28.038,34.788,71.173C404.85,233.241,409.546,208.896,419.664,205.844z M460.329,256.875
		c2.098-0.073,3.666-0.186,5.763-0.284c23.932-1.125,45.167-0.042,63.714,3.265c28.158,5.011,71.137,18.093,62.9,55.351
		c-2.726,12.367-11.805,25.255-27.216,38.694c-13.59,11.843-38.081,28.538-15.284,47.51c16.695,13.902,38.072,9.185,49.975,23.699
		c8.541,10.424,7.138,26.485-4.241,48.161c-6.355,7.07-14.209,13-23.61,17.795c-16.794,9.542-15.966,19.479,2.494,29.798
		c-15.292,12.328-28.374,19.064-39.267,20.189c-13.858,1.45-26.403-8.026-27.583-22.212c-0.748-8.848,4.704-17.144,16.33-24.886
		c12.7-7.162,19.054-10.754,19.054-10.754c18.802-12.081,17.151-30.284,3.72-33.517c-32.003-15.27-45.667-33.892-40.995-55.868
		c0.576-10.617,4.213-19.839,10.918-27.656c17.882-20.886,56.292-24.76,64.169-54.762c3.352-12.769-5.249-23.915-25.812-33.45
		c-24.037-10.141-56.166-14.061-95.36-11.918C460.425,262.977,460.523,260.425,460.329,256.875z M495.272,422.909
		c-3.016-0.77-5.682-1.189-7.967-1.239c-0.59,5.682-5.271,10.064-10.983,10.303c-5.719,0.231-10.737-3.755-11.789-9.371
		c-2.054-0.208-4.883,0.71-8.499,2.793c-1.402,0.658-1.807,0.38-1.238-0.827c9.55-13.815,26.67-14.645,51.348-2.481
		c7.774,4.541,7.311,7.991-1.344,10.342c-15.822,4.211-30.322,4.271-43.486,0.202c15.538,1.521,26.797,1.075,33.75-1.345
		C500.791,428.271,500.865,425.478,495.272,422.909z M440.854,535.911c-6.13-1.544-13.948-2.211-23.446-2.016
		c-5.367-0.254-9.96-0.089-13.76,0.502c-4.913,0.76-5.824,1.484-9.805,3.874c-2.65,1.59-4.165,0.037-3.644-3.755
		c1.554-11.016,6.108-14.92,15.606-11.485c7.333-6.228,16.24-6.079,26.717,0.417c7.996,6.005,15.38,10.344,22.146,13.041
		c3.27,1.505,3.973,2.605,2.089,3.283c-7.876,2.859-13.499,5.057-19.226,8.894c-8.743,5.861-10.349,9.817-22.289,11.559
		c-3.112,0.454-5.793,0.328-8.047-0.374c-5.579-1.732-10.12-8.752-11.583-15.098c-0.985-4.31-0.784-6.699,4.039-8.115
		c2.3-0.68,5.325-0.772,9.05-0.256c3.181,0.41,6.213,0.41,9.11,0c6.37-1.65,13.924-1.336,22.676,0.925
		C446.791,537.993,446.903,537.523,440.854,535.911z M500.478,388.644c-25.037-10.61-44.995-8.727-59.831,5.638
		c-3.787,3.583-7.536,1.111-5.803-2.122c14.067-18.958,43.204-20.132,67.492-6.621C505.076,387.358,503.724,389.585,500.478,388.644
		z M502.412,413.598c-21.945-9.582-39.329-8.058-52.17,4.555C462.613,402.234,480.002,400.718,502.412,413.598z M557.538,287.773
		c25.208,15.518,18.585,33.729-19.876,54.629c-22.093-28.575-61.019-42.09-116.772-40.562c0.357-7.375,3.809-12.617,10.348-15.724
		c16.197-4.165,24.544-9.235,27.949-14.993C509.849,270.51,543.589,276.135,557.538,287.773z M623.26,450.052
		c-1.866,3.494-3.463,0.291-1.402-2.339c5.517-8.452,13.767-6.002,15.119,4.862c0.195,19.032-7.265,32.547-22.369,40.566
		c13.544-10.608,20.212-23.438,19.801-38.498C634.132,444.404,627.165,442.709,623.26,450.052z M840.306,500.688l-0.045,1.876
		c-0.172,44.445-9.258,89.36-26.291,129.894c-16.941,40.495-42.575,78.479-74.139,109.851c-7.019,7-14.41,13.648-22.041,20.024
		c-7.078-16.54-16.487-32.696-29.158-48.69c-11.059-13.946-24.156-24.499-34.198-38.939c22.826-10.917,46.584-27.619,52.469-53.245
		c2.022-8.775,1.701-17.63-0.307-26.291l3.105-5.959c4.892-9.377,7.625-19.905,5.331-30.458
		c-4.585-21.234-27.388-34.018-48.144-41.826c27.602-15.33,54.081-37.343,61.352-68.868c9.066-39.29-15.135-78.527-39.409-107.512
		c-1.927-24.881-9.079-48.789-24.818-68.591c-19.848-24.984-49.042-38.037-79.649-44.504c-41.478-8.775-88.115-6.36-129.914-1.015
		l-1.674,0.213c-6.563-11.971-16.628-21.161-30.479-27.026l-2.248-0.953l-2.345,0.701c-10.311,3.118-14.008,16.455-15.799,25.747
		c-0.09,0.514-0.187,1.029-0.291,1.549c-5.944-12.603-15.143-22.62-29.458-25.578l-5.031-1.042l-2.352,4.578
		c-8.154,15.923-9.313,33.317-6.415,50.411l-0.889,0.552c-11.789,7.354-19.899,19.385-22.287,33.076
		c-2.621,14.979,1.94,30.286,12.065,41.375c-13.186,23.289-16.584,48.333-9.646,74.69c4.231,16.129,11.669,38.85,8.892,55.479
		c-1,5.973-3.204,11.348-6.48,16.434c-8.848,13.724-24.461,24.142-35.057,36.997c-21.31,25.903-14.022,60.899,10.043,82.149
		c12.896,11.396,30.18,17.138,47.31,15.809c5.778,6.158,14.164,16.613,12.028,24.304c-2.957,10.693-25.796,15.747-34.736,17.449
		l-0.394,0.083l-0.396,0.128c-40.418,12.894-57.839,38.511-41.201,77.049c-10.604,8.244-17.123,17.792-20.386,28.192
		c-6.628-5.709-13.11-11.602-19.263-17.795c-31.391-31.466-56.822-69.583-73.556-110.238
		c-16.77-40.573-25.625-85.531-25.604-130.026l0.038-1.833c0.172-44.452,9.267-89.334,26.299-129.857
		c16.933-40.5,42.566-78.422,74.137-109.787c31.464-31.395,69.583-56.938,110.247-73.665C410.054,168.843,454.958,160,499.357,160
		h0.134h1.859h0.03h0.023c44.441,0,89.355,9.273,129.884,26.306c40.5,16.934,78.483,42.453,109.851,74.018
		c31.39,31.471,56.831,69.65,73.556,110.303C831.465,411.19,840.312,456.201,840.306,500.688z"/>
	<path fill="#FFFFFF" d="M807.361,195.021c-39.911-40.163-88.244-73.393-139.762-94.938C616.034,78.413,558.895,66,502.349,66
		h-0.029c-0.016,0-0.038,0-0.038,0h-2.356c-0.058,0-0.116,0-0.177,0c-56.48,0-113.618,11.861-165.182,33.18
		c-51.727,21.279-100.223,53.934-140.261,93.877c-40.16,39.909-72.77,88.383-94.314,139.909
		c-21.668,51.56-33.237,108.772-33.46,165.325l-0.05,2.387c-0.023,56.618,11.243,113.841,32.583,165.455
		c21.281,51.726,53.643,100.229,93.578,140.266c39.907,40.159,88.237,72.683,139.759,94.224
		C383.964,922.292,441.105,934,497.649,934c0.024,0,0.046,0,0.061,0h2.361c0.058,0,0.119,0,0.179,0
		c56.484,0,113.619-11.148,165.182-32.467c51.729-21.28,100.222-53.579,140.261-93.522c40.153-39.909,72.77-88.207,94.32-139.726
		c21.669-51.568,33.23-108.692,33.455-165.243l0.053-2.382c0.014-56.597-11.252-113.779-32.586-165.384
		C879.654,283.55,847.295,235.053,807.361,195.021z M852.423,398.03l53.03-14.816l0.665-0.126c0.665-0.043,1.314,0.108,1.88,0.424
		l0.323,0.213l0.202,0.119l0.71,0.825l0.103,0.055l0.068-0.048l0.208-0.123c7.131,25.484,11.94,49.447,14.209,77.447H925v1.984
		l-0.639,0.658l-0.573,0.47l-0.118,0.163l-0.248,0.5l-0.066,0.103c-0.216,0.385-0.51,0.724-0.854,0.997l-0.11,0.076l-0.441,0.282
		l-0.183,0.071l-0.433,0.176l-0.649,0.119l-29.181,2.484l-0.292,0.011l-0.215-0.018l-0.254-0.023l-0.374-0.08l-0.231-0.066
		l-0.381-0.161l-0.194-0.094l-0.441-0.307l-0.073-0.041c-0.679-0.578-1.099-1.402-1.172-2.293c-0.061-0.697-0.106-1.391-0.149-2.092
		c-0.083-1.18-0.166-2.36-0.292-3.531l-1.009-8.213l-1.087-8.805l-0.108-0.754c-0.298-2.083-0.665-4.227-1.038-6.305
		c-0.238-1.363-0.485-2.729-0.701-4.097c-0.248-1.287-0.466-2.65-0.699-4.016c-0.202-1.253-0.407-2.472-0.622-3.675l-0.023-0.163
		l-22.439,4.475c4.33,22.322,6.29,45.26,6.29,68.235V500h12.991l0.618-0.244l42.172-0.285c1.851,0.014,3.761,1.606,3.761,3.455
		c-0.081,26.57-0.542,53.339-7.542,79.377v0.007l-0.223,0.018l-0.062,0.594l-0.258,0.194l-0.275,0.367l-0.175,0.181l-0.267,0.302
		l-0.175,0.158l-0.31,0.254l-0.183,0.114l-0.359,0.19l-0.188,0.087l-0.41,0.112l-0.179,0.027l-0.501-0.407L914.309,584h-0.023
		l-0.633,0.451l-28.764-5.245c-1.567-0.307-2.673-1.553-2.71-3.091l0.045-0.614l2.929-16.91l2.075-16.877
		c0.135-0.933,0.231-1.867,0.313-2.792c0.06-0.704,0.112-1.407,0.166-2.128l0.042-0.591l0.172-2.398l-22.354-1.673
		c-1.74,20.693-5.219,41.242-10.371,61.2l53.178,14.262c0.441,0.119,0.843,0.305,1.187,0.575c0.859,0.671,1.352,0.906,1.284,2.018
		L910.739,610h-0.007c-6.876,28-16.249,51.691-27.835,75.594l-0.352,1.025l-0.118,0.333l-0.33,0.451l-0.18,0.174l-0.351,0.282
		l-0.075,0.04l-0.507,0.247l-0.605,0.146l-0.142,0.015l-0.351,0.031l-0.09-0.016l-0.471-0.05l-0.224-0.03l-0.679-0.248
		l-26.35-12.782c-0.823-0.396-1.442-1.113-1.725-1.977c-0.143-0.436-0.194-0.891-0.151-1.331c0.039-0.449,0.165-0.882,0.374-1.283
		c0.828-1.553,1.584-3.159,2.315-4.795c0.419-0.919,0.829-1.835,1.248-2.793c0.389-0.866,0.769-1.732,1.157-2.596l4.637-10.455
		l3.771-9.79l0.29-0.754l0.09-0.241c0.328-0.866,0.665-1.739,1.007-2.612c0.516-1.315,0.994-2.584,1.464-3.854l0.284-0.747
		l-21.221-7.354c-6.958,19.445-15.62,38.381-25.798,56.375l47.676,27.523l0.546,0.387l0.276,0.3l0.163,0.177l0.225,0.359
		l-0.449,0.202c0.186,0.387-0.252,0.813-0.252,1.256v0.192l0.117,0.456L868,712.052v0.449l0.405,0.199l0.071,0.403l0.117,0.009
		c-13.231,22.909-28.701,44.764-46.099,64.953l-0.484,0.493l-0.186,0.119l-0.389,0.233l-0.241,0.096l-0.394,0.126l-0.259,0.046
		l-0.412,0.043l-0.112,0.009l-0.208-0.016l-0.275-0.021l-0.337-0.076l-0.261-0.069l-0.366-0.156l-0.21-0.105l-0.521-0.367
		l-22.2-19.115c-0.671-0.582-1.089-1.404-1.157-2.291c-0.061-0.889,0.231-1.762,0.807-2.436l4.069-4.71
		c0.462-0.529,0.902-1.038,1.336-1.553l0.329-0.387c0.531-0.628,1.037-1.263,1.522-1.913l4.144-5.295l6.491-8.31l7.824-11.103
		l-18.501-12.527c-11.755,17.082-25.016,33.202-39.478,48.01l39.118,38.731l0.426,0.516l0.201,0.374l0.104,0.201l0.135,0.433
		l0.06,0.193l0.066,0.65l-0.008,0.05l-0.051,0.598l-0.06,0.188l-0.127,0.44l-0.126,0.243l-0.18,0.339l-0.418,0.531
		c-18.81,18.943-39.351,36.165-61.056,51.165l-0.008,0.034l-0.814,0.449l-0.208-0.054L739.226,852h-0.022l-0.111,0.093L738.502,852
		h-0.238l-0.456-0.237l-0.237-0.154l-0.419-0.3l-0.194-0.158l-0.508-0.577l-16.657-24.091c-1.053-1.508-0.681-3.587,0.82-4.646
		l9.363-6.601c1.927-1.368,3.861-2.898,5.727-4.37l0.509-0.403c0.912-0.717,1.821-1.434,2.74-2.142
		c1.008-0.8,2.075-1.629,3.15-2.456l0.054-0.046c1.88-1.448,3.829-2.956,5.628-4.502l4.182-3.606l1.912-1.659l-14.77-16.814
		c-15.725,13.591-32.592,25.851-50.22,36.513l28.015,47.398c0.941,1.59,0.41,3.643-1.18,4.584l-0.008,0.007
		c-22.998,13.614-47.278,25.037-72.174,33.952l-0.61,0.149l-0.21,0.023l-0.306,0.023l-0.069-0.009l-0.873-0.133l-0.17-0.06
		l-0.71-0.351l-0.112-0.069l-0.641-0.612l-0.127-0.165l-0.455-0.82l-9.879-27.576c-0.157-0.424-0.216-0.866-0.193-1.299
		c0.066-1.283,0.866-2.463,2.142-2.956l12.902-4.974c1.419-0.552,2.807-1.084,4.167-1.627l0.066-0.032
		c1.337-0.536,2.644-1.098,3.934-1.703c1.688-0.76,3.339-1.484,4.981-2.208c4.219-1.86,8.557-3.771,12.747-5.86l-10.021-20.1
		c-18.561,9.036-37.99,16.512-57.853,22.261l14.815,53.029l0.112,0.678c0.112,1.553-0.882,3.042-2.442,3.476
		c-25.476,7.123-51.864,11.893-78.431,14.17l-0.284,0.05h-0.045l-0.559-0.094l-0.256-0.139l-0.319-0.079l-0.264-0.113l-0.282-0.141
		l-0.231-0.164l-0.203-0.141l-0.043-0.042l-0.286-0.302l-0.148-0.163l-0.262-0.396l-0.082-0.135l-0.208-0.52l-0.031-0.076
		l-0.118-0.642l-2.487-29.188c-0.074-0.889,0.21-1.769,0.784-2.449c0.576-0.678,1.404-1.097,2.292-1.173
		c0.695-0.06,1.389-0.103,2.092-0.155c1.18-0.083,2.358-0.158,3.53-0.284l5.414-0.665l11.596-1.427
		c2.332-0.305,4.742-0.731,7.079-1.148c0.633-0.112,1.261-0.218,1.897-0.33c0.731-0.126,1.456-0.261,2.188-0.38
		c1.284-0.238,2.649-0.467,4.009-0.696c0.62-0.099,1.203-0.208,1.807-0.312l0.912-0.16l0.94-0.177l0.186-0.053l-4.479-22.004
		c-22.319,4.331-45.255,6.512-68.232,6.661l-1.298-0.172l-0.292,54.674c-0.005,1.845-1.509,2.584-3.353,2.584h-0.007
		c-26.566,0-53.245-1.942-79.282-7.006l-0.008,0.727c-0.687-0.126-1.276-0.446-1.732-0.909l-0.067-0.069l-0.343-0.416l-0.105-0.187
		l-0.201-0.381l-0.149-0.468l-0.053-0.142c-0.089-0.426-0.096-0.875-0.007-1.331l5.555-28.762c0.299-1.567,1.644-2.665,3.188-2.708
		l0.672,0.043l16.935,2.928l16.891,2.076c0.366,0.05,0.731,0.08,1.104,0.126c0.575,0.066,1.158,0.142,1.726,0.195
		c0.933,0.073,1.836,0.142,2.687,0.194l2.398,0.179l1.68-22.356c-20.706-1.741-41.263-5.226-61.205-10.372l-14.27,53.172
		l-0.425,0.932l-0.082,0.135l-0.665,0.694l-0.121,0.083c-0.529,0.387-1.163,0.604-1.843,0.628l-0.096,0.014l-0.077-0.007
		l-0.799-0.112c-25.686-6.876-50.826-16.242-74.735-27.837l-0.566-0.351l-0.271-0.245l-0.208-0.195l-0.268-0.367l-0.121-0.163
		l-0.23-0.508l-0.037-0.09l-0.023-0.066l-0.134-0.561l-0.009-0.261l-0.014-0.396l0.044-0.321l0.053-0.321l0.231-0.627l12.79-26.35
		c0.396-0.82,1.113-1.441,1.979-1.725l0.83-0.149c0.515-0.03,1.037,0.06,1.521,0.268l0.261,0.105c0.763,0.41,1.546,0.77,2.323,1.15
		c0.461,0.225,0.917,0.463,1.388,0.688l0.927,0.41c0.977,0.44,1.956,0.882,2.973,1.329c0.558,0.248,1.126,0.5,1.688,0.747
		l0.895,0.396l6.212,2.756l4.234,1.879l8.96,3.45l1.582,0.614c0.935,0.351,1.884,0.715,2.824,1.088
		c1.583,0.614,3.105,1.209,4.621,1.755l7.362-21.22c-19.45-6.958-38.378-15.627-56.375-25.798l-27.521,47.678l-0.396,0.543
		l-0.27,0.248l-0.208,0.195l-0.351,0.222l-0.202,0.119c-0.433,0.218-0.911,0.321-1.39,0.337l-0.088,0.007l-0.135-0.016l-0.59-0.073
		l-0.209-0.053l-0.747-0.307l-0.007-0.007c-22.909-13.231-44.756-28.753-64.954-46.152c-1.053-0.903-1.403-2.323-1-3.561
		c0.135-0.417,0.349-0.815,0.651-1.166l19.113-22.191c0.583-0.671,1.404-1.088,2.292-1.157c0.904-0.066,1.763,0.225,2.435,0.807
		l4.779,4.128l0.97,0.839l0.934,0.797c0.619,0.516,1.239,1.022,1.881,1.501l8.736,6.825l4.855,3.794l7.721,5.435l3.396,2.396
		l12.521-18.505c-17.075-11.762-33.204-25.017-48.003-39.482L204.756,803.3l-0.525,0.413l-0.178,0.073l-0.396,0.161l-0.194-0.039
		l-0.433-0.062l-0.09-0.252L202.388,803h-0.014l-0.322,0.616l-0.321,0.687l-0.262-0.108l-0.366-0.129l-0.239-0.133l-0.336-0.185
		l-0.515-0.42c-18.943-18.801-36.154-39.343-51.162-61.049c-1.047-1.523-0.664-3.608,0.85-4.66l24.09-16.666
		c1.516-1.047,3.59-0.68,4.651,0.83l6.6,9.361c1.367,1.92,2.89,3.854,4.362,5.721c0.858,1.074,1.709,2.158,2.545,3.246
		c0.583,0.74,1.188,1.51,1.792,2.287l0.732,0.949c0.725,0.933,1.456,1.888,2.204,2.829l0.514,0.619
		c0.582,0.733,1.164,1.455,1.769,2.159l5.265,6.094l16.808-14.777c-13.583-15.717-25.842-32.584-36.505-50.221l-47.4,28.022
		l-0.749,0.312l-0.228,0.055l-0.582,0.081l-0.135,0.014l-0.077-0.004c-0.517-0.017-1.009-0.149-1.465-0.39l-0.153-0.104
		l-0.425-0.359l0.459-0.142l0.229-0.642v-0.007c-16-22.998-25.77-47.288-34.687-72.174c-0.545-1.523-0.395-3.182,0.935-3.995
		l0.486-0.291l27.513-9.879c1.71-0.621,3.567,0.248,4.224,1.95l4.956,12.895c0.546,1.427,1.069,2.815,1.62,4.167
		c0.18,0.456,0.386,0.887,0.572,1.338c0.382,0.893,0.746,1.789,1.157,2.671c0.761,1.695,1.482,3.345,2.216,4.995
		c0.537,1.226,1.096,2.472,1.649,3.718c1.345,3.018,2.717,6.048,4.202,9.006l20.102-10.014
		c-9.043-18.569-16.517-38.005-22.259-57.855l-53.024,14.812l-0.814,0.117l-0.087,0.007l-0.111-0.014
		c-0.658-0.023-1.276-0.241-1.807-0.609l-0.12-0.089l-0.635-0.676l-0.059-0.142l-0.684-0.919C82.225,590.425,80,564.039,75,537.471
		v-0.009l0.189-0.658l0.109-0.371l0.141-0.271l0.211-0.413l0.104-0.183l0.346-0.493l0.042-0.048l0.032-0.025l0.441-0.433
		l0.136-0.087l0.412-0.271l0.194-0.076l0.411-0.165l0.658-0.124l29.179-2.483c0.88-0.083,1.77,0.206,2.456,0.786
		c0.679,0.573,1.098,1.396,1.172,2.284c0.054,0.697,0.105,1.396,0.15,2.092c0.081,1.178,0.164,2.362,0.291,3.538l2.091,17.002
		c0.112,0.854,0.257,1.729,0.391,2.598c0.122,0.763,0.251,1.517,0.377,2.278c0.135,0.747,0.263,1.503,0.396,2.241
		c0.241,1.347,0.494,2.694,0.714,4.046c0.239,1.285,0.491,2.644,0.716,4.002c0.202,1.209,0.453,2.383,0.661,3.54l0.157,0.314
		l22.666-4.472C135.51,549.277,134,526.338,134,503.375v-1.297l-55.538-0.291c-1.851-0.007-4.209-1.512-4.201-3.359
		C74.342,471.854,75,445.183,82,419.145v-0.012c0-1.817,1.875-3.003,3.689-2.653l28.2,5.556c1.792,0.341,3.142,2.06,2.835,3.86
		l-2.847,16.929l-1.595,13.258l-0.426,3.652c-0.27,1.872-0.387,3.81-0.505,5.519l-0.167,2.38l22.357,1.675
		c1.739-20.698,5.229-41.258,10.373-61.202L90.738,393.84c-1.561-0.417-2.568-1.881-2.472-3.435l0.104-0.671
		c6.885-25.685,16.248-50.826,27.837-74.735l0.357-0.571l0.271-0.295l0.17-0.183l0.396-0.287l0.133-0.096l0.575-0.261l0.016-0.014
		l0.634-0.151l0.276-0.012l0.38-0.016l0.292,0.046l0.35,0.055l0.627,0.231l26.35,12.791c0.822,0.394,1.442,1.113,1.726,1.975
		c0.141,0.433,0.194,0.884,0.149,1.333c-0.037,0.44-0.164,0.88-0.38,1.279c-0.643,1.219-1.248,2.454-1.83,3.716
		c-0.584,1.258-1.144,2.543-1.727,3.868c-0.387,0.871-0.768,1.741-1.157,2.609l-4.644,10.459l-0.462,1.201l-3.584,9.317
		c-0.359,0.944-0.732,1.902-1.105,2.862c-0.389,0.988-0.74,1.943-1.096,2.896c-0.218,0.568-0.454,1.144-0.655,1.702l21.218,7.361
		c6.961-19.449,15.62-38.378,25.795-56.372l-47.682-27.525l-0.552-0.39l-0.342-0.339l-0.172-0.145l-0.375-0.433l-0.35-0.117
		c-0.194-0.396-0.812-0.822-0.812-1.26v-0.144l0.411-0.509l0.394-0.163l-0.015-0.479l-0.276-0.231L129,288.334v-0.007
		c14-22.899,29.457-44.756,46.856-64.953c1.051-1.226,3.46-1.5,4.822-0.742l0.572,0.387l22.21,19.115
		c0.67,0.58,1.095,1.407,1.155,2.291c0.066,0.884-0.221,1.767-0.797,2.438l-4.134,4.784c-0.756,0.873-1.472,1.721-2.167,2.568
		c-0.321,0.398-0.649,0.795-0.953,1.205l-7.327,9.371l-3.307,4.236l-7.824,11.11l18.501,12.521
		c11.753-17.085,25.014-33.205,39.478-48.008l-39.12-38.729l-0.419-0.514l-0.214-0.396l-0.099-0.181l-0.142-0.454l-0.051-0.172
		l-0.068-0.648l0.007-0.05l0.054-0.6l0.066-0.211l0.12-0.415l0.157-0.291l0.15-0.289l0.421-0.522
		C215.743,182.241,236,165.03,258,150.023v-0.002l0.489-0.268c1.209-0.568,2.634-0.355,3.619,0.518l0.111,0.087l0.441,0.516
		l16.657,24.086c0.396,0.568,0.59,1.214,0.597,1.855c0.016,1.07-0.477,2.128-1.418,2.791l-9.372,6.603
		c-1.694,1.21-3.396,2.539-5.054,3.849l-0.653,0.511c-1.083,0.855-2.165,1.707-3.256,2.545c-1.022,0.82-2.116,1.661-3.207,2.502
		c-1.784,1.375-3.62,2.8-5.338,4.259l-0.31,0.245l-6.124,5.265l14.722,16.814c15.726-13.583,32.501-25.853,50.131-36.518
		l-28.251-47.4c-0.82-1.391,0.215-3.15,0.215-4.197v-0.03l0.688-0.257l0.678-0.468c22.998-13.613,47.3-27.33,72.195-34.33h0.008
		l0.238,0.318c1.674-0.467,3.45,0.719,4.047,2.38l9.88,27.61c0.61,1.711-0.248,3.622-1.952,4.277l-12.891,4.98
		c-1.424,0.547-2.815,1.082-4.172,1.632c-1.36,0.55-2.692,1.12-4.015,1.738c-1.694,0.763-3.344,1.492-4.995,2.216
		c-0.59,0.261-1.195,0.533-1.792,0.794c-3.651,1.613-7.362,3.264-10.96,5.061l9.989,20.103c18.571-9.036,37.946-16.51,57.801-22.258
		L381.08,94.826L380,94.157v-0.011c0-1.551,1.847-3.013,3.408-3.446c25.476-7.125,52.461-11.891,79.026-14.161
		c1.397-0.128,2.844,0.625,3.443,1.796l0.115,0.043l0.27,0.559l0.141,0.655l2.5,29.184c0.074,0.889-0.205,1.771-0.778,2.452
		c-0.583,0.678-1.4,1.102-2.289,1.173c-0.688,0.055-1.38,0.101-2.068,0.151c-1.186,0.083-2.374,0.163-3.552,0.286l-5.413,0.667
		l-11.601,1.425c-1.165,0.151-2.351,0.334-3.54,0.534c-1.187,0.197-2.369,0.41-3.535,0.619c-1.367,0.243-2.733,0.483-4.092,0.706
		c-1.292,0.238-2.665,0.469-4.028,0.696l-0.953,0.165l-1.829,0.321c-0.38,0.062-0.852,0.151-1.225,0.215l3.713,22.01
		C450.04,135.862,474,133.681,495,133.53V134h3.192l0.291-55.368c0.015-1.845,1.508-3.632,3.361-3.632h0.007
		c26.581,0,53.252,0,79.282,7h0.007c0.456,0,0.873,0.617,1.231,0.857l0.016-0.14l0.485,0.652l0.066,0.203l0.344,0.482l0.097,0.215
		l0.21,0.398l0.148,0.493l0.046,0.155c0.09,0.426,0.097,0.901,0.014,1.354l-5.555,28.81c-0.344,1.794-2.067,3.068-3.861,2.766
		l-16.934-2.736l-9.341-1.558L540.543,113h-0.015c-0.933,0-1.874-0.209-2.793-0.292l-0.813-0.439c-0.643-0.05-1.292,0.102-1.89,0.06
		l-1.671-0.023l-0.716,0.001l-1.682,22.379c20.699,1.739,41.255,5.236,61.206,10.384l14.27-53.167
		c0.119-0.447,0.321-0.847,0.589-1.19c0.8-1.026,2.167-1.531,3.517-1.176c25.68,6.878,50.827,16.25,74.736,27.84l0.568,0.351
		l0.305,0.284l0.172,0.163l0.269,0.364l0.119,0.163l0.217,0.481l0.053,0.112l0.022,0.103l0.134,0.529l0.008,0.275l0.014,0.378
		l-0.045,0.328l-0.052,0.321l-0.231,0.63l-12.792,26.348c-0.403,0.818-1.113,1.441-1.979,1.723
		c-0.865,0.282-1.805,0.199-2.613-0.229c-2.433-1.296-4.942-2.401-7.6-3.569c-0.867-0.38-1.734-0.761-2.592-1.148l-10.453-4.637
		l-4.989-1.922l-5.546-2.138c-0.934-0.353-1.873-0.722-2.822-1.088c-1.576-0.614-3.106-1.209-4.623-1.755l-7.361,21.215
		c19.443,6.96,38.378,15.625,56.375,25.805l27.522-47.68l0.387-0.541l0.36-0.332l0.119-0.112l0.5-0.307l0.051-1.095
		c0.396-0.194,0.821-1.396,1.261-1.396h0.21l0.441,1.077l0.298,0.596l0.344,0.344l0.604,0.406
		c22.916,13.238,44.771,28.834,64.969,46.226c1.225,1.056,1.501,2.842,0.74,4.204l-0.39,0.574l-19.115,22.201
		c-0.581,0.676-1.403,1.095-2.292,1.162l-0.247,0.009l-0.269-0.023l-0.201-0.016l-0.465-0.103l-0.149-0.041l-0.461-0.202
		l-0.121-0.058l-0.521-0.369l-4.795-4.142c-0.642-0.555-1.261-1.095-1.881-1.615l-0.462-0.364c-0.471-0.39-0.94-0.777-1.427-1.139
		L731.246,187.1l-11.104-7.829l-12.528,18.505c17.083,11.755,33.211,25.014,48.011,39.478l38.722-39.118l0.519-0.422l0.479-0.261
		l0.093-0.05l0.538-0.167l0.06-0.025l0.658-0.066c0.611-0.012,1.164,0.176,1.687,0.501l-0.03,0.048l0.114,0.36L798,198.127v0.016
		c19,18.801,36.698,39.368,51.698,61.078c1.054,1.515,1.178,3.664-0.338,4.715l-24.072,16.767l-0.81,0.621l-0.189,0.087L823.431,282
		h-0.016l-0.105-0.472l-0.597-0.728l-0.231,0.034l-0.462-0.116l-0.226-0.091l-0.433-0.272l-0.178-0.136l-0.515-0.561l-6.601-9.358
		c-1.249-1.762-2.628-3.517-3.98-5.233l-0.381-0.484c-0.859-1.084-1.71-2.165-2.554-3.263c-0.269-0.337-0.545-0.696-0.821-1.049
		c-0.553-0.706-1.112-1.416-1.666-2.14c-1.41-1.822-2.86-3.7-4.353-5.451l-0.146-0.183l-5.256-6.104l-16.782,14.777
		c13.583,15.724,25.895,32.591,36.557,50.221l47.008-28.015c1.593-0.949,4.307-0.419,4.307,1.18v0.007
		c16,22.994,28,47.277,35,72.167v0.007c0,1.521-0.323,3.18-1.651,3.991l-0.951,0.291l-27.522,9.884l-0.588,0.149l-0.166,0.018
		l-0.351,0.025l-0.043-0.007l-0.841-0.126l-0.187-0.068l-0.694-0.328l-0.112-0.067l-0.641-0.586l-0.121-0.161l-0.463-0.799
		l-4.973-12.895c-0.29-0.758-0.574-1.48-0.865-2.218c-0.561-1.441-1.151-2.862-1.756-4.246c-0.245-0.573-0.477-1.155-0.739-1.713
		c-0.506-1.127-0.985-2.218-1.47-3.315c-0.246-0.557-0.501-1.12-0.74-1.672c-1.859-4.218-3.77-8.555-5.862-12.739l-20.1,10.012
		C839.199,358.738,846.674,378.168,852.423,398.03z"/>
	<path fill="#1E3A2B" d="M856.127,342.895c0.239,0.552,0.494,1.116,0.74,1.672c0.484,1.098,0.963,2.188,1.47,3.315
		c0.262,0.559,0.494,1.141,0.739,1.713c0.605,1.384,1.196,2.804,1.756,4.246c0.291,0.738,0.575,1.459,0.865,2.218l4.973,12.895
		l0.463,0.799l0.121,0.161l0.641,0.586l0.112,0.067l0.694,0.328l0.188,0.068l0.843,0.126l0.046,0.007l0.357-0.025l0.179-0.018
		l0.613-0.149l27.575-9.884l0.848-0.291c1.328-0.811,1.651-2.47,1.651-3.991v-0.007c-7-24.891-19-49.174-35-72.167v-0.007
		c0-1.599-2.714-2.128-4.307-1.18l-47.259,28.015c-10.662-17.63-22.849-34.497-36.431-50.221l16.844-14.777l5.288,6.104l0.161,0.183
		c1.493,1.75,2.951,3.629,4.361,5.451c0.553,0.724,1.116,1.434,1.67,2.14c0.275,0.353,0.553,0.712,0.823,1.049
		c0.843,1.098,1.695,2.179,2.555,3.263l0.382,0.485c1.352,1.716,2.731,3.471,3.98,5.233l6.601,9.362l0.515,0.563l0.178,0.142
		l0.433,0.284l0.226,0.114l0.462,0.167l0.231,0.068l0.597,0.525l0.105,0.472h0.016l0.865-0.589l0.194-0.291l0.821-0.518
		l24.096-16.715c1.517-1.054,1.345-3.177,0.291-4.691c-15-21.71-32.698-42.252-51.698-61.053v-0.016l0.463-0.073l-0.163-0.36
		l0.055-0.048c-0.522-0.325-1.064-0.513-1.674-0.501l-0.652,0.066l-0.057,0.025l-0.537,0.167l-0.092,0.05l-0.478,0.261l-0.519,0.422
		l-38.722,39.118c-14.799-14.464-30.927-27.723-48.011-39.478l12.528-18.505l11.104,7.829l13.604,10.626
		c0.487,0.362,0.957,0.749,1.427,1.139l0.462,0.364c0.62,0.52,1.239,1.061,1.881,1.615l4.795,4.142l0.521,0.369l0.121,0.058
		l0.461,0.202l0.149,0.041l0.465,0.103l0.201,0.016l0.269,0.028l0.247-0.009c0.889-0.066,1.711-0.481,2.292-1.157l19.115-22.194
		l0.39-0.557c0.761-1.361,0.484-3.114-0.74-4.17c-20.197-17.392-42.053-32.923-64.969-46.161l-0.604-0.272l-0.344-0.08l-0.298-1.125
		L710.249,129h-0.21c-0.44,0-0.865,1.201-1.261,1.396l-0.051,0.564l-0.5,0.573l-0.119,0.246l-0.36,0.397l-0.387,0.574
		l-27.522,47.695c-17.997-10.18-36.931-18.835-56.375-25.796l7.361-21.211c1.517,0.545,3.047,1.141,4.623,1.755
		c0.949,0.369,1.888,0.739,2.822,1.092l5.546,2.138l4.989,1.922l10.453,4.637c0.858,0.387,1.725,0.768,2.592,1.148
		c2.658,1.168,5.167,2.273,7.6,3.569c0.808,0.429,1.748,0.511,2.613,0.229c0.866-0.282,1.576-0.905,1.979-1.723l12.792-26.348
		l0.231-0.63l0.052-0.321l0.045-0.328l-0.014-0.378l-0.008-0.275l-0.134-0.529l-0.022-0.103l-0.053-0.112l-0.217-0.481l-0.119-0.163
		l-0.269-0.364l-0.172-0.163l-0.305-0.284l-0.568-0.351c-23.909-11.59-49.056-20.961-74.736-27.839
		c-1.351-0.355-2.717,0.151-3.517,1.178c-0.268,0.343-0.47,0.745-0.589,1.191l-14.27,53.177
		c-19.951-5.148-40.507-8.633-61.206-10.372l1.682-22.356l0.716,0.05l1.671,0.124c0.598,0.041,1.248,0.089,1.89,0.14l0.813,0.039
		c0.919,0.083,1.86,0.292,2.793,0.292h0.015l7.564,0.953l9.341,1.157l16.934,2.936c1.794,0.303,3.518-0.872,3.861-2.666
		l5.555-28.756c0.083-0.454,0.076-0.903-0.014-1.33l-0.046-0.139l-0.148-0.476l-0.21-0.382l-0.097-0.184l-0.344-0.416l-0.066-0.078
		l-0.485-0.399l-0.016-0.364c-0.358-0.24-0.775-0.857-1.231-0.857h-0.007c-26.03-7-52.701-7-79.282-7h-0.007
		c-1.854,0-3.347,1.787-3.361,3.632L498.192,134H495v-0.47c-21,0.151-44.96,2.333-67.285,6.667l-4.007-22.01
		c0.372-0.064,0.991-0.154,1.372-0.215l1.902-0.321l0.989-0.165c1.363-0.227,2.754-0.458,4.046-0.696
		c1.359-0.223,2.735-0.463,4.102-0.706c1.166-0.208,2.353-0.421,3.54-0.619c1.189-0.199,2.377-0.382,3.541-0.534l11.603-1.425
		l5.414-0.667c1.179-0.124,2.368-0.204,3.554-0.286c0.687-0.051,1.381-0.096,2.069-0.151c0.889-0.071,1.709-0.495,2.292-1.173
		c0.574-0.681,0.858-1.563,0.785-2.452l-2.488-29.184l-0.118-0.655l-0.224-0.559l-0.022-0.043c-0.6-1.171-1.86-1.924-3.257-1.796
		c-26.566,2.27-53.922,7.036-79.398,14.161c-1.561,0.433-3.408,1.895-3.408,3.446v0.011l1.08,0.669l15.297,53.025
		c-19.854,5.748-39.044,13.222-57.615,22.258l-9.897-20.102c3.598-1.796,7.356-3.448,11.007-5.061
		c0.597-0.261,1.224-0.534,1.815-0.792c1.649-0.727,3.311-1.453,5.005-2.216c1.323-0.619,2.662-1.187,4.021-1.736
		c1.357-0.55,2.751-1.079,4.175-1.627l12.892-4.969c1.705-0.655,2.564-2.545,1.953-4.259l-9.879-27.571
		c-0.597-1.661-2.374-2.924-4.047-2.457L355.569,99h-0.008c-24.895,7-49.175,20.717-72.173,34.33l-0.7,0.391L282,134.055v0.03
		c0,1.047-1.035,2.806-0.215,4.197l28.229,47.4c-17.63,10.665-34.394,22.934-50.12,36.518l-14.716-16.814l6.126-5.265l0.311-0.245
		c1.718-1.459,3.556-2.884,5.339-4.259c1.092-0.841,2.185-1.682,3.208-2.502c1.091-0.838,2.173-1.69,3.256-2.545l0.652-0.511
		c1.659-1.311,3.36-2.639,5.054-3.849l9.372-6.603c0.941-0.662,1.434-1.72,1.418-2.791c-0.007-0.642-0.202-1.288-0.597-1.855
		l-16.658-24.086l-0.442-0.516l-0.112-0.087c-0.985-0.873-2.408-1.086-3.617-0.518L258,150.021v0.002
		c-22,15.007-42.257,32.217-61.051,51.156l-0.419,0.522l-0.151,0.289l-0.158,0.291l-0.121,0.415l-0.066,0.211l-0.054,0.6
		l-0.007,0.05l0.068,0.648l0.051,0.172l0.142,0.454l0.099,0.181l0.214,0.396l0.419,0.514l39.12,38.729
		c-14.464,14.803-27.725,30.923-39.478,48.008l-18.501-12.521l7.824-11.11l3.308-4.236l7.327-9.371
		c0.304-0.41,0.633-0.807,0.954-1.205c0.694-0.848,1.41-1.695,2.167-2.568l4.135-4.784c0.576-0.671,0.866-1.553,0.8-2.438
		c-0.06-0.884-0.479-1.711-1.149-2.291l-22.2-19.115l-0.551-0.387c-1.361-0.758-3.813-0.483-4.864,0.742
		C158.457,243.571,143,265.428,129,288.328v0.007l0.525,0.374l0.243,0.231l0.059,0.479l-0.426,0.163L129,290.09v0.144
		c0,0.438,0.617,0.864,0.812,1.26l0.307,0.117l0.396,0.433l0.183,0.145l0.348,0.339l0.555,0.39l47.684,27.525
		c-10.176,17.994-18.833,36.923-25.796,56.372l-21.217-7.361c0.202-0.559,0.438-1.134,0.655-1.702
		c0.356-0.953,0.708-1.908,1.097-2.896c0.374-0.96,0.746-1.917,1.105-2.862l3.584-9.317l0.462-1.201l4.644-10.459
		c0.389-0.868,0.77-1.739,1.157-2.609c0.583-1.324,1.142-2.61,1.727-3.868c0.582-1.262,1.187-2.497,1.83-3.716
		c0.216-0.399,0.343-0.839,0.38-1.279c0.045-0.449-0.008-0.9-0.149-1.333c-0.284-0.862-0.904-1.581-1.726-1.975l-26.35-12.791
		l-0.627-0.231l-0.35-0.055l-0.292-0.046l-0.38,0.016l-0.276,0.012l-0.634,0.151l-0.016,0.014l-0.575,0.261l-0.133,0.096
		l-0.396,0.287l-0.17,0.183l-0.271,0.295l-0.357,0.571c-11.589,23.91-20.952,49.05-27.837,74.735l-0.104,0.671
		c-0.096,1.554,0.912,3.018,2.472,3.435l53.177,14.269c-5.144,19.944-8.632,40.504-10.371,61.202l-22.355-1.675l0.172-2.38
		c0.118-1.709,0.246-3.647,0.516-5.519l0.447-3.652l1.635-13.258l2.928-16.929c0.306-1.801-0.882-3.519-2.673-3.86l-28.523-5.556
		C83.875,416.13,82,417.316,82,419.133v0.012c-7,26.038-7.91,52.709-7.992,79.283c-0.007,1.847,2.281,3.352,4.13,3.359L134,502.078
		v1.297c0,22.963,1.51,45.902,5.843,68.235l-22.414,4.472l-0.283-0.314c-0.209-1.157-0.522-2.33-0.724-3.54
		c-0.224-1.358-0.508-2.717-0.748-4.002c-0.22-1.352-0.488-2.699-0.729-4.046c-0.134-0.738-0.269-1.494-0.404-2.241
		c-0.126-0.761-0.26-1.515-0.381-2.278c-0.133-0.868-0.28-1.743-0.392-2.598l-2.093-17.002c-0.127-1.175-0.211-2.36-0.292-3.538
		c-0.045-0.696-0.096-1.395-0.15-2.092c-0.074-0.889-0.493-1.711-1.172-2.284c-0.686-0.58-1.576-0.868-2.456-0.786l-29.179,2.483
		l-0.658,0.124l-0.411,0.165l-0.194,0.076l-0.411,0.271l-0.135,0.087l-0.44,0.433l-0.029,0.025l-0.037,0.048l-0.335,0.493
		l-0.083,0.183l-0.172,0.413l-0.06,0.271l-0.271,0.371L75,537.462v0.009c5,26.568,7.225,52.954,14.345,78.431l0.523,0.919
		l0.138,0.142l0.675,0.676l0.141,0.089c0.53,0.369,1.16,0.586,1.817,0.609l0.116,0.014l0.089-0.007l0.817-0.117l53.024-14.812
		c5.743,19.85,13.217,39.286,22.26,57.855l-20.102,10.014c-1.485-2.958-2.857-5.989-4.202-9.006
		c-0.553-1.246-1.113-2.493-1.65-3.718c-0.733-1.65-1.456-3.299-2.217-4.995c-0.411-0.882-0.777-1.778-1.159-2.671
		c-0.186-0.452-0.396-0.882-0.575-1.338c-0.551-1.352-1.082-2.74-1.628-4.167l-4.972-12.895c-0.656-1.702-2.545-2.571-4.256-1.95
		l-27.576,9.879l-0.611,0.291c-1.33,0.813-1.229,2.472-0.683,3.995C108.23,669.596,118,693.886,134,716.884v0.007l-0.229,0.642
		l-0.208,0.142l0.299,0.359l0.091,0.104c0.456,0.24,0.917,0.373,1.433,0.39l0.061,0.004l0.127-0.014l0.578-0.081l0.226-0.055
		l0.748-0.312l47.399-28.022c10.663,17.637,22.923,34.504,36.505,50.221l-16.808,14.777l-5.265-6.094
		c-0.605-0.704-1.187-1.425-1.769-2.159l-0.514-0.619c-0.748-0.941-1.479-1.896-2.204-2.829l-0.732-0.949
		c-0.604-0.777-1.208-1.546-1.792-2.287c-0.836-1.088-1.688-2.172-2.545-3.246c-1.472-1.867-2.996-3.801-4.362-5.721l-6.6-9.361
		c-1.061-1.51-3.135-1.876-4.651-0.83l-24.09,16.666c-1.514,1.052-1.897,3.134-0.85,4.658
		c15.008,21.706,32.219,42.248,51.162,61.049l0.515,0.419l0.336,0.179l0.239,0.126l0.366,0.112l0.262,0.076l0.321-0.621l0.322-0.616
		h0.014l0.552,0.593l0.09-0.173l0.433-0.42h0.194l0.396,0.312l0.178,0.164l0.525-0.294l38.729-39.057
		c14.799,14.466,30.928,27.749,48.003,39.511l-12.521,18.521l-3.396-2.389l-7.721-5.43l-4.855-3.792l-8.736-6.825
		c-0.642-0.479-1.262-0.984-1.881-1.5l-0.934-0.797l-0.97-0.839l-4.779-4.128c-0.671-0.582-1.53-0.873-2.435-0.807
		c-0.888,0.069-1.709,0.486-2.292,1.157l-19.113,22.191c-0.302,0.351-0.516,0.749-0.651,1.166c-0.403,1.237-0.053,2.658,1,3.561
		c20.197,17.398,42.045,32.921,64.954,46.152l0.007,0.007l0.747,0.307l0.209,0.053l0.59,0.073l0.135,0.016l0.088-0.007
		c0.479-0.016,0.957-0.119,1.39-0.337l0.202-0.119l0.351-0.222l0.208-0.195l0.27-0.248l0.396-0.543l27.521-47.678
		c17.997,10.17,36.925,18.84,56.375,25.798l-7.362,21.22c-1.516-0.545-3.038-1.141-4.621-1.755c-0.94-0.374-1.889-0.738-2.824-1.088
		l-1.582-0.614l-8.96-3.45l-4.234-1.879l-6.212-2.756l-0.895-0.396c-0.561-0.248-1.129-0.5-1.688-0.747
		c-1.017-0.447-1.996-0.889-2.973-1.329l-0.927-0.41c-0.471-0.225-0.927-0.463-1.388-0.688c-0.777-0.38-1.561-0.74-2.323-1.15
		l-0.261-0.105c-0.484-0.208-1.006-0.298-1.521-0.268l-0.83,0.149c-0.866,0.284-1.583,0.905-1.979,1.725l-12.79,26.35l-0.231,0.627
		l-0.053,0.321l-0.044,0.321l0.014,0.396l0.009,0.261l0.134,0.561l0.023,0.066l0.037,0.09l0.23,0.508l0.121,0.163l0.268,0.367
		l0.208,0.195l0.271,0.245l0.566,0.351c23.91,11.595,49.05,20.961,74.735,27.837l0.799,0.112l0.077,0.007l0.096-0.014
		c0.681-0.023,1.314-0.241,1.843-0.628l0.121-0.083l0.665-0.694l0.082-0.135l0.425-0.932l14.27-53.172
		c19.942,5.146,40.499,8.63,61.205,10.372l-1.68,22.356l-2.398-0.179c-0.85-0.053-1.754-0.121-2.687-0.194
		c-0.568-0.053-1.151-0.128-1.726-0.195c-0.373-0.046-0.738-0.076-1.104-0.126l-16.891-2.076l-16.935-2.928l-0.672-0.043
		c-1.544,0.043-2.889,1.141-3.188,2.708l-5.555,28.763c-0.089,0.456-0.083,0.905,0.007,1.331l0.053,0.14l0.149,0.47l0.201,0.382
		l0.105,0.188l0.343,0.417l0.067,0.073c0.456,0.463,1.046,0.793,1.732,0.919l0.008-0.745c26.037,5.063,52.716,7.006,79.282,7.006
		h0.007c1.844,0,3.348-0.739,3.353-2.584l0.292-54.694l1.298,0.182c22.977-0.149,45.913-2.324,68.232-6.654l4.479,22.005
		l-0.186,0.054l-0.94,0.177l-0.912,0.163c-0.604,0.103-1.187,0.211-1.807,0.31c-1.36,0.229-2.725,0.458-4.009,0.696
		c-0.732,0.119-1.457,0.255-2.188,0.381c-0.636,0.112-1.264,0.218-1.897,0.33c-2.337,0.417-4.747,0.843-7.079,1.148l-11.596,1.427
		l-5.414,0.665c-1.172,0.126-2.351,0.201-3.53,0.284c-0.703,0.053-1.396,0.096-2.092,0.155c-0.888,0.076-1.716,0.495-2.292,1.173
		c-0.574,0.68-0.858,1.56-0.784,2.449l2.487,29.188l0.118,0.642l0.031,0.076l0.208,0.52l0.082,0.135l0.262,0.396l0.148,0.162
		l0.286,0.3l0.043,0.043l0.203,0.142l0.231,0.165l0.282,0.142l0.264,0.119l0.319,0.089l0.256,0.119l0.559,0.094h0.045l0.284-0.05
		c26.566-2.277,52.955-7.065,78.431-14.19c1.561-0.431,2.555-1.91,2.442-3.463l-0.112-0.676l-14.815-53.026
		c19.863-5.749,39.292-13.223,57.853-22.259l10.021,20.101c-4.189,2.089-8.527,4.002-12.747,5.862
		c-1.642,0.724-3.292,1.446-4.981,2.207c-1.29,0.604-2.597,1.166-3.934,1.702l-0.066,0.033c-1.361,0.543-2.748,1.075-4.167,1.627
		l-12.902,4.974c-1.276,0.493-2.076,1.673-2.142,2.956c-0.023,0.433,0.037,0.875,0.193,1.299l9.879,27.576l0.455,0.82l0.127,0.165
		l0.641,0.612l0.112,0.069l0.71,0.351l0.17,0.06l0.873,0.133l0.069,0.009l0.306-0.023l0.21-0.023l0.61-0.149
		c24.896-8.915,49.176-20.338,72.174-33.952l0.008-0.007c1.59-0.942,2.122-2.995,1.18-4.584l-28.015-47.398
		c17.628-10.663,34.495-22.922,50.22-36.513l14.77,16.814l-1.912,1.659l-4.182,3.606c-1.799,1.546-3.748,3.054-5.628,4.502
		l-0.054,0.046c-1.076,0.827-2.142,1.656-3.15,2.456c-0.919,0.708-1.828,1.425-2.74,2.142l-0.509,0.403
		c-1.866,1.471-3.799,3.001-5.727,4.369l-9.363,6.601c-1.501,1.059-1.873,3.137-0.82,4.645l16.657,24.086l0.508,0.575l0.194,0.149
		l0.419,0.284l0.237,0.122l0.456,0.172l0.238,0.064l0.591,0.061l0.111,0.006h0.022l0.853-0.125l0.208,0.236l0.814-0.111h0.008
		c21.705-17,42.246-32.502,61.056-51.444l0.418-0.667l0.18-0.411l0.126-0.274l0.127-0.458l0.06-0.197l0.051-0.603l0.008-0.051
		l-0.066-0.652l-0.06-0.194l-0.135-0.433l-0.104-0.201l-0.201-0.374l-0.426-0.516l-39.118-38.731
		c14.462-14.808,27.723-30.928,39.478-48.01l18.501,12.527l-7.824,11.103l-6.491,8.31l-4.144,5.295
		c-0.485,0.65-0.992,1.285-1.522,1.913l-0.329,0.387c-0.434,0.516-0.874,1.024-1.336,1.553l-4.069,4.71
		c-0.575,0.674-0.867,1.546-0.807,2.436c0.068,0.887,0.486,1.709,1.157,2.291l22.2,19.115l0.521,0.367l0.21,0.105l0.366,0.156
		l0.261,0.069l0.337,0.076l0.275,0.021l0.208,0.016l0.112-0.009l0.413-0.043l0.26-0.046l0.396-0.126l0.245-0.096l0.396-0.233
		l0.2-0.119l0.516-0.493c17.398-20.189,32.93-42.044,46.161-64.953l0.007-0.009l0.179-0.403l0.09-0.199l0.104-0.449l-0.533-0.195
		L868,711.402v-0.192c0-0.442,0.438-0.869,0.252-1.256l0.16-0.202l-0.081-0.359l-0.09-0.177l-0.239-0.3l-0.529-0.387l-47.667-27.523
		c10.178-17.994,18.844-36.93,25.802-56.375l21.225,7.354l-0.284,0.747c-0.47,1.269-0.947,2.539-1.462,3.854
		c-0.342,0.873-0.679,1.746-1.007,2.612l-0.09,0.241l-0.29,0.754l-3.771,9.79l-4.637,10.455c-0.389,0.863-0.769,1.729-1.157,2.596
		c-0.419,0.958-0.828,1.874-1.248,2.793c-0.731,1.636-1.487,3.242-2.315,4.795c-0.208,0.401-0.334,0.834-0.374,1.283
		c-0.043,0.44,0.008,0.896,0.151,1.331c0.282,0.864,0.902,1.581,1.725,1.977l26.35,12.782l0.679,0.248l0.224,0.03l0.471,0.05
		l0.09,0.016l0.351-0.03l0.142-0.014l0.605-0.142l0.507-0.241l0.075-0.027l0.351-0.257l0.18-0.126l0.33-0.351l0.118-0.135
		l0.352-1.421C894.483,661.691,903.855,638,910.732,610h0.007l0.104,0.185c0.068-1.111-0.425-1.742-1.284-2.414
		c-0.343-0.271-0.746-0.258-1.187-0.377l-53.178-14.162c5.152-19.958,8.631-40.459,10.371-61.153l22.354,1.701l-0.172,2.409
		l-0.042,0.603c-0.054,0.719-0.106,1.431-0.166,2.132c-0.081,0.928-0.178,1.868-0.313,2.799l-2.075,16.892l-2.929,16.938
		l-0.045,0.664c0.037,1.538,1.144,2.889,2.71,3.196l28.764,5.037l0.633-0.451h0.023l0.126,0.503l0.501,0.198l0.179,0.078l0.41-0.059
		l0.187-0.061l0.358-0.18l0.18-0.107l0.305-0.252l0.165-0.153l0.248-0.304l0.134-0.18l0.194-0.366l0.096-0.194l0.386-0.594
		L918,582.31v-0.007c7-26.038,7.461-52.716,7.542-79.288c0-1.849-1.586-3.35-3.438-3.363l-42.333,0.104l-0.78,0.244H866v-1.932
		c0-22.975-1.96-45.913-6.29-68.235l22.188-4.475l0.148,0.163c0.216,1.203,0.484,2.421,0.686,3.675
		c0.231,1.366,0.482,2.729,0.729,4.016c0.217,1.368,0.479,2.733,0.717,4.097c0.374,2.078,0.748,4.223,1.046,6.305l0.112,0.754
		l1.088,8.805l1.01,8.213c0.126,1.171,0.208,2.351,0.293,3.531c0.042,0.701,0.088,1.395,0.149,2.092
		c0.073,0.891,0.493,1.716,1.172,2.293l0.073,0.041l0.441,0.307l0.194,0.094l0.381,0.161l0.231,0.066l0.374,0.08l0.254,0.023
		l0.215,0.018l0.292-0.011l29.181-2.484l0.648-0.119l0.433-0.176l0.181-0.071l0.438-0.282l0.105-0.076
		c0.344-0.272,0.626-0.612,0.843-0.997l0.046-0.103l0.209-0.5l0.036-0.163l0.735-0.47l0.639-0.658V462h-1.179
		c-2.269-28-7.078-52-14.209-77h-0.208l-0.068-0.113l-0.103-0.137l-0.71-0.866l-0.202-0.141l-0.323-0.222
		c-0.566-0.314-1.215-0.472-1.88-0.429l-0.665,0.123l-53.03,14.815c-5.75-19.861-13.224-39.292-22.258-57.861l20.1-10.012
		C852.357,334.34,854.268,338.677,856.127,342.895z M824.185,335.644c-1.658,0.827-2.33,2.839-1.5,4.498l0.006,0.014
		c10.005,20.093,18.144,41.253,24.193,62.9l0.433,0.909l0.097,0.156l0.642,0.667l0.143,0.096l0.851,0.449l0.963,0.158l0.097,0.019
		l0.06-0.011l0.844-0.112l52.998-14.808c6.229,23.005,10.514,46.727,12.755,70.628l-22.453,1.908c-0.06-0.818-0.128-1.647-0.217-2.5
		l-1.014-8.244l-1.083-8.834c-0.051-0.374-0.111-0.743-0.172-1.116c-0.306-2.128-0.665-4.25-1.031-6.303
		c-0.237-1.329-0.477-2.667-0.693-4.03l-0.799-4.594c-0.187-1.114-0.374-2.234-0.583-3.368c-0.194-1.098-0.403-2.211-0.678-3.332
		l-0.023-0.133l-0.009-0.016l-0.014-0.06l-0.135-0.387l-0.066-0.188c-0.626-1.402-2.167-2.225-3.718-1.908l-28.517,5.814
		c-0.866,0.174-2.11,0.69-2.596,1.432c-0.493,0.74-0.963,1.647-0.963,2.518V427h0.103h0.426c4.674,24,7.333,46.999,7.489,70.657
		l0.119,4.825l0.089,0.437l0.053,0.396l0.119,0.352l0.098,0.317l0.164,0.311l0.142,0.268l0.232,0.272l0.187,0.224l0.253,0.215
		l0.239,0.195l0.29,0.158l0.277,0.156l0.329,0.101l0.299,0.091l0.349,0.039l0.321,0.032l55.031,0.293
		c-0.268,23.928-2.613,47.918-6.989,71.409l-22.227-4.293l2.388-13.859l1.636-13.284l0.456-3.705c0.291-2.03,0.433-4.069,0.552-5.86
		l0.008-0.085l0.417-5.716c0.136-1.844-1.246-3.451-3.092-3.588l-29.016-2.176c-0.888-0.066-1.761,0.224-2.441,0.806
		c-0.67,0.575-1.161,1.4-1.22,2.284l-0.08,0.014v0.004v0.004c-2,22.52-5.409,44.913-11.203,66.543l-0.076,0.673
		c-0.068,1.111,0.442,2.172,1.302,2.843c0.344,0.271,0.756,0.472,1.206,0.591l53.15,14.262
		c-6.383,23.079-14.804,45.682-25.064,67.29l-20.271-9.833c0.786-1.652,1.517-3.309,2.227-4.929l0.15-0.343
		c0.33-0.738,0.657-1.478,0.995-2.232l4.71-10.626l2.493-6.472l1.629-4.218c0.358-0.951,0.725-1.883,1.089-2.825l0.195-0.506
		c0.963-2.472,1.94-5.018,2.74-7.647c0.523-1.723-0.402-3.554-2.105-4.143l-27.493-9.535c-1.747-0.605-3.659,0.32-4.271,2.068
		c-7.363,21.213-16.801,41.836-28.054,61.301l-0.119,0.271l-0.157,0.344l-0.096,0.426l-0.007,0.209l0.031,0.456v0.199
		c0,0.433,0.095,0.859,0.29,1.256l0.066,0.149l0.243,0.403l0.13,0.148l0.309,0.33l0.537,0.394l47.651,27.509
		c-12.088,20.54-26.05,40.186-41.567,58.494l-17.106-14.725l1.911-2.204c0.33-0.38,0.656-0.767,0.986-1.148l0.739-0.859
		c0.358-0.44,0.709-0.889,1.061-1.329l0.619-0.786l10.686-13.678l9.901-14.038l0.007-0.014c0.523-0.74,0.726-1.652,0.562-2.541
		c-0.165-0.879-0.674-1.663-1.419-2.172l-24.102-16.308c-0.739-0.5-1.643-0.685-2.517-0.513c-0.874,0.169-1.644,0.678-2.143,1.418
		c-12.604,18.697-27.052,36.259-42.926,52.207l-0.426,0.529l-0.163,0.3l-0.143,0.275l-0.112,0.389l-0.074,0.238l-0.045,0.539
		l-0.015,0.112l0.067,0.648l0.043,0.156l0.149,0.47l0.12,0.227l0.187,0.351l0.426,0.516l39.103,38.708
		c-17.068,16.927-35.535,32.405-54.985,46.076l-12.858-18.592l6.66-4.697l1.022-0.753c1.704-1.253,3.376-2.546,4.981-3.824
		c1.054-0.827,2.106-1.656,3.219-2.516c1.053-0.836,2.121-1.666,3.188-2.486c1.942-1.5,3.536-3.054,5.479-4.712l8.261-7.487v-0.009
		l0.422-0.007c0.671-0.584,1.297-1.412,1.357-2.307c0.06-0.889-0.133-1.769-0.724-2.442l-19.157-21.862
		c-0.59-0.665-1.493-1.077-2.38-1.127c-0.881-0.06-2.519,0.238-2.519,0.827v0.009c-14,14.934-35.242,28.291-54.505,39.7
		c-1.599,0.942-2.082,2.995-1.134,4.591l28.027,47.371c-20.803,12.087-42.611,22.354-64.974,30.577l-7.632-21.326l9.806-3.785
		c0.865-0.33,1.748-0.68,2.62-1.017c1.531-0.596,3.043-1.23,4.551-1.904c0.479-0.208,0.975-0.396,1.445-0.618
		c0.627-0.284,1.263-0.562,1.889-0.846c0.995-0.433,1.988-0.88,2.988-1.313c3.988-1.765,8.071-3.563,12.096-5.533
		c1.344-0.665,2.688-1.345,4.011-2.046c1.605-0.853,2.232-2.83,1.426-4.456l-12.977-26.048c-0.829-1.656-2.837-2.334-4.496-1.507
		c-20.093,10.012-41.262,18.162-62.915,24.208c-1.785,0.5-2.831,2.353-2.329,4.129l14.806,53
		c-23.006,6.227-46.728,10.514-70.629,12.745l-1.911-22.443c0.82-0.06,1.65-0.126,2.501-0.218l5.437-0.671l11.64-1.427l0.628-0.096
		c2.291-0.321,4.576-0.717,6.786-1.107c1.337-0.238,2.666-0.477,4.032-0.699l5.698-0.98c0.747-0.126,1.493-0.252,2.247-0.394
		c1.105-0.195,2.218-0.403,3.352-0.681l0.136-0.022l0.008-0.007l0.067-0.017l0.403-0.142l0.164-0.06
		c1.404-0.628,2.231-2.158,1.911-3.716l-5.809-28.517c-0.18-0.873-0.694-2.693-1.433-3.186c-0.747-0.486-1.644-1.543-2.516-1.543
		h-0.023c-22.931,7-46.556,8.18-70.218,8.338l-4.606,0.545l-0.352,0.3l-0.313,0.161l-0.359,0.18l-0.269,0.115l-0.336,0.202
		l-0.231,0.129l-0.314,0.264l-0.179,0.154l-0.277,0.329l-0.134,0.165l-0.208,0.387l-0.096,0.179l-0.149,0.463l-0.046,0.158
		l-0.075,0.671l-0.292,55.037c-23.931-0.268-47.914-2.612-71.405-6.988l4.294-22.228l13.859,2.39l14.008,1.723l2.979,0.367
		c1.031,0.149,2.061,0.261,3.069,0.344c1,0.089,1.971,0.158,2.875,0.215l5.718,0.419c1.859,0.105,3.451-1.247,3.584-3.091
		l2.173-29.023c0.066-0.882-0.217-2.419-0.8-3.091c-0.575-0.673-1.404-1.813-2.284-1.813h-0.023c-22.535,0-44.92-4.826-66.545-10.62
		l-0.326,0.266l-0.352,0.113c-1.553-0.096-3.01,0.995-3.427,2.562l-14.261,53.19c-23.074-6.383-45.683-14.785-67.292-25.045
		l9.834-20.259c1.643,0.784,3.301,1.513,4.912,2.221c0.568,0.254,1.135,0.512,1.711,0.764l0.873-0.261L347.729,866h0.007
		l0.664,0.905l10.035,4.191c0.943,0.351,1.874,0.875,2.816,1.24c1.537,0.598,3.122,1.285,4.718,1.86
		c1.135,0.403,2.278,0.844,3.441,1.204c1.718,0.529,3.548-0.386,4.146-2.088l9.528-27.49c0.612-1.746-0.675-3.648-2.423-4.258
		C359.441,834.193,340,824.765,319,813.518v-0.007l0.136-0.098l-0.208-0.172l-0.314-0.097l-0.186-0.053l-0.48-0.014l-0.138,0.284
		c-0.44,0.032-0.861,0.638-1.256,0.638h-0.008l-0.545,0.049l-0.082-0.07l-0.396,0.29l-0.387,0.508l-27.508,47.638
		c-20.542-12.088-40.194-26.064-58.503-41.578l14.726-17.11l2.233,1.925c0.656,0.575,1.328,1.154,2.015,1.729
		c0.68,0.565,1.373,1.127,2.083,1.657l13.218,10.678L277,829.615v0.009l0.461,0.007l0.248,0.007l0.883,0.38l0.317,0.089l0.833,0.122
		l0.085,0.014l0.607-0.06c0.889-0.158,1.677-0.671,2.179-1.418l16.316-24.096c0.496-0.74,0.681-1.643,0.516-2.516
		c-0.171-0.873-0.086-1.643-0.825-2.145C279.926,787.4,263,772.959,247,757.086v-0.009l-0.757-0.126l-0.649-0.293l-0.521-0.199
		l-0.276-0.105l-0.489-0.135l-0.189-0.053l-0.541-0.105l-0.086-0.06h-0.042l-0.665,0.119l-0.112,0.054l-0.508,0.174l-0.225,0.128
		l-0.351,0.194l-0.516,0.429l-38.713,39.097c-16.921-17.053-32.4-35.526-46.079-54.975l18.592-12.862l4.695,6.662
		c1.473,2.066,3.047,4.063,4.571,5.988c0.836,1.054,1.672,2.115,2.531,3.242c0.419,0.522,0.822,1.045,1.232,1.567
		c0.413,0.531,0.821,1.054,1.231,1.583c0.755,0.98,1.532,1.979,2.315,2.972l0.672,0.815c0.575,0.708,1.15,1.425,1.748,2.126
		l7.487,8.679l0.017,0.005c0.581,0.681,1.41,1.098,2.306,1.157l0.224,0.009c0.813,0,1.605-0.291,2.218-0.836l21.855-19.211
		c0.672-0.584,0.934-1.414,0.993-2.303c0.061-0.887-0.97-1.762-0.97-2.424v-0.009l0.134-0.007l0.778-0.007
		C213.977,721.4,202,703.025,190,683.767v-0.007c-4-1.59-3.714-2.119-5.305-1.178l-47.727,28.006
		c-12.088-20.801-22.537-42.635-30.758-64.992l21.239-7.645l3.748,9.84c0.944,2.465,1.916,4.99,3.022,7.446
		c0.164,0.38,0.31,0.761,0.481,1.134c0.178,0.396,0.347,0.799,0.519,1.203c0.552,1.226,0.387,2.456,0.925,3.689
		c2.344,5.308,4.855,10.795,6.855,16.069v0.005l0.716,0.018l0.379,0.028l0.625,0.614l0.296,0.215l0.438,0.305l0.283,0.181
		l0.632,0.261l0.413,0.089l0.327,0.043l0.279,0.988l0.209,0.919h0.023c0.426,0,0.85-1.068,1.255-1.27l26.051-13.462
		c1.657-0.82,2.33-3.071,1.5-4.72c-10.013-20.109-18.158-41.396-24.208-63.044l-0.238-0.673l-0.336-0.559l-0.016-0.012
		c-0.544-0.701-1.351-1.259-2.225-1.259h-0.164l-0.487-0.035l-0.657,0.105l-52.999,14.801
		c-6.235-23.005-10.513-46.725-12.753-70.626l22.452-1.914c0.061,0.823,0.128,1.645,0.217,2.49l0.779,10.88L106,557.91v0.004
		l0.652,0.621c0.231,1.688,0.782,3.354,1.074,5.001c0.103,0.605,0.35,1.224,0.455,1.814c0.238,1.327,0.541,2.649,0.762,4.002
		l0.84,4.669c0.182,1.088,0.386,2.184,0.589,3.292c0.187,1.067,0.403,2.149,0.666,3.244l0.05,0.222l0.008,0.027l0.012,0.05
		c0.096,0.413,0.284,0.786,0.516,1.114l0.014,0.023l0.403,0.463l0.016,0.014c0.612,0.584,1.433,0.935,2.306,0.935l0.674-0.066
		l28.515-5.81c0.866-0.179,2.553-0.694,3.04-1.437c0.492-0.745,1.41-1.647,1.41-2.52V573h-1.009c-4.674-24-7.54-46.286-7.69-69.938
		l-0.226-4.472l-0.141-0.27l-0.089-0.277l-0.133-0.344l-0.099-0.259l-0.186-0.329l-0.127-0.231l-0.239-0.29l-0.172-0.208
		l-0.27-0.224l-0.23-0.186l-0.292-0.158l-0.275-0.149l-0.322-0.105l-0.306-0.098l-0.344-0.032l-0.321-0.032L80.5,495.106
		c0.269-23.933,2.613-47.923,6.989-71.409l22.229,4.291l-2.396,13.864l-1.934,15.767l-0.149,1.219
		c-0.076,0.516-0.142,1.024-0.195,1.531l-0.03,0.263c-0.037,0.401-0.082,0.804-0.119,1.214l-0.053,0.674l-0.067,0.806l-0.028,0.495
		l-0.068,0.946l-0.298,4.069l-0.12,1.661c-0.135,1.844,1.246,3.45,3.09,3.588l29.017,2.174l0.253,0.011
		c0.8,0,2.091-0.289,2.705-0.811c0.671-0.584,1.675-1.404,1.675-2.293v-0.014c0-22.535,4.964-44.928,10.758-66.552l-0.151-0.669
		c0.083-1.331-0.776-2.596-1.971-3.196l-0.699-0.238L95.755,388.24c6.383-23.076,14.79-45.682,25.049-67.299l20.27,9.843
		c-0.793,1.656-1.529,3.322-2.245,4.951c-0.371,0.843-0.743,1.686-1.129,2.545l-4.708,10.617l-0.597,1.549l-3.541,9.174
		c-0.304,0.799-0.611,1.601-0.926,2.405l-0.155,0.396c-0.598,1.528-1.189,3.104-1.763,4.697c-0.411,1.141-0.813,2.287-1.172,3.459
		c-0.53,1.721,0.402,3.551,2.105,4.14l27.492,9.536c0.366,0.126,0.74,0.188,1.097,0.188l0.172-0.022l0.717-0.112l0.351-0.135
		l0.471-0.231l0.291-0.172l0.567-0.552l0.172-0.231l0.404-0.747l-0.351-0.048C165.689,360.972,176,340.35,186,320.887v-0.005
		l0.507-0.268l0.338-0.336l0.2-0.456l-0.508-0.179L186,319.132v-0.147c0-0.435,0.456-0.866,0.264-1.258l0.21-0.144l-0.101-0.408
		l-0.106-0.194l-0.225-0.287l-0.531-0.39l-47.641-27.511c12.088-20.535,26.055-40.19,41.573-58.496l17.106,14.722l-1.921,2.225
		c-0.575,0.663-1.156,1.336-1.731,2.016c-0.568,0.688-1.135,1.384-1.666,2.092l-4.167,5.336l-6.511,8.335l-4.308,6.108l-5.6,7.952
		c-0.522,0.733-0.724,1.646-0.562,2.532c0.167,0.889,0.674,1.668,1.419,2.172l24.103,16.308l0.33,0.158l0.38,0.181l0.411,0.124
		l0.484,0.076l0.27,0.037l0.642-0.06c0.874-0.167,2.502-0.678,3.003-1.416l0.873-0.011v-0.007C214,280.488,227.865,263,243.732,247
		h-0.27h-0.126h0.075l0.238-0.439l0.18-0.415l0.104-0.234l0.119-0.436l0.053-0.212l0.06-0.564l0.008-0.089l-0.067-0.653
		l-0.046-0.156l-0.149-0.469l-0.104-0.195l-0.202-0.385l-0.425-0.511l-39.104-38.712c17.054-16.92,35.527-32.398,54.984-46.079
		l6.078,8.786l6.78,9.806l-6.661,4.694c-1.425,1.013-2.808,2.076-4.16,3.137c-0.619,0.481-1.238,0.964-1.843,1.439
		c-1.054,0.836-2.105,1.667-3.232,2.529c-0.694,0.554-1.397,1.097-2.107,1.645c-0.35,0.272-0.701,0.552-1.05,0.822
		c-0.979,0.756-1.973,1.523-2.966,2.314l-0.5,0.408c-0.813,0.655-1.635,1.317-2.441,2.005l-4.675,4.042l-4.009,3.459
		c-0.671,0.584-1.09,1.414-1.15,2.307c-0.06,0.892,0.238,1.771,0.83,2.442l19.205,20.719c0.59,0.667,1.418-0.006,2.307-0.006h0.208
		h0.418h0.038l0.567,0.994l0.066,0.54l0.53,0.042l0.067-0.598l0.532-0.977h0.006C278.872,214,298,201.074,317,189.664v0.039
		c2-0.944,1.879-2.981,0.935-4.573l-28.127-47.361c20.805-12.088,42.574-22.35,64.938-30.568l7.605,21.328l-9.834,3.785
		c-2.846,1.09-5.794,2.218-8.602,3.537c-1.628,0.731-3.259,1.448-4.888,2.165c-0.387,0.172-0.781,0.344-1.169,0.516
		c-4.375,1.929-8.831,3.936-13.192,6.17c-0.578,0.298-1.165,0.582-1.742,0.887c-1.605,0.854-2.232,2.83-1.425,4.454l12.977,26.047
		l0.241,0.348l0.186,0.268l0.321,0.339l0.253,0.206l0.485,0.305l0.493,0.215l0.374,0.087l0.434,0.06l0.216,0.03l0.149-0.016
		l0.307-0.034l0.373-0.062l0.597-0.215l0.576-0.025l0.521-0.917V174h-0.787c20.092-7,41.145-16.357,62.784-22.404
		c1.785-0.5,2.771-1.45,2.27-3.232l-14.833-52.548c23.006-6.229,46.712-10.288,70.615-12.523l1.908,22.559
		c-0.823,0.062-1.659,0.185-2.502,0.274l-5.436,0.695l-11.649,1.444c-2.509,0.33-5.002,0.782-7.414,1.208l-0.112,0.023
		c-1.298,0.231-2.59,0.464-3.92,0.682l-4.473,0.774c-1.15,0.192-2.314,0.392-3.487,0.607c-1.127,0.197-2.271-0.218-3.419,0.062
		l-0.053-0.62h-0.007l-0.067,0.646l-0.456,0.476l-0.111,0.196c-1.404,0.63-2.232,2.241-1.912,3.804l5.81,28.554
		c0.18,0.873,0.694,1.655,1.434,2.147l0.179,0.092l0.568,0.27l0.29,0.092l0.74,0.107l0.044,0.353l0.693,0.264h0.018H427v0.163
		c24-4.674,46.42-7.54,70.081-7.691l4.531-0.229c1.836-0.009,3.292-1.599,3.309-3.437l0.268-55.087
		c23.93,0.266,47.91,2.587,71.394,6.963l-4.295,22.217l-13.847-2.396l-17-2.096c-2.039-0.293-4.077-0.433-5.863-0.555l-0.088-0.007
		l-2.367,0.114L529.799,106h-0.008h-0.015c-1.846,0-3.45,0.964-3.583,2.806l-2.18,28.877c-0.069,0.884,0.223,1.622,0.806,2.298
		c0.574,0.671,1.403,1.02,2.283,1.02h0.023c22.528,0,44.92,2,66.545,12h0.007l0.792-0.191l0.053-0.139l0.126-0.087
		c0.671-0.021,1.307-0.278,1.838-0.661l0.127-0.103l0.656-0.703l0.091-0.143l0.417-0.93l14.261-53.148
		c23.072,6.383,45.682,14.802,67.291,25.064l-9.833,20.271c-1.656-0.788-3.322-1.517-4.949-2.236
		c-0.845-0.374-1.696-0.742-2.546-1.125l-10.618-4.708l-5.481-2.113l-5.242-2.023c-0.79-0.3-1.582-0.607-2.366-0.914l-0.439-0.169
		c-0.814-0.319-1.659-0.635-2.496-0.951c-0.5-0.193-0.992-0.39-1.5-0.575l-0.501-0.17c-1.201-0.435-2.419-0.861-3.65-1.242
		c-1.717-0.522-3.555,0.403-4.153,2.108l-9.535,27.496c-0.604,1.746,0.321,3.657,2.068,4.264l0.023-0.959
		C639.313,166.277,659.93,174,679.389,186h0.007l0.732,1.271l0.224,0.531l0.583,0.315l0.134,0.143l0.089-1.085l0.754-1.173h0.015
		l0.172,1.069l0.447,0.4l0.203,0.16l0.351-0.08l0.188-0.104l0.298-0.238l0.388-0.522l27.507-47.644
		c20.542,12.09,40.195,26.057,58.503,41.57l-14.732,17.105l-2.203-1.903c-0.665-0.58-1.345-1.168-2.038-1.746l-0.963-0.77
		c-0.375-0.298-0.74-0.609-1.12-0.894l-13.671-10.679l-14.047-9.9l-0.014-0.012c-0.732-0.52-1.651-0.719-2.533-0.557
		c-0.886,0.161-1.671,0.671-2.173,1.418l-16.313,24.102c-0.493,0.738-0.68,1.641-0.516,2.513c0.172,0.875,0.68,1.464,1.419,1.962
		C719.776,213.865,737.346,228,753.288,244h-0.16h0.437l0.448,0.559l0.318,0.332l0.366,0.202l0.309,0.131l0.322-0.61l0.327-0.613
		h0.008l0.336,0.635l0.315,0.304l0.321,0.069l0.306-0.013l0.321-0.125l0.261-0.116l0.516-0.416l38.715-39.098
		c16.921,17.06,32.398,35.53,46.077,54.988l-18.591,12.858l-4.697-6.661c-1.315-1.842-2.705-3.611-4.062-5.345l-0.516-0.655
		c-0.835-1.054-1.666-2.106-2.523-3.222l-0.724-0.935c-0.598-0.754-1.188-1.51-1.77-2.266c-0.514-0.664-1.046-1.34-1.575-2.016
		l-0.71-0.91c-0.784-0.994-1.597-1.988-2.428-2.958l-7.496-8.676c-0.582-0.676-1.41-1.091-2.307-1.15
		c-0.888-0.066-1.769,0.231-2.441,0.823l-21.856,19.21c-0.671,0.591-1.073,1.414-1.134,2.303c-0.06,0.884,0.238,1.76,0.829,2.431
		l0.006,0.007l0.008-0.332C785.775,279.7,799.126,298,810.534,317h0.008l0.5,0.976l0.166,0.325l0.47,0.434l0.187,0.046l0.709,0.219
		h0.008l0.761,0.205l0.083,0.066l0.142,0.01l0.575-0.064l0.23-0.046l0.756-0.312l47.368-28.002
		c12.089,20.796,22.354,42.633,30.576,64.99l-21.323,7.643l-3.787-9.815c-1.091-2.843-2.217-5.79-3.54-8.599
		c-0.357-0.797-0.709-1.604-1.066-2.403c-0.367-0.83-0.732-1.652-1.099-2.479c-0.544-1.239-1.098-2.495-1.659-3.748
		c-0.168-0.396-0.349-0.791-0.529-1.187c-1.076-2.39-2.179-4.786-3.345-7.169c-0.656-1.34-1.334-2.671-2.038-3.993
		c-0.851-1.606-2.831-2.241-4.449-1.427L824.185,335.644z"/>
	<path fill="#1E3A2B" d="M741.138,260.443c-31.368-31.564-69.351-57.204-109.851-74.137C590.759,169.273,545.845,160,501.403,160
		h-0.023h-0.03h-1.859h-0.134c-44.399,0-89.304,8.843-129.833,25.598c-40.664,16.728-78.783,42.151-110.247,73.546
		c-31.571,31.365-57.204,69.347-74.137,109.847c-17.032,40.522-26.127,85.436-26.299,129.885l-0.038,1.851
		c-0.021,44.495,8.834,89.461,25.604,130.031c16.733,40.656,42.165,78.777,73.556,110.243c6.153,6.193,12.634,12.088,19.263,17.798
		c3.264-10.399,9.783-19.948,20.386-28.191c-16.638-38.539,0.782-64.156,41.201-77.05l0.396-0.127l0.394-0.083
		c8.94-1.702,31.78-6.756,34.736-17.449c2.135-7.691-6.25-18.146-12.028-24.304c-17.13,1.329-34.414-4.413-47.31-15.809
		c-24.065-21.25-31.353-56.247-10.043-82.149c10.596-12.855,26.209-23.273,35.057-36.997c3.276-5.086,5.48-10.461,6.48-16.434
		c2.778-16.629-4.66-39.35-8.892-55.479c-6.938-26.357-3.54-51.401,9.646-74.69c-10.125-11.089-14.686-26.396-12.065-41.375
		c2.387-13.691,10.498-25.722,22.287-33.076l0.889-0.552c-2.897-17.094-1.739-34.488,6.415-50.411l2.352-4.578l5.031,1.042
		c14.315,2.958,23.514,12.975,29.458,25.578c0.104-0.52,0.201-1.035,0.291-1.549c1.792-9.292,5.488-22.629,15.799-25.747
		l2.345-0.701l2.248,0.953c13.851,5.865,23.916,15.055,30.479,27.026l1.674-0.213c41.799-5.345,88.436-7.76,129.914,1.015
		c30.607,6.468,59.801,19.52,79.649,44.504c15.74,19.802,22.892,43.71,24.818,68.591c24.274,28.985,48.475,68.222,39.409,107.512
		c-7.271,31.525-33.75,53.539-61.352,68.868c20.756,7.808,43.558,20.592,48.144,41.826c2.294,10.553-0.439,21.081-5.331,30.458
		l-3.105,5.959c2.008,8.661,2.329,17.516,0.307,26.291c-5.885,25.626-29.643,42.328-52.469,53.245
		c10.042,14.44,23.139,24.993,34.198,38.939c12.671,15.994,22.08,32.151,29.158,48.69c7.63-6.376,15.022-13.025,22.041-20.024
		c31.563-31.372,57.197-69.356,74.139-109.851c17.032-40.534,26.119-85.449,26.291-129.894l0.045-1.876
		c0.006-44.486-8.841-89.438-25.612-130.001C797.969,330.033,772.528,291.914,741.138,260.443z"/>
	<polygon fill="#1E3A2B" points="752.316,244.371 752.316,244.579 753.127,244.579 752.959,244.495 	"/>
	<path fill="#1E3A2B" d="M386.31,751.002C378.768,768.521,372.959,791,368.898,814h0.007c-0.187,3-0.38,3.096-0.567,4.276
		c11.094,4.586,22.489,8.986,34.129,12.405c-3.224-14.615-4.889-28.647-4.889-42.817c0.007-26.891,5.801-52.973,17.397-78.274
		l-0.023,0.029l0.023-0.101C403.581,719.634,394.038,733.013,386.31,751.002z"/>
	<path fill="#1E3A2B" d="M393.665,415.667c-15.232-5.086-25.446-2.264-30.651,8.488
		C368.583,416.247,378.799,413.417,393.665,415.667z"/>
	<path fill="#1E3A2B" d="M614.607,493.141c15.104-8.019,22.564-21.534,22.369-40.566c-1.352-10.864-9.602-13.313-15.119-4.862
		c-2.061,2.63-0.464,5.833,1.402,2.339c3.905-7.343,10.873-5.647,11.148,4.591C634.82,469.703,628.151,482.533,614.607,493.141z"/>
	<path fill="#1E3A2B" d="M644.638,671.748c37.021-16.088,55.97-36.328,56.837-60.709c0.208-5.627-0.546-11.474-2.264-17.543
		c-9.317-21.105-24.609-36.827-45.859-47.268c21.676,7.167,38.469,20.448,50.356,39.874c3.889-7.469,5.682-14.489,5.368-21.051
		c-0.927-19.687-20.78-35.278-59.548-46.795c48.409-23.081,73.032-51.639,73.885-85.68c0.664-26.474-13.215-56.263-41.328-89.366
		C676.147,251.212,601,214.516,455,233.131v0.004c3,5.311,3.611,10.209,4.216,14.69c0.21,1.496,0.4,2.946,0.437,4.349
		c106.632-2.988,151.988,21.22,135.994,72.621c-5.591,16.033-17.854,30.375-36.836,43.045c8.654,14.718,13.771,27.404,15.339,38.066
		c23.557,1.875,36.809,11.394,39.758,28.552c52.842-17.389,68.853-45.533,48.036-84.417c24.155,33.638,17.391,61.915-20.295,84.837
		c4.221,31.106-0.656,52.276-14.657,63.521c-9.736,7.824-29.732,13.701-28.813-5.169c-5.083,14.989-0.857,24.426,12.673,28.309
		c-0.464,32.456,3.322,62.609,11.342,90.457c6.347,23.104,12.498,41.008,18.464,53.71c-10.475-17.584-18.607-35.377-24.378-53.357
		c-50.781,3.396-100.025,15.591-147.724,36.586c-1.71-9.295-5.017-17.449-9.938-24.485c36.281-7.002,62.393-15.364,78.334-25.088
		c-45.026,15.591-86.025,20.414-122.979,14.48c-5.525-1.159-10.288-3.696-14.304-7.632
		c-16.637-16.329-43.129-112.547-41.187-136.366c0.911-7.354,2.292-15.076,4.137-23.184c0.56-1.748,0.934-3.51,1.097-5.295
		c9.908,3.292,20.101,2.142,30.576-3.457c3.145-2.413,2.897-2.823-0.724-1.23c-6.085,3.224-12.015,3.867-20.293,3.246
		c-3.361-0.508-5.124-1.411-5.601-2.753c-1.672-4.809,2.068-6.207,5.308-7.162c0.613,8.564,10.199,10.812,15.113,6.488
		c2.583-2.277,3.233-7.54,1.933-10.722c3.511,0.492,7.207,3.196,8.558,7.482c-1.158,4.592-3.92,11.439-8.288,20.579
		c-4.563,8.63-12.005,21.323-7.743,31.599c2.367,5.695,7.916,8.759,16.637,9.155c3.075-0.337,5.458,1.782,8.385,1.798
		c4.472,0.03,9.416-1.814,13.575-0.969c8.744,2.919,14.516,1.171,17.338-5.219c3.249-7.32,1.552-13.951-5.07-19.871
		c-3.778-2.657-4.816-1.672-1.261,1.098c2.785,2.337,4.53,5.107,5.241,8.31c0.935,4.25,0.105,8.356-3.069,11.479
		c-5.129,5.031-11.842-1.352-16.464-4.66c-2.934-2.083-5.39-2.658-7.586-2.396c-8.669,1.038-8.7,10.244-19.249,4.727
		c-8.975-4.69-10.282-12.807-3.951-24.343c7.705-14.17,13.365-27.894,16.979-41.187c2.375-24.625-12.268-37.551-43.92-38.761
		c1.831-55.186,12.874-84.147,33.124-86.906c-1.896-7.077-3.808-13.999-20.048-15.88c-8.213-0.948-10.998-14.754-12.164-20.489
		c-10.064,6.28-17.134,16.59-19.212,28.508c-2.545,14.576,2.757,29.42,13.941,39.102c-14.634,23.252-18.517,47.943-11.633,74.085
		c8.617,32.817,16.039,54.808,1.546,77.274c-9.05,14.054-24.783,24.611-35.512,37.643c-19.003,23.094-11.993,53.999,9.296,72.792
		c12.162,10.752,28.649,16.054,45.413,13.806c28.313,28.538,20.301,47.018-24.015,55.454
		c-40.805,13.032-52.402,37.306-34.787,72.838c-13.799,9.24-21.75,20.849-23.976,34.774c8.706,7.105,17.771,13.788,27.156,20.024
		c-0.44-1.778-0.658-3.627-0.516-5.577c1.54-5.503,5.893-10.743,13.045-15.74c21.839-15.225,33.907-21.781,50.946-44.844
		c-5.563,9.222-10.865,16.679-15.918,22.398c-6.834,6.997-14.129,13.016-21.895,18.049c-14.06,9.089-27.866,16.085-21.488,28.462
		c14.955,9.63,30.717,18.118,47.145,25.376c0.484-2.919,0.977-5.842,1.404-8.853c12.349-79.505,48.243-124.345,107.671-134.492
		c45.546-4.09,50.609,1.464,89.473,10.207c8.975,2.025,19.107,3.444,30.412,4.266c4.338,0.328,8.863,0.557,13.546,0.692
		c0.947,4.257,1.859,8.461,2.701,12.622c7.206,34.974,11.313,66.848,12.352,95.619c-2.726,2.021-5.393,7.698-7.751,17.083
		c-0.866,3.45-1.516,7.091-1.979,10.775c-0.157,1.285-0.3,2.566-0.403,3.856c7.944-2.635,15.755-5.551,23.43-8.741
		c-0.075-0.541-0.127-1.088-0.215-1.626c0.425-0.813,0.783-1.714,1.193-2.545l0.053-0.023c5.295-10.723,9.251-23.099,11.693-37.274
		c1.92-11.032,2.973-23.128,3.158-36.284c0.06-4.376,0.023-8.869-0.103-13.483c0.977,1.047,1.931,2.025,2.866,2.935
		c3.367,3.272,5.984,4.711,7.85,4.69c10.326,15.47,18.061,33.07,25.061,52.645v-0.005c0,1.164,0.804,2.319,1.169,3.494
		c1.546-0.98,3.083-1.986,4.606-2.994c-0.366-1.146-0.74-2.275-1.121-3.412c-6.772-20.21-15.512-38.36-26.384-54.297
		c0.045-0.584,0.04-1.242,0-1.913c10.292,9.976,19.692,20.356,28.226,31.143c4.794,6.058,9.276,12.267,13.517,18.585
		c1.404-1.031,2.799-2.069,4.189-3.116c-4.278-6.358-8.736-12.64-13.567-18.746c-10.259-12.963-21.758-25.358-34.511-37.178
		c-5.346-14.672-22.453-44.869-33.256-50.558c8.953,2.697,29.314,24.208,37.377,33.003c17.31,18.854,31.661,39.611,43.062,62.274
		c1.097,3.142,2.151,6.296,3.158,9.462c1.479-1.134,2.943-2.277,4.398-3.437c-7.064-17.898-16.837-35.349-30.531-52.631
		C669.54,700.091,656.19,691.575,644.638,671.748z M356.592,394.504c32.107-3.695,46.541,6.855,43.292,31.661
		c-12.941-8.207-25.544-7.034-37.782,3.523c-0.68-1.844-1.539-3.705-2.59-5.577C355.523,413.486,354.546,403.62,356.592,394.504z
		 M627.547,701.138c5.063,7.875,9.773,14.528,14.148,19.98c0.957,20.771,0.054,39.215-2.74,55.321
		c-2.12,12.276-5.338,23.177-9.646,32.703c-1.83-6.293-3.816-10.498-5.846-12.596c-0.889-26.469-4.376-55.539-10.439-87.167
		c-2.614-13.648-2.881-28.297,4.556-40.56C614.45,681.7,621.027,690.981,627.547,701.138z"/>
	<path fill="#1E3A2B" d="M431.236,286.117c-6.539,3.107-9.99,8.349-10.348,15.724c55.754-1.528,94.68,11.987,116.772,40.562
		c38.462-20.899,45.084-39.111,19.876-54.629c-13.948-11.639-47.689-17.264-98.352-16.649
		C455.781,276.881,447.433,281.952,431.236,286.117z"/>
	<path fill="#1E3A2B" d="M370.794,207.7c-8.354,16.308-9.326,35.872-2.912,58.691c1.979,6.66,5.092,10.445,9.334,11.357
		c12.201,2.956,18.688,9.916,19.457,20.893c1.008,10.177,4.189,15.387,7.758,16.455c-0.746,3.688-1.313,7.377-1.701,11.075
		c-0.464,4.323-0.687,8.669-0.68,13.022c-2.18,0.804-3.808,3.838-3.808,7.451c0,4.225,2.217,7.652,4.965,7.652
		c2.74,0,4.973-3.428,4.973-7.652c0-3.434-1.471-6.33-3.48-7.311c-0.03-4.3,0.195-8.594,0.658-12.887
		c0.402-3.778,0.986-7.549,1.756-11.297c3.695-0.949,7.323-5.93,9.011-14.127c1.486-10.96,7.086-17.511,16.771-19.66
		c18.541-5.906,24.543-18.354,20.496-33.413c-4.368-20.402-15.614-34.44-33.727-42.104c-10.118,3.052-14.814,27.397-14.082,73.029
		C403.237,235.738,391.649,212.002,370.794,207.7z"/>
	<path fill="#1E3A2B" d="M495.064,431.285c-6.953,2.42-18.212,2.866-33.75,1.345c13.164,4.069,27.664,4.009,43.486-0.202
		c8.655-2.351,9.118-5.801,1.344-10.342c-24.677-12.164-41.797-11.334-51.348,2.481c-0.568,1.208-0.164,1.485,1.238,0.827
		c3.615-2.083,6.445-3.001,8.499-2.793c1.052,5.616,6.07,9.602,11.789,9.371c5.713-0.238,10.394-4.621,10.983-10.303
		c2.286,0.05,4.951,0.469,7.967,1.239C500.865,425.478,500.791,428.271,495.064,431.285z"/>
	<path fill="#1E3A2B" d="M555.359,277.949c20.563,9.536,29.163,20.682,25.812,33.45c-7.878,30.001-46.287,33.876-64.169,54.762
		c-6.705,7.817-10.342,17.039-10.918,27.656c-4.673,21.976,8.991,40.598,40.995,55.868c13.432,3.233,15.083,21.436-3.72,33.517
		c0,0-6.354,3.592-19.054,10.754c-11.626,7.742-17.078,16.038-16.33,24.886c1.179,14.187,13.724,23.663,27.583,22.212
		c10.893-1.125,23.976-7.861,39.267-20.189c-18.459-10.319-19.288-20.256-2.494-29.798c9.4-4.795,17.254-10.725,23.61-17.795
		c11.378-21.676,12.782-37.737,4.241-48.161c-11.902-14.514-33.279-9.797-49.975-23.699c-22.796-18.972,1.694-35.667,15.284-47.51
		c15.411-13.439,24.49-26.327,27.216-38.694c8.237-37.258-34.742-50.34-62.9-55.351c-18.547-3.306-39.783-4.39-63.714-3.265
		c-2.098,0.098-3.666,0.21-5.763,0.284c0.195,3.549,0.096,6.101-0.33,9.155C499.193,263.889,531.322,267.809,555.359,277.949z"/>
	<path fill="#1E3A2B" d="M440.489,537.306c-8.752-2.261-16.307-2.575-22.676-0.925c-2.897,0.41-5.929,0.41-9.11,0
		c-3.725-0.516-6.75-0.424-9.05,0.256c-4.823,1.416-5.024,3.806-4.039,8.115c1.463,6.346,6.004,13.366,11.583,15.098
		c2.254,0.701,4.935,0.827,8.047,0.374c11.94-1.741,13.546-5.698,22.289-11.559c5.727-3.837,11.349-6.035,19.226-8.894
		c1.883-0.678,1.18-1.778-2.089-3.283c-6.766-2.696-14.15-7.036-22.146-13.041c-10.477-6.496-19.384-6.645-26.717-0.417
		c-9.498-3.435-14.052,0.47-15.606,11.485c-0.521,3.792,0.994,5.345,3.644,3.755c3.981-2.39,4.892-3.114,9.805-3.874
		c3.8-0.591,8.394-0.756,13.76-0.502c9.498-0.195,17.316,0.472,23.446,2.016C446.903,537.523,446.791,537.993,440.489,537.306z"/>
	<path fill="#1E3A2B" d="M502.336,385.539c-24.288-13.511-53.425-12.337-67.492,6.621c-1.732,3.233,2.016,5.705,5.803,2.122
		c14.836-14.365,34.793-16.249,59.831-5.638C503.724,389.585,505.076,387.358,502.336,385.539z"/>
	<path fill="#1E3A2B" d="M450.241,418.153c12.841-12.613,30.225-14.136,52.17-4.555
		C480.002,400.718,462.613,402.234,450.241,418.153z"/>
</g>
</svg>