<svg width="40" height="41" viewBox="0 0 40 41" fill="none" xmlns="http://www.w3.org/2000/svg">
<g clip-path="url(#clip0_45_1512)">
<path d="M40 20.9054C40 26.2754 37.8843 31.1497 34.44 34.7425C34.3414 34.8454 34.2414 34.9468 34.1414 35.0468C34.0414 35.1468 33.9457 35.2397 33.8471 35.3354C33.1429 36.0111 32.39 36.6354 31.5943 37.2025C31.1829 37.4968 30.7586 37.7754 30.3229 38.0383C27.31 39.8583 23.7771 40.9054 20 40.9054C16.2229 40.9054 12.7 39.8611 9.68857 38.044C9.25286 37.7825 8.82714 37.504 8.41429 37.2083C7.61857 36.6425 6.86571 36.0197 6.16286 35.3454C5.96143 35.1525 5.76429 34.9554 5.57143 34.754C2.12 31.1611 0 26.2811 0 20.9054C0 15.5297 2.23857 10.3825 5.85857 6.76397C9.47714 3.14397 14.4771 0.905396 20 0.905396C25.5229 0.905396 30.5229 3.14397 34.1414 6.76397C37.7614 10.3825 40 15.3825 40 20.9054Z" fill="#4281A4" style="fill:#4281A4;fill:color(display-p3 0.2588 0.5059 0.6431);fill-opacity:1;"/>
<mask id="mask0_45_1512" style="mask-type:luminance" maskUnits="userSpaceOnUse" x="0" y="0" width="40" height="41">
<path d="M40 20.9045C40 26.2745 37.8843 31.1488 34.44 34.7416C34.3414 34.8445 34.2414 34.9459 34.1414 35.0459C34.0414 35.1459 33.9457 35.2388 33.8471 35.3345C33.1429 36.0102 32.39 36.6345 31.5943 37.2016C31.1829 37.4959 30.7586 37.7745 30.3229 38.0373C27.31 39.8573 23.7771 40.9045 20 40.9045C16.2229 40.9045 12.7 39.8602 9.68857 38.0431C9.25286 37.7816 8.82714 37.5031 8.41429 37.2073C7.61857 36.6416 6.86571 36.0188 6.16286 35.3445C5.96143 35.1516 5.76429 34.9545 5.57143 34.7531C2.12 31.1602 0 26.2802 0 20.9045C0 15.5288 2.23857 10.3816 5.85857 6.76305C9.47714 3.14305 14.4771 0.90448 20 0.90448C25.5229 0.90448 30.5229 3.14305 34.1414 6.76305C37.7614 10.3816 40 15.3816 40 20.9045Z" fill="white" style="fill:white;fill-opacity:1;"/>
</mask>
<g mask="url(#mask0_45_1512)">
<g opacity="0.2">
<path d="M4.66992 36.2511L35.1271 5.79248" stroke="#F6E8D7" style="stroke:#F6E8D7;stroke:color(display-p3 0.9647 0.9098 0.8431);stroke-opacity:1;" stroke-width="0.857143" stroke-linecap="round" stroke-linejoin="round"/>
<path d="M4.30566 5.20581L36.0771 36.9772" stroke="#F6E8D7" style="stroke:#F6E8D7;stroke:color(display-p3 0.9647 0.9098 0.8431);stroke-opacity:1;" stroke-width="0.857143" stroke-linecap="round" stroke-linejoin="round"/>
<path d="M20 -0.0945435V44.8369" stroke="#F6E8D7" style="stroke:#F6E8D7;stroke:color(display-p3 0.9647 0.9098 0.8431);stroke-opacity:1;" stroke-width="0.857143" stroke-linecap="round" stroke-linejoin="round"/>
<path d="M-0.347168 14.5799L31.4243 46.3528" stroke="#F6E8D7" style="stroke:#F6E8D7;stroke:color(display-p3 0.9647 0.9098 0.8431);stroke-opacity:1;" stroke-width="0.857143" stroke-linecap="round" stroke-linejoin="round"/>
<path d="M-2.89551 20.9073H42.0374" stroke="#F6E8D7" style="stroke:#F6E8D7;stroke:color(display-p3 0.9647 0.9098 0.8431);stroke-opacity:1;" stroke-width="0.857143" stroke-linecap="round" stroke-linejoin="round"/>
<path d="M20.0001 34.9399C27.7503 34.9399 34.033 28.6572 34.033 20.9071C34.033 13.1569 27.7503 6.87421 20.0001 6.87421C12.25 6.87421 5.96729 13.1569 5.96729 20.9071C5.96729 28.6572 12.25 34.9399 20.0001 34.9399Z" stroke="#F6E8D7" style="stroke:#F6E8D7;stroke:color(display-p3 0.9647 0.9098 0.8431);stroke-opacity:1;" stroke-width="0.857143" stroke-linecap="round" stroke-linejoin="round"/>
</g>
<path d="M17.7158 32.6877L8.32375 32.5945L12.9915 27.9282L17.7158 32.6877Z" stroke="#F6E8D7" style="stroke:#F6E8D7;stroke:color(display-p3 0.9647 0.9098 0.8431);stroke-opacity:1;" stroke-width="0.857143" stroke-linecap="round" stroke-linejoin="round"/>
<path d="M34.04 20.9016C34.04 24.7787 32.4729 28.2859 29.9315 30.8273L20.0015 20.9016V6.86444C27.7572 6.86444 34.0415 13.1502 34.0415 20.9016H34.04Z" stroke="#F6E8D7" style="stroke:#F6E8D7;stroke:color(display-p3 0.9647 0.9098 0.8431);stroke-opacity:1;" stroke-width="0.857143" stroke-linecap="round" stroke-linejoin="round"/>
<path d="M20 6.86444C12.2457 6.86444 5.95996 13.1487 5.95996 20.9016H20V6.86444Z" stroke="#F6E8D7" style="stroke:#F6E8D7;stroke:color(display-p3 0.9647 0.9098 0.8431);stroke-opacity:1;" stroke-width="0.857143" stroke-linecap="round" stroke-linejoin="round"/>
<path d="M5.95996 20.9011L17.7672 32.7026H31.7996L30.273 31.2222L20 20.9011H5.95996Z" stroke="#F6E8D7" style="stroke:#F6E8D7;stroke:color(display-p3 0.9647 0.9098 0.8431);stroke-opacity:1;" stroke-width="0.857143" stroke-linecap="round" stroke-linejoin="round"/>
</g>
</g>
<rect x="0.5" y="1.40582" width="39.0001" height="39" rx="19.5" stroke="url(#paint0_linear_45_1512)" style=""/>
<rect x="0.230769" y="21.1366" width="19.5385" height="19.5385" rx="9.76923" fill="#14100D" style="fill:#14100D;fill:color(display-p3 0.0785 0.0643 0.0519);fill-opacity:1;"/>
<rect x="0.230769" y="21.1366" width="19.5385" height="19.5385" rx="9.76923" stroke="url(#paint1_linear_45_1512)" style="" stroke-width="0.461538"/>
<path d="M6.53494 36.6643L5.62744 25.1473H6.86494L7.34344 31.7473L7.59094 35.2288H7.72294L9.24094 28.1503H10.7919L12.3099 35.2288H12.4419L12.6894 31.7473L13.1679 25.1473H14.3724L13.4649 36.6643H11.4684L10.0659 29.7838H9.93394L8.53144 36.6643H6.53494Z" fill="#FDEFDF" style="fill:#FDEFDF;fill:color(display-p3 0.9922 0.9373 0.8745);fill-opacity:1;"/>
<defs>
<linearGradient id="paint0_linear_45_1512" x1="20" y1="0.905823" x2="20" y2="40.9058" gradientUnits="userSpaceOnUse">
<stop stop-color="white" stop-opacity="0.55" style="stop-color:white;stop-opacity:0.55;"/>
<stop offset="1" stop-opacity="0.3" style="stop-color:black;stop-opacity:0.3;"/>
</linearGradient>
<linearGradient id="paint1_linear_45_1512" x1="10" y1="20.9058" x2="10" y2="40.9058" gradientUnits="userSpaceOnUse">
<stop stop-color="white" stop-opacity="0.33" style="stop-color:white;stop-opacity:0.33;"/>
<stop offset="1" stop-color="#6E6E6E" stop-opacity="0.3" style="stop-color:#6E6E6E;stop-color:color(display-p3 0.4303 0.4303 0.4303);stop-opacity:0.3;"/>
</linearGradient>
<clipPath id="clip0_45_1512">
<rect y="0.905823" width="40.0001" height="40" rx="20" fill="white" style="fill:white;fill-opacity:1;"/>
</clipPath>
</defs>
</svg>
