<svg width="40" height="40" viewBox="0 0 40 40" fill="none" xmlns="http://www.w3.org/2000/svg">
<g clip-path="url(#clip0_40000774_25401)">
<rect width="40" height="40" rx="20" fill="#0143EB"/>
<g clip-path="url(#clip1_40000774_25401)">
<g opacity="0.8">
<path d="M14.0334 9.9163V9.69301H14.256V9.46973H14.4787V9.69301H14.7012V9.9163H14.4787V10.1396H14.256V9.9163H14.0334Z" fill="#F3F3F3"/>
<path d="M16.302 9.9163V9.69301H16.5245V9.46973H16.7471V9.69301H16.9698V9.9163H16.7471V10.1396H16.5245V9.9163H16.302Z" fill="#F3F3F3"/>
<path d="M18.5706 9.91616V9.69287H18.7931V9.46959H19.0157V9.69287H19.2382V9.91616H19.0157V10.1394H18.7931V9.91616H18.5706ZM18.5706 8.57645V8.35317H18.7931V8.12988H19.0157V8.35317H19.2382V8.57645H19.0157V8.79974H18.7931V8.57645H18.5706Z" fill="#F3F3F3"/>
<path d="M20.8391 9.91616V9.69287H21.0617V9.46959H21.2842V9.69287H21.5068V9.91616H21.2842V10.1394H21.0617V9.91616H20.8391ZM20.8391 8.57645V8.35317H21.0617V8.12988H21.2842V8.35317H21.5068V8.57645H21.2842V8.79974H21.0617V8.57645H20.8391Z" fill="#F3F3F3"/>
<path d="M24.2202 9.69252H23.9977V9.46924H24.2202V9.69252ZM24.2202 8.12953V8.35282H23.9977V8.12953H24.2202ZM22.6622 9.69252V9.46924H22.8848V9.69252H22.6622ZM22.6622 8.35282V8.12953H22.8848V8.35282H22.6622ZM23.1073 9.24596V9.02267H22.4397V8.79939H23.1073V8.5761H23.33V7.90625H23.5526V8.5761H23.7751V8.79939H24.4429V9.02267H23.7751V9.24596H23.5526V9.91581H23.33V9.24596H23.1073ZM23.1073 9.46924H22.8848V9.24596H23.1073V9.46924ZM23.1073 8.5761H22.8848V8.35282H23.1073V8.5761ZM23.9977 9.24596V9.46924H23.7751V9.24596H23.9977ZM23.9977 8.5761H23.7751V8.35282H23.9977V8.5761Z" fill="#F3F3F3"/>
<path d="M26.4888 9.69252H26.2662V9.46924H26.4888V9.69252ZM26.4888 8.12953V8.35282H26.2662V8.12953H26.4888ZM24.9308 9.69252V9.46924H25.1533V9.69252H24.9308ZM24.9308 8.35282V8.12953H25.1533V8.35282H24.9308ZM25.3759 9.24596V9.02267H24.7083V8.79939H25.3759V8.5761H25.5984V7.90625H25.8211V8.5761H26.0437V8.79939H26.7113V9.02267H26.0437V9.24596H25.8211V9.91581H25.5984V9.24596H25.3759ZM25.3759 9.46924H25.1533V9.24596H25.3759V9.46924ZM25.3759 8.5761H25.1533V8.35282H25.3759V8.5761ZM26.2662 9.24596V9.46924H26.0437V9.24596H26.2662ZM26.2662 8.5761H26.0437V8.35282H26.2662V8.5761Z" fill="#F3F3F3"/>
<path d="M28.7574 9.69252H28.5349V9.46924H28.7574V9.69252ZM28.7574 8.12953V8.35282H28.5349V8.12953H28.7574ZM27.1995 9.69252V9.46924H27.422V9.69252H27.1995ZM27.1995 8.35282V8.12953H27.422V8.35282H27.1995ZM27.6446 9.24596V9.02267H26.9768V8.79939H27.6446V8.5761H27.8671V7.90625H28.0897V8.5761H28.3123V8.79939H28.98V9.02267H28.3123V9.24596H28.0897V9.91581H27.8671V9.24596H27.6446ZM27.6446 9.46924H27.422V9.24596H27.6446V9.46924ZM27.6446 8.5761H27.422V8.35282H27.6446V8.5761ZM28.5349 9.24596V9.46924H28.3123V9.24596H28.5349ZM28.5349 8.5761H28.3123V8.35282H28.5349V8.5761Z" fill="#F3F3F3"/>
<path d="M31.026 9.69252H30.8034V9.46924H31.026V9.69252ZM31.026 8.12953V8.35282H30.8034V8.12953H31.026ZM29.4679 9.69252V9.46924H29.6906V9.69252H29.4679ZM29.4679 8.35282V8.12953H29.6906V8.35282H29.4679ZM29.9131 9.24596V9.02267H29.2454V8.79939H29.9131V8.5761H30.1357V7.90625H30.3582V8.5761H30.5808V8.79939H31.2485V9.02267H30.5808V9.24596H30.3582V9.91581H30.1357V9.24596H29.9131ZM29.9131 9.46924H29.6906V9.24596H29.9131V9.46924ZM29.9131 8.5761H29.6906V8.35282H29.9131V8.5761ZM30.8034 9.24596V9.46924H30.5808V9.24596H30.8034ZM30.8034 8.5761H30.5808V8.35282H30.8034V8.5761Z" fill="#F3F3F3"/>
<path d="M33.2944 9.69252H33.0719V9.46924H33.2944V9.69252ZM33.2944 8.12953V8.35282H33.0719V8.12953H33.2944ZM31.7365 9.69252V9.46924H31.959V9.69252H31.7365ZM31.7365 8.35282V8.12953H31.959V8.35282H31.7365ZM32.1817 9.24596V9.02267H31.5139V8.79939H32.1817V8.5761H32.4042V7.90625H32.6268V8.5761H32.8493V8.79939H33.5171V9.02267H32.8493V9.24596H32.6268V9.91581H32.4042V9.24596H32.1817ZM32.1817 9.46924H31.959V9.24596H32.1817V9.46924ZM32.1817 8.5761H31.959V8.35282H32.1817V8.5761ZM33.0719 9.24596V9.46924H32.8493V9.24596H33.0719ZM33.0719 8.5761H32.8493V8.35282H33.0719V8.5761Z" fill="#F3F3F3"/>
<path d="M35.5627 9.69252H35.3402V9.46924H35.5627V9.69252ZM35.5627 8.12953V8.35282H35.3402V8.12953H35.5627ZM34.0048 9.69252V9.46924H34.2273V9.69252H34.0048ZM34.0048 8.35282V8.12953H34.2273V8.35282H34.0048ZM34.4499 9.24596V9.02267H33.7822V8.79939H34.4499V8.5761H34.6724V7.90625H34.8951V8.5761H35.1176V8.79939H35.7853V9.02267H35.1176V9.24596H34.8951V9.91581H34.6724V9.24596H34.4499ZM34.4499 9.46924H34.2273V9.24596H34.4499V9.46924ZM34.4499 8.5761H34.2273V8.35282H34.4499V8.5761ZM35.3402 9.24596V9.46924H35.1176V9.24596H35.3402ZM35.3402 8.5761H35.1176V8.35282H35.3402V8.5761Z" fill="#F3F3F3"/>
<path d="M37.8314 9.69252H37.6089V9.46924H37.8314V9.69252ZM37.8314 8.12953V8.35282H37.6089V8.12953H37.8314ZM36.2735 9.69252V9.46924H36.496V9.69252H36.2735ZM36.2735 8.35282V8.12953H36.496V8.35282H36.2735ZM36.7186 9.24596V9.02267H36.0508V8.79939H36.7186V8.5761H36.9411V7.90625H37.1636V8.5761H37.3863V8.79939H38.054V9.02267H37.3863V9.24596H37.1636V9.91581H36.9411V9.24596H36.7186ZM36.7186 9.46924H36.496V9.24596H36.7186V9.46924ZM36.7186 8.5761H36.496V8.35282H36.7186V8.5761ZM37.6089 9.24596V9.46924H37.3863V9.24596H37.6089ZM37.6089 8.5761H37.3863V8.35282H37.6089V8.5761Z" fill="#F3F3F3"/>
<path d="M40.1 9.69252H39.8774V9.46924H40.1V9.69252ZM40.1 8.12953V8.35282H39.8774V8.12953H40.1ZM38.5419 9.69252V9.46924H38.7646V9.69252H38.5419ZM38.5419 8.35282V8.12953H38.7646V8.35282H38.5419ZM38.9871 9.24596V9.02267H38.3193V8.79939H38.9871V8.5761H39.2097V7.90625H39.4322V8.5761H39.6548V8.79939H40.3225V9.02267H39.6548V9.24596H39.4322V9.91581H39.2097V9.24596H38.9871ZM38.9871 9.46924H38.7646V9.24596H38.9871V9.46924ZM38.9871 8.5761H38.7646V8.35282H38.9871V8.5761ZM39.8774 9.24596V9.46924H39.6548V9.24596H39.8774ZM39.8774 8.5761H39.6548V8.35282H39.8774V8.5761Z" fill="#F3F3F3"/>
<path d="M4.95947 14.3811V14.1578H5.18205V13.9346H5.40462V14.1578H5.62719V14.3811H5.40462V14.6043H5.18205V14.3811H4.95947Z" fill="#F3F3F3"/>
<path d="M7.22803 14.382V14.1587H7.4506V13.9354H7.67317V14.1587H7.89575V14.382H7.67317V14.6052H7.4506V14.382H7.22803ZM7.22803 13.0423V12.819H7.4506V12.5957H7.67317V12.819H7.89575V13.0423H7.67317V13.2655H7.4506V13.0423H7.22803Z" fill="#F3F3F3"/>
<path d="M9.49634 14.382V14.1587H9.71891V13.9354H9.94148V14.1587H10.1641V14.382H9.94148V14.6052H9.71891V14.382H9.49634ZM9.49634 13.0423V12.819H9.71891V12.5957H9.94148V12.819H10.1641V13.0423H9.94148V13.2655H9.71891V13.0423H9.49634Z" fill="#F3F3F3"/>
<path d="M12.8777 14.1584H12.6552V13.9351H12.8777V14.1584ZM12.8777 12.5954V12.8187H12.6552V12.5954H12.8777ZM11.3197 14.1584V13.9351H11.5423V14.1584H11.3197ZM11.3197 12.8187V12.5954H11.5423V12.8187H11.3197ZM11.7649 13.7118V13.4885H11.0972V13.2652H11.7649V13.0419H11.9875V12.3721H12.21V13.0419H12.4326V13.2652H13.1004V13.4885H12.4326V13.7118H12.21V14.3816H11.9875V13.7118H11.7649ZM11.7649 13.9351H11.5423V13.7118H11.7649V13.9351ZM11.7649 13.0419H11.5423V12.8187H11.7649V13.0419ZM12.6552 13.7118V13.9351H12.4326V13.7118H12.6552ZM12.6552 13.0419H12.4326V12.8187H12.6552V13.0419Z" fill="#F3F3F3"/>
<path d="M15.1462 14.1584H14.9237V13.9351H15.1462V14.1584ZM15.1462 12.5954V12.8187H14.9237V12.5954H15.1462ZM13.5883 14.1584V13.9351H13.8108V14.1584H13.5883ZM13.5883 12.8187V12.5954H13.8108V12.8187H13.5883ZM14.0334 13.7118V13.4885H13.3657V13.2652H14.0334V13.0419H14.2559V12.3721H14.4786V13.0419H14.7011V13.2652H15.3688V13.4885H14.7011V13.7118H14.4786V14.3816H14.2559V13.7118H14.0334ZM14.0334 13.9351H13.8108V13.7118H14.0334V13.9351ZM14.0334 13.0419H13.8108V12.8187H14.0334V13.0419ZM14.9237 13.7118V13.9351H14.7011V13.7118H14.9237ZM14.9237 13.0419H14.7011V12.8187H14.9237V13.0419Z" fill="#F3F3F3"/>
<path d="M17.4149 14.1584H17.1924V13.9351H17.4149V14.1584ZM17.4149 12.5954V12.8187H17.1924V12.5954H17.4149ZM15.857 14.1584V13.9351H16.0795V14.1584H15.857ZM15.857 12.8187V12.5954H16.0795V12.8187H15.857ZM16.302 13.7118V13.4885H15.6343V13.2652H16.302V13.0419H16.5246V12.3721H16.7471V13.0419H16.9698V13.2652H17.6375V13.4885H16.9698V13.7118H16.7471V14.3816H16.5246V13.7118H16.302ZM16.302 13.9351H16.0795V13.7118H16.302V13.9351ZM16.302 13.0419H16.0795V12.8187H16.302V13.0419ZM17.1924 13.7118V13.9351H16.9698V13.7118H17.1924ZM17.1924 13.0419H16.9698V12.8187H17.1924V13.0419Z" fill="#F3F3F3"/>
<path d="M19.6835 14.1584H19.4609V13.9351H19.6835V14.1584ZM19.6835 12.5954V12.8187H19.4609V12.5954H19.6835ZM18.1254 14.1584V13.9351H18.3481V14.1584H18.1254ZM18.1254 12.8187V12.5954H18.3481V12.8187H18.1254ZM18.5706 13.7118V13.4885H17.9028V13.2652H18.5706V13.0419H18.7932V12.3721H19.0157V13.0419H19.2382V13.2652H19.906V13.4885H19.2382V13.7118H19.0157V14.3816H18.7932V13.7118H18.5706ZM18.5706 13.9351H18.3481V13.7118H18.5706V13.9351ZM18.5706 13.0419H18.3481V12.8187H18.5706V13.0419ZM19.4609 13.7118V13.9351H19.2382V13.7118H19.4609ZM19.4609 13.0419H19.2382V12.8187H19.4609V13.0419Z" fill="#F3F3F3"/>
<path d="M21.9518 14.1584H21.7291V13.9351H21.9518V14.1584ZM21.9518 12.5954V12.8187H21.7291V12.5954H21.9518ZM20.3937 14.1584V13.9351H20.6162V14.1584H20.3937ZM20.3937 12.8187V12.5954H20.6162V12.8187H20.3937ZM20.8389 13.7118V13.4885H20.1711V13.2652H20.8389V13.0419H21.0615V12.3721H21.284V13.0419H21.5066V13.2652H22.1743V13.4885H21.5066V13.7118H21.284V14.3816H21.0615V13.7118H20.8389ZM20.8389 13.9351H20.6162V13.7118H20.8389V13.9351ZM20.8389 13.0419H20.6162V12.8187H20.8389V13.0419ZM21.7291 13.7118V13.9351H21.5066V13.7118H21.7291ZM21.7291 13.0419H21.5066V12.8187H21.7291V13.0419Z" fill="#F3F3F3"/>
<path d="M24.2202 14.1584H23.9977V13.9351H24.2202V14.1584ZM24.2202 12.5954V12.8187H23.9977V12.5954H24.2202ZM22.6622 14.1584V13.9351H22.8848V14.1584H22.6622ZM22.6622 12.8187V12.5954H22.8848V12.8187H22.6622ZM23.1073 13.7118V13.4885H22.4397V13.2652H23.1073V13.0419H23.33V12.3721H23.5526V13.0419H23.7751V13.2652H24.4429V13.4885H23.7751V13.7118H23.5526V14.3816H23.33V13.7118H23.1073ZM23.1073 13.9351H22.8848V13.7118H23.1073V13.9351ZM23.1073 13.0419H22.8848V12.8187H23.1073V13.0419ZM23.9977 13.7118V13.9351H23.7751V13.7118H23.9977ZM23.9977 13.0419H23.7751V12.8187H23.9977V13.0419Z" fill="#F3F3F3"/>
<path d="M26.4888 14.1584H26.2662V13.9351H26.4888V14.1584ZM26.4888 12.5954V12.8187H26.2662V12.5954H26.4888ZM24.9308 14.1584V13.9351H25.1533V14.1584H24.9308ZM24.9308 12.8187V12.5954H25.1533V12.8187H24.9308ZM25.3759 13.7118V13.4885H24.7083V13.2652H25.3759V13.0419H25.5984V12.3721H25.8211V13.0419H26.0437V13.2652H26.7113V13.4885H26.0437V13.7118H25.8211V14.3816H25.5984V13.7118H25.3759ZM25.3759 13.9351H25.1533V13.7118H25.3759V13.9351ZM25.3759 13.0419H25.1533V12.8187H25.3759V13.0419ZM26.2662 13.7118V13.9351H26.0437V13.7118H26.2662ZM26.2662 13.0419H26.0437V12.8187H26.2662V13.0419Z" fill="#F3F3F3"/>
<path d="M28.7574 14.1584H28.5349V13.9351H28.7574V14.1584ZM28.7574 12.5954V12.8187H28.5349V12.5954H28.7574ZM27.1995 14.1584V13.9351H27.422V14.1584H27.1995ZM27.1995 12.8187V12.5954H27.422V12.8187H27.1995ZM27.6446 13.7118V13.4885H26.9768V13.2652H27.6446V13.0419H27.8671V12.3721H28.0897V13.0419H28.3123V13.2652H28.98V13.4885H28.3123V13.7118H28.0897V14.3816H27.8671V13.7118H27.6446ZM27.6446 13.9351H27.422V13.7118H27.6446V13.9351ZM27.6446 13.0419H27.422V12.8187H27.6446V13.0419ZM28.5349 13.7118V13.9351H28.3123V13.7118H28.5349ZM28.5349 13.0419H28.3123V12.8187H28.5349V13.0419Z" fill="#F3F3F3"/>
<path d="M31.026 14.1584H30.8034V13.9351H31.026V14.1584ZM31.026 12.5954V12.8187H30.8034V12.5954H31.026ZM29.4679 14.1584V13.9351H29.6906V14.1584H29.4679ZM29.4679 12.8187V12.5954H29.6906V12.8187H29.4679ZM29.9131 13.7118V13.4885H29.2454V13.2652H29.9131V13.0419H30.1357V12.3721H30.3582V13.0419H30.5808V13.2652H31.2485V13.4885H30.5808V13.7118H30.3582V14.3816H30.1357V13.7118H29.9131ZM29.9131 13.9351H29.6906V13.7118H29.9131V13.9351ZM29.9131 13.0419H29.6906V12.8187H29.9131V13.0419ZM30.8034 13.7118V13.9351H30.5808V13.7118H30.8034ZM30.8034 13.0419H30.5808V12.8187H30.8034V13.0419Z" fill="#F3F3F3"/>
<path d="M31.5139 12.1491V11.9258H32.4042V12.1491H32.1817V14.3819H33.2944V14.1586H33.5171V13.9354H33.7396V14.3819H33.5171V14.6052H31.5139V14.3819H31.7365V12.1491H31.5139Z" fill="#F3F3F3"/>
<path d="M33.7822 12.1491V11.9258H34.6724V12.1491H34.4499V14.3819H35.5627V14.1586H35.7853V13.9354H36.008V14.3819H35.7853V14.6052H33.7822V14.3819H34.0048V12.1491H33.7822Z" fill="#F3F3F3"/>
<path d="M36.0508 12.1491V11.9258H36.9411V12.1491H36.7186V14.3819H37.8314V14.1586H38.054V13.9354H38.2765V14.3819H38.054V14.6052H36.0508V14.3819H36.2735V12.1491H36.0508Z" fill="#F3F3F3"/>
<path d="M38.3193 12.1491V11.9258H39.2097V12.1491H38.9871V14.3819H40.1V14.1586H40.3225V13.9354H40.5451V14.3819H40.3225V14.6052H38.3193V14.3819H38.5419V12.1491H38.3193Z" fill="#F3F3F3"/>
<path d="M0.422363 18.8467V18.6235H0.644935V18.4002H0.86751V18.6235H1.09008V18.8467H0.86751V19.07H0.644935V18.8467H0.422363ZM0.422363 17.5071V17.2838H0.644935V17.0605H0.86751V17.2838H1.09008V17.5071H0.86751V17.7303H0.644935V17.5071H0.422363Z" fill="#F3F3F3"/>
<path d="M3.80378 18.6242H3.58121V18.401H3.80378V18.6242ZM3.80378 17.0613V17.2845H3.58121V17.0613H3.80378ZM2.24577 18.6242V18.401H2.46834V18.6242H2.24577ZM2.24577 17.2845V17.0613H2.46834V17.2845H2.24577ZM2.69091 18.1777V17.9543H2.02319V17.7311H2.69091V17.5078H2.91349V16.8379H3.13606V17.5078H3.35863V17.7311H4.02635V17.9543H3.35863V18.1777H3.13606V18.8475H2.91349V18.1777H2.69091ZM2.69091 18.401H2.46834V18.1777H2.69091V18.401ZM2.69091 17.5078H2.46834V17.2845H2.69091V17.5078ZM3.58121 18.1777V18.401H3.35863V18.1777H3.58121ZM3.58121 17.5078H3.35863V17.2845H3.58121V17.5078Z" fill="#F3F3F3"/>
<path d="M6.07233 18.6242H5.84976V18.401H6.07233V18.6242ZM6.07233 17.0613V17.2845H5.84976V17.0613H6.07233ZM4.51432 18.6242V18.401H4.73689V18.6242H4.51432ZM4.51432 17.2845V17.0613H4.73689V17.2845H4.51432ZM4.95947 18.1777V17.9543H4.29175V17.7311H4.95947V17.5078H5.18204V16.8379H5.40461V17.5078H5.62719V17.7311H6.29491V17.9543H5.62719V18.1777H5.40461V18.8475H5.18204V18.1777H4.95947ZM4.95947 18.401H4.73689V18.1777H4.95947V18.401ZM4.95947 17.5078H4.73689V17.2845H4.95947V17.5078ZM5.84976 18.1777V18.401H5.62719V18.1777H5.84976ZM5.84976 17.5078H5.62719V17.2845H5.84976V17.5078Z" fill="#F3F3F3"/>
<path d="M8.34089 18.6242H8.11832V18.401H8.34089V18.6242ZM8.34089 17.0613V17.2845H8.11832V17.0613H8.34089ZM6.78288 18.6242V18.401H7.00545V18.6242H6.78288ZM6.78288 17.2845V17.0613H7.00545V17.2845H6.78288ZM7.22802 18.1777V17.9543H6.5603V17.7311H7.22802V17.5078H7.4506V16.8379H7.67317V17.5078H7.89574V17.7311H8.56346V17.9543H7.89574V18.1777H7.67317V18.8475H7.4506V18.1777H7.22802ZM7.22802 18.401H7.00545V18.1777H7.22802V18.401ZM7.22802 17.5078H7.00545V17.2845H7.22802V17.5078ZM8.11832 18.1777V18.401H7.89574V18.1777H8.11832ZM8.11832 17.5078H7.89574V17.2845H8.11832V17.5078Z" fill="#F3F3F3"/>
<path d="M10.6092 18.6242H10.3866V18.401H10.6092V18.6242ZM10.6092 17.0613V17.2845H10.3866V17.0613H10.6092ZM9.05119 18.6242V18.401H9.27376V18.6242H9.05119ZM9.05119 17.2845V17.0613H9.27376V17.2845H9.05119ZM9.49633 18.1777V17.9543H8.82861V17.7311H9.49633V17.5078H9.71891V16.8379H9.94148V17.5078H10.1641V17.7311H10.8318V17.9543H10.1641V18.1777H9.94148V18.8475H9.71891V18.1777H9.49633ZM9.49633 18.401H9.27376V18.1777H9.49633V18.401ZM9.49633 17.5078H9.27376V17.2845H9.49633V17.5078ZM10.3866 18.1777V18.401H10.1641V18.1777H10.3866ZM10.3866 17.5078H10.1641V17.2845H10.3866V17.5078Z" fill="#F3F3F3"/>
<path d="M12.8777 18.6242H12.6552V18.401H12.8777V18.6242ZM12.8777 17.0613V17.2845H12.6552V17.0613H12.8777ZM11.3197 18.6242V18.401H11.5423V18.6242H11.3197ZM11.3197 17.2845V17.0613H11.5423V17.2845H11.3197ZM11.7649 18.1777V17.9543H11.0972V17.7311H11.7649V17.5078H11.9875V16.8379H12.21V17.5078H12.4326V17.7311H13.1004V17.9543H12.4326V18.1777H12.21V18.8475H11.9875V18.1777H11.7649ZM11.7649 18.401H11.5423V18.1777H11.7649V18.401ZM11.7649 17.5078H11.5423V17.2845H11.7649V17.5078ZM12.6552 18.1777V18.401H12.4326V18.1777H12.6552ZM12.6552 17.5078H12.4326V17.2845H12.6552V17.5078Z" fill="#F3F3F3"/>
<path d="M15.1462 18.6242H14.9237V18.401H15.1462V18.6242ZM15.1462 17.0613V17.2845H14.9237V17.0613H15.1462ZM13.5883 18.6242V18.401H13.8108V18.6242H13.5883ZM13.5883 17.2845V17.0613H13.8108V17.2845H13.5883ZM14.0334 18.1777V17.9543H13.3657V17.7311H14.0334V17.5078H14.2559V16.8379H14.4786V17.5078H14.7011V17.7311H15.3688V17.9543H14.7011V18.1777H14.4786V18.8475H14.2559V18.1777H14.0334ZM14.0334 18.401H13.8108V18.1777H14.0334V18.401ZM14.0334 17.5078H13.8108V17.2845H14.0334V17.5078ZM14.9237 18.1777V18.401H14.7011V18.1777H14.9237ZM14.9237 17.5078H14.7011V17.2845H14.9237V17.5078Z" fill="#F3F3F3"/>
<path d="M17.4149 18.6242H17.1924V18.401H17.4149V18.6242ZM17.4149 17.0613V17.2845H17.1924V17.0613H17.4149ZM15.857 18.6242V18.401H16.0795V18.6242H15.857ZM15.857 17.2845V17.0613H16.0795V17.2845H15.857ZM16.302 18.1777V17.9543H15.6343V17.7311H16.302V17.5078H16.5246V16.8379H16.7471V17.5078H16.9698V17.7311H17.6375V17.9543H16.9698V18.1777H16.7471V18.8475H16.5246V18.1777H16.302ZM16.302 18.401H16.0795V18.1777H16.302V18.401ZM16.302 17.5078H16.0795V17.2845H16.302V17.5078ZM17.1924 18.1777V18.401H16.9698V18.1777H17.1924ZM17.1924 17.5078H16.9698V17.2845H17.1924V17.5078Z" fill="#F3F3F3"/>
<path d="M19.6835 18.6242H19.4609V18.401H19.6835V18.6242ZM19.6835 17.0613V17.2845H19.4609V17.0613H19.6835ZM18.1254 18.6242V18.401H18.3481V18.6242H18.1254ZM18.1254 17.2845V17.0613H18.3481V17.2845H18.1254ZM18.5706 18.1777V17.9543H17.9028V17.7311H18.5706V17.5078H18.7932V16.8379H19.0157V17.5078H19.2382V17.7311H19.906V17.9543H19.2382V18.1777H19.0157V18.8475H18.7932V18.1777H18.5706ZM18.5706 18.401H18.3481V18.1777H18.5706V18.401ZM18.5706 17.5078H18.3481V17.2845H18.5706V17.5078ZM19.4609 18.1777V18.401H19.2382V18.1777H19.4609ZM19.4609 17.5078H19.2382V17.2845H19.4609V17.5078Z" fill="#F3F3F3"/>
<path d="M21.9518 18.6242H21.7291V18.401H21.9518V18.6242ZM21.9518 17.0613V17.2845H21.7291V17.0613H21.9518ZM20.3937 18.6242V18.401H20.6162V18.6242H20.3937ZM20.3937 17.2845V17.0613H20.6162V17.2845H20.3937ZM20.8389 18.1777V17.9543H20.1711V17.7311H20.8389V17.5078H21.0615V16.8379H21.284V17.5078H21.5066V17.7311H22.1743V17.9543H21.5066V18.1777H21.284V18.8475H21.0615V18.1777H20.8389ZM20.8389 18.401H20.6162V18.1777H20.8389V18.401ZM20.8389 17.5078H20.6162V17.2845H20.8389V17.5078ZM21.7291 18.1777V18.401H21.5066V18.1777H21.7291ZM21.7291 17.5078H21.5066V17.2845H21.7291V17.5078Z" fill="#F3F3F3"/>
<path d="M24.2202 18.6242H23.9977V18.401H24.2202V18.6242ZM24.2202 17.0613V17.2845H23.9977V17.0613H24.2202ZM22.6622 18.6242V18.401H22.8848V18.6242H22.6622ZM22.6622 17.2845V17.0613H22.8848V17.2845H22.6622ZM23.1073 18.1777V17.9543H22.4397V17.7311H23.1073V17.5078H23.33V16.8379H23.5526V17.5078H23.7751V17.7311H24.4429V17.9543H23.7751V18.1777H23.5526V18.8475H23.33V18.1777H23.1073ZM23.1073 18.401H22.8848V18.1777H23.1073V18.401ZM23.1073 17.5078H22.8848V17.2845H23.1073V17.5078ZM23.9977 18.1777V18.401H23.7751V18.1777H23.9977ZM23.9977 17.5078H23.7751V17.2845H23.9977V17.5078Z" fill="#F3F3F3"/>
<path d="M26.4888 18.6242H26.2662V18.401H26.4888V18.6242ZM26.4888 17.0613V17.2845H26.2662V17.0613H26.4888ZM24.9308 18.6242V18.401H25.1533V18.6242H24.9308ZM24.9308 17.2845V17.0613H25.1533V17.2845H24.9308ZM25.3759 18.1777V17.9543H24.7083V17.7311H25.3759V17.5078H25.5984V16.8379H25.8211V17.5078H26.0437V17.7311H26.7113V17.9543H26.0437V18.1777H25.8211V18.8475H25.5984V18.1777H25.3759ZM25.3759 18.401H25.1533V18.1777H25.3759V18.401ZM25.3759 17.5078H25.1533V17.2845H25.3759V17.5078ZM26.2662 18.1777V18.401H26.0437V18.1777H26.2662ZM26.2662 17.5078H26.0437V17.2845H26.2662V17.5078Z" fill="#F3F3F3"/>
<path d="M26.9768 16.6139V16.3906H27.8671V16.6139H27.6446V18.8467H28.7574V18.6235H28.98V18.4002H29.2025V18.8467H28.98V19.07H26.9768V18.8467H27.1995V16.6139H26.9768Z" fill="#F3F3F3"/>
<path d="M29.2454 16.6139V16.3906H30.1357V16.6139H29.9131V18.8467H31.026V18.6235H31.2485V18.4002H31.4711V18.8467H31.2485V19.07H29.2454V18.8467H29.4679V16.6139H29.2454Z" fill="#F3F3F3"/>
<path d="M31.5139 16.6139V16.3906H32.4042V16.6139H32.1817V18.8467H33.2944V18.6235H33.5171V18.4002H33.7396V18.8467H33.5171V19.07H31.5139V18.8467H31.7365V16.6139H31.5139Z" fill="#F3F3F3"/>
<path d="M33.7822 16.6139V16.3906H34.6724V16.6139H34.4499V18.8467H35.5627V18.6235H35.7853V18.4002H36.008V18.8467H35.7853V19.07H33.7822V18.8467H34.0048V16.6139H33.7822Z" fill="#F3F3F3"/>
<path d="M36.0508 16.6139V16.3906H36.9411V16.6139H36.7186V18.8467H37.8314V18.6235H38.054V18.4002H38.2765V18.8467H38.054V19.07H36.0508V18.8467H36.2735V16.6139H36.0508Z" fill="#F3F3F3"/>
<path d="M38.3193 16.6139V16.3906H39.2097V16.6139H38.9871V18.8467H40.1V18.6235H40.3225V18.4002H40.5451V18.8467H40.3225V19.07H38.3193V18.8467H38.5419V16.6139H38.3193Z" fill="#F3F3F3"/>
<path d="M1.53522 23.09H1.31265V22.8668H1.53522V23.09ZM1.53522 21.5271V21.7504H1.31265V21.5271H1.53522ZM-0.0227896 23.09V22.8668H0.199785V23.09H-0.0227896ZM-0.0227896 21.7504V21.5271H0.199785V21.7504H-0.0227896ZM0.422357 22.6435V22.4201H-0.245361V22.1969H0.422357V21.9736H0.644929V21.3037H0.867504V21.9736H1.09008V22.1969H1.75779V22.4201H1.09008V22.6435H0.867504V23.3133H0.644929V22.6435H0.422357ZM0.422357 22.8668H0.199785V22.6435H0.422357V22.8668ZM0.422357 21.9736H0.199785V21.7504H0.422357V21.9736ZM1.31265 22.6435V22.8668H1.09008V22.6435H1.31265ZM1.31265 21.9736H1.09008V21.7504H1.31265V21.9736Z" fill="#F3F3F3"/>
<path d="M3.80378 23.09H3.58121V22.8668H3.80378V23.09ZM3.80378 21.5271V21.7504H3.58121V21.5271H3.80378ZM2.24577 23.09V22.8668H2.46834V23.09H2.24577ZM2.24577 21.7504V21.5271H2.46834V21.7504H2.24577ZM2.69091 22.6435V22.4201H2.02319V22.1969H2.69091V21.9736H2.91349V21.3037H3.13606V21.9736H3.35863V22.1969H4.02635V22.4201H3.35863V22.6435H3.13606V23.3133H2.91349V22.6435H2.69091ZM2.69091 22.8668H2.46834V22.6435H2.69091V22.8668ZM2.69091 21.9736H2.46834V21.7504H2.69091V21.9736ZM3.58121 22.6435V22.8668H3.35863V22.6435H3.58121ZM3.58121 21.9736H3.35863V21.7504H3.58121V21.9736Z" fill="#F3F3F3"/>
<path d="M6.07233 23.09H5.84976V22.8668H6.07233V23.09ZM6.07233 21.5271V21.7504H5.84976V21.5271H6.07233ZM4.51432 23.09V22.8668H4.73689V23.09H4.51432ZM4.51432 21.7504V21.5271H4.73689V21.7504H4.51432ZM4.95947 22.6435V22.4201H4.29175V22.1969H4.95947V21.9736H5.18204V21.3037H5.40461V21.9736H5.62719V22.1969H6.29491V22.4201H5.62719V22.6435H5.40461V23.3133H5.18204V22.6435H4.95947ZM4.95947 22.8668H4.73689V22.6435H4.95947V22.8668ZM4.95947 21.9736H4.73689V21.7504H4.95947V21.9736ZM5.84976 22.6435V22.8668H5.62719V22.6435H5.84976ZM5.84976 21.9736H5.62719V21.7504H5.84976V21.9736Z" fill="#F3F3F3"/>
<path d="M8.34089 23.09H8.11832V22.8668H8.34089V23.09ZM8.34089 21.5271V21.7504H8.11832V21.5271H8.34089ZM6.78288 23.09V22.8668H7.00545V23.09H6.78288ZM6.78288 21.7504V21.5271H7.00545V21.7504H6.78288ZM7.22802 22.6435V22.4201H6.5603V22.1969H7.22802V21.9736H7.4506V21.3037H7.67317V21.9736H7.89574V22.1969H8.56346V22.4201H7.89574V22.6435H7.67317V23.3133H7.4506V22.6435H7.22802ZM7.22802 22.8668H7.00545V22.6435H7.22802V22.8668ZM7.22802 21.9736H7.00545V21.7504H7.22802V21.9736ZM8.11832 22.6435V22.8668H7.89574V22.6435H8.11832ZM8.11832 21.9736H7.89574V21.7504H8.11832V21.9736Z" fill="#F3F3F3"/>
<path d="M10.6092 23.09H10.3866V22.8668H10.6092V23.09ZM10.6092 21.5271V21.7504H10.3866V21.5271H10.6092ZM9.05119 23.09V22.8668H9.27376V23.09H9.05119ZM9.05119 21.7504V21.5271H9.27376V21.7504H9.05119ZM9.49633 22.6435V22.4201H8.82861V22.1969H9.49633V21.9736H9.71891V21.3037H9.94148V21.9736H10.1641V22.1969H10.8318V22.4201H10.1641V22.6435H9.94148V23.3133H9.71891V22.6435H9.49633ZM9.49633 22.8668H9.27376V22.6435H9.49633V22.8668ZM9.49633 21.9736H9.27376V21.7504H9.49633V21.9736ZM10.3866 22.6435V22.8668H10.1641V22.6435H10.3866ZM10.3866 21.9736H10.1641V21.7504H10.3866V21.9736Z" fill="#F3F3F3"/>
<path d="M12.8777 23.09H12.6552V22.8668H12.8777V23.09ZM12.8777 21.5271V21.7504H12.6552V21.5271H12.8777ZM11.3197 23.09V22.8668H11.5423V23.09H11.3197ZM11.3197 21.7504V21.5271H11.5423V21.7504H11.3197ZM11.7649 22.6435V22.4201H11.0972V22.1969H11.7649V21.9736H11.9875V21.3037H12.21V21.9736H12.4326V22.1969H13.1004V22.4201H12.4326V22.6435H12.21V23.3133H11.9875V22.6435H11.7649ZM11.7649 22.8668H11.5423V22.6435H11.7649V22.8668ZM11.7649 21.9736H11.5423V21.7504H11.7649V21.9736ZM12.6552 22.6435V22.8668H12.4326V22.6435H12.6552ZM12.6552 21.9736H12.4326V21.7504H12.6552V21.9736Z" fill="#F3F3F3"/>
<path d="M15.1462 23.09H14.9237V22.8668H15.1462V23.09ZM15.1462 21.5271V21.7504H14.9237V21.5271H15.1462ZM13.5883 23.09V22.8668H13.8108V23.09H13.5883ZM13.5883 21.7504V21.5271H13.8108V21.7504H13.5883ZM14.0334 22.6435V22.4201H13.3657V22.1969H14.0334V21.9736H14.2559V21.3037H14.4786V21.9736H14.7011V22.1969H15.3688V22.4201H14.7011V22.6435H14.4786V23.3133H14.2559V22.6435H14.0334ZM14.0334 22.8668H13.8108V22.6435H14.0334V22.8668ZM14.0334 21.9736H13.8108V21.7504H14.0334V21.9736ZM14.9237 22.6435V22.8668H14.7011V22.6435H14.9237ZM14.9237 21.9736H14.7011V21.7504H14.9237V21.9736Z" fill="#F3F3F3"/>
<path d="M17.4149 23.09H17.1924V22.8668H17.4149V23.09ZM17.4149 21.5271V21.7504H17.1924V21.5271H17.4149ZM15.857 23.09V22.8668H16.0795V23.09H15.857ZM15.857 21.7504V21.5271H16.0795V21.7504H15.857ZM16.302 22.6435V22.4201H15.6343V22.1969H16.302V21.9736H16.5246V21.3037H16.7471V21.9736H16.9698V22.1969H17.6375V22.4201H16.9698V22.6435H16.7471V23.3133H16.5246V22.6435H16.302ZM16.302 22.8668H16.0795V22.6435H16.302V22.8668ZM16.302 21.9736H16.0795V21.7504H16.302V21.9736ZM17.1924 22.6435V22.8668H16.9698V22.6435H17.1924ZM17.1924 21.9736H16.9698V21.7504H17.1924V21.9736Z" fill="#F3F3F3"/>
<path d="M19.6835 23.09H19.4609V22.8668H19.6835V23.09ZM19.6835 21.5271V21.7504H19.4609V21.5271H19.6835ZM18.1254 23.09V22.8668H18.3481V23.09H18.1254ZM18.1254 21.7504V21.5271H18.3481V21.7504H18.1254ZM18.5706 22.6435V22.4201H17.9028V22.1969H18.5706V21.9736H18.7932V21.3037H19.0157V21.9736H19.2382V22.1969H19.906V22.4201H19.2382V22.6435H19.0157V23.3133H18.7932V22.6435H18.5706ZM18.5706 22.8668H18.3481V22.6435H18.5706V22.8668ZM18.5706 21.9736H18.3481V21.7504H18.5706V21.9736ZM19.4609 22.6435V22.8668H19.2382V22.6435H19.4609ZM19.4609 21.9736H19.2382V21.7504H19.4609V21.9736Z" fill="#F3F3F3"/>
<path d="M21.9518 23.09H21.7291V22.8668H21.9518V23.09ZM21.9518 21.5271V21.7504H21.7291V21.5271H21.9518ZM20.3937 23.09V22.8668H20.6162V23.09H20.3937ZM20.3937 21.7504V21.5271H20.6162V21.7504H20.3937ZM20.8389 22.6435V22.4201H20.1711V22.1969H20.8389V21.9736H21.0615V21.3037H21.284V21.9736H21.5066V22.1969H22.1743V22.4201H21.5066V22.6435H21.284V23.3133H21.0615V22.6435H20.8389ZM20.8389 22.8668H20.6162V22.6435H20.8389V22.8668ZM20.8389 21.9736H20.6162V21.7504H20.8389V21.9736ZM21.7291 22.6435V22.8668H21.5066V22.6435H21.7291ZM21.7291 21.9736H21.5066V21.7504H21.7291V21.9736Z" fill="#F3F3F3"/>
<path d="M22.4397 21.0797V20.8564H23.33V21.0797H23.1073V23.3125H24.2202V23.0893H24.4429V22.866H24.6654V23.3125H24.4429V23.5358H22.4397V23.3125H22.6622V21.0797H22.4397Z" fill="#F3F3F3"/>
<path d="M24.7083 21.0797V20.8564H25.5984V21.0797H25.3759V23.3125H26.4888V23.0893H26.7113V22.866H26.934V23.3125H26.7113V23.5358H24.7083V23.3125H24.9308V21.0797H24.7083Z" fill="#F3F3F3"/>
<path d="M26.9768 21.0797V20.8564H27.8671V21.0797H27.6446V23.3125H28.7574V23.0893H28.98V22.866H29.2025V23.3125H28.98V23.5358H26.9768V23.3125H27.1995V21.0797H26.9768Z" fill="#F3F3F3"/>
<path d="M29.2454 21.0797V20.8564H30.1357V21.0797H29.9131V23.3125H31.026V23.0893H31.2485V22.866H31.4711V23.3125H31.2485V23.5358H29.2454V23.3125H29.4679V21.0797H29.2454Z" fill="#F3F3F3"/>
<path d="M31.5139 21.0797V20.8564H32.4042V21.0797H32.1817V23.3125H33.2944V23.0893H33.5171V22.866H33.7396V23.3125H33.5171V23.5358H31.5139V23.3125H31.7365V21.0797H31.5139Z" fill="#F3F3F3"/>
<path d="M33.7822 21.0797V20.8564H34.6724V21.0797H34.4499V23.3125H35.5627V23.0893H35.7853V22.866H36.008V23.3125H35.7853V23.5358H33.7822V23.3125H34.0048V21.0797H33.7822Z" fill="#F3F3F3"/>
<path d="M36.0508 21.0797V20.8564H36.9411V21.0797H36.7186V23.3125H37.8314V23.0893H38.054V22.866H38.2765V23.3125H38.054V23.5358H36.0508V23.3125H36.2735V21.0797H36.0508Z" fill="#F3F3F3"/>
<path d="M38.3193 21.0797V20.8564H39.2097V21.0797H38.9871V23.3125H40.1V23.0893H40.3225V22.866H40.5451V23.3125H40.3225V23.5358H38.3193V23.3125H38.5419V21.0797H38.3193Z" fill="#F3F3F3"/>
<path d="M1.53522 27.5549H1.31265V27.3316H1.53522V27.5549ZM1.53522 25.9919V26.2152H1.31265V25.9919H1.53522ZM-0.0227896 27.5549V27.3316H0.199785V27.5549H-0.0227896ZM-0.0227896 26.2152V25.9919H0.199785V26.2152H-0.0227896ZM0.422357 27.1084V26.885H-0.245361V26.6617H0.422357V26.4385H0.644929V25.7686H0.867504V26.4385H1.09008V26.6617H1.75779V26.885H1.09008V27.1084H0.867504V27.7781H0.644929V27.1084H0.422357ZM0.422357 27.3316H0.199785V27.1084H0.422357V27.3316ZM0.422357 26.4385H0.199785V26.2152H0.422357V26.4385ZM1.31265 27.1084V27.3316H1.09008V27.1084H1.31265ZM1.31265 26.4385H1.09008V26.2152H1.31265V26.4385Z" fill="#F3F3F3"/>
<path d="M3.80378 27.5549H3.58121V27.3316H3.80378V27.5549ZM3.80378 25.9919V26.2152H3.58121V25.9919H3.80378ZM2.24577 27.5549V27.3316H2.46834V27.5549H2.24577ZM2.24577 26.2152V25.9919H2.46834V26.2152H2.24577ZM2.69091 27.1084V26.885H2.02319V26.6617H2.69091V26.4385H2.91349V25.7686H3.13606V26.4385H3.35863V26.6617H4.02635V26.885H3.35863V27.1084H3.13606V27.7781H2.91349V27.1084H2.69091ZM2.69091 27.3316H2.46834V27.1084H2.69091V27.3316ZM2.69091 26.4385H2.46834V26.2152H2.69091V26.4385ZM3.58121 27.1084V27.3316H3.35863V27.1084H3.58121ZM3.58121 26.4385H3.35863V26.2152H3.58121V26.4385Z" fill="#F3F3F3"/>
<path d="M6.07233 27.5549H5.84976V27.3316H6.07233V27.5549ZM6.07233 25.9919V26.2152H5.84976V25.9919H6.07233ZM4.51432 27.5549V27.3316H4.73689V27.5549H4.51432ZM4.51432 26.2152V25.9919H4.73689V26.2152H4.51432ZM4.95947 27.1084V26.885H4.29175V26.6617H4.95947V26.4385H5.18204V25.7686H5.40461V26.4385H5.62719V26.6617H6.29491V26.885H5.62719V27.1084H5.40461V27.7781H5.18204V27.1084H4.95947ZM4.95947 27.3316H4.73689V27.1084H4.95947V27.3316ZM4.95947 26.4385H4.73689V26.2152H4.95947V26.4385ZM5.84976 27.1084V27.3316H5.62719V27.1084H5.84976ZM5.84976 26.4385H5.62719V26.2152H5.84976V26.4385Z" fill="#F3F3F3"/>
<path d="M8.34089 27.5549H8.11832V27.3316H8.34089V27.5549ZM8.34089 25.9919V26.2152H8.11832V25.9919H8.34089ZM6.78288 27.5549V27.3316H7.00545V27.5549H6.78288ZM6.78288 26.2152V25.9919H7.00545V26.2152H6.78288ZM7.22802 27.1084V26.885H6.5603V26.6617H7.22802V26.4385H7.4506V25.7686H7.67317V26.4385H7.89574V26.6617H8.56346V26.885H7.89574V27.1084H7.67317V27.7781H7.4506V27.1084H7.22802ZM7.22802 27.3316H7.00545V27.1084H7.22802V27.3316ZM7.22802 26.4385H7.00545V26.2152H7.22802V26.4385ZM8.11832 27.1084V27.3316H7.89574V27.1084H8.11832ZM8.11832 26.4385H7.89574V26.2152H8.11832V26.4385Z" fill="#F3F3F3"/>
<path d="M10.6092 27.5549H10.3866V27.3316H10.6092V27.5549ZM10.6092 25.9919V26.2152H10.3866V25.9919H10.6092ZM9.05119 27.5549V27.3316H9.27376V27.5549H9.05119ZM9.05119 26.2152V25.9919H9.27376V26.2152H9.05119ZM9.49633 27.1084V26.885H8.82861V26.6617H9.49633V26.4385H9.71891V25.7686H9.94148V26.4385H10.1641V26.6617H10.8318V26.885H10.1641V27.1084H9.94148V27.7781H9.71891V27.1084H9.49633ZM9.49633 27.3316H9.27376V27.1084H9.49633V27.3316ZM9.49633 26.4385H9.27376V26.2152H9.49633V26.4385ZM10.3866 27.1084V27.3316H10.1641V27.1084H10.3866ZM10.3866 26.4385H10.1641V26.2152H10.3866V26.4385Z" fill="#F3F3F3"/>
<path d="M12.8777 27.5549H12.6552V27.3316H12.8777V27.5549ZM12.8777 25.9919V26.2152H12.6552V25.9919H12.8777ZM11.3197 27.5549V27.3316H11.5423V27.5549H11.3197ZM11.3197 26.2152V25.9919H11.5423V26.2152H11.3197ZM11.7649 27.1084V26.885H11.0972V26.6617H11.7649V26.4385H11.9875V25.7686H12.21V26.4385H12.4326V26.6617H13.1004V26.885H12.4326V27.1084H12.21V27.7781H11.9875V27.1084H11.7649ZM11.7649 27.3316H11.5423V27.1084H11.7649V27.3316ZM11.7649 26.4385H11.5423V26.2152H11.7649V26.4385ZM12.6552 27.1084V27.3316H12.4326V27.1084H12.6552ZM12.6552 26.4385H12.4326V26.2152H12.6552V26.4385Z" fill="#F3F3F3"/>
<path d="M15.1462 27.5549H14.9237V27.3316H15.1462V27.5549ZM15.1462 25.9919V26.2152H14.9237V25.9919H15.1462ZM13.5883 27.5549V27.3316H13.8108V27.5549H13.5883ZM13.5883 26.2152V25.9919H13.8108V26.2152H13.5883ZM14.0334 27.1084V26.885H13.3657V26.6617H14.0334V26.4385H14.2559V25.7686H14.4786V26.4385H14.7011V26.6617H15.3688V26.885H14.7011V27.1084H14.4786V27.7781H14.2559V27.1084H14.0334ZM14.0334 27.3316H13.8108V27.1084H14.0334V27.3316ZM14.0334 26.4385H13.8108V26.2152H14.0334V26.4385ZM14.9237 27.1084V27.3316H14.7011V27.1084H14.9237ZM14.9237 26.4385H14.7011V26.2152H14.9237V26.4385Z" fill="#F3F3F3"/>
<path d="M17.4149 27.5549H17.1924V27.3316H17.4149V27.5549ZM17.4149 25.9919V26.2152H17.1924V25.9919H17.4149ZM15.857 27.5549V27.3316H16.0795V27.5549H15.857ZM15.857 26.2152V25.9919H16.0795V26.2152H15.857ZM16.302 27.1084V26.885H15.6343V26.6617H16.302V26.4385H16.5246V25.7686H16.7471V26.4385H16.9698V26.6617H17.6375V26.885H16.9698V27.1084H16.7471V27.7781H16.5246V27.1084H16.302ZM16.302 27.3316H16.0795V27.1084H16.302V27.3316ZM16.302 26.4385H16.0795V26.2152H16.302V26.4385ZM17.1924 27.1084V27.3316H16.9698V27.1084H17.1924ZM17.1924 26.4385H16.9698V26.2152H17.1924V26.4385Z" fill="#F3F3F3"/>
<path d="M17.9028 25.5455V25.3223H18.7932V25.5455H18.5706V27.7784H19.6835V27.5551H19.906V27.3318H20.1286V27.7784H19.906V28.0016H17.9028V27.7784H18.1254V25.5455H17.9028Z" fill="#F3F3F3"/>
<path d="M20.1711 25.5455V25.3223H21.0615V25.5455H20.8389V27.7784H21.9518V27.5551H22.1743V27.3318H22.3969V27.7784H22.1743V28.0016H20.1711V27.7784H20.3937V25.5455H20.1711Z" fill="#F3F3F3"/>
<path d="M22.4397 25.5455V25.3223H23.33V25.5455H23.1073V27.7784H24.2202V27.5551H24.4429V27.3318H24.6654V27.7784H24.4429V28.0016H22.4397V27.7784H22.6622V25.5455H22.4397Z" fill="#F3F3F3"/>
<path d="M24.7083 25.5455V25.3223H25.5984V25.5455H25.3759V27.7784H26.4888V27.5551H26.7113V27.3318H26.934V27.7784H26.7113V28.0016H24.7083V27.7784H24.9308V25.5455H24.7083Z" fill="#F3F3F3"/>
<path d="M26.9768 25.5455V25.3223H27.8671V25.5455H27.6446V27.7784H28.7574V27.5551H28.98V27.3318H29.2025V27.7784H28.98V28.0016H26.9768V27.7784H27.1995V25.5455H26.9768Z" fill="#F3F3F3"/>
<path d="M29.2454 25.5455V25.3223H30.1357V25.5455H29.9131V27.7784H31.026V27.5551H31.2485V27.3318H31.4711V27.7784H31.2485V28.0016H29.2454V27.7784H29.4679V25.5455H29.2454Z" fill="#F3F3F3"/>
<path d="M31.5139 25.5455V25.3223H32.4042V25.5455H32.1817V27.7784H33.2944V27.5551H33.5171V27.3318H33.7396V27.7784H33.5171V28.0016H31.5139V27.7784H31.7365V25.5455H31.5139Z" fill="#F3F3F3"/>
<path d="M33.7822 25.5455V25.3223H34.6724V25.5455H34.4499V27.7784H35.5627V27.5551H35.7853V27.3318H36.008V27.7784H35.7853V28.0016H33.7822V27.7784H34.0048V25.5455H33.7822Z" fill="#F3F3F3"/>
<path d="M36.0508 25.5455V25.3223H36.9411V25.5455H36.7186V27.7784H37.8314V27.5551H38.054V27.3318H38.2765V27.7784H38.054V28.0016H36.0508V27.7784H36.2735V25.5455H36.0508Z" fill="#F3F3F3"/>
<path d="M38.3193 25.5455V25.3223H39.2097V25.5455H38.9871V27.7784H40.1V27.5551H40.3225V27.3318H40.5451V27.7784H40.3225V28.0016H38.3193V27.7784H38.5419V25.5455H38.3193Z" fill="#F3F3F3"/>
<path d="M1.53522 32.0207H1.31265V31.7974H1.53522V32.0207ZM1.53522 30.4578V30.681H1.31265V30.4578H1.53522ZM-0.0227896 32.0207V31.7974H0.199785V32.0207H-0.0227896ZM-0.0227896 30.681V30.4578H0.199785V30.681H-0.0227896ZM0.422357 31.5742V31.3508H-0.245361V31.1275H0.422357V30.9043H0.644929V30.2344H0.867504V30.9043H1.09008V31.1275H1.75779V31.3508H1.09008V31.5742H0.867504V32.244H0.644929V31.5742H0.422357ZM0.422357 31.7974H0.199785V31.5742H0.422357V31.7974ZM0.422357 30.9043H0.199785V30.681H0.422357V30.9043ZM1.31265 31.5742V31.7974H1.09008V31.5742H1.31265ZM1.31265 30.9043H1.09008V30.681H1.31265V30.9043Z" fill="#F3F3F3"/>
<path d="M3.80378 32.0207H3.58121V31.7974H3.80378V32.0207ZM3.80378 30.4578V30.681H3.58121V30.4578H3.80378ZM2.24577 32.0207V31.7974H2.46834V32.0207H2.24577ZM2.24577 30.681V30.4578H2.46834V30.681H2.24577ZM2.69091 31.5742V31.3508H2.02319V31.1275H2.69091V30.9043H2.91349V30.2344H3.13606V30.9043H3.35863V31.1275H4.02635V31.3508H3.35863V31.5742H3.13606V32.244H2.91349V31.5742H2.69091ZM2.69091 31.7974H2.46834V31.5742H2.69091V31.7974ZM2.69091 30.9043H2.46834V30.681H2.69091V30.9043ZM3.58121 31.5742V31.7974H3.35863V31.5742H3.58121ZM3.58121 30.9043H3.35863V30.681H3.58121V30.9043Z" fill="#F3F3F3"/>
<path d="M6.07233 32.0207H5.84976V31.7974H6.07233V32.0207ZM6.07233 30.4578V30.681H5.84976V30.4578H6.07233ZM4.51432 32.0207V31.7974H4.73689V32.0207H4.51432ZM4.51432 30.681V30.4578H4.73689V30.681H4.51432ZM4.95947 31.5742V31.3508H4.29175V31.1275H4.95947V30.9043H5.18204V30.2344H5.40461V30.9043H5.62719V31.1275H6.29491V31.3508H5.62719V31.5742H5.40461V32.244H5.18204V31.5742H4.95947ZM4.95947 31.7974H4.73689V31.5742H4.95947V31.7974ZM4.95947 30.9043H4.73689V30.681H4.95947V30.9043ZM5.84976 31.5742V31.7974H5.62719V31.5742H5.84976ZM5.84976 30.9043H5.62719V30.681H5.84976V30.9043Z" fill="#F3F3F3"/>
<path d="M8.34089 32.0207H8.11832V31.7974H8.34089V32.0207ZM8.34089 30.4578V30.681H8.11832V30.4578H8.34089ZM6.78288 32.0207V31.7974H7.00545V32.0207H6.78288ZM6.78288 30.681V30.4578H7.00545V30.681H6.78288ZM7.22802 31.5742V31.3508H6.5603V31.1275H7.22802V30.9043H7.4506V30.2344H7.67317V30.9043H7.89574V31.1275H8.56346V31.3508H7.89574V31.5742H7.67317V32.244H7.4506V31.5742H7.22802ZM7.22802 31.7974H7.00545V31.5742H7.22802V31.7974ZM7.22802 30.9043H7.00545V30.681H7.22802V30.9043ZM8.11832 31.5742V31.7974H7.89574V31.5742H8.11832ZM8.11832 30.9043H7.89574V30.681H8.11832V30.9043Z" fill="#F3F3F3"/>
<path d="M10.6092 32.0207H10.3866V31.7974H10.6092V32.0207ZM10.6092 30.4578V30.681H10.3866V30.4578H10.6092ZM9.05119 32.0207V31.7974H9.27376V32.0207H9.05119ZM9.05119 30.681V30.4578H9.27376V30.681H9.05119ZM9.49633 31.5742V31.3508H8.82861V31.1275H9.49633V30.9043H9.71891V30.2344H9.94148V30.9043H10.1641V31.1275H10.8318V31.3508H10.1641V31.5742H9.94148V32.244H9.71891V31.5742H9.49633ZM9.49633 31.7974H9.27376V31.5742H9.49633V31.7974ZM9.49633 30.9043H9.27376V30.681H9.49633V30.9043ZM10.3866 31.5742V31.7974H10.1641V31.5742H10.3866ZM10.3866 30.9043H10.1641V30.681H10.3866V30.9043Z" fill="#F3F3F3"/>
<path d="M12.8777 32.0207H12.6552V31.7974H12.8777V32.0207ZM12.8777 30.4578V30.681H12.6552V30.4578H12.8777ZM11.3197 32.0207V31.7974H11.5423V32.0207H11.3197ZM11.3197 30.681V30.4578H11.5423V30.681H11.3197ZM11.7649 31.5742V31.3508H11.0972V31.1275H11.7649V30.9043H11.9875V30.2344H12.21V30.9043H12.4326V31.1275H13.1004V31.3508H12.4326V31.5742H12.21V32.244H11.9875V31.5742H11.7649ZM11.7649 31.7974H11.5423V31.5742H11.7649V31.7974ZM11.7649 30.9043H11.5423V30.681H11.7649V30.9043ZM12.6552 31.5742V31.7974H12.4326V31.5742H12.6552ZM12.6552 30.9043H12.4326V30.681H12.6552V30.9043Z" fill="#F3F3F3"/>
<path d="M13.3657 30.0113V29.7881H14.2559V30.0113H14.0334V32.2442H15.1462V32.0209H15.3688V31.7977H15.5915V32.2442H15.3688V32.4674H13.3657V32.2442H13.5883V30.0113H13.3657Z" fill="#F3F3F3"/>
<path d="M15.6343 30.0113V29.7881H16.5246V30.0113H16.302V32.2442H17.4149V32.0209H17.6375V31.7977H17.86V32.2442H17.6375V32.4674H15.6343V32.2442H15.857V30.0113H15.6343Z" fill="#F3F3F3"/>
<path d="M17.9028 30.0113V29.7881H18.7932V30.0113H18.5706V32.2442H19.6835V32.0209H19.906V31.7977H20.1286V32.2442H19.906V32.4674H17.9028V32.2442H18.1254V30.0113H17.9028Z" fill="#F3F3F3"/>
<path d="M20.1711 30.0113V29.7881H21.0615V30.0113H20.8389V32.2442H21.9518V32.0209H22.1743V31.7977H22.3969V32.2442H22.1743V32.4674H20.1711V32.2442H20.3937V30.0113H20.1711Z" fill="#F3F3F3"/>
<path d="M22.4397 30.0113V29.7881H23.33V30.0113H23.1073V32.2442H24.2202V32.0209H24.4429V31.7977H24.6654V32.2442H24.4429V32.4674H22.4397V32.2442H22.6622V30.0113H22.4397Z" fill="#F3F3F3"/>
<path d="M24.7083 30.0113V29.7881H25.5984V30.0113H25.3759V32.2442H26.4888V32.0209H26.7113V31.7977H26.934V32.2442H26.7113V32.4674H24.7083V32.2442H24.9308V30.0113H24.7083Z" fill="#F3F3F3"/>
<path d="M26.9768 30.0113V29.7881H27.8671V30.0113H27.6446V32.2442H28.7574V32.0209H28.98V31.7977H29.2025V32.2442H28.98V32.4674H26.9768V32.2442H27.1995V30.0113H26.9768Z" fill="#F3F3F3"/>
<path d="M29.2454 30.0113V29.7881H30.1357V30.0113H29.9131V32.2442H31.026V32.0209H31.2485V31.7977H31.4711V32.2442H31.2485V32.4674H29.2454V32.2442H29.4679V30.0113H29.2454Z" fill="#F3F3F3"/>
<path d="M31.5139 30.0113V29.7881H32.4042V30.0113H32.1817V32.2442H33.2944V32.0209H33.5171V31.7977H33.7396V32.2442H33.5171V32.4674H31.5139V32.2442H31.7365V30.0113H31.5139Z" fill="#F3F3F3"/>
<path d="M33.7822 30.0113V29.7881H34.6724V30.0113H34.4499V32.2442H35.5627V32.0209H35.7853V31.7977H36.008V32.2442H35.7853V32.4674H33.7822V32.2442H34.0048V30.0113H33.7822Z" fill="#F3F3F3"/>
<path d="M36.0508 30.0113V29.7881H36.9411V30.0113H36.7186V32.2442H37.8314V32.0209H38.054V31.7977H38.2765V32.2442H38.054V32.4674H36.0508V32.2442H36.2735V30.0113H36.0508Z" fill="#F3F3F3"/>
<path d="M38.3193 30.0113V29.7881H39.2097V30.0113H38.9871V32.2442H40.1V32.0209H40.3225V31.7977H40.5451V32.2442H40.3225V32.4674H38.3193V32.2442H38.5419V30.0113H38.3193Z" fill="#F3F3F3"/>
<path d="M1.53522 36.4865H1.31265V36.2633H1.53522V36.4865ZM1.53522 34.9236V35.1468H1.31265V34.9236H1.53522ZM-0.0227896 36.4865V36.2633H0.199785V36.4865H-0.0227896ZM-0.0227896 35.1468V34.9236H0.199785V35.1468H-0.0227896ZM0.422357 36.04V35.8166H-0.245361V35.5934H0.422357V35.3701H0.644929V34.7002H0.867504V35.3701H1.09008V35.5934H1.75779V35.8166H1.09008V36.04H0.867504V36.7098H0.644929V36.04H0.422357ZM0.422357 36.2633H0.199785V36.04H0.422357V36.2633ZM0.422357 35.3701H0.199785V35.1468H0.422357V35.3701ZM1.31265 36.04V36.2633H1.09008V36.04H1.31265ZM1.31265 35.3701H1.09008V35.1468H1.31265V35.3701Z" fill="#F3F3F3"/>
<path d="M3.80378 36.4865H3.58121V36.2633H3.80378V36.4865ZM3.80378 34.9236V35.1468H3.58121V34.9236H3.80378ZM2.24577 36.4865V36.2633H2.46834V36.4865H2.24577ZM2.24577 35.1468V34.9236H2.46834V35.1468H2.24577ZM2.69091 36.04V35.8166H2.02319V35.5934H2.69091V35.3701H2.91349V34.7002H3.13606V35.3701H3.35863V35.5934H4.02635V35.8166H3.35863V36.04H3.13606V36.7098H2.91349V36.04H2.69091ZM2.69091 36.2633H2.46834V36.04H2.69091V36.2633ZM2.69091 35.3701H2.46834V35.1468H2.69091V35.3701ZM3.58121 36.04V36.2633H3.35863V36.04H3.58121ZM3.58121 35.3701H3.35863V35.1468H3.58121V35.3701Z" fill="#F3F3F3"/>
<path d="M6.07233 36.4865H5.84976V36.2633H6.07233V36.4865ZM6.07233 34.9236V35.1468H5.84976V34.9236H6.07233ZM4.51432 36.4865V36.2633H4.73689V36.4865H4.51432ZM4.51432 35.1468V34.9236H4.73689V35.1468H4.51432ZM4.95947 36.04V35.8166H4.29175V35.5934H4.95947V35.3701H5.18204V34.7002H5.40461V35.3701H5.62719V35.5934H6.29491V35.8166H5.62719V36.04H5.40461V36.7098H5.18204V36.04H4.95947ZM4.95947 36.2633H4.73689V36.04H4.95947V36.2633ZM4.95947 35.3701H4.73689V35.1468H4.95947V35.3701ZM5.84976 36.04V36.2633H5.62719V36.04H5.84976ZM5.84976 35.3701H5.62719V35.1468H5.84976V35.3701Z" fill="#F3F3F3"/>
<path d="M8.34089 36.4865H8.11832V36.2633H8.34089V36.4865ZM8.34089 34.9236V35.1468H8.11832V34.9236H8.34089ZM6.78288 36.4865V36.2633H7.00545V36.4865H6.78288ZM6.78288 35.1468V34.9236H7.00545V35.1468H6.78288ZM7.22802 36.04V35.8166H6.5603V35.5934H7.22802V35.3701H7.4506V34.7002H7.67317V35.3701H7.89574V35.5934H8.56346V35.8166H7.89574V36.04H7.67317V36.7098H7.4506V36.04H7.22802ZM7.22802 36.2633H7.00545V36.04H7.22802V36.2633ZM7.22802 35.3701H7.00545V35.1468H7.22802V35.3701ZM8.11832 36.04V36.2633H7.89574V36.04H8.11832ZM8.11832 35.3701H7.89574V35.1468H8.11832V35.3701Z" fill="#F3F3F3"/>
<path d="M8.82861 34.4772V34.2539H9.71891V34.4772H9.49633V36.71H10.6092V36.4867H10.8318V36.2635H11.0543V36.71H10.8318V36.9333H8.82861V36.71H9.05119V34.4772H8.82861Z" fill="#F3F3F3"/>
<path d="M11.0972 34.4772V34.2539H11.9875V34.4772H11.7649V36.71H12.8777V36.4867H13.1004V36.2635H13.3229V36.71H13.1004V36.9333H11.0972V36.71H11.3197V34.4772H11.0972Z" fill="#F3F3F3"/>
<path d="M13.3657 34.4772V34.2539H14.2559V34.4772H14.0334V36.71H15.1462V36.4867H15.3688V36.2635H15.5915V36.71H15.3688V36.9333H13.3657V36.71H13.5883V34.4772H13.3657Z" fill="#F3F3F3"/>
<path d="M15.6343 34.4772V34.2539H16.5246V34.4772H16.302V36.71H17.4149V36.4867H17.6375V36.2635H17.86V36.71H17.6375V36.9333H15.6343V36.71H15.857V34.4772H15.6343Z" fill="#F3F3F3"/>
<path d="M17.9028 34.4772V34.2539H18.7932V34.4772H18.5706V36.71H19.6835V36.4867H19.906V36.2635H20.1286V36.71H19.906V36.9333H17.9028V36.71H18.1254V34.4772H17.9028Z" fill="#F3F3F3"/>
<path d="M20.1711 34.4772V34.2539H21.0615V34.4772H20.8389V36.71H21.9518V36.4867H22.1743V36.2635H22.3969V36.71H22.1743V36.9333H20.1711V36.71H20.3937V34.4772H20.1711Z" fill="#F3F3F3"/>
<path d="M22.4397 34.4772V34.2539H23.33V34.4772H23.1073V36.71H24.2202V36.4867H24.4429V36.2635H24.6654V36.71H24.4429V36.9333H22.4397V36.71H22.6622V34.4772H22.4397Z" fill="#F3F3F3"/>
<path d="M24.7083 34.4772V34.2539H25.5984V34.4772H25.3759V36.71H26.4888V36.4867H26.7113V36.2635H26.934V36.71H26.7113V36.9333H24.7083V36.71H24.9308V34.4772H24.7083Z" fill="#F3F3F3"/>
<path d="M26.9768 34.4772V34.2539H27.8671V34.4772H27.6446V36.71H28.7574V36.4867H28.98V36.2635H29.2025V36.71H28.98V36.9333H26.9768V36.71H27.1995V34.4772H26.9768Z" fill="#F3F3F3"/>
<path d="M29.2454 34.4772V34.2539H30.1357V34.4772H29.9131V36.71H31.026V36.4867H31.2485V36.2635H31.4711V36.71H31.2485V36.9333H29.2454V36.71H29.4679V34.4772H29.2454Z" fill="#F3F3F3"/>
<path d="M31.5139 34.4772V34.2539H32.4042V34.4772H32.1817V36.71H33.2944V36.4867H33.5171V36.2635H33.7396V36.71H33.5171V36.9333H31.5139V36.71H31.7365V34.4772H31.5139Z" fill="#F3F3F3"/>
<path d="M33.7822 34.4772V34.2539H34.6724V34.4772H34.4499V36.71H35.5627V36.4867H35.7853V36.2635H36.008V36.71H35.7853V36.9333H33.7822V36.71H34.0048V34.4772H33.7822Z" fill="#F3F3F3"/>
<path d="M36.0508 34.4772V34.2539H36.9411V34.4772H36.7186V36.71H37.8314V36.4867H38.054V36.2635H38.2765V36.71H38.054V36.9333H36.0508V36.71H36.2735V34.4772H36.0508Z" fill="#F3F3F3"/>
<path d="M38.3193 34.4772V34.2539H39.2097V34.4772H38.9871V36.71H40.1V36.4867H40.3225V36.2635H40.5451V36.71H40.3225V36.9333H38.3193V36.71H38.5419V34.4772H38.3193Z" fill="#F3F3F3"/>
<path d="M1.53522 40.9523H1.31265V40.7291H1.53522V40.9523ZM1.53522 39.3894V39.6127H1.31265V39.3894H1.53522ZM-0.0227896 40.9523V40.7291H0.199785V40.9523H-0.0227896ZM-0.0227896 39.6127V39.3894H0.199785V39.6127H-0.0227896ZM0.422357 40.5057V40.2824H-0.245361V40.0592H0.422357V39.8359H0.644929V39.166H0.867504V39.8359H1.09008V40.0592H1.75779V40.2824H1.09008V40.5057H0.867504V41.1756H0.644929V40.5057H0.422357ZM0.422357 40.7291H0.199785V40.5057H0.422357V40.7291ZM0.422357 39.8359H0.199785V39.6127H0.422357V39.8359ZM1.31265 40.5057V40.7291H1.09008V40.5057H1.31265ZM1.31265 39.8359H1.09008V39.6127H1.31265V39.8359Z" fill="#F3F3F3"/>
<path d="M3.80378 40.9523H3.58121V40.7291H3.80378V40.9523ZM3.80378 39.3894V39.6127H3.58121V39.3894H3.80378ZM2.24577 40.9523V40.7291H2.46834V40.9523H2.24577ZM2.24577 39.6127V39.3894H2.46834V39.6127H2.24577ZM2.69091 40.5057V40.2824H2.02319V40.0592H2.69091V39.8359H2.91349V39.166H3.13606V39.8359H3.35863V40.0592H4.02635V40.2824H3.35863V40.5057H3.13606V41.1756H2.91349V40.5057H2.69091ZM2.69091 40.7291H2.46834V40.5057H2.69091V40.7291ZM2.69091 39.8359H2.46834V39.6127H2.69091V39.8359ZM3.58121 40.5057V40.7291H3.35863V40.5057H3.58121ZM3.58121 39.8359H3.35863V39.6127H3.58121V39.8359Z" fill="#F3F3F3"/>
<path d="M4.29175 38.943V38.7197H5.18204V38.943H4.95947V41.1758H6.07233V40.9526H6.29491V40.7293H6.51748V41.1758H6.29491V41.3991H4.29175V41.1758H4.51432V38.943H4.29175Z" fill="#F3F3F3"/>
<path d="M6.5603 38.943V38.7197H7.4506V38.943H7.22802V41.1758H8.34089V40.9526H8.56346V40.7293H8.78604V41.1758H8.56346V41.3991H6.5603V41.1758H6.78288V38.943H6.5603Z" fill="#F3F3F3"/>
<path d="M8.82861 38.943V38.7197H9.71891V38.943H9.49633V41.1758H10.6092V40.9526H10.8318V40.7293H11.0543V41.1758H10.8318V41.3991H8.82861V41.1758H9.05119V38.943H8.82861Z" fill="#F3F3F3"/>
<path d="M11.0972 38.943V38.7197H11.9875V38.943H11.7649V41.1758H12.8777V40.9526H13.1004V40.7293H13.3229V41.1758H13.1004V41.3991H11.0972V41.1758H11.3197V38.943H11.0972Z" fill="#F3F3F3"/>
<path d="M13.3657 38.943V38.7197H14.2559V38.943H14.0334V41.1758H15.1462V40.9526H15.3688V40.7293H15.5915V41.1758H15.3688V41.3991H13.3657V41.1758H13.5883V38.943H13.3657Z" fill="#F3F3F3"/>
<path d="M15.6343 38.943V38.7197H16.5246V38.943H16.302V41.1758H17.4149V40.9526H17.6375V40.7293H17.86V41.1758H17.6375V41.3991H15.6343V41.1758H15.857V38.943H15.6343Z" fill="#F3F3F3"/>
<path d="M17.9028 38.943V38.7197H18.7932V38.943H18.5706V41.1758H19.6835V40.9526H19.906V40.7293H20.1286V41.1758H19.906V41.3991H17.9028V41.1758H18.1254V38.943H17.9028Z" fill="#F3F3F3"/>
<path d="M20.1711 38.943V38.7197H21.0615V38.943H20.8389V41.1758H21.9518V40.9526H22.1743V40.7293H22.3969V41.1758H22.1743V41.3991H20.1711V41.1758H20.3937V38.943H20.1711Z" fill="#F3F3F3"/>
<path d="M22.4397 38.943V38.7197H23.33V38.943H23.1073V41.1758H24.2202V40.9526H24.4429V40.7293H24.6654V41.1758H24.4429V41.3991H22.4397V41.1758H22.6622V38.943H22.4397Z" fill="#F3F3F3"/>
<path d="M24.7083 38.943V38.7197H25.5984V38.943H25.3759V41.1758H26.4888V40.9526H26.7113V40.7293H26.934V41.1758H26.7113V41.3991H24.7083V41.1758H24.9308V38.943H24.7083Z" fill="#F3F3F3"/>
<path d="M26.9768 38.943V38.7197H27.8671V38.943H27.6446V41.1758H28.7574V40.9526H28.98V40.7293H29.2025V41.1758H28.98V41.3991H26.9768V41.1758H27.1995V38.943H26.9768Z" fill="#F3F3F3"/>
<path d="M29.2454 38.943V38.7197H30.1357V38.943H29.9131V41.1758H31.026V40.9526H31.2485V40.7293H31.4711V41.1758H31.2485V41.3991H29.2454V41.1758H29.4679V38.943H29.2454Z" fill="#F3F3F3"/>
<path d="M31.5139 38.943V38.7197H32.4042V38.943H32.1817V41.1758H33.2944V40.9526H33.5171V40.7293H33.7396V41.1758H33.5171V41.3991H31.5139V41.1758H31.7365V38.943H31.5139Z" fill="#F3F3F3"/>
<path d="M33.7822 38.943V38.7197H34.6724V38.943H34.4499V41.1758H35.5627V40.9526H35.7853V40.7293H36.008V41.1758H35.7853V41.3991H33.7822V41.1758H34.0048V38.943H33.7822Z" fill="#F3F3F3"/>
<path d="M37.8314 38.943H37.6089V38.7197H38.2765V38.943H38.054V39.6129H37.8314V40.2827H37.6089V40.9526H37.3863V40.0594H37.6089V39.3896H37.8314V38.943ZM36.2735 39.6129V38.943H36.0508V38.7197H36.9411V38.943H36.7186V39.3896H36.9411V40.0594H37.1636V40.9526H37.3863V41.3991H37.1636V41.1758H36.9411V40.9526H36.7186V40.2827H36.496V39.6129H36.2735Z" fill="#F3F3F3"/>
<path d="M40.1 38.943H39.8774V38.7197H40.5451V38.943H40.3225V39.6129H40.1V40.2827H39.8774V40.9526H39.6548V40.0594H39.8774V39.3896H40.1V38.943ZM38.5419 39.6129V38.943H38.3193V38.7197H39.2097V38.943H38.9871V39.3896H39.2097V40.0594H39.4322V40.9526H39.6548V41.3991H39.4322V41.1758H39.2097V40.9526H38.9871V40.2827H38.7646V39.6129H38.5419Z" fill="#F3F3F3"/>
</g>
<g filter="url(#filter0_f_40000774_25401)">
<path d="M20.0316 30.0138C25.5442 30.0138 30.013 25.5307 30.013 20.0005C30.013 14.4704 25.5442 9.9873 20.0316 9.9873C14.5191 9.9873 10.0503 14.4704 10.0503 20.0005C10.0503 25.5307 14.5191 30.0138 20.0316 30.0138Z" fill="#0143EB"/>
</g>
<g filter="url(#filter1_dd_40000774_25401)">
<path d="M14.5969 14.5479H10.9736V18.1827H14.5969V14.5479Z" fill="#F3F3F3"/>
<path d="M18.2201 18.1826H14.5969V21.8174H18.2201V18.1826Z" fill="#F3F3F3"/>
<path d="M18.2201 10.9131H14.5969V14.5479H18.2201V10.9131Z" fill="#F3F3F3"/>
<path d="M21.8432 10.9131H18.22V14.5479H21.8432V10.9131Z" fill="#F3F3F3"/>
<path d="M21.8432 18.1826H18.22V21.8174H21.8432V18.1826Z" fill="#F3F3F3"/>
<path d="M21.8432 25.4531H18.22V29.0879H21.8432V25.4531Z" fill="#F3F3F3"/>
<path d="M25.467 25.4531H21.8438V29.0879H25.467V25.4531Z" fill="#F3F3F3"/>
<path d="M29.0258 21.8184H25.4026V25.4532H29.0258V21.8184Z" fill="#F3F3F3"/>
<path d="M25.4025 18.1836H21.7793V21.8184H25.4025V18.1836Z" fill="#F3F3F3"/>
<path d="M18.2201 25.4531H14.5969V29.0879H18.2201V25.4531Z" fill="#F3F3F3"/>
<path d="M14.5969 23.6348H10.9736V25.4526H14.5969V23.6348Z" fill="#F3F3F3"/>
<path d="M25.4662 10.9131H21.843V14.5479H25.4662V10.9131Z" fill="#F3F3F3"/>
<path d="M29.09 14.5479H25.4668V16.3656H29.09V14.5479Z" fill="#F3F3F3"/>
<path d="M19.126 7.27536V10.9102H20.938V7.27536H19.126Z" fill="#F3F3F3"/>
<path d="M19.126 29.0898V32.7246H20.938V29.0898H19.126Z" fill="#F3F3F3"/>
</g>
</g>
</g>
<defs>
<filter id="filter0_f_40000774_25401" x="8.35061" y="8.28762" width="23.362" height="23.4257" filterUnits="userSpaceOnUse" color-interpolation-filters="sRGB">
<feFlood flood-opacity="0" result="BackgroundImageFix"/>
<feBlend mode="normal" in="SourceGraphic" in2="BackgroundImageFix" result="shape"/>
<feGaussianBlur stdDeviation="0.84984" result="effect1_foregroundBlur_40000774_25401"/>
</filter>
<filter id="filter1_dd_40000774_25401" x="10.3347" y="6.63641" width="19.3944" height="26.7272" filterUnits="userSpaceOnUse" color-interpolation-filters="sRGB">
<feFlood flood-opacity="0" result="BackgroundImageFix"/>
<feColorMatrix in="SourceAlpha" type="matrix" values="0 0 0 0 0 0 0 0 0 0 0 0 0 0 0 0 0 0 127 0" result="hardAlpha"/>
<feOffset dx="-0.638978" dy="0.638978"/>
<feComposite in2="hardAlpha" operator="out"/>
<feColorMatrix type="matrix" values="0 0 0 0 0.00392157 0 0 0 0 0.262745 0 0 0 0 0.921569 0 0 0 1 0"/>
<feBlend mode="normal" in2="BackgroundImageFix" result="effect1_dropShadow_40000774_25401"/>
<feColorMatrix in="SourceAlpha" type="matrix" values="0 0 0 0 0 0 0 0 0 0 0 0 0 0 0 0 0 0 127 0" result="hardAlpha"/>
<feOffset dx="0.638978" dy="-0.638978"/>
<feComposite in2="hardAlpha" operator="out"/>
<feColorMatrix type="matrix" values="0 0 0 0 0.00392157 0 0 0 0 0.262745 0 0 0 0 0.921569 0 0 0 1 0"/>
<feBlend mode="normal" in2="effect1_dropShadow_40000774_25401" result="effect2_dropShadow_40000774_25401"/>
<feBlend mode="normal" in="SourceGraphic" in2="effect2_dropShadow_40000774_25401" result="shape"/>
</filter>
<clipPath id="clip0_40000774_25401">
<rect width="40" height="40" rx="20" fill="white"/>
</clipPath>
<clipPath id="clip1_40000774_25401">
<rect width="40" height="40" fill="white"/>
</clipPath>
</defs>
</svg>
