<svg width="40" height="40" viewBox="0 0 40 40" fill="none" xmlns="http://www.w3.org/2000/svg">
<rect width="40" height="40" rx="20" fill="black"/>
<path d="M9.72738 9.53473C8.94221 10.3682 8.29445 11.0695 8.28791 11.0827C8.28136 11.1025 8.98801 11.8037 9.85824 12.6373C10.7285 13.4774 11.4875 14.2117 11.5398 14.258L11.638 14.3506L11.4613 14.6483C9.91059 17.2415 9.58998 20.3638 10.5649 23.2348C10.7481 23.7773 11.0622 24.4719 11.3304 24.9283C11.4613 25.1533 11.5202 25.2988 11.5071 25.3252C11.494 25.3517 10.7023 26.1985 9.74701 27.2106C8.79172 28.2161 8.0131 29.0562 8.00001 29.0695C7.99347 29.0893 10.6696 31.7023 10.9248 31.914L11.0229 32L12.5344 30.4057C13.3653 29.5259 14.144 28.699 14.2617 28.5733L14.4842 28.3484L14.6936 28.4807C15.7601 29.1687 17.0098 29.645 18.3904 29.8964C19.084 30.0221 20.4057 30.0551 21.145 29.9625C22.5714 29.7971 23.9847 29.3142 25.1429 28.6064L25.4438 28.4212L25.7644 28.7387C26.4646 29.4267 29.0818 31.9405 29.108 31.9537C29.1341 31.9669 32.0065 28.9305 32 28.8909C31.9934 28.871 30.024 26.9592 28.8201 25.8148L28.4209 25.4311L28.6041 25.1268C30.1418 22.5402 30.4624 19.4046 29.4678 16.5138C29.3239 16.0904 28.8855 15.1378 28.6303 14.7012L28.506 14.4829L30.1876 12.7034C31.1101 11.731 31.8626 10.9173 31.856 10.8975C31.8299 10.8313 28.8855 8.01985 28.8462 8.01985C28.8201 8.01985 28.0807 8.7806 27.1974 9.71996C26.3141 10.6527 25.5812 11.4201 25.5616 11.4267C25.5485 11.4333 25.4635 11.3936 25.3849 11.3341C25.1625 11.1819 24.5998 10.871 24.2857 10.7255C23.3304 10.2822 22.4406 10.011 21.4068 9.85888C20.8702 9.77949 19.2606 9.76626 18.7634 9.83903C17.5725 10.011 16.5976 10.3087 15.6031 10.8115C15.3152 10.9504 14.9815 11.1356 14.8506 11.215L14.6151 11.3605L14.3468 11.0959C14.2028 10.9504 13.5485 10.3286 12.9008 9.70011C12.253 9.07828 11.5922 8.44322 11.4351 8.28445L11.1472 8L9.72738 9.53473ZM20.7132 13.8478C21.7535 13.9735 22.6827 14.3308 23.5398 14.9394C23.9782 15.2503 24.6325 15.9118 24.94 16.355C26.687 18.8556 26.3533 22.2558 24.1549 24.3396C22.277 26.1125 19.5616 26.5094 17.2781 25.3319C15.6292 24.4785 14.4646 22.9173 14.0916 21.0452C13.9738 20.4498 13.9738 19.3385 14.0916 18.7497C14.2028 18.1676 14.3533 17.7508 14.6347 17.1687C15.7601 14.8798 18.2007 13.5435 20.7132 13.8478Z" fill="white"/>
</svg>
