<svg viewBox="0 0 40 40" fill="none" xmlns="http://www.w3.org/2000/svg">
<path d="M0 20C0 8.9543 8.9543 0 20 0C31.0457 0 40 8.9543 40 20C40 31.0457 31.0457 40 20 40C8.9543 40 0 31.0457 0 20Z" fill="#F5AC37"/>
<path d="M20.7383 21.4025H28.338C28.5 21.4025 28.5765 21.4025 28.5882 21.1901C28.6503 20.417 28.6503 19.6394 28.5882 18.8654C28.5882 18.7151 28.5135 18.653 28.3506 18.653H13.2259C13.0387 18.653 12.9883 18.7151 12.9883 18.8906V21.1154C12.9883 21.4025 12.9883 21.4025 13.288 21.4025H20.7383ZM27.7395 16.0529C27.7611 15.9962 27.7611 15.9341 27.7395 15.8783C27.6126 15.602 27.4623 15.3383 27.2877 15.0907C27.0249 14.6677 26.7153 14.278 26.3625 13.9279C26.1959 13.7164 26.0033 13.5265 25.7873 13.3654C24.7055 12.4447 23.4194 11.7931 22.037 11.4655C21.3395 11.3089 20.6267 11.2342 19.9121 11.2405H13.1998C13.0126 11.2405 12.9874 11.3152 12.9874 11.4781V15.9152C12.9874 16.1024 12.9874 16.1528 13.225 16.1528H27.6495C27.6495 16.1528 27.7746 16.1276 27.7998 16.0529H27.7386H27.7395ZM27.7395 24.0026C27.5271 23.9792 27.3129 23.9792 27.1005 24.0026H13.2385C13.0513 24.0026 12.9883 24.0026 12.9883 24.2528V28.5909C12.9883 28.7907 12.9883 28.8411 13.2385 28.8411H19.6385C19.9445 28.8645 20.2505 28.8429 20.5502 28.779C21.479 28.7124 22.3925 28.5108 23.2637 28.1787C23.5805 28.0689 23.8865 27.9258 24.1754 27.7539H24.2627C25.763 26.9736 26.9817 25.7478 27.7503 24.2429C27.7503 24.2429 27.8376 24.0539 27.7395 24.0044V24.0026ZM10.4764 31.0902V31.0155V28.1031V27.1158V24.1781C10.4764 24.0152 10.4764 23.9909 10.2766 23.9909H7.56396C7.41366 23.9909 7.35156 23.9909 7.35156 23.7911V21.416H10.2514C10.4134 21.416 10.4764 21.416 10.4764 21.2036V18.8537C10.4764 18.7034 10.4764 18.6665 10.2766 18.6665H7.56396C7.41366 18.6665 7.35156 18.6665 7.35156 18.4667V16.2671C7.35156 16.1294 7.35156 16.0925 7.55136 16.0925H10.2388C10.426 16.0925 10.4764 16.0925 10.4764 15.8549V9.11739C10.4764 8.91759 10.4764 8.86719 10.7266 8.86719H20.1011C20.7815 8.89419 21.4574 8.96889 22.1261 9.09219C23.504 9.34689 24.8279 9.8392 26.0384 10.5421C26.8413 11.0146 27.5802 11.5852 28.2381 12.2422C28.7331 12.7561 29.1795 13.3123 29.5755 13.9045C29.9688 14.5048 30.2955 15.1466 30.552 15.8171C30.5835 15.9917 30.7509 16.1096 30.9255 16.0799H33.1629C33.45 16.0799 33.45 16.0799 33.4626 16.3553V18.4055C33.4626 18.6053 33.3879 18.6557 33.1872 18.6557H31.4619C31.2873 18.6557 31.2369 18.6557 31.2495 18.8807C31.3179 19.6421 31.3179 20.4062 31.2495 21.1676C31.2495 21.38 31.2495 21.4052 31.488 21.4052H33.4617C33.549 21.5177 33.4617 21.6302 33.4617 21.7436C33.4743 21.8885 33.4743 22.0352 33.4617 22.1801V23.693C33.4617 23.9054 33.3996 23.9684 33.2115 23.9684H30.849C30.6843 23.9369 30.5241 24.0422 30.4863 24.206C29.9238 25.6686 29.0238 26.9799 27.861 28.0311C27.4362 28.4136 26.9898 28.7736 26.5236 29.1057C26.0231 29.3937 25.5362 29.6934 25.0232 29.931C24.0791 30.3558 23.0891 30.669 22.073 30.8679C21.1082 31.0407 20.1299 31.119 19.148 31.1055H10.4728V31.0929L10.4764 31.0902Z" fill="white"/>
</svg>
