<svg width="40" height="40" viewBox="0 0 40 40" fill="none" xmlns="http://www.w3.org/2000/svg">
<g clip-path="url(#clip0_40000773_24707)">
<path d="M20 40C31.0457 40 40 31.0457 40 20C40 8.9543 31.0457 0 20 0C8.9543 0 0 8.9543 0 20C0 31.0457 8.9543 40 20 40Z" fill="#0F0B4A"/>
<path d="M26.7466 11.486C26.5683 11.3354 26.343 11.2519 26.1096 11.25C25.7096 11.25 25.3536 11.504 25.1276 11.9C24.9746 12.166 24.8826 12.462 24.8046 12.757C24.5756 13.619 24.3966 15.24 24.3096 17.241C24.2977 17.5429 24.1699 17.8285 23.9527 18.0384C23.7355 18.2484 23.4457 18.3664 23.1436 18.368C22.84 18.3658 22.5491 18.2456 22.3325 18.0329C22.1158 17.8201 21.9904 17.5315 21.9826 17.228C21.8926 13.435 21.6246 10.455 21.2856 9.481C21.1016 8.616 20.6296 8 20.0756 8C19.5196 8 19.0476 8.616 18.8646 9.483C18.5276 10.452 18.2616 13.396 18.1706 17.15C18.1635 17.4748 18.0298 17.784 17.798 18.0115C17.5661 18.2391 17.2545 18.367 16.9296 18.368C16.6064 18.3674 16.296 18.2417 16.0635 18.0173C15.831 17.7928 15.6945 17.487 15.6826 17.164C15.5946 15.198 15.4166 13.607 15.1916 12.757C15.1214 12.4606 15.0139 12.1743 14.8716 11.905C14.6456 11.507 14.2876 11.25 13.8856 11.25C13.6556 11.25 13.4406 11.334 13.2566 11.48C12.7286 11.899 12.5866 12.634 12.4616 13.295C12.2016 14.693 12.0276 17.156 12.0276 19.963C12.0276 22.77 12.2016 25.234 12.4616 26.632C12.5846 27.294 12.7286 28.03 13.2566 28.448C13.4406 28.595 13.6566 28.678 13.8866 28.678C14.2876 28.678 14.6456 28.421 14.8716 28.024C15.0129 27.7543 15.1204 27.4681 15.1916 27.172C15.4166 26.321 15.5946 24.73 15.6816 22.765C15.7116 22.095 16.2566 21.56 16.9266 21.56C17.5966 21.56 18.1506 22.102 18.1666 22.778C18.2566 26.566 18.5246 29.544 18.8626 30.518C19.0466 31.383 19.5186 32 20.0726 32C20.6276 32 21.1006 31.384 21.2846 30.519C21.6246 29.538 21.8946 26.526 21.9826 22.701C21.9886 22.397 22.1133 22.1074 22.3301 21.8942C22.5469 21.6809 22.8385 21.561 23.1426 21.56C23.7746 21.56 24.2796 22.06 24.3066 22.687C24.3936 24.689 24.5726 26.309 24.8016 27.172C24.8796 27.468 24.9716 27.764 25.1246 28.028C25.3506 28.424 25.7076 28.678 26.1066 28.678C26.3396 28.678 26.5576 28.592 26.7436 28.442C27.2646 28.022 27.4076 27.292 27.5296 26.635C27.7896 25.239 27.9636 22.772 27.9636 19.963C27.9636 17.154 27.7896 14.688 27.5296 13.292C27.4076 12.634 27.2636 11.905 26.7436 11.485L26.7466 11.486Z" fill="white"/>
<path d="M32.7615 20.425C32.7615 18.428 32.5115 16.751 32.1755 16.288C32.0275 15.95 31.6525 15.71 31.2125 15.71C30.7725 15.71 30.3965 15.951 30.2485 16.29C29.9135 16.76 29.6655 18.433 29.6655 20.425C29.6655 22.418 29.9135 24.091 30.2485 24.559C30.3965 24.898 30.7715 25.139 31.2125 25.139C31.6545 25.139 32.0275 24.899 32.1755 24.562C32.5115 24.098 32.7615 22.421 32.7615 20.425Z" fill="white"/>
<path d="M8.78553 15.7119C9.22553 15.7119 9.60053 15.9519 9.74853 16.2889C10.0845 16.7539 10.3345 18.4289 10.3345 20.4269C10.3345 22.4249 10.0845 24.1009 9.74853 24.5649C9.60053 24.9019 9.22653 25.1419 8.78553 25.1419C8.34453 25.1419 7.96953 24.9009 7.82153 24.5619C7.48653 24.0919 7.23853 22.4189 7.23853 20.4269C7.23853 18.4339 7.48653 16.7599 7.82153 16.2919C7.96953 15.9519 8.34653 15.7119 8.78553 15.7119Z" fill="white"/>
</g>
<defs>
<clipPath id="clip0_40000773_24707">
<rect width="40" height="40" fill="white"/>
</clipPath>
</defs>
</svg>
