<svg width="40" height="40" viewBox="0 0 40 40" fill="none" xmlns="http://www.w3.org/2000/svg">
<rect width="40" height="40" rx="20" fill="white"/>
<rect x="0.5" y="0.5" width="39" height="39" rx="19.5" stroke="black" stroke-opacity="0.08"/>
<path d="M29.3019 26.1814C29.032 21.4067 23.0254 19.2363 22.4505 19.0134C22.4271 19.0016 22.4271 18.9782 22.4388 18.9547L28.6332 12.7369V12.0682C28.6296 11.9591 28.5428 11.8722 28.4337 11.8686H17.0187V8.12625V7L12.807 7.87988V8.5134H13.0417C13.0417 8.5134 14.0741 8.5134 14.0741 9.54579V11.857H10.8126C10.7493 11.8617 10.7 11.911 10.6953 11.9743V13.4408H14.0858V21.4067C14.0858 23.9055 15.693 25.6418 18.5087 25.4072C19.0882 25.3497 19.6455 25.1479 20.1276 24.8206C20.34 24.6845 20.4679 24.451 20.4679 24.1988V23.4128C19.5528 24.0228 18.7785 23.9876 18.7785 23.9876C16.9953 23.9876 17.0305 21.7234 17.0305 21.7234V13.4408H25.2427L19.3299 19.4004C19.3182 20.1864 19.3064 20.7966 19.3064 20.8083C19.3041 20.8259 19.317 20.8412 19.3346 20.8435C19.3369 20.8435 19.3393 20.8435 19.3416 20.8435C24.7617 21.7586 26.2282 25.2664 26.2282 26.2871C26.2282 26.2871 26.8147 31.2496 21.8522 31.5898C21.8522 31.5898 18.6025 31.7306 18.0277 30.4284C18.0065 30.3861 18.0253 30.3345 18.0675 30.3146C18.0699 30.3134 18.0722 30.3122 18.0746 30.3111C18.6272 30.0799 18.985 29.5379 18.9779 28.9384C18.9779 27.9764 18.3913 27.1904 17.1595 27.1904C16.1623 27.1904 15.3411 27.9764 15.3411 28.9384C15.3411 28.9384 14.8718 33.1149 21.8405 32.9976C29.7946 32.8568 29.3019 26.1814 29.3019 26.1814Z" fill="#262D33"/>
</svg>
