<svg width="40" height="40" viewBox="0 0 40 40" fill="none" xmlns="http://www.w3.org/2000/svg">
<rect width="40" height="40" rx="20" fill="#0B121E"/>
<path d="M27.978 20.2934L16.2613 27.058C15.4522 27.5251 15.1748 28.5596 15.6418 29.3685C16.1088 30.1773 17.1433 30.4543 17.9525 29.9871L29.6692 23.2226C30.4783 22.7554 30.7557 21.721 30.2887 20.9121C29.8217 20.1033 28.7872 19.8263 27.978 20.2934Z" fill="#FF7829"/>
<path d="M19.874 18.1294L11.0865 23.2028C10.2774 23.67 10 24.7044 10.467 25.5133C10.934 26.3222 11.9686 26.5992 12.7777 26.132L21.5652 21.0585C22.3743 20.5914 22.6517 19.5569 22.1847 18.748C21.7177 17.9392 20.6832 17.6622 19.874 18.1294Z" fill="#FCBF22"/>
<path d="M22.0473 10.02L10.3307 16.7846C9.52153 17.2517 9.24416 18.2862 9.71116 19.095C10.1782 19.9039 11.2127 20.1809 12.0218 19.7137L23.7385 12.9491C24.5476 12.482 24.825 11.4475 24.358 10.6387C23.891 9.82981 22.8565 9.55281 22.0473 10.02Z" fill="#2AE5B9"/>
</svg>
