<svg width="40" height="40" viewBox="0 0 40 40" fill="none" xmlns="http://www.w3.org/2000/svg">
<g clip-path="url(#clip0_40000351_10184)">
<rect width="40" height="40" rx="20" fill="black"/>
<mask id="mask0_40000351_10184" style="mask-type:luminance" maskUnits="userSpaceOnUse" x="-2" y="-1" width="52" height="42">
<path d="M49.447 -1H-1.20605V41H49.447V-1Z" fill="white"/>
</mask>
<g mask="url(#mask0_40000351_10184)">
<path d="M49.447 -1H-1.20605V41H49.447V-1Z" fill="#1F2128"/>
<path d="M49.4459 -1H-1.20605V65.2067H49.4459V-1Z" fill="url(#paint0_radial_40000351_10184)" fill-opacity="0.43"/>
<path d="M49.4459 -1H-1.20605V65.2067H49.4459V-1Z" fill="url(#paint1_radial_40000351_10184)" fill-opacity="0.6"/>
<path d="M49.4459 -1H-1.20605V65.2067H49.4459V-1Z" fill="url(#paint2_radial_40000351_10184)" fill-opacity="0.26"/>
</g>
<path d="M23.0554 15.2895C23.0554 14.8623 23.3587 14.3403 23.7084 14.1266L25.901 12.8215C26.2742 12.6079 26.5542 12.774 26.5542 13.2011V15.9302C26.5542 16.3574 26.2508 16.8794 25.901 17.0929L23.7084 18.3982C23.3353 18.6117 23.0554 18.4456 23.0554 18.0185V15.2895Z" fill="url(#paint3_linear_40000351_10184)"/>
<path d="M15.4749 25.4699C15.4749 25.0427 15.7781 24.5207 16.128 24.3071L25.9011 18.5167C26.2742 18.3032 26.5542 18.4693 26.5542 18.8965V21.6256C26.5542 22.0527 26.2508 22.5748 25.9011 22.7883L16.1047 28.5787C15.7315 28.7922 15.4517 28.6261 15.4517 28.1989L15.4749 25.4699Z" fill="url(#paint4_linear_40000351_10184)"/>
<path d="M18.344 12.4184C18.344 11.9912 18.6472 11.4691 18.9971 11.2555L22.4024 9.23845C22.7756 9.02487 23.0555 9.19097 23.0555 9.61813L23.0323 13.7473C23.0323 14.1744 22.729 14.6965 22.3793 14.9101L18.9971 16.9272C18.6239 17.1408 18.344 16.9747 18.344 16.5475V12.4184Z" fill="url(#paint5_linear_40000351_10184)"/>
<path d="M13.446 8.81092C13.446 8.38377 13.7493 7.8617 14.0991 7.64812L16.2916 6.34294C16.6648 6.12936 16.9447 6.29546 16.9447 6.72262V9.42794C16.9447 9.85509 16.6415 10.3772 16.2916 10.5907L14.0991 11.8959C13.7493 12.1095 13.446 11.9434 13.446 11.5162V8.81092Z" fill="url(#paint6_linear_40000351_10184)"/>
<path d="M18.8804 30.5723C18.8804 30.1452 19.1836 29.6232 19.5335 29.4095L21.7026 28.1281C22.0758 27.9145 22.3558 28.0806 22.3558 28.5078V31.2131C22.3558 31.6402 22.0526 32.1624 21.7026 32.376L19.5335 33.6572C19.1603 33.8709 18.8804 33.7049 18.8804 33.2776V30.5723Z" fill="url(#paint7_linear_40000351_10184)"/>
</g>
<defs>
<radialGradient id="paint0_radial_40000351_10184" cx="0" cy="0" r="1" gradientUnits="userSpaceOnUse" gradientTransform="translate(23.9439 31.6935) rotate(52.7307) scale(42.1127 65.0587)">
<stop stop-color="#1F2128"/>
<stop offset="0.822078" stop-color="#5542F6"/>
<stop offset="1" stop-color="#1F2128"/>
</radialGradient>
<radialGradient id="paint1_radial_40000351_10184" cx="0" cy="0" r="1" gradientUnits="userSpaceOnUse" gradientTransform="translate(65.2747 24.6245) rotate(-168.754) scale(39.737 19.9715)">
<stop stop-color="#00DC7D"/>
<stop offset="1" stop-color="#1F2128" stop-opacity="0.25"/>
</radialGradient>
<radialGradient id="paint2_radial_40000351_10184" cx="0" cy="0" r="1" gradientUnits="userSpaceOnUse" gradientTransform="translate(-1.55781 39.9574) rotate(-26.435) scale(55.781 33.7032)">
<stop stop-color="#E10E00"/>
<stop offset="1" stop-color="#1F2128" stop-opacity="0"/>
</radialGradient>
<linearGradient id="paint3_linear_40000351_10184" x1="23.4198" y1="13.9291" x2="27.0178" y2="15.7002" gradientUnits="userSpaceOnUse">
<stop stop-color="#00DC7D"/>
<stop offset="0.505208" stop-color="#00CBD9"/>
<stop offset="1" stop-color="#6C5DD3"/>
</linearGradient>
<linearGradient id="paint4_linear_40000351_10184" x1="16.6082" y1="20.5589" x2="24.6145" y2="27.5918" gradientUnits="userSpaceOnUse">
<stop stop-color="#00DC7D"/>
<stop offset="0.505208" stop-color="#00CBD9"/>
<stop offset="1" stop-color="#6C5DD3"/>
</linearGradient>
<linearGradient id="paint5_linear_40000351_10184" x1="18.8348" y1="10.7861" x2="23.7074" y2="13.1499" gradientUnits="userSpaceOnUse">
<stop stop-color="#00DC7D"/>
<stop offset="0.505208" stop-color="#00CBD9"/>
<stop offset="1" stop-color="#6C5DD3"/>
</linearGradient>
<linearGradient id="paint6_linear_40000351_10184" x1="13.8105" y1="7.44558" x2="17.4026" y2="9.22122" gradientUnits="userSpaceOnUse">
<stop stop-color="#00DC7D"/>
<stop offset="0.505208" stop-color="#00CBD9"/>
<stop offset="1" stop-color="#6C5DD3"/>
</linearGradient>
<linearGradient id="paint7_linear_40000351_10184" x1="19.2424" y1="29.2258" x2="22.8142" y2="30.9868" gradientUnits="userSpaceOnUse">
<stop stop-color="#00DC7D"/>
<stop offset="0.505208" stop-color="#00CBD9"/>
<stop offset="1" stop-color="#6C5DD3"/>
</linearGradient>
<clipPath id="clip0_40000351_10184">
<rect width="40" height="40" rx="20" fill="white"/>
</clipPath>
</defs>
</svg>
