<svg width="40" height="40" viewBox="0 0 40 40" fill="none" xmlns="http://www.w3.org/2000/svg">
<g clip-path="url(#clip0_1719_149238)">
<path d="M40 20.0008C40 31.0444 31.045 39.9984 19.9952 40C8.95342 40 -0.00160097 31.0444 8.57627e-07 19.9992C-0.00319966 8.95396 8.95182 0 19.9984 0C31.045 0 40 8.95556 40 20.0008Z" fill="#D1FA54"/>
<path fill-rule="evenodd" clip-rule="evenodd" d="M28.8356 17.2084C29.28 14.5545 27.2787 13.089 24.5225 12.0854L25.4845 8.49508L23.3004 7.90984L22.364 11.4043C21.7906 11.2506 21.2003 11.1041 20.6143 10.9603L21.5568 7.44266L19.3727 6.85742L18.4099 10.4442L18.3865 10.4384C17.919 10.323 17.4593 10.2094 17.0138 10.09L17.0167 10.0792L14.0045 9.27041L13.3792 11.6042C13.3792 11.6042 15.0012 12.0056 14.9655 12.0276C15.8513 12.2649 16.0013 12.8551 15.9658 13.321L14.87 17.4105C14.9319 17.4271 15.0099 17.4513 15.0963 17.4876L14.8659 17.426L13.3293 23.1549C13.216 23.4227 12.9334 23.8224 12.3146 23.6583C12.3358 23.6904 10.7272 23.2329 10.7272 23.2329L9.59375 25.7254L12.4379 26.4875C12.7585 26.5734 13.0754 26.662 13.3888 26.7495C13.592 26.8063 13.7939 26.8627 13.9943 26.9177L13.023 30.5486L15.2056 31.1334L16.168 27.5416C16.7628 27.7143 17.3413 27.8742 17.9086 28.0262L16.9491 31.6006L19.1333 32.1859L20.1039 28.5632C23.8329 29.3371 26.6546 29.1009 27.8974 25.7365C28.8997 23.0284 27.9261 21.4373 25.975 20.3779C27.4164 20.075 28.5137 19.1514 28.8356 17.2084ZM23.6978 24.151C23.0303 26.6423 19.1267 25.5359 17.3463 25.0312C17.1884 24.9864 17.047 24.9464 16.9263 24.914L18.2154 20.1027C18.3663 20.1435 18.5511 20.1886 18.7608 20.2397C20.609 20.6909 24.3785 21.6106 23.6978 24.151ZM19.1687 18.0053C20.6579 18.4296 23.8935 19.3516 24.4989 17.092C25.12 14.7796 21.9667 14.0235 20.4251 13.6539C20.2514 13.6122 20.0982 13.5754 19.973 13.5419L18.8044 17.9034C18.9087 17.9312 19.0313 17.9661 19.1687 18.0053Z" fill="#003511"/>
</g>
<defs>
<clipPath id="clip0_1719_149238">
<rect width="40" height="40" rx="20" fill="white"/>
</clipPath>
</defs>
</svg>
