<svg width="40" height="40" viewBox="0 0 40 40" fill="none" xmlns="http://www.w3.org/2000/svg">
<rect width="40" height="40" rx="20" fill="url(#paint0_radial_40000773_24640)"/>
<path d="M17.935 14.4344C17.935 12.5964 16.446 11.1074 14.608 11.1074C12.77 11.1074 11.281 12.5964 11.281 14.4344C11.281 16.2724 12.77 17.7614 14.608 17.7614C16.446 17.7614 17.935 16.2724 17.935 14.4344Z" fill="#080808"/>
<path d="M17.7631 20.4821C17.7631 18.7391 16.3511 17.3271 14.6081 17.3271C12.8651 17.3271 11.4531 18.7391 11.4531 20.4821C11.4531 22.2251 12.8651 23.6371 14.6081 23.6371C16.3511 23.6371 17.7631 22.2251 17.7631 20.4821Z" fill="#080808"/>
<path d="M17.0741 26.424C17.0741 25.062 15.9691 23.957 14.6071 23.957C13.2451 23.957 12.1401 25.062 12.1401 26.424C12.1401 27.786 13.2451 28.891 14.6071 28.891C15.9691 28.891 17.0741 27.786 17.0741 26.424Z" fill="#080808"/>
<path d="M23.706 14.4343C23.706 12.6913 22.294 11.2793 20.551 11.2793C18.808 11.2793 17.396 12.6913 17.396 14.4343C17.396 16.1773 18.808 17.5893 20.551 17.5893C22.294 17.5893 23.706 16.1773 23.706 14.4343Z" fill="#080808"/>
<path d="M23.706 20.4821C23.706 18.7391 22.294 17.3271 20.551 17.3271C18.808 17.3271 17.396 18.7391 17.396 20.4821C17.396 22.2251 18.808 23.6371 20.551 23.6371C22.294 23.6371 23.706 22.2251 23.706 20.4821Z" fill="#080808"/>
<path d="M21.8699 26.4245C21.8699 25.6955 21.2789 25.1055 20.5509 25.1055C19.8229 25.1055 19.2319 25.6965 19.2319 26.4245C19.2319 27.1525 19.8229 27.7435 20.5509 27.7435C21.2789 27.7435 21.8699 27.1525 21.8699 26.4245Z" fill="#080808"/>
<path d="M28.7201 14.4343C28.7201 13.1983 27.7181 12.1973 26.4831 12.1973C25.2481 12.1973 24.2461 13.1993 24.2461 14.4343C24.2461 15.6693 25.2481 16.6713 26.4831 16.6713C27.7181 16.6713 28.7201 15.6693 28.7201 14.4343Z" fill="#080808"/>
<path d="M27.8021 20.4821C27.8021 19.7531 27.2111 19.1631 26.4831 19.1631C25.7551 19.1631 25.1641 19.7541 25.1641 20.4821C25.1641 21.2101 25.7551 21.8011 26.4831 21.8011C27.2111 21.8011 27.8021 21.2101 27.8021 20.4821Z" fill="#080808"/>
<path d="M27.4491 26.4246C27.4491 25.8546 26.9871 25.3916 26.4161 25.3916C25.8451 25.3916 25.3831 25.8536 25.3831 26.4246C25.3831 26.9956 25.8451 27.4576 26.4161 27.4576C26.9871 27.4576 27.4491 26.9956 27.4491 26.4246Z" fill="#080808"/>
<defs>
<radialGradient id="paint0_radial_40000773_24640" cx="0" cy="0" r="1" gradientUnits="userSpaceOnUse" gradientTransform="translate(-10.5 7.5) rotate(34.1013) scale(57.9677 85.2125)">
<stop offset="0.223783" stop-color="#EBAD5E"/>
<stop offset="0.59" stop-color="#78C193"/>
<stop offset="0.71" stop-color="#93C58F"/>
<stop offset="0.95" stop-color="#DADADA"/>
</radialGradient>
</defs>
</svg>
