<svg width="40" height="40" viewBox="0 0 40 40" fill="none" xmlns="http://www.w3.org/2000/svg">
<rect width="40" height="40" rx="20" fill="#EAF2FD"/>
<g clip-path="url(#clip0_8530_9649)">
<mask id="mask0_8530_9649" style="mask-type:luminance" maskUnits="userSpaceOnUse" x="6" y="5" width="28" height="28">
<path d="M33.993 5.5H6.49072V32.5H33.993V5.5Z" fill="white"/>
</mask>
<g mask="url(#mask0_8530_9649)">
<g filter="url(#filter0_d_8530_9649)">
<path d="M22.9323 12.6812C21.9922 12.6835 21.086 12.8289 20.2339 13.0964C20.2149 13.1023 20.1944 13.1024 20.1753 13.0965C19.3218 12.8333 18.415 12.6924 17.4749 12.6947C12.4619 12.7072 8.40812 16.7812 8.42056 21.7941C8.43299 26.8072 12.5069 30.861 17.52 30.8485C18.46 30.8462 19.3662 30.7008 20.2183 30.4334C20.2374 30.4274 20.2579 30.4273 20.277 30.4332C21.1304 30.6964 22.0372 30.8374 22.9773 30.835C27.9904 30.8225 32.0441 26.7487 32.0318 21.7356C32.0192 16.7226 27.9453 12.6688 22.9323 12.6812Z" fill="url(#paint0_linear_8530_9649)"/>
<path opacity="0.1" d="M22.9776 30.8348C23.7059 30.833 24.4138 30.7449 25.092 30.5811C26.2327 29.6605 26.9533 28.307 27.4025 26.9112C28.1343 24.6375 28.2133 22.1578 27.6278 19.8422C27.3489 18.7384 26.9142 17.6587 26.2186 16.7575C25.5229 15.8563 24.5483 15.1427 23.4366 14.8975C25.524 17.0328 26.5321 20.1741 26.0771 23.1254C25.6221 26.0767 23.7147 28.7685 21.0812 30.1761C20.9131 30.2659 20.7261 30.3836 20.6016 30.5261C21.3592 30.7291 22.1556 30.8368 22.9776 30.8348Z" fill="#5875B1"/>
<path d="M29.6203 15.0776C27.8386 13.3005 25.4719 12.3218 22.9561 12.3218L22.9321 12.3219C22.1196 12.3239 21.3161 12.4291 20.5376 12.6349C20.4879 12.1173 20.4672 11.4747 20.6685 10.9119C20.8707 10.3464 21.3081 9.91925 21.7827 9.82368C22.0325 9.77337 22.3267 9.83816 22.5496 9.99276C22.7306 10.1182 22.8465 10.2882 22.876 10.4714C22.9077 10.6682 23.0928 10.8024 23.2897 10.7704C23.4866 10.7387 23.6205 10.5534 23.5887 10.3566C23.5277 9.9777 23.3047 9.63779 22.961 9.39939C22.5764 9.13279 22.0828 9.02683 21.6402 9.11588C21.1123 9.22216 20.6355 9.56456 20.3022 10.0532C20.1586 9.51649 19.9758 8.98991 19.754 8.48082C19.506 7.91183 19.0841 7.12723 18.2858 6.88392C18.1438 6.84076 17.9959 6.81885 17.8461 6.81885C16.9733 6.81885 16.1543 7.5499 16.0205 8.44852C15.8858 9.35213 16.3817 10.3441 17.2544 10.9167C17.9039 11.3429 18.7368 11.5645 19.7986 11.5944C19.7692 11.9565 19.7841 12.3081 19.8116 12.6218C19.0583 12.4318 18.2826 12.3353 17.4987 12.3353L17.4749 12.3354C12.2709 12.3483 8.04754 16.5926 8.06045 21.7967C8.0667 24.3133 9.05154 26.6782 10.8336 28.4555C12.6153 30.2326 14.982 31.2112 17.4979 31.2112L17.5217 31.2112C18.4507 31.2088 19.3678 31.0717 20.2494 30.8035C21.1247 31.0651 22.0345 31.1977 22.9553 31.1977H22.979C25.5 31.1914 27.8676 30.2038 29.6457 28.4168C31.4238 26.6298 32.3997 24.2573 32.3935 21.7363C32.3872 19.2197 31.4024 16.8549 29.6203 15.0776ZM17.6504 10.3132C17.1163 9.9627 16.626 9.28309 16.7345 8.5549C16.815 8.01465 17.3344 7.54076 17.8461 7.54076C17.9246 7.54076 18.0017 7.55209 18.0754 7.57453C18.4657 7.69354 18.7888 8.07315 19.0923 8.76919C19.3861 9.44346 19.6084 10.1502 19.7537 10.871C18.8611 10.8385 18.1724 10.6557 17.6504 10.3132ZM29.134 27.9077C27.4918 29.5579 25.3053 30.47 22.9772 30.4757L22.9552 30.4758C22.3933 30.4757 21.836 30.4223 21.2895 30.3164C22.4894 29.7515 23.5687 28.9348 24.4456 27.9112C25.9136 26.1977 26.7189 24.0098 26.7133 21.7505C26.7066 19.049 25.5392 16.4749 23.5101 14.6883C23.3606 14.5566 23.1325 14.5711 23.0007 14.7207C22.869 14.8703 22.8834 15.0984 23.0331 15.2302C24.907 16.8802 25.9853 19.2575 25.9914 21.7524C25.9966 23.8388 25.2529 25.8593 23.8973 27.4416C22.5558 29.0075 20.7025 30.0502 18.6786 30.3776C18.6305 30.3855 18.5862 30.4025 18.5472 30.4266C18.2075 30.4674 17.8646 30.4885 17.5198 30.4894L17.4977 30.4894C15.1744 30.4894 12.9887 29.5856 11.3432 27.9445C9.6975 26.3031 8.78793 24.1191 8.78222 21.795C8.77045 16.9889 12.6707 13.0692 17.4766 13.0573L17.4987 13.0572C18.3846 13.0572 19.2591 13.19 20.098 13.4518C20.1685 13.4738 20.2441 13.4737 20.3148 13.4513C21.1592 13.1831 22.0404 13.046 22.934 13.0438L22.9561 13.0437C25.2794 13.0437 27.4651 13.9475 29.1105 15.5887C30.7562 17.2301 31.6658 19.414 31.6715 21.7382C31.6773 24.0663 30.7761 26.2573 29.134 27.9077Z" fill="#2D2828"/>
</g>
</g>
</g>
<defs>
<filter id="filter0_d_8530_9649" x="-15.5229" y="-15.0176" width="71.4997" height="71.5592" filterUnits="userSpaceOnUse" color-interpolation-filters="sRGB">
<feFlood flood-opacity="0" result="BackgroundImageFix"/>
<feColorMatrix in="SourceAlpha" type="matrix" values="0 0 0 0 0 0 0 0 0 0 0 0 0 0 0 0 0 0 127 0" result="hardAlpha"/>
<feOffset dy="1.74691"/>
<feGaussianBlur stdDeviation="11.7917"/>
<feComposite in2="hardAlpha" operator="out"/>
<feColorMatrix type="matrix" values="0 0 0 0 0.868359 0 0 0 0 0.852564 0 0 0 0 0.849011 0 0 0 0.2 0"/>
<feBlend mode="normal" in2="BackgroundImageFix" result="effect1_dropShadow_8530_9649"/>
<feBlend mode="normal" in="SourceGraphic" in2="effect1_dropShadow_8530_9649" result="shape"/>
</filter>
<linearGradient id="paint0_linear_8530_9649" x1="17.6025" y1="14.8576" x2="17.6025" y2="31.4376" gradientUnits="userSpaceOnUse">
<stop stop-color="#FFD5CA"/>
<stop offset="1" stop-color="#F39983"/>
</linearGradient>
<clipPath id="clip0_8530_9649">
<rect width="27.5023" height="27" fill="white" transform="translate(6.49072 5.5)"/>
</clipPath>
</defs>
</svg>
