<svg width="40" height="40" viewBox="0 0 40 40" fill="none" xmlns="http://www.w3.org/2000/svg">
<g clip-path="url(#clip0_18395_170951)">
<rect width="40" height="40" rx="20" fill="#3A963D"/>
<path d="M26.202 14.7522L25.358 15.5962L24.3672 17.1375L24.5507 17.6513L25.6149 17.9449H26.9727L29.6149 18.0183L30.7892 17.6513L31.8167 16.8439L32.4406 16.0733L31.5598 15.5962L30.7892 15.1192L29.358 14.7522H27.4498H26.202Z" fill="white"/>
<path d="M14.6427 14.5689C13.7032 14.6276 12.343 14.9114 11.7803 15.046L12.0005 15.3395L13.5784 15.7432L14.9729 16.8441L18.606 17.9083L20.8812 18.3487L22.8995 17.3946L22.5326 16.0368L21.2849 14.312L20.1105 14.4221C18.6794 14.4466 15.5821 14.5102 14.6427 14.5689Z" fill="white"/>
<path d="M12.8955 22.9978C11.8386 22.6748 10.3756 22.4718 9.7762 22.4106L9.15234 22.8143V23.695L10.3267 24.6491L11.978 25.5666L14.2533 26.7776L16.0881 27.7317L17.0789 28.1354L19.3909 28.3189L20.4918 28.6858H22.7303H26.4367L28.2716 28.5757L30.2533 28.3556L31.0973 27.7317L31.6845 27.1813L32.3083 26.2638V25.5666L31.9413 24.8326L32.3083 24.5164L33.0489 23.7684L33.4746 22.4295L32.5652 21.0161V21.7868L31.4643 23.7684L30.4367 24.6491L28.4551 25.0161L23.4276 24.8326L21.4826 24.6491L17.7762 24.2455C17.0056 24.0253 15.4276 23.5776 15.2808 23.5482C15.0973 23.5115 14.2166 23.4014 12.8955 22.9978Z" fill="#983C1F"/>
<path d="M18.915 7.37946C18.9304 7.04064 18.8043 6.38674 18.3279 5.69239M18.3279 5.69239C18.0475 5.28374 17.6457 4.86107 17.0801 4.48038C15.1719 3.19598 11.8691 3.63634 11.3187 3.81983C10.8783 3.96662 9.71623 4.66387 9.19024 4.99414C8.98229 5.23879 8.55171 5.76478 8.49299 5.91157C8.4196 6.09506 8.12602 6.71891 7.94253 7.04918C7.75905 7.37946 7.90583 7.45285 7.28198 7.89322C6.65813 8.33359 5.96088 9.5446 5.704 9.69139C5.44712 9.83817 4.67648 10.9024 4.60308 11.0859C4.52969 11.2694 1.55721 16.7373 1.22694 17.5079C0.89666 18.2785 -0.938202 22.0584 -1.08499 23.1226C-1.23178 24.1868 -1.67215 27.9666 -1.78224 28.774C-1.89233 29.5813 -2.11251 32.3336 -2.18591 32.6272C-2.2593 32.9207 -2.22261 37.2877 1.6673 38.6455C5.55721 40.0033 5.22694 40.2602 9.96088 40.407C14.6948 40.5538 14.1808 40.2235 16.5294 40.2235C18.878 40.2235 18.7679 40.407 19.7224 40.2235C20.8739 40.0021 21.6673 39.8198 21.9976 39.4895C22.2618 39.2253 22.7435 38.7042 23.0615 38.4107M18.3279 5.69239C18.6214 5.49634 19.2893 5.01616 19.6123 4.66386C20.0159 4.2235 20.6398 3.81983 21.3737 3.81983C22.1077 3.81983 23.9425 3.96661 24.3462 4.2235C24.7499 4.48038 25.7774 4.84735 26.2912 5.83817C26.8049 6.829 28.1257 8.13543 28.1624 8.68588L28.2358 9.12625" stroke="black" stroke-width="0.4" stroke-linecap="round"/>
<path d="M20.8604 8.6271C22.8542 7.78306 27.598 7.18123 30.6218 11.5262L30.8784 11.8785" stroke="black" stroke-width="0.4" stroke-linecap="round"/>
<path d="M10.7686 9.10416C11.0499 8.88398 11.686 8.37755 11.9796 8.11333C12.3465 7.78306 13.1539 7.1959 15.2823 7.2326C17.4108 7.2693 18.952 7.26929 19.8328 8.11333C20.1249 8.39325 20.7229 8.7935 21.1906 9.32435C22.1331 10.3942 22.952 11.7097 22.952 12.1133C22.952 12.6159 22.9276 12.6393 22.952 12.5537" stroke="black" stroke-width="0.4" stroke-linecap="round"/>
<path d="M26.4748 12.3335C27.5024 11.783 29.5354 11.6656 30.328 11.783C31.3189 11.9298 32.8969 12.9574 32.8602 13.2142C32.8308 13.4197 32.7011 13.5934 32.64 13.6546C32.3464 13.41 31.6785 12.884 31.3556 12.7372C30.9519 12.5537 27.7959 12.517 27.1354 12.7372C26.6069 12.9133 25.6186 13.8136 25.1904 14.2418" stroke="black" stroke-width="0.4" stroke-linecap="round"/>
<path d="M18.1808 11.5629C16.7129 11.5996 13.8946 11.6803 13.4836 11.7097C12.9698 11.7464 12.3093 11.9666 11.6854 12.3702C11.0616 12.7739 10.1808 14.0216 10.1441 14.1684C10.0707 14.3396 9.96799 14.7042 10.1441 14.7922C10.3643 14.9023 10.8414 14.7556 10.9148 14.6455C10.9882 14.5354 11.979 13.4711 12.346 13.3244C12.7129 13.1776 13.6671 12.5904 14.768 12.5904C15.8689 12.5904 17.4102 12.3702 18.1808 12.8473C18.9515 13.3244 20.4561 14.095 21.2267 14.3152M18.1808 11.5629C19.0126 11.514 20.9625 11.4455 21.2267 11.5629C21.557 11.7097 22.8047 12.6271 23.2084 13.0308C23.612 13.4345 24.0891 14.2051 23.9056 15.673M18.1808 11.5629C18.768 11.8075 20.1918 12.3335 20.3093 12.4803C20.4561 12.6638 21.4469 13.728 21.8139 13.9482C22.1808 14.1684 23.3184 15.0491 23.612 15.673C23.8469 16.1721 23.8077 16.6149 23.7588 16.7739M21.2267 14.3152C21.9973 14.5354 23.0249 17.1409 22.9148 17.4345M21.2267 14.3152C20.2848 14.3763 18.0194 14.4987 16.4928 14.4987C14.9662 14.4987 12.346 14.6455 11.3184 15.0124M22.9148 17.4345C22.3766 17.6546 21.2487 18.1244 21.0432 18.2418C20.7863 18.3886 17.7128 17.728 17.4102 17.728C17.3215 17.728 15.5019 17.2877 14.2175 16.2234C12.9331 15.1592 11.5383 15.3647 11.3184 15.0124M22.9148 17.4345C23.0983 17.3591 23.612 17.728 23.612 17.9849C23.612 18.2418 23.612 18.7189 21.9973 19.1225M11.3184 15.0124L10.8778 14.7409M12.7496 16.7739C13.349 17.3611 14.6359 18.5427 14.9882 18.5721C15.4285 18.6088 20.3827 19.5262 21.9973 19.1225M21.9973 19.1225C21.5325 19.7219 20.4634 20.9574 19.9056 21.1042C19.2084 21.2877 17.4102 22.0216 17.4102 22.1317C17.4102 22.2198 16.7007 22.2907 16.346 22.3152" stroke="black" stroke-width="0.4" stroke-linecap="round"/>
<path d="M25.5575 15.4162C24.8823 15.9446 24.53 16.9207 24.4199 17.251C24.4199 17.7281 25.5575 17.8015 25.7043 17.9116C25.8511 18.0217 29.4474 17.985 29.9612 17.9116C30.475 17.8382 30.8786 17.5446 31.0988 17.3978C31.319 17.251 32.0896 16.5905 32.1997 16.4804C32.3098 16.3703 32.53 15.8565 32.53 15.7831C32.53 15.7097 32.0896 15.0859 31.8328 14.5721C31.5759 14.0584 31.319 13.985 31.0988 13.7648C30.8786 13.5446 30.2915 13.5079 29.4474 13.5079C28.6034 13.5079 28.2731 13.4345 27.6126 13.618C27.0841 13.7648 26.0224 14.8779 25.5575 15.4162Z" stroke="black" stroke-width="0.4" stroke-linecap="round"/>
<path d="M26.4375 14.6456C27.1347 14.6334 28.676 14.6309 29.2632 14.719C29.9971 14.8291 30.2907 14.8291 30.9146 15.2328C31.4136 15.5557 32.15 15.9055 32.4558 16.0401" stroke="black" stroke-width="0.4" stroke-linecap="round"/>
<path d="M32.4932 13.5813C32.5299 14.2418 32.5812 15.5923 32.4932 15.7097" stroke="black" stroke-width="0.4" stroke-linecap="round"/>
<path d="M32.4927 15.9299C32.4927 16.9942 32.1624 17.985 31.3918 18.7189C31.0379 19.0559 30.1517 19.0808 29.6747 19.0563" stroke="black" stroke-width="0.4" stroke-linecap="round"/>
<path d="M31.318 18.8142C31.159 19.2423 30.7024 19.7653 30.3616 19.9027C29.9251 20.0787 29.3978 19.9787 29.2266 19.9665" stroke="black" stroke-width="0.4" stroke-linecap="round"/>
<path d="M24.8965 18.719C25.0998 18.7529 25.4768 18.9104 25.9711 19.2695M28.0891 21.4713C27.2832 20.3809 26.5474 19.6881 25.9711 19.2695M25.9711 19.2695C26.4936 19.3795 27.6488 19.5557 28.0891 19.3795" stroke="black" stroke-width="0.4" stroke-linecap="round"/>
<path d="M9.26367 20.6271C9.33707 20.4437 9.77743 20.0914 10.9517 20.1501" stroke="black" stroke-width="0.4" stroke-linecap="round"/>
<path d="M8.30957 22.7923C8.50529 22.2908 9.38847 21.3171 11.3554 21.4345" stroke="black" stroke-width="0.4" stroke-linecap="round"/>
<path d="M31.1716 19.0491C31.6853 19.3793 32.4274 20.4888 32.5294 20.7004C32.6742 21.0011 32.5661 21.361 32.5294 21.5812C32.4927 21.8014 32.2725 22.0949 32.1991 22.4252C32.1257 22.7555 31.722 23.1959 31.5752 23.4527C31.4285 23.7096 31.245 24.0399 30.9514 24.3702C30.7165 24.6344 29.2389 24.8717 28.5294 24.9573C27.6486 24.9573 25.8431 24.9573 25.667 24.9573C25.4468 24.9573 22.1074 24.6638 21.7771 24.7004C21.4468 24.7371 19.2817 24.4436 18.7679 24.3702C18.2541 24.2968 16.2725 23.783 15.7954 23.6729C15.4138 23.5849 14.6823 23.4894 14.3642 23.4527C13.7037 23.3426 12.1257 22.7922 11.6486 22.6087C11.409 22.5165 10.5911 22.3284 10.0706 22.3151C9.76227 22.3072 9.63027 22.4023 9.5202 22.4619C9.22662 22.6209 8.75689 23.1078 9.22662 23.783C9.81377 24.6271 11.7587 25.3243 12.2725 25.728C12.7862 26.1316 14.1073 26.7555 14.6945 26.939C15.2816 27.1225 15.7587 27.6729 16.6761 27.9298C17.5936 28.1867 18.1073 28.15 18.4376 28.1867C18.7679 28.2234 19.9789 28.3702 20.2358 28.517C20.4927 28.6638 22.3275 28.7371 22.9881 28.7004C23.6486 28.6638 23.9789 28.7004 24.7495 28.7004C25.366 28.7004 26.9636 28.5781 27.6853 28.517C28.1257 28.517 29.0725 28.517 29.3367 28.517C29.667 28.517 30.6578 28.2234 30.8046 28.0766C30.9514 27.9298 31.5752 27.2315 31.5752 27.2315C31.5752 27.2315 31.8321 26.939 32.0156 26.7188C32.1991 26.4986 32.3989 26.2352 32.3989 25.8106C32.3989 25.5121 32.1379 25.1041 32.0156 24.8472" stroke="black" stroke-width="0.4" stroke-linecap="round"/>
<path d="M31.3184 27.7463C31.3795 27.9421 31.4945 28.3922 31.4651 28.6271C31.4284 28.9206 31.3918 29.2876 31.1349 29.5445C30.9294 29.75 30.4621 30.3396 30.2541 30.6087L30.0707 30.7555C29.667 30.4008 28.8229 29.6986 28.6762 29.728C28.4927 29.7647 28.1991 29.6546 27.5752 29.8748C26.9514 30.095 27.0248 30.2784 26.2541 30.7555C25.6376 31.1372 25.2389 31.6729 25.1165 31.8931C24.8596 32.0888 24.3019 32.5023 24.1257 32.5904C23.9055 32.7005 23.7396 32.8326 23.722 32.9207C23.6487 33.2876 23.722 33.5812 23.722 33.728C23.722 33.8748 23.9055 34.2051 24.3092 34.2784C24.7129 34.3518 25.5936 34.2784 25.8505 34.2784C26.1073 34.2784 27.0615 33.5445 27.2083 33.3977C27.3551 33.2509 27.9422 32.884 28.1624 32.7372C28.3826 32.5904 28.6395 32.7372 28.8963 32.7372C29.1532 32.7372 29.5569 32.9207 29.5569 33.1041C29.5569 33.2876 29.5202 33.5445 29.4101 33.728C29.322 33.8748 28.4437 34.621 28.0156 34.9757C27.8566 35.0246 27.3119 35.5659 27.2148 35.6953C26.9506 36.0476 26.8535 36.8106 26.8413 37.2142C26.8902 37.3488 27.0321 37.6619 27.2083 37.8381C27.4284 38.0583 27.7954 38.5353 28.1624 38.4986C28.456 38.4693 28.9208 38.4619 29.1165 38.3885M29.1165 38.3885L29.667 37.3977C30.0462 36.994 30.8707 36.15 31.1349 36.0032M29.1165 38.3885C29.1532 38.7188 29.2927 39.394 29.5569 39.4528C29.8872 39.5262 30.6945 39.7463 31.1349 39.5629C31.5752 39.3794 31.3917 39.306 31.7587 39.1225M31.7587 39.1225C32.0523 38.9757 32.6884 38.0827 32.9697 37.6546L33.3367 37.2142M31.7587 39.1225C31.6731 39.4038 31.5532 39.9812 31.7587 40.0399C32.0156 40.1133 32.7862 40.3702 33.1165 40.15C33.3807 39.9739 34.4254 38.7066 34.9147 38.095" stroke="black" stroke-width="0.4" stroke-linecap="round"/>
<path d="M32.603 20.9795C32.9455 21.481 33.4515 21.8789 33.4355 22.6712C33.4277 23.0543 32.9755 23.7552 32.7553 23.9387C32.5351 24.1222 31.1721 25.5446 30.8785 25.8382C30.5849 26.1318 29.117 26.4621 28.4932 26.4621C27.8693 26.4621 24.7868 26.3094 24.4565 26.3461C24.1262 26.3828 22.8785 26.2419 22.4014 26.1685C21.9244 26.0951 21.4106 26.0951 20.6033 25.8382C19.7959 25.5813 19.6491 25.6547 19.4656 25.6547C19.2822 25.6547 18.5849 25.6547 18.2913 25.6547C17.9978 25.6547 17.484 25.6547 17.3005 25.6547C17.117 25.6547 16.4932 25.5446 16.1996 25.4712C15.906 25.3978 14.6583 25.1777 14.1812 24.8841C13.7042 24.5905 13.9978 24.8107 13.0069 24.4804C12.0161 24.1501 11.9794 24.2602 11.6858 23.9666C11.451 23.7318 11.0253 23.4529 10.8418 23.3428" stroke="black" stroke-width="0.4" stroke-linecap="round"/>
<path d="M24.7861 32.2969C25.2754 32.5293 26.0705 33.2583 25.1898 33.7281" stroke="black" stroke-width="0.4" stroke-linecap="round"/>
<path d="M28.2207 34.8625C28.5632 34.728 29.4617 34.3666 29.814 34.1318C30.1662 33.8969 30.7925 33.3489 31.0617 33.1042" stroke="black" stroke-width="0.4" stroke-linecap="round"/>
<path d="M28.8598 32.7739C28.7864 32.9207 26.1809 35.7831 25.8506 36.04" stroke="black" stroke-width="0.4" stroke-linecap="round"/>
<path d="M25.1172 34.3151C25.1294 34.3029 25.1759 34.3812 25.264 34.7922C25.3741 35.306 25.3007 35.6729 25.4108 35.8931C25.4988 36.0693 25.8634 36.4803 26.0346 36.6638L27.0988 37.6546" stroke="black" stroke-width="0.4" stroke-linecap="round"/>
<path d="M30.1295 30.7158C30.2396 30.9482 30.4823 31.3355 30.6585 31.453C30.8786 31.5998 32.3098 32.4071 32.4566 32.5172C32.6034 32.6273 33.5575 33.4346 34.0346 33.9851C34.4163 34.4254 35.3924 35.7955 35.8328 36.5539C36.0774 37.0677 36.6034 38.1392 36.7502 38.3154C36.9337 38.5355 37.0438 39.7099 37.0071 39.8566C36.9704 40.0034 35.7594 40.7007 35.5025 40.8842C35.2456 41.0677 33.7777 41.3979 33.5575 41.4713C33.3374 41.5447 30.8052 41.6181 30.5117 41.6181C30.2181 41.6181 27.5025 41.5814 27.0988 41.3245C26.6952 41.0677 26.1814 41.031 25.5575 40.6273C25.0585 40.3043 24.2731 39.7343 23.9429 39.4897C23.686 39.1961 23.1649 38.5429 23.1355 38.2787C23.0988 37.9484 23.3557 37.2511 23.2456 36.8842C23.1355 36.5172 23.3924 36.4438 23.0255 36.0768C22.6585 35.7099 22.2548 35.2328 22.0713 34.9759C21.8878 34.719 21.2273 33.5814 21.4108 33.2511C21.5943 32.9209 21.4842 33.031 21.7778 32.8475C22.0713 32.664 22.2548 32.5172 22.5117 32.5172C22.7686 32.5172 22.7318 32.5172 22.8787 32.5172C22.9962 32.5172 23.5637 33.0187 23.6493 33.1043" stroke="black" stroke-width="0.4" stroke-linecap="round"/>
<path fill-rule="evenodd" clip-rule="evenodd" d="M26.4739 14.572C25.9113 15.1836 24.9694 16.6858 25.7033 17.8014C26.792 17.887 29.0134 18.0509 29.1895 18.0216C29.4097 17.9849 30.8042 15.9665 29.2629 14.8656L26.4739 14.572ZM26.914 15.9518C27.0559 15.9518 27.1709 15.804 27.1709 15.6216C27.1709 15.4392 27.0559 15.2913 26.914 15.2913C26.7721 15.2913 26.6571 15.4392 26.6571 15.6216C26.6571 15.804 26.7721 15.9518 26.914 15.9518ZM27.2443 16.8326C27.2443 16.9947 27.1293 17.1262 26.9874 17.1262C26.8455 17.1262 26.7305 16.9947 26.7305 16.8326C26.7305 16.6704 26.8455 16.539 26.9874 16.539C27.1293 16.539 27.2443 16.6704 27.2443 16.8326ZM28.7856 16.8326C29.0693 16.8326 29.2993 16.5861 29.2993 16.2821C29.2993 15.9781 29.0693 15.7317 28.7856 15.7317C28.5018 15.7317 28.2718 15.9781 28.2718 16.2821C28.2718 16.5861 28.5018 16.8326 28.7856 16.8326Z" fill="black"/>
<path fill-rule="evenodd" clip-rule="evenodd" d="M15.3174 14.6456C14.9015 15.0371 14.1064 15.8933 14.2532 16.1869C14.4 16.4805 15.6844 17.0187 16.3082 17.2511L18.2532 17.9851L18.8771 18.0952C19.3174 17.1166 19.9339 15.0566 18.8771 14.6456C17.8202 14.2346 16.0636 14.4744 15.3174 14.6456ZM15.9044 15.6585C16.0868 15.6585 16.2346 15.5106 16.2346 15.3282C16.2346 15.1458 16.0868 14.9979 15.9044 14.9979C15.722 14.9979 15.5741 15.1458 15.5741 15.3282C15.5741 15.5106 15.722 15.6585 15.9044 15.6585ZM16.3814 16.3557C16.3814 16.5381 16.2336 16.686 16.0512 16.686C15.8688 16.686 15.7209 16.5381 15.7209 16.3557C15.7209 16.1733 15.8688 16.0254 16.0512 16.0254C16.2336 16.0254 16.3814 16.1733 16.3814 16.3557ZM18.2627 16.6038C18.6147 16.4029 18.7695 16.0113 18.6085 15.7291C18.4474 15.4469 18.0315 15.381 17.6794 15.5819C17.3274 15.7828 17.1726 16.1745 17.3336 16.4567C17.4947 16.7389 17.9106 16.8048 18.2627 16.6038Z" fill="black"/>
</g>
<defs>
<clipPath id="clip0_18395_170951">
<rect width="40" height="40" rx="20" fill="white"/>
</clipPath>
</defs>
</svg>
