<svg viewBox="0 0 40 40" fill="none" xmlns="http://www.w3.org/2000/svg">
<path d="M0 20C0 8.9543 8.9543 0 20 0C31.0457 0 40 8.9543 40 20C40 31.0457 31.0457 40 20 40C8.9543 40 0 31.0457 0 20Z" fill="black"/>
<g clip-path="url(#clip0_5488_245250)">
<path d="M13.4987 15.6641H11.332V17.8307H13.4987V15.6641Z" fill="#FED955"/>
<path d="M13.4987 20H11.332V22.1667H13.4987V20Z" fill="#FED955"/>
<path d="M13.4987 17.8359H11.332V20.0026H13.4987V17.8359Z" fill="#FED955"/>
<path d="M13.4987 22.1641H11.332V24.3307H13.4987V22.1641Z" fill="#FED955"/>
<path d="M22.1667 11.3359H20V13.5026H22.1667V11.3359Z" fill="#FED955"/>
<path d="M22.1667 26.5H20V28.6667H22.1667V26.5Z" fill="#FED955"/>
<path d="M24.3346 11.3359H22.168V13.5026H24.3346V11.3359Z" fill="#FED955"/>
<path d="M26.4987 11.3359H24.332V13.5026H26.4987V11.3359Z" fill="#9695F8"/>
<path d="M15.6667 11.3359H13.5V13.5026H15.6667V11.3359Z" fill="#9695F8"/>
<path d="M28.6667 24.3359H26.5V26.5026H28.6667V24.3359Z" fill="#9695F8"/>
<path d="M13.4987 24.3359H11.332V26.5026H13.4987V24.3359Z" fill="#9695F8"/>
<path d="M24.3346 9.16406H22.168V11.3307H24.3346V9.16406Z" fill="#9695F8"/>
<path d="M24.3346 7H22.168V9.16667H24.3346V7Z" fill="#5552FD"/>
<path d="M24.3346 30.8359H22.168V33.0026H24.3346V30.8359Z" fill="#5552FD"/>
<path d="M24.3346 28.6641H22.168V30.8307H24.3346V28.6641Z" fill="#9695F8"/>
<path d="M19.9987 9.16406H17.832V11.3307H19.9987V9.16406Z" fill="#9695F8"/>
<path d="M19.9987 7H17.832V9.16667H19.9987V7Z" fill="#5552FD"/>
<path d="M19.9987 30.8359H17.832V33.0026H19.9987V30.8359Z" fill="#5552FD"/>
<path d="M19.9987 28.6641H17.832V30.8307H19.9987V28.6641Z" fill="#9695F8"/>
<path d="M22.1667 9.16406H20V11.3307H22.1667V9.16406Z" fill="#9695F8"/>
<path d="M22.1667 7H20V9.16667H22.1667V7Z" fill="#5552FD"/>
<path d="M22.1667 30.8359H20V33.0026H22.1667V30.8359Z" fill="#5552FD"/>
<path d="M22.1667 28.6641H20V30.8307H22.1667V28.6641Z" fill="#9695F8"/>
<path d="M17.8346 9.16406H15.668V11.3307H17.8346V9.16406Z" fill="#9695F8"/>
<path d="M17.8346 7H15.668V9.16667H17.8346V7Z" fill="#5552FD"/>
<path d="M17.8346 30.8359H15.668V33.0026H17.8346V30.8359Z" fill="#5552FD"/>
<path d="M17.8346 28.6641H15.668V30.8307H17.8346V28.6641Z" fill="#9695F8"/>
<path d="M28.6667 13.5H26.5V15.6667H28.6667V13.5Z" fill="#9695F8"/>
<path d="M13.4987 13.5H11.332V15.6667H13.4987V13.5Z" fill="#9695F8"/>
<path d="M26.4987 26.5H24.332V28.6667H26.4987V26.5Z" fill="#9695F8"/>
<path d="M15.6667 26.5H13.5V28.6667H15.6667V26.5Z" fill="#9695F8"/>
<path d="M30.8346 15.6641H28.668V17.8307H30.8346V15.6641Z" fill="#9695F8"/>
<path d="M11.3346 15.6641H9.16797V17.8307H11.3346V15.6641Z" fill="#9695F8"/>
<path d="M9.16667 15.6641H7V17.8307H9.16667V15.6641Z" fill="#5552FD"/>
<path d="M11.3346 13.5H9.16797V15.6667H11.3346V13.5Z" fill="#5552FD"/>
<path d="M30.8346 13.5H28.668V15.6667H30.8346V13.5Z" fill="#5552FD"/>
<path d="M26.4987 28.6641H24.332V30.8307H26.4987V28.6641Z" fill="#5552FD"/>
<path d="M11.3346 24.3359H9.16797V26.5026H11.3346V24.3359Z" fill="#5552FD"/>
<path d="M13.4987 11.3359H11.332V13.5026H13.4987V11.3359Z" fill="#5552FD"/>
<path d="M28.6667 11.3359H26.5V13.5026H28.6667V11.3359Z" fill="#5552FD"/>
<path d="M28.6667 26.5H26.5V28.6667H28.6667V26.5Z" fill="#5552FD"/>
<path d="M13.4987 26.5H11.332V28.6667H13.4987V26.5Z" fill="#5552FD"/>
<path d="M15.6667 9.16406H13.5V11.3307H15.6667V9.16406Z" fill="#5552FD"/>
<path d="M26.4987 9.16406H24.332V11.3307H26.4987V9.16406Z" fill="#5552FD"/>
<path d="M30.8346 24.3359H28.668V26.5026H30.8346V24.3359Z" fill="#5552FD"/>
<path d="M15.6667 28.6641H13.5V30.8307H15.6667V28.6641Z" fill="#5552FD"/>
<path d="M32.9987 15.6641H30.832V17.8307H32.9987V15.6641Z" fill="#5552FD"/>
<path d="M30.8346 17.8359H28.668V20.0026H30.8346V17.8359Z" fill="#9695F8"/>
<path d="M11.3346 17.8359H9.16797V20.0026H11.3346V17.8359Z" fill="#9695F8"/>
<path d="M9.16667 17.8359H7V20.0026H9.16667V17.8359Z" fill="#5552FD"/>
<path d="M32.9987 17.8359H30.832V20.0026H32.9987V17.8359Z" fill="#5552FD"/>
<path d="M30.8346 20H28.668V22.1667H30.8346V20Z" fill="#9695F8"/>
<path d="M11.3346 20H9.16797V22.1667H11.3346V20Z" fill="#9695F8"/>
<path d="M9.16667 20H7V22.1667H9.16667V20Z" fill="#5552FD"/>
<path d="M32.9987 20H30.832V22.1667H32.9987V20Z" fill="#5552FD"/>
<path d="M30.8346 22.1641H28.668V24.3307H30.8346V22.1641Z" fill="#9695F8"/>
<path d="M11.3346 22.1641H9.16797V24.3307H11.3346V22.1641Z" fill="#9695F8"/>
<path d="M9.16667 22.1641H7V24.3307H9.16667V22.1641Z" fill="#5552FD"/>
<path d="M32.9987 22.1641H30.832V24.3307H32.9987V22.1641Z" fill="#5552FD"/>
<path d="M24.3346 26.5H22.168V28.6667H24.3346V26.5Z" fill="#FED955"/>
<path d="M22.1667 15.6641H20V17.8307H22.1667V15.6641Z" fill="#FED955"/>
<path d="M22.1667 20H20V22.1667H22.1667V20Z" fill="#FED955"/>
<path d="M22.1667 22.1641H20V24.3307H22.1667V22.1641Z" fill="#FED955"/>
<path d="M22.1667 13.5H20V15.6667H22.1667V13.5Z" fill="#FED955"/>
<path d="M22.1667 24.3359H20V26.5026H22.1667V24.3359Z" fill="#FED955"/>
<path d="M17.8346 20H15.668V22.1667H17.8346V20Z" fill="#FED955"/>
<path d="M17.8346 17.8359H15.668V20.0026H17.8346V17.8359Z" fill="#FED955"/>
<path d="M17.8346 22.1641H15.668V24.3307H17.8346V22.1641Z" fill="#FED955"/>
<path d="M17.8346 13.5H15.668V15.6667H17.8346V13.5Z" fill="#FED955"/>
<path d="M17.8346 24.3359H15.668V26.5026H17.8346V24.3359Z" fill="#FED955"/>
<path d="M24.3346 20H22.168V22.1667H24.3346V20Z" fill="#FED955"/>
<path d="M24.3346 17.8359H22.168V20.0026H24.3346V17.8359Z" fill="#FED955"/>
<path d="M24.3346 22.1641H22.168V24.3307H24.3346V22.1641Z" fill="#FED955"/>
<path d="M24.3346 13.5H22.168V15.6667H24.3346V13.5Z" fill="#FED955"/>
<path d="M24.3346 24.3359H22.168V26.5026H24.3346V24.3359Z" fill="#FED955"/>
<path d="M19.9987 11.3359H17.832V13.5026H19.9987V11.3359Z" fill="#FED955"/>
<path d="M19.9987 26.5H17.832V28.6667H19.9987V26.5Z" fill="#FED955"/>
<path d="M17.8346 11.3359H15.668V13.5026H17.8346V11.3359Z" fill="#FED955"/>
<path d="M17.8346 26.5H15.668V28.6667H17.8346V26.5Z" fill="#FED955"/>
<path d="M19.9987 15.6641H17.832V17.8307H19.9987V15.6641Z" fill="#FED955"/>
<path d="M19.9987 20H17.832V22.1667H19.9987V20Z" fill="#FED955"/>
<path d="M17.8346 15.6641H15.668V17.8307H17.8346V15.6641Z" fill="#5552FD"/>
<path d="M22.1667 17.8359H20V20.0026H22.1667V17.8359Z" fill="#5552FD"/>
<path d="M26.4987 15.6641H24.332V17.8307H26.4987V15.6641Z" fill="#5552FD"/>
<path d="M26.4987 20H24.332V22.1667H26.4987V20Z" fill="#5552FD"/>
<path d="M26.4987 17.8359H24.332V20.0026H26.4987V17.8359Z" fill="#5552FD"/>
<path d="M26.4987 22.1641H24.332V24.3307H26.4987V22.1641Z" fill="#5552FD"/>
<path d="M26.4987 13.5H24.332V15.6667H26.4987V13.5Z" fill="#5552FD"/>
<path d="M26.4987 24.3359H24.332V26.5026H26.4987V24.3359Z" fill="#5552FD"/>
<path d="M15.6667 15.6641H13.5V17.8307H15.6667V15.6641Z" fill="#5552FD"/>
<path d="M15.6667 20H13.5V22.1667H15.6667V20Z" fill="#5552FD"/>
<path d="M15.6667 17.8359H13.5V20.0026H15.6667V17.8359Z" fill="#5552FD"/>
<path d="M15.6667 22.1641H13.5V24.3307H15.6667V22.1641Z" fill="#5552FD"/>
<path d="M15.6667 13.5H13.5V15.6667H15.6667V13.5Z" fill="#5552FD"/>
<path d="M15.6667 24.3359H13.5V26.5026H15.6667V24.3359Z" fill="#5552FD"/>
<path d="M24.3346 15.6641H22.168V17.8307H24.3346V15.6641Z" fill="#5552FD"/>
<path d="M19.9987 17.8359H17.832V20.0026H19.9987V17.8359Z" fill="#5552FD"/>
<path d="M19.9987 22.1641H17.832V24.3307H19.9987V22.1641Z" fill="#FED955"/>
<path d="M19.9987 13.5H17.832V15.6667H19.9987V13.5Z" fill="#FED955"/>
<path d="M19.9987 24.3359H17.832V26.5026H19.9987V24.3359Z" fill="#FED955"/>
<path d="M28.6667 15.6641H26.5V17.8307H28.6667V15.6641Z" fill="#FED955"/>
<path d="M28.6667 20H26.5V22.1667H28.6667V20Z" fill="#FED955"/>
<path d="M28.6667 17.8359H26.5V20.0026H28.6667V17.8359Z" fill="#FED955"/>
<path d="M28.6667 22.1641H26.5V24.3307H28.6667V22.1641Z" fill="#FED955"/>
</g>
<defs>
<clipPath id="clip0_5488_245250">
<rect width="26" height="26" fill="white" transform="translate(7 7)"/>
</clipPath>
</defs>
</svg>
