<svg width="40" height="41" viewBox="0 0 40 41" fill="none" xmlns="http://www.w3.org/2000/svg">
<circle cx="20" cy="20.1178" r="20" fill="white"/>
<mask id="mask0_29_40" style="mask-type:luminance" maskUnits="userSpaceOnUse" x="4" y="4" width="32" height="32">
<path d="M35.7271 4.23129H4.39697V35.9821H35.7271V4.23129Z" fill="white"/>
</mask>
<g mask="url(#mask0_29_40)">
<path d="M14.7652 35.9821C14.449 35.9821 14.2586 35.6318 14.4305 35.3664L18.9315 28.4199C18.9734 28.3553 18.9956 28.28 18.9956 28.2031V24.4821C18.9956 24.2618 19.1741 24.0833 19.3944 24.0833H20.9961C21.2164 24.0833 21.3949 24.2618 21.3949 24.4821V28.2031C21.3949 28.28 21.4173 28.3553 21.459 28.4199L25.9601 35.3664C26.132 35.6318 25.9415 35.9821 25.6253 35.9821H14.7652Z" fill="url(#paint0_linear_29_40)"/>
<path d="M19.3973 16.1301C19.177 16.1301 18.9985 15.9516 18.9985 15.7313V12.0104C18.9985 11.9334 18.9762 11.858 18.9343 11.7934L14.431 4.84704C14.259 4.58171 14.4495 4.23129 14.7657 4.23129H25.6256C25.9417 4.23129 26.1322 4.58162 25.9603 4.84696L21.4593 11.7935C21.4175 11.858 21.3952 11.9334 21.3952 12.0103V15.7313C21.3952 15.9516 21.2167 16.1301 20.9964 16.1301H19.3973Z" fill="url(#paint1_linear_29_40)"/>
<path d="M4.39697 14.6553C4.39697 14.3383 4.749 14.148 5.01424 14.3217L11.9194 18.8428C11.9843 18.8853 12.0603 18.9079 12.1379 18.9079H15.835C16.0552 18.9079 16.2338 19.0865 16.2338 19.3067V20.9201C16.2338 21.1402 16.0552 21.3189 15.835 21.3189H12.1379C12.0603 21.3189 11.9843 21.3415 11.9194 21.384L5.01424 25.9051C4.749 26.0788 4.39697 25.8885 4.39697 25.5715V14.6553Z" fill="url(#paint2_linear_29_40)"/>
<path d="M5.18331 27.4689C4.96046 27.2449 5.07417 26.863 5.38326 26.7974L13.4519 25.0856C13.5278 25.0695 13.5973 25.0316 13.652 24.9767L16.2658 22.3481C16.4218 22.1912 16.6756 22.1912 16.8315 22.3481L17.9648 23.4885C18.1194 23.6442 18.1192 23.8954 17.9645 24.051L15.3471 26.681C15.2927 26.7356 15.2553 26.8047 15.2394 26.8802L13.5361 34.9885C13.4709 35.2989 13.0869 35.4127 12.8631 35.1878L5.18331 27.4689Z" fill="url(#paint3_linear_29_40)"/>
<path d="M13.4529 15.1905C13.3994 15.1394 13.3326 15.1041 13.2602 15.0887L5.38319 13.4161C5.07415 13.3504 4.96048 12.9686 5.18331 12.7447L12.8632 5.02562C13.087 4.80074 13.471 4.91445 13.5362 5.22492L15.2396 13.3332C15.2554 13.4086 15.2927 13.4778 15.3471 13.5325L17.9646 16.1649C18.1194 16.3205 18.1194 16.5719 17.9645 16.7274L16.8245 17.8729C16.6714 18.0267 16.4232 18.0299 16.2663 17.8798L13.4529 15.1905Z" fill="url(#paint4_linear_29_40)"/>
<path d="M25.1572 26.8804C25.1414 26.8049 25.1039 26.7355 25.0494 26.6808L22.4297 24.051C22.2749 23.8954 22.2747 23.644 22.4293 23.4884L23.5626 22.3479C23.7184 22.1911 23.9722 22.1911 24.1281 22.3478L26.7447 24.9769C26.7993 25.0318 26.8689 25.0695 26.9446 25.0856L35.0108 26.7974C35.3198 26.863 35.4335 27.2447 35.2107 27.4687L27.531 35.1875C27.3073 35.4125 26.9231 35.2987 26.858 34.9881L25.1572 26.8804Z" fill="url(#paint5_linear_29_40)"/>
<path d="M22.3784 16.7714C22.2235 16.6158 22.2235 16.3643 22.3784 16.2087L24.9983 13.5764C25.0526 13.5217 25.09 13.4524 25.1058 13.3769L26.8067 5.26903C26.8719 4.95851 27.2559 4.8447 27.4796 5.06963L35.1593 12.7884C35.3823 13.0124 35.2685 13.3942 34.9594 13.4598L26.8933 15.1716C26.8175 15.1877 26.7481 15.2255 26.6933 15.2804L24.0766 17.9098C23.9207 18.0663 23.6672 18.0663 23.5112 17.9098L22.3784 16.7714Z" fill="url(#paint6_linear_29_40)"/>
</g>
<defs>
<linearGradient id="paint0_linear_29_40" x1="7.92149" y1="8.00366" x2="31.9525" y2="34.2425" gradientUnits="userSpaceOnUse">
<stop stop-color="#EF6FC4"/>
<stop offset="1" stop-color="#FF0C3C"/>
</linearGradient>
<linearGradient id="paint1_linear_29_40" x1="4.72138" y1="10.7602" x2="36.7343" y2="27.9715" gradientUnits="userSpaceOnUse">
<stop stop-color="#EF6FC4"/>
<stop offset="1" stop-color="#FF0C3C"/>
</linearGradient>
<linearGradient id="paint2_linear_29_40" x1="6.47427" y1="11.7751" x2="14.8053" y2="26.3097" gradientUnits="userSpaceOnUse">
<stop offset="0.273943" stop-color="#EF6FC4"/>
<stop offset="1" stop-color="#FF0C3C"/>
</linearGradient>
<linearGradient id="paint3_linear_29_40" x1="8.23529" y1="7.21776" x2="32.6273" y2="33.1124" gradientUnits="userSpaceOnUse">
<stop stop-color="#EF6FC4"/>
<stop offset="1" stop-color="#FF0C3C"/>
</linearGradient>
<linearGradient id="paint4_linear_29_40" x1="4.60771" y1="3.60051" x2="23.6371" y2="24.207" gradientUnits="userSpaceOnUse">
<stop offset="0.496592" stop-color="#EF6FC4"/>
<stop offset="1" stop-color="#FF0C3C"/>
</linearGradient>
<linearGradient id="paint5_linear_29_40" x1="8.23506" y1="8.00366" x2="32.632" y2="32.8764" gradientUnits="userSpaceOnUse">
<stop offset="0.245" stop-color="#EF6FC4"/>
<stop offset="1" stop-color="#FF0C3C"/>
</linearGradient>
<linearGradient id="paint6_linear_29_40" x1="5.30315" y1="11.2741" x2="35.0216" y2="29.7978" gradientUnits="userSpaceOnUse">
<stop stop-color="#EF6FC4"/>
<stop offset="1" stop-color="#FF0C3C"/>
</linearGradient>
</defs>
</svg>
