<svg viewBox="0 0 148 148" fill="none" xmlns="http://www.w3.org/2000/svg">
    <rect x="144.014" y="144.013" width="140.027" height="140.027" rx="70.013"
        transform="rotate(-180 144.014 144.013)" fill="url(#a)" stroke="url(#b)" stroke-width="6" />
    <mask id="c" maskUnits="userSpaceOnUse" x="42" y="26" width="64" height="96"
        style="mask-type:alpha">
        <path fill-rule="evenodd" clip-rule="evenodd"
            d="m43.292 76.964-.565.93 1.557 2.184c-.477-1.019-.79-2.094-.992-3.114m1.844-3.037q9.07 4.544 25.646-2.666 17.416-7.575 28.54-1.838.697.36 1.288.76L74.061 26.299zm59.753 3.329q.063.544.08 1.068l.306-.43zm-2.182 4.252c-8.382-6.373-17.504-5.964-29.99-.533q-14.99 6.52-23.842 3.428a7.4 7.4 0 0 1-2.625-1.569l27.811 38.99z"
            fill="#fff" />
    </mask>
    <g mask="url(#c)">
        <path d="m74.069 26.176-.92 2.146v45.8h.92l33.701-4.685z" fill="#7591F2" />
        <path d="m74.061 25.933-29.51 48.9 29.51 17.42z" fill="#fff" />
        <path d="m73.992 80.47-.363 17.83v22.586l.363 1.059 30.856-43.564-13.811-10.222z"
            fill="#7591F2" />
        <path d="M74.061 121.945V80.471h-29.51z" fill="#fff" />
    </g>
    <defs>
        <linearGradient id="a" x1="220.027" y1="147.013" x2="218.595" y2="393.254"
            gradientUnits="userSpaceOnUse">
            <stop stop-color="#3068EF" />
            <stop offset="1" stop-color="#1322AC" />
        </linearGradient>
        <linearGradient id="b" x1="220.027" y1="293.118" x2="220.027" y2="147.093"
            gradientUnits="userSpaceOnUse">
            <stop stop-color="#7CACFF" />
            <stop offset="1" stop-color="#CFDFFF" />
        </linearGradient>
    </defs>
</svg>
  