<svg xmlns="http://www.w3.org/2000/svg" viewBox="0 0 164 164" fill="#fff">
  <defs>
    <style>
      .cls-1 {
        fill: none;
      }

      .cls-2,
      .cls-3,
      .cls-4 {
        fill: #102336;
      }

      .cls-3 {
        opacity: 0.8;
      }

      .cls-3,
      .cls-4 {
        isolation: isolate;
      }

      .cls-4 {
        opacity: 0.6;
      }
    </style>
  </defs>
  <g id="Layer_2" data-name="Layer 2">
    <g id="Layer_1-2" data-name="Layer 1">
      <g id="prisma-icon-dark">
        <rect class="cls-1" width="164" height="164" />
        <path class="cls-2"
          d="M80.60571,14.98843l-10.045,16.9408L82.00091,38.7055l11.44016-6.77627L83.396,14.98843A1.57244,1.57244,0,0,0,80.60571,14.98843Z" />
        <path class="cls-2" d="M79.771,42.37624V58.75237L61.35518,47.45852,68.33086,35.6Z" />
        <path class="cls-2" d="M102.64583,47.45788,84.23,58.46944V42.37575L95.9492,35.317Z" />
        <path class="cls-2" d="M79.76325,63.55189V81.90428L51.30237,64.68116l7.81272-13.27011Z" />
        <path class="cls-2" d="M112.6916,64.39824,83.95177,81.90379V63.55124l20.927-12.42311Z" />
        <path class="cls-3"
          d="M79.76924,86.70462v21.45825L41.2634,85.01063a1.79331,1.79331,0,0,1-.55806-2.54114l8.37083-14.11727Z" />
        <path class="cls-3"
          d="M122.73656,85.01063,83.95177,108.4453V86.98689l30.97215-18.63467,8.37072,14.11727A1.85207,1.85207,0,0,1,122.73656,85.01063Z" />
        <path class="cls-4"
          d="M123.01561,91.34325l-20.648,29.64623L83.95177,132.28332v-18.9171l38.22688-23.1524C122.73656,90.21382,123.29464,90.77854,123.01561,91.34325Z" />
        <path class="cls-4"
          d="M80.04537,113.3659v18.91726L61.35048,120.42461,41.26057,91.34309a.62031.62031,0,0,1,.83708-.84715Z" />
        <path class="cls-4"
          d="M81.99832,139.34123l-14.78848-9.882,13.67232,19.7641a1.84959,1.84959,0,0,0,2.79024,0l12.83537-19.48182Z" />
      </g>
    </g>
  </g>
</svg>