<svg width="40" height="40" viewBox="0 0 40 40" fill="none" xmlns="http://www.w3.org/2000/svg">
<g clip-path="url(#clip0_1719_149272)">
<path d="M20 40C31.0457 40 40 31.0457 40 20C40 8.9543 31.0457 0 20 0C8.9543 0 0 8.9543 0 20C0 31.0457 8.9543 40 20 40Z" fill="black"/>
<path d="M17.3131 13.4961H19.9208L14.014 26.5121H11.4062L17.3131 13.4961Z" fill="white"/>
<path d="M22.5296 13.4961H19.9219L25.8287 26.5121H28.4364L22.5296 13.4961Z" fill="white"/>
<path d="M19.9001 19.9258L22.5033 26.5357H17.2969L19.9001 19.9258Z" fill="white"/>
<path d="M34.2563 22.0098C33.2506 28.9674 27.2629 34.3129 20.0267 34.3129C12.7905 34.3129 6.80284 28.9674 5.79709 22.0098H3.55469C4.57581 30.1986 11.5613 36.5351 20.0267 36.5351C28.4921 36.5351 35.4776 30.1986 36.4987 22.0098H34.2563Z" fill="white"/>
<path d="M5.79709 17.8594C6.80284 10.9017 12.7905 5.55621 20.0267 5.55621C27.2629 5.55621 33.2506 10.9017 34.2563 17.8594H36.4987C35.4776 9.67054 28.4921 3.33398 20.0267 3.33398C11.5613 3.33398 4.57581 9.67054 3.55469 17.8594H5.79709Z" fill="white"/>
</g>
<defs>
<clipPath id="clip0_1719_149272">
<rect width="40" height="40" rx="20" fill="white"/>
</clipPath>
</defs>
</svg>
