<svg width="40" height="40" viewBox="0 0 40 40" fill="none" xmlns="http://www.w3.org/2000/svg">
<rect width="40" height="40" rx="20" fill="white"/>
<rect x="0.5" y="0.5" width="39" height="39" rx="19.5" stroke="black" stroke-opacity="0.08"/>
<path fill-rule="evenodd" clip-rule="evenodd" d="M30.3232 26.4766H22.3217L20.9439 26.0616L20.1587 25.825L13.5823 26.4763C16.2599 25.1808 19.0689 24.1766 21.961 23.4809C22.4499 22.2129 22.7565 20.8819 22.8718 19.5278C22.6074 18.0807 21.3113 16.7144 19.9939 15.8098L19.6897 15.8902C18.7623 16.5178 17.9146 17.2557 17.1651 18.0877C16.6698 18.9228 16.3638 20.3934 16.0913 21.3666C15.4683 20.1908 15.0349 18.4338 15.316 17.2656C16.1024 16.6393 16.9956 16.1602 17.9524 15.8514C16.506 16.008 15.238 16.1343 13.7799 16.7365C13.0025 17.323 11.8005 18.7242 11.1476 19.3243C11.2425 17.8735 11.9874 15.6557 12.6848 14.3858C14.7398 14.1564 16.8198 14.4266 18.748 15.1734C17.1245 14.2489 15.4411 13.4337 13.7092 12.7333C12.5425 12.5713 11.4529 12.4974 10.3819 12.4454C11.7116 11.4015 13.1148 10.4845 14.8012 10.056C16.459 11.3913 17.9748 12.8939 19.3246 14.54C19.1258 13.5986 19.1242 12.6262 19.32 11.6842C20.2196 10.8251 22.2161 9.7079 23.5684 9.23314C23.1006 9.71154 21.4218 11.8753 20.9569 12.4449C20.49 13.7218 20.4972 14.02 20.1644 15.1276C21.5599 14.055 23.0657 13.1343 24.6565 12.3812C25.6926 13.1578 26.4037 14.2701 27.03 15.47C26.2583 15.2309 25.4741 15.0342 24.6809 14.8809C23.2339 15.0435 21.8017 15.3186 20.3974 15.7035C22.1846 16.4918 24.085 18.0404 24.742 19.3378C24.8479 20.6358 24.8029 21.9418 24.6081 23.2295C26.2184 23.7375 27.7638 24.4321 29.2127 25.2991V12.1831L29.2067 11.2557C29.1436 10.1082 28.6441 9.02833 27.8106 8.23715C26.9771 7.44597 25.8727 7.00337 24.7235 7L13.485 7C12.2954 7.00336 11.1555 7.47739 10.3143 8.31853C9.47302 9.15966 8.99886 10.2995 8.99536 11.4892V26.8312C8.99893 28.0208 9.47307 29.1606 10.3142 30.0017C11.1554 30.8428 12.2952 31.3169 13.4848 31.3204H20.0264C21.7541 32.3123 23.2821 32.9324 24.254 33C25.5821 32.2988 30.3107 28.1102 31.0046 26.4766H30.3232Z" fill="url(#paint0_radial_40000212_10183)"/>
<path d="M28.8839 12.1831V12.1843V24.9702H9.32418V11.4896C9.32755 10.3871 9.76707 9.33065 10.5468 8.55105C11.3264 7.77145 12.3829 7.33206 13.4855 7.32882H24.723C25.7882 7.33207 26.8117 7.74233 27.5842 8.47563C28.355 9.20724 28.8176 10.2052 28.878 11.2659L28.8839 12.1831Z" stroke="url(#paint1_linear_40000212_10183)" stroke-width="0.657647"/>
<defs>
<radialGradient id="paint0_radial_40000212_10183" cx="0" cy="0" r="1" gradientUnits="userSpaceOnUse" gradientTransform="translate(20.1754 17.8512) rotate(90.6633) scale(15.1498 12.8245)">
<stop stop-color="#F3E3AF"/>
<stop offset="1" stop-color="#F1C474"/>
</radialGradient>
<linearGradient id="paint1_linear_40000212_10183" x1="19.104" y1="7" x2="19.104" y2="25.2991" gradientUnits="userSpaceOnUse">
<stop stop-color="#E1BD83"/>
<stop offset="1" stop-color="#C6B18F" stop-opacity="0"/>
</linearGradient>
</defs>
</svg>
