<svg viewBox="0 0 40 40" fill="none" xmlns="http://www.w3.org/2000/svg">
<path d="M0 20C0 8.9543 8.9543 0 20 0C31.0457 0 40 8.9543 40 20C40 31.0457 31.0457 40 20 40C8.9543 40 0 31.0457 0 20Z" fill="#111111"/>
<path d="M19.9989 7L23.2204 10.2992L15.1083 18.4113L11.8867 15.1898L19.9989 7Z" fill="#F0B90B" stroke="#F0B90B" stroke-width="0.0832318"/>
<path d="M24.8894 11.8906L28.111 15.1898L15.1083 28.1925L11.8867 24.971L24.8894 11.8906Z" fill="#F0B90B" stroke="#F0B90B" stroke-width="0.0832318"/>
<path d="M10.2177 16.7812L13.4392 20.0804L10.2177 23.302L6.99609 20.0804L10.2177 16.7812Z" fill="#F0B90B" stroke="#F0B90B" stroke-width="0.0832318"/>
<path d="M29.7801 16.7812L33.0016 20.0804L19.9989 33.0832L16.7773 29.8616L29.7801 16.7812Z" fill="#F0B90B" stroke="#F0B90B" stroke-width="0.0832318"/>
</svg>
