<svg width="40" height="40" viewBox="0 0 40 40" fill="none" xmlns="http://www.w3.org/2000/svg">
<path d="M0 20C0 8.95431 8.95431 0 20 0V0C31.0457 0 40 8.95431 40 20V20C40 31.0457 31.0457 40 20 40V40C8.95431 40 0 31.0457 0 20V20Z" fill="white"/>
<path d="M20 39.5C9.23045 39.5 0.5 30.7696 0.5 20C0.5 9.23045 9.23045 0.5 20 0.5C30.7696 0.5 39.5 9.23045 39.5 20C39.5 30.7696 30.7696 39.5 20 39.5Z" stroke="black" stroke-opacity="0.08"/>
<path d="M13.3337 11.6201C9.03343 11.6201 7.54506 21.618 7.22087 24.3256C7.19318 24.5569 7.47862 24.6772 7.65131 24.5207C16.1209 16.8417 20.0451 28.3802 23.4065 28.3802C21.5251 28.3802 20.1466 23.074 18.4146 18.4328C17.0684 14.8256 15.5088 11.6201 13.3337 11.6201Z" fill="url(#paint0_linear_40000774_26033)"/>
<path d="M32.3184 24.2484C32.4807 24.4476 32.802 24.3165 32.7623 24.0626C32.3757 21.5894 31.0999 15.0469 28.4221 15.0469C26.7763 15.0469 26.3558 18.3592 25.9339 21.6819L25.9326 21.6924C29.531 21.6924 30.8979 22.5061 32.3184 24.2484Z" fill="url(#paint1_linear_40000774_26033)"/>
<path d="M18.4146 18.4323C20.1465 23.0735 21.5251 28.3797 23.4064 28.3797C25.0818 28.3797 25.5085 25.0326 25.9326 21.6924L25.9339 21.6819C26.3557 18.3592 26.7762 15.0469 28.422 15.0469C25.1201 15.0469 23.4064 27.1259 18.4146 18.4323Z" fill="#DDB1FF"/>
<defs>
<linearGradient id="paint0_linear_40000774_26033" x1="7.21899" y1="17.556" x2="32.9371" y2="17.556" gradientUnits="userSpaceOnUse">
<stop stop-color="#0026AB"/>
<stop offset="1" stop-color="#5A38E2"/>
</linearGradient>
<linearGradient id="paint1_linear_40000774_26033" x1="7.21905" y1="17.5555" x2="32.9371" y2="17.5555" gradientUnits="userSpaceOnUse">
<stop stop-color="#0026AB"/>
<stop offset="1" stop-color="#5A38E2"/>
</linearGradient>
</defs>
</svg>
