<svg width="40" height="40" viewBox="0 0 40 40" fill="none" xmlns="http://www.w3.org/2000/svg">
    <rect width="40" height="40" rx="20" fill="#091527"/>
    <path fill-rule="evenodd" clip-rule="evenodd" d="M21.2079 8.56738H14.5674C11.2537 8.56738 8.56738 11.2537 8.56738 14.5674V21.2079L21.2079 8.56738ZM8.58959 25.9524C8.85306 29.0227 11.4288 31.4326 14.5674 31.4326H19.2434L19.3758 21.7662L16.0758 18.4662L8.58959 25.9524ZM22.6143 31.4326H25.4326C28.7463 31.4326 31.4326 28.7463 31.4326 25.4326V22.6832L22.7321 22.8351L22.6143 31.4326ZM31.4326 19.3121L21.8556 19.4793L18.4592 16.0828L25.9524 8.58959C29.0227 8.85306 31.4326 11.4288 31.4326 14.5674V19.3121Z" fill="url(#paint0_linear_40000015_289991)"/>
    <defs>
        <linearGradient id="paint0_linear_40000015_289991" x1="12.2575" y1="30.4814" x2="28.9642" y2="10.0243" gradientUnits="userSpaceOnUse">
            <stop stop-color="#3065AC"/>
            <stop offset="1" stop-color="#4C91E5"/>
        </linearGradient>
    </defs>
</svg>
