<svg width="40" height="40" viewBox="0 0 40 40" fill="none" xmlns="http://www.w3.org/2000/svg">
<g clip-path="url(#clip0_1719_151660)">
<path d="M40 20C40 8.9543 31.0457 0 20 0C8.9543 0 0 8.9543 0 20C0 31.0457 8.9543 40 20 40C31.0457 40 40 31.0457 40 20Z" fill="#F6F7FC"/>
<path fill-rule="evenodd" clip-rule="evenodd" d="M27.2638 18.185C27.2638 22.2669 23.9605 25.576 19.8858 25.576C15.8111 25.576 12.5078 22.2669 12.5078 18.185C12.5078 11.9234 19.7035 4.15039 19.8858 4.15039C20.0682 4.15039 27.2638 11.9234 27.2638 18.185ZM24.2787 18.1857C24.2787 20.6165 22.3116 22.587 19.885 22.587C17.4585 22.587 15.4913 20.6165 15.4913 18.1857C15.4913 15.7776 17.4217 13.8212 19.8169 13.7848V18.3213C19.8169 18.3213 22.6003 17.2044 23.96 16.537C24.1655 17.0461 24.2787 17.6027 24.2787 18.1857Z" fill="url(#paint0_linear_1719_151660)"/>
<path d="M18.2288 29.943L30.1787 28.6616C30.3179 29.9698 30.285 31.2941 30.0796 32.5947L18.1797 31.8561C18.2801 31.2222 18.2972 30.5792 18.2288 29.943Z" fill="url(#paint1_linear_1719_151660)"/>
<path d="M21.3614 26.4453L9.57812 28.8144C9.83721 30.104 10.2652 31.3574 10.8507 32.5365L21.9811 28.2554C21.6955 27.681 21.4868 27.0726 21.3614 26.4453Z" fill="url(#paint2_linear_1719_151660)"/>
</g>
<defs>
<linearGradient id="paint0_linear_1719_151660" x1="19.7997" y1="4.59481" x2="19.966" y2="25.4493" gradientUnits="userSpaceOnUse">
<stop stop-color="#FF05FF"/>
<stop offset="0.56" stop-color="#8323FF"/>
<stop offset="0.76" stop-color="#8F00FF"/>
<stop offset="0.985" stop-color="#4E68FF"/>
</linearGradient>
<linearGradient id="paint1_linear_1719_151660" x1="32.63" y1="28.3293" x2="20.537" y2="31.7673" gradientUnits="userSpaceOnUse">
<stop stop-color="#DFB6FF"/>
<stop offset="0.49109" stop-color="#8F00FF"/>
<stop offset="0.995" stop-color="#5263FF"/>
</linearGradient>
<linearGradient id="paint2_linear_1719_151660" x1="20.5418" y1="28.3281" x2="7.30384" y2="29.5025" gradientUnits="userSpaceOnUse">
<stop offset="0.015" stop-color="#5066FF"/>
<stop offset="0.538411" stop-color="#8F00FF"/>
<stop offset="1" stop-color="#DFB6FF"/>
</linearGradient>
<clipPath id="clip0_1719_151660">
<rect width="40" height="40" rx="20" fill="white"/>
</clipPath>
</defs>
</svg>
